<svg width="30" height="30" viewBox="0 0 30 30" fill="none" xmlns="http://www.w3.org/2000/svg">
<g clip-path="url(#clip0_9532_131833)">
<path d="M0 17.2322V18.3814C0 18.6466 0.245098 18.8676 0.539216 18.8676H29.4608C29.7549 18.8676 30 18.6466 30 18.3814V17.2322C30 16.967 29.7549 16.746 29.4608 16.746H0.539216C0.245098 16.7902 0 16.967 0 17.2322ZM20.6373 6.40274C20.5882 6.27013 20.5392 6.18173 20.5392 6.04912C20.5392 6.00492 20.5392 6.00492 20.4902 5.96072C20.4412 5.82811 20.4412 5.69551 20.4412 5.5629C20.4412 5.4303 20.4412 5.29769 20.4902 5.16509V5.07668C20.5392 4.94408 20.5392 4.85567 20.5882 4.72307V4.67887L20.7353 4.41366C20.5392 4.32525 20.3431 4.32525 20.1471 4.32525C19.3627 4.32525 18.7745 4.89988 18.7745 5.5629C18.7745 6.27013 19.4118 6.80055 20.1471 6.80055C20.3431 6.80055 20.5392 6.75635 20.7353 6.71215C20.7843 6.62375 20.7353 6.49114 20.6373 6.40274ZM22.8922 4.28105C22.549 4.28105 22.2059 4.41366 21.9118 4.63467C21.8627 4.67887 21.8137 4.76727 21.7647 4.81147C21.6176 5.03248 21.5196 5.25349 21.5196 5.5187C21.5196 5.87232 21.6667 6.18173 21.9608 6.44694C22.2059 6.66795 22.549 6.80055 22.9412 6.80055C23.7255 6.80055 24.3137 6.22593 24.3137 5.5629C24.3137 4.85567 23.6765 4.28105 22.8922 4.28105ZM22.8922 4.28105C22.549 4.28105 22.2059 4.41366 21.9118 4.63467C21.8627 4.67887 21.8137 4.76727 21.7647 4.81147C21.6176 5.03248 21.5196 5.25349 21.5196 5.5187C21.5196 5.87232 21.6667 6.18173 21.9608 6.44694C22.2059 6.66795 22.549 6.80055 22.9412 6.80055C23.7255 6.80055 24.3137 6.22593 24.3137 5.5629C24.3137 4.85567 23.6765 4.28105 22.8922 4.28105ZM20.5392 5.03248C20.5882 4.89988 20.5882 4.81147 20.6373 4.67887V4.63467L20.7843 4.36945C20.5882 4.28105 20.3922 4.28105 20.1961 4.28105C19.4118 4.28105 18.8235 4.85567 18.8235 5.5187C18.8235 6.22593 19.4608 6.75635 20.1961 6.75635C20.3922 6.75635 20.5882 6.71215 20.7843 6.66795L20.6373 6.40274V6.35853C20.5882 6.22593 20.5392 6.13753 20.5392 6.00492C20.5392 5.96072 20.5392 5.96072 20.4902 5.91652C20.4412 5.78391 20.4412 5.65131 20.4412 5.5187C20.4412 5.3861 20.4412 5.25349 20.4902 5.12088C20.5392 5.12088 20.5392 5.07668 20.5392 5.03248ZM27.8431 3.13181C27.549 1.80575 26.2745 0.833313 24.7549 0.833313C24.5588 0.833313 24.3627 0.833313 24.1667 0.877515L2.94118 4.59046C2.10784 4.72307 1.37255 5.16509 0.931373 5.78391C0.441177 6.40274 0.294118 7.15417 0.441177 7.9498L1.27451 11.6627C1.86275 11.3975 2.5 11.2649 3.18627 11.2649H27.0588C27.1078 11.2649 27.1569 11.2649 27.2059 11.3091C27.3039 11.3091 27.402 11.3533 27.5 11.3533C27.549 11.3533 27.598 11.3975 27.6961 11.3975C27.7941 11.3975 27.8922 11.4417 27.9412 11.4417C27.9902 11.4417 28.0882 11.4859 28.1373 11.4859C28.2353 11.5301 28.2843 11.5301 28.3824 11.5743C28.4314 11.6185 28.4804 11.6185 28.5784 11.6627C28.6275 11.7069 28.7255 11.7069 28.7745 11.7512C28.8235 11.7954 28.8726 11.7954 28.9706 11.8396C29.0196 11.8838 29.1176 11.928 29.1667 11.9722C29.2157 12.0164 29.2647 12.0164 29.3137 12.0606C29.3627 12.1048 29.4608 12.149 29.5098 12.1932L29.6569 12.3258C29.7059 12.37 29.7549 12.4142 29.8529 12.4584C29.902 12.5026 29.902 12.5026 29.951 12.5026L27.8431 3.13181ZM22.8922 7.72879C22.402 7.72879 21.9608 7.59618 21.5686 7.37517C21.1765 7.59618 20.7353 7.72879 20.2451 7.72879C18.9216 7.72879 17.7941 6.75635 17.7941 5.5187C17.7941 4.28105 18.8726 3.30861 20.2451 3.30861C20.7353 3.30861 21.1765 3.44122 21.5686 3.66223C21.9608 3.44122 22.402 3.30861 22.8922 3.30861C24.2647 3.30861 25.3431 4.28105 25.3431 5.5187C25.3431 6.75635 24.2647 7.72879 22.8922 7.72879ZM22.8922 4.28105C22.549 4.28105 22.2059 4.41366 21.9118 4.63467C21.8627 4.67887 21.8137 4.76727 21.7647 4.81147C21.6176 5.03248 21.5196 5.25349 21.5196 5.5187C21.5196 5.87232 21.6667 6.18173 21.9608 6.44694C22.2059 6.66795 22.549 6.80055 22.9412 6.80055C23.7255 6.80055 24.3137 6.22593 24.3137 5.5629C24.3137 4.85567 23.6765 4.28105 22.8922 4.28105ZM20.5392 5.03248C20.5882 4.89988 20.5882 4.81147 20.6373 4.67887V4.63467L20.7843 4.36945C20.5882 4.28105 20.3922 4.28105 20.1961 4.28105C19.4118 4.28105 18.8235 4.85567 18.8235 5.5187C18.8235 6.22593 19.4608 6.75635 20.1961 6.75635C20.3922 6.75635 20.5882 6.71215 20.7843 6.66795L20.6373 6.40274V6.35853C20.5882 6.22593 20.5392 6.13753 20.5392 6.00492C20.5392 5.96072 20.5392 5.96072 20.4902 5.91652C20.4412 5.78391 20.4412 5.65131 20.4412 5.5187C20.4412 5.3861 20.4412 5.25349 20.4902 5.12088C20.5392 5.12088 20.5392 5.07668 20.5392 5.03248ZM26.5686 12.1932H3.43137C2.64706 12.1932 1.91176 12.4142 1.27451 12.812C0.441176 13.3424 0 14.1822 0 15.0663V15.3757C0 15.6409 0.245098 15.8619 0.539216 15.8619H29.4608C29.7549 15.8619 30 15.6409 30 15.3757V15.0663C30 13.475 28.4314 12.1932 26.5686 12.1932ZM0.539216 19.8401C0.245098 19.8401 0 20.0611 0 20.3263V26.2935C0 27.8848 1.51961 29.1666 3.43137 29.1666H26.5196C28.4314 29.1666 29.951 27.8848 29.951 26.2935V20.2821C29.951 20.0169 29.7059 19.7959 29.4118 19.7959L0.539216 19.8401ZM4.70588 26.824V27.6196H4.16667V26.8682C3.67647 26.8682 3.18628 26.7356 2.89216 26.5145L3.08824 26.0283C3.38235 26.2051 3.82353 26.3377 4.31373 26.3377C4.90196 26.3377 5.34314 26.0283 5.34314 25.5863C5.34314 25.1885 5 24.9233 4.36275 24.6581C3.48039 24.3487 2.9902 23.995 2.9902 23.332C2.9902 22.7132 3.48039 22.227 4.26471 22.0944V21.3429H4.80392V22.0944C5.29412 22.0944 5.63726 22.227 5.93137 22.3596L5.7353 22.8458C5.53922 22.7574 5.19608 22.5806 4.65686 22.5806C4.01961 22.5806 3.77451 22.9342 3.77451 23.2436C3.77451 23.6414 4.06863 23.8182 4.85294 24.1276C5.73529 24.4371 6.17647 24.8349 6.17647 25.5421C6.02941 26.1609 5.58824 26.6913 4.70588 26.824Z" fill="url(#paint0_linear_9532_131833)"/>
</g>
<defs>
<linearGradient id="paint0_linear_9532_131833" x1="15" y1="0.833313" x2="15" y2="29.1666" gradientUnits="userSpaceOnUse">
<stop stop-color="#5C5C5C"/>
<stop offset="1"/>
</linearGradient>
<clipPath id="clip0_9532_131833">
<rect width="30" height="30" fill="white"/>
</clipPath>
</defs>
</svg>
