<svg width="25" height="24" viewBox="0 0 25 24" fill="none" xmlns="http://www.w3.org/2000/svg">
<g clip-path="url(#clip0_9532_131842)">
<path fill-rule="evenodd" clip-rule="evenodd" d="M11.1836 13.7669C11.1836 14.1696 11.5339 14.4562 12.2358 14.6242V12.9416C11.5339 13.0936 11.1836 13.3682 11.1836 13.7669ZM8.81494 6.20975H16.1836L18.5975 1.57385C18.8631 0.815204 18.021 0.727206 17.2694 1.1312L16.1515 1.85251C15.3999 2.25784 14.4133 1.82451 13.9332 1.1592L13.5012 0.561877C13.021 -0.103441 12.1264 -0.190106 11.5032 0.367215L10.6684 1.11386C10.0452 1.67118 9.14332 1.89251 8.3275 1.60985L7.13368 1.1952C6.31932 0.911202 5.91652 1.28319 6.23322 2.02451L8.81494 6.21108V6.20975ZM9.3418 6.69107C9.05137 6.69107 8.81494 6.90573 8.81494 7.17239C8.81494 7.43905 9.04991 7.65371 9.3418 7.65371H15.6567C15.9472 7.65371 16.1836 7.43905 16.1836 7.17239C16.1836 6.90573 15.9486 6.69107 15.6567 6.69107H9.3418ZM13.2896 16.5468V18.4695C13.7186 18.4121 14.0485 18.2921 14.2688 18.1028C14.4892 17.9135 14.6045 17.7135 14.6045 17.5028C14.6045 17.0642 14.1637 16.7468 13.2881 16.5468H13.2896ZM16.1092 8.1337H8.89083C5.57356 10.379 2.5 13.6429 2.5 17.3895C2.5 22.6334 6.97752 24 12.5 24C18.0225 24 22.5 22.6334 22.5 17.3895C22.5 13.6442 19.4264 10.3803 16.1092 8.1337ZM15.2875 18.9708C14.8001 19.4454 14.1346 19.7108 13.2896 19.7761V20.8747H12.2373V19.7961C10.6524 19.6134 9.73584 18.8215 9.4819 17.4148L11.439 17.2388C11.5222 17.7668 11.7893 18.1455 12.2373 18.3655V16.3095C11.3587 16.0868 10.7326 15.7922 10.3576 15.4175C9.96351 15.0269 9.76941 14.5349 9.76941 13.9336C9.76941 13.3322 9.97957 12.8176 10.4072 12.4016C10.8158 12.0056 11.4244 11.7616 12.2373 11.675V10.779H13.2896V11.6723C14.676 11.8149 15.5064 12.4523 15.7896 13.5816L13.9317 13.8256C13.8135 13.4282 13.5989 13.1576 13.291 13.0149V14.8269C14.2761 15.0575 14.9781 15.3722 15.3955 15.7602C15.8231 16.1588 16.0406 16.6695 16.0406 17.2895C16.0406 17.9095 15.7896 18.4881 15.2875 18.9721V18.9708Z" fill="#808080"/>
</g>
<defs>
<clipPath id="clip0_9532_131842">
<rect width="24" height="24" fill="white" transform="translate(0.5)"/>
</clipPath>
</defs>
</svg>
