<svg xmlns="http://www.w3.org/2000/svg" width="119" height="119"><defs><clipPath id="a"><path d="M0 89V-.32h89.617V89z" clip-rule="evenodd"/></clipPath><clipPath id="b"><path d="M24.659 82.664c10.506 5.528 22.3 6.282 32.856 3.037s19.878-10.49 25.428-20.957C88.489 54.276 89.246 42.522 85.989 32 82.733 21.477 75.461 12.19 64.962 6.66c-10.5-5.528-22.294-6.28-32.85-3.034C21.556 6.87 12.234 14.118 6.684 24.58v.007C1.137 35.05.381 46.804 3.641 57.325c3.256 10.52 10.528 19.811 21.024 25.342zm-.794 1.498C12.95 78.412 5.394 68.758 2.01 57.82c-3.384-10.935-2.6-23.153 3.166-34.032v-.003C10.944 12.906 20.63 5.38 31.603 2.003 42.574-1.37 54.833-.59 65.749 5.158h.003c10.916 5.749 18.472 15.404 21.856 26.339s2.6 23.156-3.165 34.031v.007c-5.77 10.878-15.457 18.41-26.431 21.782-10.972 3.373-23.231 2.591-34.147-3.155" clip-rule="evenodd"/></clipPath><clipPath id="d"><path d="M24.659 82.664c10.506 5.528 22.3 6.282 32.856 3.037s19.878-10.49 25.428-20.957C88.489 54.276 89.246 42.522 85.989 32 82.733 21.477 75.461 12.19 64.962 6.66c-10.5-5.528-22.294-6.28-32.85-3.034C21.556 6.87 12.234 14.118 6.684 24.58v.007C1.137 35.05.381 46.804 3.641 57.325c3.256 10.52 10.528 19.811 21.024 25.342zm-.794 1.498C12.95 78.412 5.394 68.758 2.01 57.82c-3.384-10.935-2.6-23.153 3.166-34.032v-.003C10.944 12.906 20.63 5.38 31.603 2.003 42.574-1.37 54.833-.59 65.749 5.158h.003c10.916 5.749 18.472 15.404 21.856 26.339s2.6 23.156-3.165 34.031v.007c-5.77 10.878-15.457 18.41-26.431 21.782-10.972 3.373-23.231 2.591-34.147-3.155" clip-rule="evenodd"/></clipPath><clipPath id="e"><path d="M24.659 82.664c10.506 5.528 22.3 6.282 32.856 3.037s19.878-10.49 25.428-20.957C88.489 54.276 89.246 42.522 85.989 32 82.733 21.477 75.461 12.19 64.962 6.66c-10.5-5.528-22.294-6.28-32.85-3.034C21.556 6.87 12.234 14.118 6.684 24.58v.007C1.137 35.05.381 46.804 3.641 57.325c3.256 10.52 10.528 19.811 21.024 25.342zm-.794 1.498C12.95 78.412 5.394 68.758 2.01 57.82c-3.384-10.935-2.6-23.153 3.166-34.032v-.003C10.944 12.906 20.63 5.38 31.603 2.003 42.574-1.37 54.833-.59 65.749 5.158h.003c10.916 5.749 18.472 15.404 21.856 26.339s2.6 23.156-3.165 34.031v.007c-5.77 10.878-15.457 18.41-26.431 21.782-10.972 3.373-23.231 2.591-34.147-3.155" clip-rule="evenodd"/></clipPath><clipPath id="f"><path d="M30.7 85.478C8.09 77.754-3.923 53.331 3.868 30.926c7.794-22.409 32.44-34.31 55.05-26.587 22.61 7.721 34.624 32.147 26.83 54.553-7.791 22.405-32.44 34.307-55.048 26.586" clip-rule="evenodd"/></clipPath><clipPath id="h"><path d="M30.7 85.478C8.09 77.754-3.923 53.331 3.868 30.926c7.794-22.409 32.44-34.31 55.05-26.587 22.61 7.721 34.624 32.147 26.83 54.553-7.791 22.405-32.44 34.307-55.048 26.586" clip-rule="evenodd"/></clipPath><clipPath id="i"><path d="M30.7 85.478C8.09 77.754-3.923 53.331 3.868 30.926c7.794-22.409 32.44-34.31 55.05-26.587 22.61 7.721 34.624 32.147 26.83 54.553-7.791 22.405-32.44 34.307-55.048 26.586" clip-rule="evenodd"/></clipPath><clipPath id="j"><path d="M32.344 78.627c-18.558-6.911-28.019-27.609-21.135-46.23 6.887-18.623 27.507-28.118 46.065-21.21C75.83 18.1 85.292 38.797 78.408 57.42c-6.884 18.62-27.51 28.119-46.064 21.207" clip-rule="evenodd"/></clipPath><clipPath id="l"><path d="M32.344 78.627c-18.558-6.911-28.019-27.609-21.135-46.23 6.887-18.623 27.507-28.118 46.065-21.21C75.83 18.1 85.292 38.797 78.408 57.42c-6.884 18.62-27.51 28.119-46.064 21.207" clip-rule="evenodd"/></clipPath><clipPath id="m"><path d="M32.344 78.627c-18.558-6.911-28.019-27.609-21.135-46.23 6.887-18.623 27.507-28.118 46.065-21.21C75.83 18.1 85.292 38.797 78.408 57.42c-6.884 18.62-27.51 28.119-46.064 21.207" clip-rule="evenodd"/></clipPath><clipPath id="n"><path d="M9.991 46.426C9.148 27.125 24.165 10.798 43.534 9.958c19.366-.84 35.75 14.127 36.59 33.432.843 19.304-14.174 35.63-33.543 36.468-19.366.84-35.747-14.127-36.59-33.432" clip-rule="evenodd"/></clipPath><clipPath id="p"><path d="M9.991 46.426C9.148 27.125 24.165 10.798 43.534 9.958c19.366-.84 35.75 14.127 36.59 33.432.843 19.304-14.174 35.63-33.543 36.468-19.366.84-35.747-14.127-36.59-33.432" clip-rule="evenodd"/></clipPath><clipPath id="q"><path d="M9.991 46.426C9.148 27.125 24.165 10.798 43.534 9.958c19.366-.84 35.75 14.127 36.59 33.432.843 19.304-14.174 35.63-33.543 36.468-19.366.84-35.747-14.127-36.59-33.432" clip-rule="evenodd"/></clipPath><clipPath id="r"><path d="M14.022 29.89c-3.883 7.798-4.761 17.06-1.716 25.941 3.049 8.882 9.447 15.698 17.326 19.543a34.56 34.56 0 0 0 26.217 1.697c8.976-3.016 15.867-9.347 19.75-17.143s4.76-17.06 1.715-25.942c-3.048-8.882-9.446-15.7-17.325-19.543a34.56 34.56 0 0 0-26.217-1.697c-8.977 3.016-15.867 9.348-19.75 17.143m-2.205 26.106c-3.093-9.016-2.202-18.42 1.74-26.333 3.943-7.914 10.937-14.341 20.048-17.401a35.06 35.06 0 0 1 26.61 1.722c7.998 3.901 14.493 10.822 17.586 19.838 3.092 9.015 2.201 18.419-1.741 26.332S65.123 74.492 56.012 77.556A35.08 35.08 0 0 1 29.4 75.833c-7.998-3.9-14.494-10.822-17.586-19.837z" clip-rule="evenodd"/></clipPath><clipPath id="t"><path d="M14.022 29.89c-3.883 7.798-4.761 17.06-1.716 25.941 3.049 8.882 9.447 15.698 17.326 19.543a34.56 34.56 0 0 0 26.217 1.697c8.976-3.016 15.867-9.347 19.75-17.143s4.76-17.06 1.715-25.942c-3.048-8.882-9.446-15.7-17.325-19.543a34.56 34.56 0 0 0-26.217-1.697c-8.977 3.016-15.867 9.348-19.75 17.143m-2.205 26.106c-3.093-9.016-2.202-18.42 1.74-26.333 3.943-7.914 10.937-14.341 20.048-17.401a35.06 35.06 0 0 1 26.61 1.722c7.998 3.901 14.493 10.822 17.586 19.838 3.092 9.015 2.201 18.419-1.741 26.332S65.123 74.492 56.012 77.556A35.08 35.08 0 0 1 29.4 75.833c-7.998-3.9-14.494-10.822-17.586-19.837z" clip-rule="evenodd"/></clipPath><clipPath id="u"><path d="M14.022 29.89c-3.883 7.798-4.761 17.06-1.716 25.941 3.049 8.882 9.447 15.698 17.326 19.543a34.56 34.56 0 0 0 26.217 1.697c8.976-3.016 15.867-9.347 19.75-17.143s4.76-17.06 1.715-25.942c-3.048-8.882-9.446-15.7-17.325-19.543a34.56 34.56 0 0 0-26.217-1.697c-8.977 3.016-15.867 9.348-19.75 17.143m-2.205 26.106c-3.093-9.016-2.202-18.42 1.74-26.333 3.943-7.914 10.937-14.341 20.048-17.401a35.06 35.06 0 0 1 26.61 1.722c7.998 3.901 14.493 10.822 17.586 19.838 3.092 9.015 2.201 18.419-1.741 26.332S65.123 74.492 56.012 77.556A35.08 35.08 0 0 1 29.4 75.833c-7.998-3.9-14.494-10.822-17.586-19.837z" clip-rule="evenodd"/></clipPath><clipPath id="v"><path d="M10.13 41.784a34.11 34.11 0 0 0 7.922 25.183c6.154 7.311 14.723 11.461 23.598 12.261 8.876.8 18.058-1.751 25.446-7.841s11.581-14.57 12.39-23.354a34.11 34.11 0 0 0-7.924-25.183C65.408 15.54 56.839 11.39 47.964 10.59c-8.875-.8-18.058 1.75-25.449 7.84C15.127 24.52 10.934 33 10.126 41.785zm7.522 25.518c-6.248-7.423-8.866-16.65-8.046-25.564.82-8.917 5.077-17.52 12.577-23.707 7.5-6.183 16.824-8.771 25.831-7.962 9.007.812 17.704 5.027 23.952 12.45 6.248 7.42 8.866 16.646 8.045 25.563-.82 8.914-5.076 17.521-12.577 23.704-7.5 6.184-16.824 8.775-25.83 7.96-9.01-.812-17.708-5.024-23.952-12.448z" clip-rule="evenodd"/></clipPath><clipPath id="x"><path d="M10.13 41.784a34.11 34.11 0 0 0 7.922 25.183c6.154 7.311 14.723 11.461 23.598 12.261 8.876.8 18.058-1.751 25.446-7.841s11.581-14.57 12.39-23.354a34.11 34.11 0 0 0-7.924-25.183C65.408 15.54 56.839 11.39 47.964 10.59c-8.875-.8-18.058 1.75-25.449 7.84C15.127 24.52 10.934 33 10.126 41.785zm7.522 25.518c-6.248-7.423-8.866-16.65-8.046-25.564.82-8.917 5.077-17.52 12.577-23.707 7.5-6.183 16.824-8.771 25.831-7.962 9.007.812 17.704 5.027 23.952 12.45 6.248 7.42 8.866 16.646 8.045 25.563-.82 8.914-5.076 17.521-12.577 23.704-7.5 6.184-16.824 8.775-25.83 7.96-9.01-.812-17.708-5.024-23.952-12.448z" clip-rule="evenodd"/></clipPath><clipPath id="y"><path d="M10.13 41.784a34.11 34.11 0 0 0 7.922 25.183c6.154 7.311 14.723 11.461 23.598 12.261 8.876.8 18.058-1.751 25.446-7.841s11.581-14.57 12.39-23.354a34.11 34.11 0 0 0-7.924-25.183C65.408 15.54 56.839 11.39 47.964 10.59c-8.875-.8-18.058 1.75-25.449 7.84C15.127 24.52 10.934 33 10.126 41.785zm7.522 25.518c-6.248-7.423-8.866-16.65-8.046-25.564.82-8.917 5.077-17.52 12.577-23.707 7.5-6.183 16.824-8.771 25.831-7.962 9.007.812 17.704 5.027 23.952 12.45 6.248 7.42 8.866 16.646 8.045 25.563-.82 8.914-5.076 17.521-12.577 23.704-7.5 6.184-16.824 8.775-25.83 7.96-9.01-.812-17.708-5.024-23.952-12.448z" clip-rule="evenodd"/></clipPath><clipPath id="z"><path d="M34.375 83.515a.307.307 0 0 1-.218-.38.313.313 0 0 1 .38-.22.307.307 0 0 1 .219.38.31.31 0 0 1-.38.217zm-9.726-4.017a.306.306 0 0 1-.113-.424c.085-.15.275-.199.425-.112a.31.31 0 0 1-.312.535m-8.353-6.39a.312.312 0 1 1 .44 0 .31.31 0 0 1-.44 0m-6.409-8.325a.31.31 0 0 1 .113-.424.31.31 0 0 1 .424.115.31.31 0 0 1-.112.42.31.31 0 0 1-.425-.111m-4.03-9.698a.31.31 0 1 1 .6-.16.31.31 0 0 1-.219.38.313.313 0 0 1-.38-.22M4.481 44.677a.312.312 0 0 1 .624 0 .31.31 0 0 1-.312.308.31.31 0 0 1-.312-.308m1.373-10.408a.31.31 0 0 1 .381-.217.307.307 0 0 1 .219.38.31.31 0 0 1-.381.217.31.31 0 0 1-.219-.38m4.027-9.697a.31.31 0 0 1 .425-.113.31.31 0 0 1-.312.535.31.31 0 0 1-.116-.422zm6.408-8.329a.312.312 0 0 1 .44.439.317.317 0 0 1-.44 0 .31.31 0 0 1 0-.439m8.35-6.39a.31.31 0 0 1 .425.112.312.312 0 0 1-.54.311.31.31 0 0 1 .112-.423zm9.727-4.018a.31.31 0 1 1 .163.597.31.31 0 0 1-.163-.597m10.438-1.369c.172 0 .309.137.309.308s-.14.311-.309.311a.315.315 0 0 1-.312-.31c0-.172.14-.312.312-.309m10.438 1.366a.31.31 0 0 1 .219.38.31.31 0 1 1-.219-.38M64.97 9.85a.31.31 0 1 1-.312.534.31.31 0 0 1 .312-.534m8.353 6.39a.312.312 0 1 1-.44 0 .31.31 0 0 1 .44 0m6.408 8.325a.31.31 0 0 1-.112.424.313.313 0 0 1-.425-.112.31.31 0 0 1 .116-.424.313.313 0 0 1 .424.112zm4.03 9.698a.31.31 0 1 1-.38-.218.313.313 0 0 1 .38.221zm1.377 10.408a.313.313 0 0 1-.624 0 .313.313 0 0 1 .624 0m-1.374 10.404a.31.31 0 1 1-.219-.377.31.31 0 0 1 .22.38zm-4.027 9.698a.31.31 0 0 1-.424.112.31.31 0 0 1 .312-.535c.15.084.2.274.112.423m-6.408 8.329a.311.311 0 0 1-.44-.44.312.312 0 0 1 .44.44m-8.35 6.39a.31.31 0 0 1-.424-.116.311.311 0 0 1 .54-.311c.084.15.034.34-.113.423zm-9.726 4.017a.31.31 0 1 1-.163-.597.31.31 0 0 1 .163.597M39.65 84.55a.31.31 0 1 1 .078-.613.31.31 0 0 1 .269.348.313.313 0 0 1-.35.268zm-10.176-2.69a.31.31 0 1 1 .238-.572.31.31 0 1 1-.237.573m-9.13-5.225a.314.314 0 0 1-.06-.436.307.307 0 0 1 .435-.056.307.307 0 0 1 .06.433.313.313 0 0 1-.435.06m-7.463-7.404a.31.31 0 0 1 .056-.436.31.31 0 1 1 .38.492.316.316 0 0 1-.436-.056m-5.288-9.075a.31.31 0 0 1 .571-.24.31.31 0 0 1-.571.24M4.843 50.02a.311.311 0 0 1 .618-.084.31.31 0 0 1-.265.348.314.314 0 0 1-.35-.267zm-.028-10.498a.307.307 0 0 1 .346-.264.309.309 0 1 1-.08.613.31.31 0 0 1-.27-.349zm2.7-10.146a.31.31 0 1 1 .574.237.31.31 0 0 1-.574-.237m5.24-9.104a.31.31 0 0 1 .494.374.311.311 0 1 1-.496-.377zm7.427-7.441a.307.307 0 0 1 .434.056.314.314 0 0 1-.056.436.316.316 0 0 1-.437-.056.314.314 0 0 1 .056-.436zm9.102-5.272a.31.31 0 0 1 .406.168.307.307 0 0 1-.166.404.309.309 0 1 1-.237-.57zm10.16-2.742a.314.314 0 0 1 .35.267.305.305 0 0 1-.265.346.31.31 0 0 1-.35-.265.31.31 0 0 1 .269-.348zM49.97 4.79c.169.022.29.177.268.348a.31.31 0 0 1-.615-.08.31.31 0 0 1 .347-.268m10.176 2.692a.31.31 0 1 1-.236.572.31.31 0 0 1 .236-.572m9.13 5.225a.31.31 0 0 1 .06.433.313.313 0 0 1-.434.06.31.31 0 1 1 .375-.492m7.464 7.401a.31.31 0 0 1-.056.436.31.31 0 1 1 .056-.436m5.288 9.076a.31.31 0 0 1-.169.405.31.31 0 0 1-.406-.168.31.31 0 0 1 .574-.237m2.75 10.13a.31.31 0 1 1-.347-.264.314.314 0 0 1 .35.265zm.028 10.495a.31.31 0 1 1-.615-.08.313.313 0 0 1 .35-.268c.171.021.29.177.268.345zm-2.697 10.146a.31.31 0 1 1-.574-.237.31.31 0 0 1 .574.237m-5.241 9.104a.31.31 0 0 1-.493-.377.313.313 0 0 1 .437-.059.31.31 0 0 1 .056.436m-7.426 7.438a.307.307 0 0 1-.434-.056.314.314 0 0 1 .056-.436.316.316 0 0 1 .437.057.304.304 0 0 1-.056.432zM60.34 81.77a.31.31 0 1 1 .165-.407.31.31 0 0 1-.169.404zm-10.16 2.742a.31.31 0 1 1 .265-.348.31.31 0 0 1-.269.348zm-13.152-.398a.31.31 0 1 1 .122-.607.31.31 0 0 1 .247.364.314.314 0 0 1-.365.246zm-9.976-3.355a.31.31 0 0 1-.143-.414.306.306 0 0 1 .415-.14.31.31 0 0 1 .143.414.313.313 0 0 1-.415.143zm-8.765-5.814a.309.309 0 1 1 .409-.464.306.306 0 0 1 .028.436.31.31 0 0 1-.437.028m-6.958-7.877a.31.31 0 1 1 .515-.346.31.31 0 1 1-.515.343zm-4.676-9.402a.31.31 0 0 1 .194-.396.31.31 0 0 1 .393.193.31.31 0 0 1-.193.393.31.31 0 0 1-.394-.193zM4.578 47.372a.31.31 0 0 1 .29-.33.31.31 0 0 1 .33.287.31.31 0 0 1-.621.04zm.668-10.476a.31.31 0 0 1 .365-.242.31.31 0 1 1-.122.607.31.31 0 0 1-.243-.365M8.61 26.95a.31.31 0 0 1 .415-.14.307.307 0 0 1 .14.414.31.31 0 0 1-.415.14.307.307 0 0 1-.14-.414m5.83-8.739a.31.31 0 0 1 .437-.031.306.306 0 0 1 .032.436.315.315 0 0 1-.44.03.306.306 0 0 1-.029-.435m7.9-6.937a.31.31 0 0 1 .432.084.306.306 0 0 1-.085.43.31.31 0 1 1-.346-.514m9.43-4.663a.313.313 0 0 1 .397.193.307.307 0 0 1-.193.393.31.31 0 1 1-.2-.586zm10.32-2.07a.308.308 0 1 1 .044.616.31.31 0 0 1-.044-.618zm10.507.667a.31.31 0 1 1-.122.607.31.31 0 1 1 .122-.607m9.977 3.352a.31.31 0 1 1-.416.14.313.313 0 0 1 .416-.143zm8.765 5.814c.128.112.14.308.03.435a.31.31 0 0 1-.436.031.31.31 0 0 1-.028-.438.31.31 0 0 1 .437-.028zm6.957 7.877a.31.31 0 0 1-.084.43.31.31 0 0 1-.43-.085.307.307 0 0 1 .084-.43.314.314 0 0 1 .43.085m4.676 9.405a.307.307 0 0 1-.193.392.31.31 0 0 1-.393-.193.313.313 0 0 1 .193-.395.31.31 0 0 1 .393.193zm2.076 10.29a.31.31 0 0 1-.618.043.31.31 0 0 1 .29-.33.31.31 0 0 1 .331.286zm-.668 10.475a.31.31 0 0 1-.365.243.31.31 0 1 1 .122-.607.307.307 0 0 1 .243.364m-3.362 9.944a.313.313 0 0 1-.415.143.307.307 0 0 1-.14-.414.313.313 0 0 1 .415-.143.307.307 0 0 1 .14.414m-5.83 8.74a.31.31 0 0 1-.438.028.306.306 0 0 1-.03-.436.315.315 0 0 1 .44-.028c.127.112.14.308.027.436m-7.901 6.937a.31.31 0 1 1-.346-.513.31.31 0 0 1 .346.513m-9.433 4.662a.31.31 0 0 1-.393-.193.307.307 0 0 1 .193-.392.31.31 0 1 1 .2.585m-10.32 2.067a.308.308 0 1 1-.043-.617.308.308 0 1 1 .04.617zm-15.62-2.02a.31.31 0 0 1-.196-.392.314.314 0 0 1 .393-.196c.162.056.25.23.194.392a.31.31 0 0 1-.394.193zm-9.448-4.628a.309.309 0 1 1 .343-.514.306.306 0 0 1 .084.43.31.31 0 0 1-.43.084zm-7.926-6.91a.309.309 0 1 1 .465-.407.304.304 0 0 1-.028.436.31.31 0 0 1-.437-.028M8.68 62.496a.31.31 0 0 1 .556-.274.304.304 0 0 1-.14.414.31.31 0 0 1-.416-.14M5.28 52.56a.313.313 0 0 1 .243-.364.31.31 0 0 1 .366.243.31.31 0 0 1-.609.121m-.705-10.472a.31.31 0 0 1 .62.04.31.31 0 0 1-.62-.04M6.61 31.789a.314.314 0 0 1 .393-.196c.162.056.25.23.197.392a.314.314 0 0 1-.394.196.314.314 0 0 1-.196-.392m4.641-9.421a.31.31 0 1 1 .519.343.31.31 0 0 1-.519-.343m6.927-7.902a.309.309 0 1 1 .409.464.31.31 0 0 1-.44-.028.31.31 0 0 1 .028-.436zm8.743-5.848a.31.31 0 1 1-.14.414.314.314 0 0 1 .14-.417zm9.964-3.39a.31.31 0 1 1 .123.607.31.31 0 0 1-.123-.606m10.504-.703a.31.31 0 1 1-.331.293.31.31 0 0 1 .33-.29zm10.329 2.03a.31.31 0 1 1-.2.585.31.31 0 0 1-.194-.393.31.31 0 0 1 .394-.193m9.448 4.627a.312.312 0 0 1-.346.517.31.31 0 1 1 .343-.513zm7.926 6.907c.112.127.1.323-.028.438a.309.309 0 1 1 .028-.436zm5.862 8.717a.313.313 0 0 1-.14.417.31.31 0 0 1-.416-.14.307.307 0 0 1 .14-.414.313.313 0 0 1 .416.137m3.399 9.935a.31.31 0 0 1-.609.121.31.31 0 0 1 .244-.364.31.31 0 0 1 .365.243m.705 10.47a.31.31 0 0 1-.33.289.31.31 0 1 1 .04-.62.31.31 0 0 1 .29.33m-2.035 10.298a.314.314 0 0 1-.393.196.31.31 0 0 1-.194-.392.314.314 0 0 1 .394-.196c.162.056.25.23.193.392m-4.641 9.424a.311.311 0 0 1-.519-.345.31.31 0 0 1 .518.342zm-6.93 7.902a.31.31 0 0 1-.437-.028.313.313 0 0 1 .028-.439.315.315 0 0 1 .44.028c.113.128.1.324-.028.436zm-8.743 5.845a.31.31 0 1 1-.274-.553.31.31 0 0 1 .274.553m-9.964 3.39a.31.31 0 1 1-.123-.607.31.31 0 0 1 .123.606m-10.504.703a.31.31 0 0 1-.29-.33.313.313 0 0 1 .33-.29.31.31 0 1 1-.04.62m2.575.08a.31.31 0 1 1 0-.62c.172.001.313.141.313.31 0 .168-.14.31-.312.31" clip-rule="evenodd"/></clipPath><clipPath id="B"><path d="M34.375 83.515a.307.307 0 0 1-.218-.38.313.313 0 0 1 .38-.22.307.307 0 0 1 .219.38.31.31 0 0 1-.38.217zm-9.726-4.017a.306.306 0 0 1-.113-.424c.085-.15.275-.199.425-.112a.31.31 0 0 1-.312.535m-8.353-6.39a.312.312 0 1 1 .44 0 .31.31 0 0 1-.44 0m-6.409-8.325a.31.31 0 0 1 .113-.424.31.31 0 0 1 .424.115.31.31 0 0 1-.112.42.31.31 0 0 1-.425-.111m-4.03-9.698a.31.31 0 1 1 .6-.16.31.31 0 0 1-.219.38.313.313 0 0 1-.38-.22M4.481 44.677a.312.312 0 0 1 .624 0 .31.31 0 0 1-.312.308.31.31 0 0 1-.312-.308m1.373-10.408a.31.31 0 0 1 .381-.217.307.307 0 0 1 .219.38.31.31 0 0 1-.381.217.31.31 0 0 1-.219-.38m4.027-9.697a.31.31 0 0 1 .425-.113.31.31 0 0 1-.312.535.31.31 0 0 1-.116-.422zm6.408-8.329a.312.312 0 0 1 .44.439.317.317 0 0 1-.44 0 .31.31 0 0 1 0-.439m8.35-6.39a.31.31 0 0 1 .425.112.312.312 0 0 1-.54.311.31.31 0 0 1 .112-.423zm9.727-4.018a.31.31 0 1 1 .163.597.31.31 0 0 1-.163-.597m10.438-1.369c.172 0 .309.137.309.308s-.14.311-.309.311a.315.315 0 0 1-.312-.31c0-.172.14-.312.312-.309m10.438 1.366a.31.31 0 0 1 .219.38.31.31 0 1 1-.219-.38M64.97 9.85a.31.31 0 1 1-.312.534.31.31 0 0 1 .312-.534m8.353 6.39a.312.312 0 1 1-.44 0 .31.31 0 0 1 .44 0m6.408 8.325a.31.31 0 0 1-.112.424.313.313 0 0 1-.425-.112.31.31 0 0 1 .116-.424.313.313 0 0 1 .424.112zm4.03 9.698a.31.31 0 1 1-.38-.218.313.313 0 0 1 .38.221zm1.377 10.408a.313.313 0 0 1-.624 0 .313.313 0 0 1 .624 0m-1.374 10.404a.31.31 0 1 1-.219-.377.31.31 0 0 1 .22.38zm-4.027 9.698a.31.31 0 0 1-.424.112.31.31 0 0 1 .312-.535c.15.084.2.274.112.423m-6.408 8.329a.311.311 0 0 1-.44-.44.312.312 0 0 1 .44.44m-8.35 6.39a.31.31 0 0 1-.424-.116.311.311 0 0 1 .54-.311c.084.15.034.34-.113.423zm-9.726 4.017a.31.31 0 1 1-.163-.597.31.31 0 0 1 .163.597M39.65 84.55a.31.31 0 1 1 .078-.613.31.31 0 0 1 .269.348.313.313 0 0 1-.35.268zm-10.176-2.69a.31.31 0 1 1 .238-.572.31.31 0 1 1-.237.573m-9.13-5.225a.314.314 0 0 1-.06-.436.307.307 0 0 1 .435-.056.307.307 0 0 1 .06.433.313.313 0 0 1-.435.06m-7.463-7.404a.31.31 0 0 1 .056-.436.31.31 0 1 1 .38.492.316.316 0 0 1-.436-.056m-5.288-9.075a.31.31 0 0 1 .571-.24.31.31 0 0 1-.571.24M4.843 50.02a.311.311 0 0 1 .618-.084.31.31 0 0 1-.265.348.314.314 0 0 1-.35-.267zm-.028-10.498a.307.307 0 0 1 .346-.264.309.309 0 1 1-.08.613.31.31 0 0 1-.27-.349zm2.7-10.146a.31.31 0 1 1 .574.237.31.31 0 0 1-.574-.237m5.24-9.104a.31.31 0 0 1 .494.374.311.311 0 1 1-.496-.377zm7.427-7.441a.307.307 0 0 1 .434.056.314.314 0 0 1-.056.436.316.316 0 0 1-.437-.056.314.314 0 0 1 .056-.436zm9.102-5.272a.31.31 0 0 1 .406.168.307.307 0 0 1-.166.404.309.309 0 1 1-.237-.57zm10.16-2.742a.314.314 0 0 1 .35.267.305.305 0 0 1-.265.346.31.31 0 0 1-.35-.265.31.31 0 0 1 .269-.348zM49.97 4.79c.169.022.29.177.268.348a.31.31 0 0 1-.615-.08.31.31 0 0 1 .347-.268m10.176 2.692a.31.31 0 1 1-.236.572.31.31 0 0 1 .236-.572m9.13 5.225a.31.31 0 0 1 .06.433.313.313 0 0 1-.434.06.31.31 0 1 1 .375-.492m7.464 7.401a.31.31 0 0 1-.056.436.31.31 0 1 1 .056-.436m5.288 9.076a.31.31 0 0 1-.169.405.31.31 0 0 1-.406-.168.31.31 0 0 1 .574-.237m2.75 10.13a.31.31 0 1 1-.347-.264.314.314 0 0 1 .35.265zm.028 10.495a.31.31 0 1 1-.615-.08.313.313 0 0 1 .35-.268c.171.021.29.177.268.345zm-2.697 10.146a.31.31 0 1 1-.574-.237.31.31 0 0 1 .574.237m-5.241 9.104a.31.31 0 0 1-.493-.377.313.313 0 0 1 .437-.059.31.31 0 0 1 .056.436m-7.426 7.438a.307.307 0 0 1-.434-.056.314.314 0 0 1 .056-.436.316.316 0 0 1 .437.057.304.304 0 0 1-.056.432zM60.34 81.77a.31.31 0 1 1 .165-.407.31.31 0 0 1-.169.404zm-10.16 2.742a.31.31 0 1 1 .265-.348.31.31 0 0 1-.269.348zm-13.152-.398a.31.31 0 1 1 .122-.607.31.31 0 0 1 .247.364.314.314 0 0 1-.365.246zm-9.976-3.355a.31.31 0 0 1-.143-.414.306.306 0 0 1 .415-.14.31.31 0 0 1 .143.414.313.313 0 0 1-.415.143zm-8.765-5.814a.309.309 0 1 1 .409-.464.306.306 0 0 1 .028.436.31.31 0 0 1-.437.028m-6.958-7.877a.31.31 0 1 1 .515-.346.31.31 0 1 1-.515.343zm-4.676-9.402a.31.31 0 0 1 .194-.396.31.31 0 0 1 .393.193.31.31 0 0 1-.193.393.31.31 0 0 1-.394-.193zM4.578 47.372a.31.31 0 0 1 .29-.33.31.31 0 0 1 .33.287.31.31 0 0 1-.621.04zm.668-10.476a.31.31 0 0 1 .365-.242.31.31 0 1 1-.122.607.31.31 0 0 1-.243-.365M8.61 26.95a.31.31 0 0 1 .415-.14.307.307 0 0 1 .14.414.31.31 0 0 1-.415.14.307.307 0 0 1-.14-.414m5.83-8.739a.31.31 0 0 1 .437-.031.306.306 0 0 1 .032.436.315.315 0 0 1-.44.03.306.306 0 0 1-.029-.435m7.9-6.937a.31.31 0 0 1 .432.084.306.306 0 0 1-.085.43.31.31 0 1 1-.346-.514m9.43-4.663a.313.313 0 0 1 .397.193.307.307 0 0 1-.193.393.31.31 0 1 1-.2-.586zm10.32-2.07a.308.308 0 1 1 .044.616.31.31 0 0 1-.044-.618zm10.507.667a.31.31 0 1 1-.122.607.31.31 0 1 1 .122-.607m9.977 3.352a.31.31 0 1 1-.416.14.313.313 0 0 1 .416-.143zm8.765 5.814c.128.112.14.308.03.435a.31.31 0 0 1-.436.031.31.31 0 0 1-.028-.438.31.31 0 0 1 .437-.028zm6.957 7.877a.31.31 0 0 1-.084.43.31.31 0 0 1-.43-.085.307.307 0 0 1 .084-.43.314.314 0 0 1 .43.085m4.676 9.405a.307.307 0 0 1-.193.392.31.31 0 0 1-.393-.193.313.313 0 0 1 .193-.395.31.31 0 0 1 .393.193zm2.076 10.29a.31.31 0 0 1-.618.043.31.31 0 0 1 .29-.33.31.31 0 0 1 .331.286zm-.668 10.475a.31.31 0 0 1-.365.243.31.31 0 1 1 .122-.607.307.307 0 0 1 .243.364m-3.362 9.944a.313.313 0 0 1-.415.143.307.307 0 0 1-.14-.414.313.313 0 0 1 .415-.143.307.307 0 0 1 .14.414m-5.83 8.74a.31.31 0 0 1-.438.028.306.306 0 0 1-.03-.436.315.315 0 0 1 .44-.028c.127.112.14.308.027.436m-7.901 6.937a.31.31 0 1 1-.346-.513.31.31 0 0 1 .346.513m-9.433 4.662a.31.31 0 0 1-.393-.193.307.307 0 0 1 .193-.392.31.31 0 1 1 .2.585m-10.32 2.067a.308.308 0 1 1-.043-.617.308.308 0 1 1 .04.617zm-15.62-2.02a.31.31 0 0 1-.196-.392.314.314 0 0 1 .393-.196c.162.056.25.23.194.392a.31.31 0 0 1-.394.193zm-9.448-4.628a.309.309 0 1 1 .343-.514.306.306 0 0 1 .084.43.31.31 0 0 1-.43.084zm-7.926-6.91a.309.309 0 1 1 .465-.407.304.304 0 0 1-.028.436.31.31 0 0 1-.437-.028M8.68 62.496a.31.31 0 0 1 .556-.274.304.304 0 0 1-.14.414.31.31 0 0 1-.416-.14M5.28 52.56a.313.313 0 0 1 .243-.364.31.31 0 0 1 .366.243.31.31 0 0 1-.609.121m-.705-10.472a.31.31 0 0 1 .62.04.31.31 0 0 1-.62-.04M6.61 31.789a.314.314 0 0 1 .393-.196c.162.056.25.23.197.392a.314.314 0 0 1-.394.196.314.314 0 0 1-.196-.392m4.641-9.421a.31.31 0 1 1 .519.343.31.31 0 0 1-.519-.343m6.927-7.902a.309.309 0 1 1 .409.464.31.31 0 0 1-.44-.028.31.31 0 0 1 .028-.436zm8.743-5.848a.31.31 0 1 1-.14.414.314.314 0 0 1 .14-.417zm9.964-3.39a.31.31 0 1 1 .123.607.31.31 0 0 1-.123-.606m10.504-.703a.31.31 0 1 1-.331.293.31.31 0 0 1 .33-.29zm10.329 2.03a.31.31 0 1 1-.2.585.31.31 0 0 1-.194-.393.31.31 0 0 1 .394-.193m9.448 4.627a.312.312 0 0 1-.346.517.31.31 0 1 1 .343-.513zm7.926 6.907c.112.127.1.323-.028.438a.309.309 0 1 1 .028-.436zm5.862 8.717a.313.313 0 0 1-.14.417.31.31 0 0 1-.416-.14.307.307 0 0 1 .14-.414.313.313 0 0 1 .416.137m3.399 9.935a.31.31 0 0 1-.609.121.31.31 0 0 1 .244-.364.31.31 0 0 1 .365.243m.705 10.47a.31.31 0 0 1-.33.289.31.31 0 1 1 .04-.62.31.31 0 0 1 .29.33m-2.035 10.298a.314.314 0 0 1-.393.196.31.31 0 0 1-.194-.392.314.314 0 0 1 .394-.196c.162.056.25.23.193.392m-4.641 9.424a.311.311 0 0 1-.519-.345.31.31 0 0 1 .518.342zm-6.93 7.902a.31.31 0 0 1-.437-.028.313.313 0 0 1 .028-.439.315.315 0 0 1 .44.028c.113.128.1.324-.028.436zm-8.743 5.845a.31.31 0 1 1-.274-.553.31.31 0 0 1 .274.553m-9.964 3.39a.31.31 0 1 1-.123-.607.31.31 0 0 1 .123.606m-10.504.703a.31.31 0 0 1-.29-.33.313.313 0 0 1 .33-.29.31.31 0 1 1-.04.62m2.575.08a.31.31 0 1 1 0-.62c.172.001.313.141.313.31 0 .168-.14.31-.312.31" clip-rule="evenodd"/></clipPath><clipPath id="C"><path d="M34.375 83.515a.307.307 0 0 1-.218-.38.313.313 0 0 1 .38-.22.307.307 0 0 1 .219.38.31.31 0 0 1-.38.217zm-9.726-4.017a.306.306 0 0 1-.113-.424c.085-.15.275-.199.425-.112a.31.31 0 0 1-.312.535m-8.353-6.39a.312.312 0 1 1 .44 0 .31.31 0 0 1-.44 0m-6.409-8.325a.31.31 0 0 1 .113-.424.31.31 0 0 1 .424.115.31.31 0 0 1-.112.42.31.31 0 0 1-.425-.111m-4.03-9.698a.31.31 0 1 1 .6-.16.31.31 0 0 1-.219.38.313.313 0 0 1-.38-.22M4.481 44.677a.312.312 0 0 1 .624 0 .31.31 0 0 1-.312.308.31.31 0 0 1-.312-.308m1.373-10.408a.31.31 0 0 1 .381-.217.307.307 0 0 1 .219.38.31.31 0 0 1-.381.217.31.31 0 0 1-.219-.38m4.027-9.697a.31.31 0 0 1 .425-.113.31.31 0 0 1-.312.535.31.31 0 0 1-.116-.422zm6.408-8.329a.312.312 0 0 1 .44.439.317.317 0 0 1-.44 0 .31.31 0 0 1 0-.439m8.35-6.39a.31.31 0 0 1 .425.112.312.312 0 0 1-.54.311.31.31 0 0 1 .112-.423zm9.727-4.018a.31.31 0 1 1 .163.597.31.31 0 0 1-.163-.597m10.438-1.369c.172 0 .309.137.309.308s-.14.311-.309.311a.315.315 0 0 1-.312-.31c0-.172.14-.312.312-.309m10.438 1.366a.31.31 0 0 1 .219.38.31.31 0 1 1-.219-.38M64.97 9.85a.31.31 0 1 1-.312.534.31.31 0 0 1 .312-.534m8.353 6.39a.312.312 0 1 1-.44 0 .31.31 0 0 1 .44 0m6.408 8.325a.31.31 0 0 1-.112.424.313.313 0 0 1-.425-.112.31.31 0 0 1 .116-.424.313.313 0 0 1 .424.112zm4.03 9.698a.31.31 0 1 1-.38-.218.313.313 0 0 1 .38.221zm1.377 10.408a.313.313 0 0 1-.624 0 .313.313 0 0 1 .624 0m-1.374 10.404a.31.31 0 1 1-.219-.377.31.31 0 0 1 .22.38zm-4.027 9.698a.31.31 0 0 1-.424.112.31.31 0 0 1 .312-.535c.15.084.2.274.112.423m-6.408 8.329a.311.311 0 0 1-.44-.44.312.312 0 0 1 .44.44m-8.35 6.39a.31.31 0 0 1-.424-.116.311.311 0 0 1 .54-.311c.084.15.034.34-.113.423zm-9.726 4.017a.31.31 0 1 1-.163-.597.31.31 0 0 1 .163.597M39.65 84.55a.31.31 0 1 1 .078-.613.31.31 0 0 1 .269.348.313.313 0 0 1-.35.268zm-10.176-2.69a.31.31 0 1 1 .238-.572.31.31 0 1 1-.237.573m-9.13-5.225a.314.314 0 0 1-.06-.436.307.307 0 0 1 .435-.056.307.307 0 0 1 .06.433.313.313 0 0 1-.435.06m-7.463-7.404a.31.31 0 0 1 .056-.436.31.31 0 1 1 .38.492.316.316 0 0 1-.436-.056m-5.288-9.075a.31.31 0 0 1 .571-.24.31.31 0 0 1-.571.24M4.843 50.02a.311.311 0 0 1 .618-.084.31.31 0 0 1-.265.348.314.314 0 0 1-.35-.267zm-.028-10.498a.307.307 0 0 1 .346-.264.309.309 0 1 1-.08.613.31.31 0 0 1-.27-.349zm2.7-10.146a.31.31 0 1 1 .574.237.31.31 0 0 1-.574-.237m5.24-9.104a.31.31 0 0 1 .494.374.311.311 0 1 1-.496-.377zm7.427-7.441a.307.307 0 0 1 .434.056.314.314 0 0 1-.056.436.316.316 0 0 1-.437-.056.314.314 0 0 1 .056-.436zm9.102-5.272a.31.31 0 0 1 .406.168.307.307 0 0 1-.166.404.309.309 0 1 1-.237-.57zm10.16-2.742a.314.314 0 0 1 .35.267.305.305 0 0 1-.265.346.31.31 0 0 1-.35-.265.31.31 0 0 1 .269-.348zM49.97 4.79c.169.022.29.177.268.348a.31.31 0 0 1-.615-.08.31.31 0 0 1 .347-.268m10.176 2.692a.31.31 0 1 1-.236.572.31.31 0 0 1 .236-.572m9.13 5.225a.31.31 0 0 1 .06.433.313.313 0 0 1-.434.06.31.31 0 1 1 .375-.492m7.464 7.401a.31.31 0 0 1-.056.436.31.31 0 1 1 .056-.436m5.288 9.076a.31.31 0 0 1-.169.405.31.31 0 0 1-.406-.168.31.31 0 0 1 .574-.237m2.75 10.13a.31.31 0 1 1-.347-.264.314.314 0 0 1 .35.265zm.028 10.495a.31.31 0 1 1-.615-.08.313.313 0 0 1 .35-.268c.171.021.29.177.268.345zm-2.697 10.146a.31.31 0 1 1-.574-.237.31.31 0 0 1 .574.237m-5.241 9.104a.31.31 0 0 1-.493-.377.313.313 0 0 1 .437-.059.31.31 0 0 1 .056.436m-7.426 7.438a.307.307 0 0 1-.434-.056.314.314 0 0 1 .056-.436.316.316 0 0 1 .437.057.304.304 0 0 1-.056.432zM60.34 81.77a.31.31 0 1 1 .165-.407.31.31 0 0 1-.169.404zm-10.16 2.742a.31.31 0 1 1 .265-.348.31.31 0 0 1-.269.348zm-13.152-.398a.31.31 0 1 1 .122-.607.31.31 0 0 1 .247.364.314.314 0 0 1-.365.246zm-9.976-3.355a.31.31 0 0 1-.143-.414.306.306 0 0 1 .415-.14.31.31 0 0 1 .143.414.313.313 0 0 1-.415.143zm-8.765-5.814a.309.309 0 1 1 .409-.464.306.306 0 0 1 .028.436.31.31 0 0 1-.437.028m-6.958-7.877a.31.31 0 1 1 .515-.346.31.31 0 1 1-.515.343zm-4.676-9.402a.31.31 0 0 1 .194-.396.31.31 0 0 1 .393.193.31.31 0 0 1-.193.393.31.31 0 0 1-.394-.193zM4.578 47.372a.31.31 0 0 1 .29-.33.31.31 0 0 1 .33.287.31.31 0 0 1-.621.04zm.668-10.476a.31.31 0 0 1 .365-.242.31.31 0 1 1-.122.607.31.31 0 0 1-.243-.365M8.61 26.95a.31.31 0 0 1 .415-.14.307.307 0 0 1 .14.414.31.31 0 0 1-.415.14.307.307 0 0 1-.14-.414m5.83-8.739a.31.31 0 0 1 .437-.031.306.306 0 0 1 .032.436.315.315 0 0 1-.44.03.306.306 0 0 1-.029-.435m7.9-6.937a.31.31 0 0 1 .432.084.306.306 0 0 1-.085.43.31.31 0 1 1-.346-.514m9.43-4.663a.313.313 0 0 1 .397.193.307.307 0 0 1-.193.393.31.31 0 1 1-.2-.586zm10.32-2.07a.308.308 0 1 1 .044.616.31.31 0 0 1-.044-.618zm10.507.667a.31.31 0 1 1-.122.607.31.31 0 1 1 .122-.607m9.977 3.352a.31.31 0 1 1-.416.14.313.313 0 0 1 .416-.143zm8.765 5.814c.128.112.14.308.03.435a.31.31 0 0 1-.436.031.31.31 0 0 1-.028-.438.31.31 0 0 1 .437-.028zm6.957 7.877a.31.31 0 0 1-.084.43.31.31 0 0 1-.43-.085.307.307 0 0 1 .084-.43.314.314 0 0 1 .43.085m4.676 9.405a.307.307 0 0 1-.193.392.31.31 0 0 1-.393-.193.313.313 0 0 1 .193-.395.31.31 0 0 1 .393.193zm2.076 10.29a.31.31 0 0 1-.618.043.31.31 0 0 1 .29-.33.31.31 0 0 1 .331.286zm-.668 10.475a.31.31 0 0 1-.365.243.31.31 0 1 1 .122-.607.307.307 0 0 1 .243.364m-3.362 9.944a.313.313 0 0 1-.415.143.307.307 0 0 1-.14-.414.313.313 0 0 1 .415-.143.307.307 0 0 1 .14.414m-5.83 8.74a.31.31 0 0 1-.438.028.306.306 0 0 1-.03-.436.315.315 0 0 1 .44-.028c.127.112.14.308.027.436m-7.901 6.937a.31.31 0 1 1-.346-.513.31.31 0 0 1 .346.513m-9.433 4.662a.31.31 0 0 1-.393-.193.307.307 0 0 1 .193-.392.31.31 0 1 1 .2.585m-10.32 2.067a.308.308 0 1 1-.043-.617.308.308 0 1 1 .04.617zm-15.62-2.02a.31.31 0 0 1-.196-.392.314.314 0 0 1 .393-.196c.162.056.25.23.194.392a.31.31 0 0 1-.394.193zm-9.448-4.628a.309.309 0 1 1 .343-.514.306.306 0 0 1 .084.43.31.31 0 0 1-.43.084zm-7.926-6.91a.309.309 0 1 1 .465-.407.304.304 0 0 1-.028.436.31.31 0 0 1-.437-.028M8.68 62.496a.31.31 0 0 1 .556-.274.304.304 0 0 1-.14.414.31.31 0 0 1-.416-.14M5.28 52.56a.313.313 0 0 1 .243-.364.31.31 0 0 1 .366.243.31.31 0 0 1-.609.121m-.705-10.472a.31.31 0 0 1 .62.04.31.31 0 0 1-.62-.04M6.61 31.789a.314.314 0 0 1 .393-.196c.162.056.25.23.197.392a.314.314 0 0 1-.394.196.314.314 0 0 1-.196-.392m4.641-9.421a.31.31 0 1 1 .519.343.31.31 0 0 1-.519-.343m6.927-7.902a.309.309 0 1 1 .409.464.31.31 0 0 1-.44-.028.31.31 0 0 1 .028-.436zm8.743-5.848a.31.31 0 1 1-.14.414.314.314 0 0 1 .14-.417zm9.964-3.39a.31.31 0 1 1 .123.607.31.31 0 0 1-.123-.606m10.504-.703a.31.31 0 1 1-.331.293.31.31 0 0 1 .33-.29zm10.329 2.03a.31.31 0 1 1-.2.585.31.31 0 0 1-.194-.393.31.31 0 0 1 .394-.193m9.448 4.627a.312.312 0 0 1-.346.517.31.31 0 1 1 .343-.513zm7.926 6.907c.112.127.1.323-.028.438a.309.309 0 1 1 .028-.436zm5.862 8.717a.313.313 0 0 1-.14.417.31.31 0 0 1-.416-.14.307.307 0 0 1 .14-.414.313.313 0 0 1 .416.137m3.399 9.935a.31.31 0 0 1-.609.121.31.31 0 0 1 .244-.364.31.31 0 0 1 .365.243m.705 10.47a.31.31 0 0 1-.33.289.31.31 0 1 1 .04-.62.31.31 0 0 1 .29.33m-2.035 10.298a.314.314 0 0 1-.393.196.31.31 0 0 1-.194-.392.314.314 0 0 1 .394-.196c.162.056.25.23.193.392m-4.641 9.424a.311.311 0 0 1-.519-.345.31.31 0 0 1 .518.342zm-6.93 7.902a.31.31 0 0 1-.437-.028.313.313 0 0 1 .028-.439.315.315 0 0 1 .44.028c.113.128.1.324-.028.436zm-8.743 5.845a.31.31 0 1 1-.274-.553.31.31 0 0 1 .274.553m-9.964 3.39a.31.31 0 1 1-.123-.607.31.31 0 0 1 .123.606m-10.504.703a.31.31 0 0 1-.29-.33.313.313 0 0 1 .33-.29.31.31 0 1 1-.04.62m2.575.08a.31.31 0 1 1 0-.62c.172.001.313.141.313.31 0 .168-.14.31-.312.31" clip-rule="evenodd"/></clipPath><clipPath id="D"><path d="M40.532 77.475c1.482.983 2.958 1.962 4.583 1.962s3.118-.986 4.614-1.973c1.194-.785 2.392-1.578 3.712-1.93 1.322-.353 2.75-.263 4.17-.174 1.78.111 3.548.225 4.954-.584 1.402-.807 2.201-2.402 3.003-4.007.639-1.277 1.281-2.558 2.246-3.52.969-.965 2.25-1.598 3.524-2.228 1.597-.79 3.184-1.575 3.997-2.976s.704-3.18.593-4.97c-.087-1.421-.173-2.85.18-4.166.355-1.318 1.146-2.501 1.935-3.685.99-1.48 1.968-2.952 1.968-4.568s-.986-3.107-1.979-4.598c-.788-1.187-1.583-2.381-1.937-3.7-.354-1.318-.264-2.74-.174-4.156.115-1.775.226-3.536-.586-4.938-.81-1.401-2.41-2.193-4.021-2.993-1.281-.637-2.566-1.277-3.534-2.239-.966-.962-1.601-2.242-2.236-3.512-.792-1.592-1.58-3.173-2.983-3.983-1.406-.81-3.19-.702-4.985-.592-1.427.087-2.861.177-4.18-.18-1.323-.353-2.514-1.142-3.698-1.927-1.486-.983-2.962-1.962-4.583-1.962-1.622 0-3.114.983-4.61 1.969-1.195.785-2.393 1.578-3.712 1.93-1.323.354-2.75.264-4.17.174-1.778-.11-3.548-.225-4.955.585-1.406.806-2.2 2.405-3.003 4.007-.639 1.277-1.277 2.557-2.246 3.519-.969.965-2.25 1.599-3.524 2.228-1.597.79-3.187 1.575-3.996 2.973-.813 1.405-.702 3.184-.594 4.97.087 1.421.174 2.85-.177 4.165-.354 1.319-1.146 2.506-1.934 3.686-.99 1.477-1.969 2.948-1.969 4.567s.986 3.108 1.98 4.596c.788 1.19 1.583 2.384 1.937 3.699.354 1.318.264 2.74.173 4.156-.114 1.775-.225 3.537.587 4.938.81 1.401 2.41 2.197 4.02 2.993 1.278.637 2.563 1.274 3.532 2.24.968.965 1.604 2.241 2.235 3.511.792 1.592 1.58 3.177 2.983 3.983 1.406.81 3.19.7 4.986.592 1.427-.086 2.86-.173 4.18.177 1.323.352 2.513 1.141 3.697 1.927zm4.583 2.657c-1.83 0-3.396-1.034-4.968-2.08-1.136-.754-2.282-1.512-3.493-1.837-1.212-.322-2.59-.239-3.958-.156-1.9.115-3.788.232-5.375-.685-1.586-.913-2.42-2.592-3.26-4.277-.608-1.221-1.215-2.443-2.104-3.329-.885-.882-2.121-1.498-3.354-2.107-1.701-.844-3.392-1.685-4.308-3.27-.917-1.585-.799-3.45-.677-5.33.083-1.359.17-2.722-.153-3.934-.327-1.207-1.087-2.353-1.844-3.495-1.048-1.581-2.093-3.152-2.093-4.98 0-1.826 1.038-3.383 2.086-4.95.757-1.132 1.517-2.274 1.84-3.482s.24-2.582.157-3.948c-.115-1.893-.233-3.772.687-5.357.917-1.581 2.597-2.412 4.288-3.25 1.225-.605 2.455-1.21 3.34-2.096s1.503-2.115 2.114-3.34c.847-1.695 1.691-3.38 3.281-4.297 1.587-.914 3.462-.796 5.347-.679 1.361.087 2.732.173 3.944-.152s2.361-1.083 3.507-1.837c1.586-1.045 3.163-2.09 4.996-2.09s3.395 1.038 4.968 2.08c1.136.754 2.281 1.511 3.493 1.837 1.212.325 2.59.238 3.958.155 1.896-.114 3.784-.231 5.374.682 1.587.914 2.42 2.592 3.26 4.277.605 1.218 1.216 2.443 2.105 3.329.885.886 2.121 1.498 3.35 2.107 1.701.845 3.392 1.686 4.312 3.27.917 1.582.799 3.45.677 5.33-.083 1.356-.173 2.723.153 3.93.323 1.208 1.087 2.354 1.844 3.496 1.048 1.58 2.097 3.152 2.097 4.979s-1.042 3.384-2.087 4.952c-.757 1.131-1.517 2.273-1.84 3.481-.327 1.208-.24 2.578-.156 3.945.114 1.89.232 3.772-.684 5.357-.917 1.58-2.597 2.411-4.292 3.249-1.222.605-2.45 1.211-3.34 2.097s-1.5 2.114-2.114 3.343c-.847 1.695-1.69 3.38-3.281 4.294-1.587.917-3.462.796-5.347.678-1.36-.086-2.732-.173-3.944.152-1.212.326-2.36 1.084-3.507 1.838-1.586 1.048-3.162 2.087-4.996 2.087z" clip-rule="evenodd"/></clipPath><clipPath id="F"><path d="M40.532 77.475c1.482.983 2.958 1.962 4.583 1.962s3.118-.986 4.614-1.973c1.194-.785 2.392-1.578 3.712-1.93 1.322-.353 2.75-.263 4.17-.174 1.78.111 3.548.225 4.954-.584 1.402-.807 2.201-2.402 3.003-4.007.639-1.277 1.281-2.558 2.246-3.52.969-.965 2.25-1.598 3.524-2.228 1.597-.79 3.184-1.575 3.997-2.976s.704-3.18.593-4.97c-.087-1.421-.173-2.85.18-4.166.355-1.318 1.146-2.501 1.935-3.685.99-1.48 1.968-2.952 1.968-4.568s-.986-3.107-1.979-4.598c-.788-1.187-1.583-2.381-1.937-3.7-.354-1.318-.264-2.74-.174-4.156.115-1.775.226-3.536-.586-4.938-.81-1.401-2.41-2.193-4.021-2.993-1.281-.637-2.566-1.277-3.534-2.239-.966-.962-1.601-2.242-2.236-3.512-.792-1.592-1.58-3.173-2.983-3.983-1.406-.81-3.19-.702-4.985-.592-1.427.087-2.861.177-4.18-.18-1.323-.353-2.514-1.142-3.698-1.927-1.486-.983-2.962-1.962-4.583-1.962-1.622 0-3.114.983-4.61 1.969-1.195.785-2.393 1.578-3.712 1.93-1.323.354-2.75.264-4.17.174-1.778-.11-3.548-.225-4.955.585-1.406.806-2.2 2.405-3.003 4.007-.639 1.277-1.277 2.557-2.246 3.519-.969.965-2.25 1.599-3.524 2.228-1.597.79-3.187 1.575-3.996 2.973-.813 1.405-.702 3.184-.594 4.97.087 1.421.174 2.85-.177 4.165-.354 1.319-1.146 2.506-1.934 3.686-.99 1.477-1.969 2.948-1.969 4.567s.986 3.108 1.98 4.596c.788 1.19 1.583 2.384 1.937 3.699.354 1.318.264 2.74.173 4.156-.114 1.775-.225 3.537.587 4.938.81 1.401 2.41 2.197 4.02 2.993 1.278.637 2.563 1.274 3.532 2.24.968.965 1.604 2.241 2.235 3.511.792 1.592 1.58 3.177 2.983 3.983 1.406.81 3.19.7 4.986.592 1.427-.086 2.86-.173 4.18.177 1.323.352 2.513 1.141 3.697 1.927zm4.583 2.657c-1.83 0-3.396-1.034-4.968-2.08-1.136-.754-2.282-1.512-3.493-1.837-1.212-.322-2.59-.239-3.958-.156-1.9.115-3.788.232-5.375-.685-1.586-.913-2.42-2.592-3.26-4.277-.608-1.221-1.215-2.443-2.104-3.329-.885-.882-2.121-1.498-3.354-2.107-1.701-.844-3.392-1.685-4.308-3.27-.917-1.585-.799-3.45-.677-5.33.083-1.359.17-2.722-.153-3.934-.327-1.207-1.087-2.353-1.844-3.495-1.048-1.581-2.093-3.152-2.093-4.98 0-1.826 1.038-3.383 2.086-4.95.757-1.132 1.517-2.274 1.84-3.482s.24-2.582.157-3.948c-.115-1.893-.233-3.772.687-5.357.917-1.581 2.597-2.412 4.288-3.25 1.225-.605 2.455-1.21 3.34-2.096s1.503-2.115 2.114-3.34c.847-1.695 1.691-3.38 3.281-4.297 1.587-.914 3.462-.796 5.347-.679 1.361.087 2.732.173 3.944-.152s2.361-1.083 3.507-1.837c1.586-1.045 3.163-2.09 4.996-2.09s3.395 1.038 4.968 2.08c1.136.754 2.281 1.511 3.493 1.837 1.212.325 2.59.238 3.958.155 1.896-.114 3.784-.231 5.374.682 1.587.914 2.42 2.592 3.26 4.277.605 1.218 1.216 2.443 2.105 3.329.885.886 2.121 1.498 3.35 2.107 1.701.845 3.392 1.686 4.312 3.27.917 1.582.799 3.45.677 5.33-.083 1.356-.173 2.723.153 3.93.323 1.208 1.087 2.354 1.844 3.496 1.048 1.58 2.097 3.152 2.097 4.979s-1.042 3.384-2.087 4.952c-.757 1.131-1.517 2.273-1.84 3.481-.327 1.208-.24 2.578-.156 3.945.114 1.89.232 3.772-.684 5.357-.917 1.58-2.597 2.411-4.292 3.249-1.222.605-2.45 1.211-3.34 2.097s-1.5 2.114-2.114 3.343c-.847 1.695-1.69 3.38-3.281 4.294-1.587.917-3.462.796-5.347.678-1.36-.086-2.732-.173-3.944.152-1.212.326-2.36 1.084-3.507 1.838-1.586 1.048-3.162 2.087-4.996 2.087z" clip-rule="evenodd"/></clipPath><clipPath id="G"><path d="M40.532 77.475c1.482.983 2.958 1.962 4.583 1.962s3.118-.986 4.614-1.973c1.194-.785 2.392-1.578 3.712-1.93 1.322-.353 2.75-.263 4.17-.174 1.78.111 3.548.225 4.954-.584 1.402-.807 2.201-2.402 3.003-4.007.639-1.277 1.281-2.558 2.246-3.52.969-.965 2.25-1.598 3.524-2.228 1.597-.79 3.184-1.575 3.997-2.976s.704-3.18.593-4.97c-.087-1.421-.173-2.85.18-4.166.355-1.318 1.146-2.501 1.935-3.685.99-1.48 1.968-2.952 1.968-4.568s-.986-3.107-1.979-4.598c-.788-1.187-1.583-2.381-1.937-3.7-.354-1.318-.264-2.74-.174-4.156.115-1.775.226-3.536-.586-4.938-.81-1.401-2.41-2.193-4.021-2.993-1.281-.637-2.566-1.277-3.534-2.239-.966-.962-1.601-2.242-2.236-3.512-.792-1.592-1.58-3.173-2.983-3.983-1.406-.81-3.19-.702-4.985-.592-1.427.087-2.861.177-4.18-.18-1.323-.353-2.514-1.142-3.698-1.927-1.486-.983-2.962-1.962-4.583-1.962-1.622 0-3.114.983-4.61 1.969-1.195.785-2.393 1.578-3.712 1.93-1.323.354-2.75.264-4.17.174-1.778-.11-3.548-.225-4.955.585-1.406.806-2.2 2.405-3.003 4.007-.639 1.277-1.277 2.557-2.246 3.519-.969.965-2.25 1.599-3.524 2.228-1.597.79-3.187 1.575-3.996 2.973-.813 1.405-.702 3.184-.594 4.97.087 1.421.174 2.85-.177 4.165-.354 1.319-1.146 2.506-1.934 3.686-.99 1.477-1.969 2.948-1.969 4.567s.986 3.108 1.98 4.596c.788 1.19 1.583 2.384 1.937 3.699.354 1.318.264 2.74.173 4.156-.114 1.775-.225 3.537.587 4.938.81 1.401 2.41 2.197 4.02 2.993 1.278.637 2.563 1.274 3.532 2.24.968.965 1.604 2.241 2.235 3.511.792 1.592 1.58 3.177 2.983 3.983 1.406.81 3.19.7 4.986.592 1.427-.086 2.86-.173 4.18.177 1.323.352 2.513 1.141 3.697 1.927zm4.583 2.657c-1.83 0-3.396-1.034-4.968-2.08-1.136-.754-2.282-1.512-3.493-1.837-1.212-.322-2.59-.239-3.958-.156-1.9.115-3.788.232-5.375-.685-1.586-.913-2.42-2.592-3.26-4.277-.608-1.221-1.215-2.443-2.104-3.329-.885-.882-2.121-1.498-3.354-2.107-1.701-.844-3.392-1.685-4.308-3.27-.917-1.585-.799-3.45-.677-5.33.083-1.359.17-2.722-.153-3.934-.327-1.207-1.087-2.353-1.844-3.495-1.048-1.581-2.093-3.152-2.093-4.98 0-1.826 1.038-3.383 2.086-4.95.757-1.132 1.517-2.274 1.84-3.482s.24-2.582.157-3.948c-.115-1.893-.233-3.772.687-5.357.917-1.581 2.597-2.412 4.288-3.25 1.225-.605 2.455-1.21 3.34-2.096s1.503-2.115 2.114-3.34c.847-1.695 1.691-3.38 3.281-4.297 1.587-.914 3.462-.796 5.347-.679 1.361.087 2.732.173 3.944-.152s2.361-1.083 3.507-1.837c1.586-1.045 3.163-2.09 4.996-2.09s3.395 1.038 4.968 2.08c1.136.754 2.281 1.511 3.493 1.837 1.212.325 2.59.238 3.958.155 1.896-.114 3.784-.231 5.374.682 1.587.914 2.42 2.592 3.26 4.277.605 1.218 1.216 2.443 2.105 3.329.885.886 2.121 1.498 3.35 2.107 1.701.845 3.392 1.686 4.312 3.27.917 1.582.799 3.45.677 5.33-.083 1.356-.173 2.723.153 3.93.323 1.208 1.087 2.354 1.844 3.496 1.048 1.58 2.097 3.152 2.097 4.979s-1.042 3.384-2.087 4.952c-.757 1.131-1.517 2.273-1.84 3.481-.327 1.208-.24 2.578-.156 3.945.114 1.89.232 3.772-.684 5.357-.917 1.58-2.597 2.411-4.292 3.249-1.222.605-2.45 1.211-3.34 2.097s-1.5 2.114-2.114 3.343c-.847 1.695-1.69 3.38-3.281 4.294-1.587.917-3.462.796-5.347.678-1.36-.086-2.732-.173-3.944.152-1.212.326-2.36 1.084-3.507 1.838-1.586 1.048-3.162 2.087-4.996 2.087z" clip-rule="evenodd"/></clipPath><linearGradient id="c" x1="219.598" x2="103.329" y1="102.305" y2="218.968" gradientUnits="userSpaceOnUse"><stop offset="0%" stop-color="#482A0F"/><stop offset="1%" stop-color="#523112"/><stop offset="2%" stop-color="#5B3814"/><stop offset="3%" stop-color="#653F17"/><stop offset="4%" stop-color="#6E4619"/><stop offset="5%" stop-color="#784E1C"/><stop offset="6%" stop-color="#81551F"/><stop offset="7%" stop-color="#8B5C21"/><stop offset="8%" stop-color="#946324"/><stop offset="9%" stop-color="#9E6A26"/><stop offset="10%" stop-color="#A77129"/><stop offset="11%" stop-color="#B98D54"/><stop offset="12%" stop-color="#CAAA7F"/><stop offset="13%" stop-color="#DCC6A9"/><stop offset="14%" stop-color="#EDE3D4"/><stop offset="15%" stop-color="#FFF"/><stop offset="16%" stop-color="#FAF1E4"/><stop offset="17%" stop-color="#F4E3C9"/><stop offset="18%" stop-color="#EFD5AE"/><stop offset="19%" stop-color="#EAC892"/><stop offset="20%" stop-color="#E5BA77"/><stop offset="21%" stop-color="#DFAC5C"/><stop offset="22%" stop-color="#DA9E41"/><stop offset="23%" stop-color="#D4983F"/><stop offset="24%" stop-color="#CD933C"/><stop offset="25%" stop-color="#C78D3A"/><stop offset="26%" stop-color="#C18737"/><stop offset="27%" stop-color="#BA8135"/><stop offset="28%" stop-color="#B47C32"/><stop offset="29%" stop-color="#AE7630"/><stop offset="30%" stop-color="#A7702D"/><stop offset="31%" stop-color="#A16A2B"/><stop offset="32%" stop-color="#9B6528"/><stop offset="33%" stop-color="#945F26"/><stop offset="34%" stop-color="#8E5923"/><stop offset="35%" stop-color="#935E26"/><stop offset="36%" stop-color="#976328"/><stop offset="37%" stop-color="#9C672B"/><stop offset="38%" stop-color="#A16C2E"/><stop offset="39%" stop-color="#A57130"/><stop offset="40%" stop-color="#AA7633"/><stop offset="41%" stop-color="#AE7B35"/><stop offset="42%" stop-color="#B38038"/><stop offset="43%" stop-color="#B8843B"/><stop offset="44%" stop-color="#BC893D"/><stop offset="45%" stop-color="#C18E40"/><stop offset="46%" stop-color="#C69343"/><stop offset="47%" stop-color="#CA9845"/><stop offset="48%" stop-color="#CF9C48"/><stop offset="49%" stop-color="#D3A14A"/><stop offset="50%" stop-color="#D8A64D"/><stop offset="51%" stop-color="#DAAA50"/><stop offset="52%" stop-color="#DCAE53"/><stop offset="53%" stop-color="#DDB157"/><stop offset="54%" stop-color="#DFB55A"/><stop offset="55%" stop-color="#E1B95D"/><stop offset="56%" stop-color="#E3BD60"/><stop offset="57%" stop-color="#E5C163"/><stop offset="58%" stop-color="#E7C467"/><stop offset="59%" stop-color="#E8C86A"/><stop offset="60%" stop-color="#EACC6D"/><stop offset="61%" stop-color="#ECD070"/><stop offset="62%" stop-color="#EED473"/><stop offset="63%" stop-color="#F0D876"/><stop offset="64%" stop-color="#F1DB7A"/><stop offset="65%" stop-color="#F3DF7D"/><stop offset="66%" stop-color="#F5E380"/><stop offset="67%" stop-color="#F0DD7B"/><stop offset="68%" stop-color="#ECD877"/><stop offset="69%" stop-color="#E7D272"/><stop offset="70%" stop-color="#E3CC6D"/><stop offset="71%" stop-color="#DEC769"/><stop offset="72%" stop-color="#DAC164"/><stop offset="73%" stop-color="#E1CD83"/><stop offset="74%" stop-color="#E9DAA2"/><stop offset="75%" stop-color="#F0E6C1"/><stop offset="76%" stop-color="#F8F3E0"/><stop offset="77%" stop-color="#FFF"/><stop offset="78%" stop-color="#EFE8DC"/><stop offset="79%" stop-color="#DFD1B8"/><stop offset="80%" stop-color="#D0BA95"/><stop offset="81%" stop-color="#C0A372"/><stop offset="82%" stop-color="#B08C4E"/><stop offset="83%" stop-color="#A0752B"/><stop offset="84%" stop-color="#9D722A"/><stop offset="85%" stop-color="#996F29"/><stop offset="86%" stop-color="#966C28"/><stop offset="87%" stop-color="#926927"/><stop offset="88%" stop-color="#8F6626"/><stop offset="89%" stop-color="#8C6325"/><stop offset="90%" stop-color="#886024"/><stop offset="91%" stop-color="#855D23"/><stop offset="92%" stop-color="#815A21"/><stop offset="93%" stop-color="#7E5720"/><stop offset="94%" stop-color="#7A541F"/><stop offset="95%" stop-color="#77511E"/><stop offset="96%" stop-color="#744E1D"/><stop offset="97%" stop-color="#704B1C"/><stop offset="98%" stop-color="#6D481B"/><stop offset="99%" stop-color="#69451A"/><stop offset="100%" stop-color="#664219"/></linearGradient><linearGradient id="g" x1="104.187" x2="107.928" y1="-11.229" y2="96.325" gradientUnits="userSpaceOnUse"><stop offset="0%" stop-color="#F4C761"/><stop offset="1%" stop-color="#F1C45F"/><stop offset="2%" stop-color="#EFC25D"/><stop offset="3%" stop-color="#ECBF5B"/><stop offset="4%" stop-color="#E9BD59"/><stop offset="5%" stop-color="#E7BA58"/><stop offset="6%" stop-color="#E4B856"/><stop offset="7%" stop-color="#E1B554"/><stop offset="8%" stop-color="#DFB252"/><stop offset="9%" stop-color="#DCB050"/><stop offset="10%" stop-color="#D9AD4E"/><stop offset="11%" stop-color="#D7AB4C"/><stop offset="12%" stop-color="#D4A84A"/><stop offset="13%" stop-color="#D1A648"/><stop offset="14%" stop-color="#CFA346"/><stop offset="15%" stop-color="#CCA045"/><stop offset="16%" stop-color="#C99E43"/><stop offset="17%" stop-color="#C69B41"/><stop offset="18%" stop-color="#C4993F"/><stop offset="19%" stop-color="#C1963D"/><stop offset="20%" stop-color="#BE943B"/><stop offset="21%" stop-color="#BC9139"/><stop offset="22%" stop-color="#B98E37"/><stop offset="23%" stop-color="#B68C35"/><stop offset="24%" stop-color="#B48934"/><stop offset="25%" stop-color="#B18732"/><stop offset="26%" stop-color="#AE8430"/><stop offset="27%" stop-color="#AC822E"/><stop offset="28%" stop-color="#A97F2C"/><stop offset="29%" stop-color="#987028"/><stop offset="30%" stop-color="#886224"/><stop offset="31%" stop-color="#77531F"/><stop offset="32%" stop-color="#66451B"/><stop offset="33%" stop-color="#553617"/><stop offset="34%" stop-color="#442812"/><stop offset="35%" stop-color="#34190E"/><stop offset="36%" stop-color="#230B0A"/><stop offset="37%" stop-color="#2A110C"/><stop offset="38%" stop-color="#32180E"/><stop offset="39%" stop-color="#391E10"/><stop offset="40%" stop-color="#412512"/><stop offset="41%" stop-color="#482B14"/><stop offset="42%" stop-color="#4F3216"/><stop offset="43%" stop-color="#573818"/><stop offset="44%" stop-color="#5E3F1A"/><stop offset="45%" stop-color="#66451C"/><stop offset="46%" stop-color="#6D4C1E"/><stop offset="47%" stop-color="#5C3F19"/><stop offset="48%" stop-color="#4C3214"/><stop offset="49%" stop-color="#3B250F"/><stop offset="50%" stop-color="#2B180A"/><stop offset="51%" stop-color="#1A0B05"/><stop offset="52%" stop-color="#897E71"/><stop offset="53%" stop-color="#F8F1DE"/><stop offset="54%" stop-color="#F8F1DD"/><stop offset="55%" stop-color="#F8F0DC"/><stop offset="56%" stop-color="#F8F0DB"/><stop offset="57%" stop-color="#F7EFDB"/><stop offset="58%" stop-color="#F7EFDA"/><stop offset="59%" stop-color="#F7EED9"/><stop offset="60%" stop-color="#F7EED8"/><stop offset="61%" stop-color="#F7EED7"/><stop offset="62%" stop-color="#F7EDD6"/><stop offset="63%" stop-color="#F6EDD6"/><stop offset="64%" stop-color="#F6ECD5"/><stop offset="65%" stop-color="#F6ECD4"/><stop offset="66%" stop-color="#F6EBD3"/><stop offset="67%" stop-color="#F6EBD2"/><stop offset="68%" stop-color="#F6EBD1"/><stop offset="69%" stop-color="#F6EAD0"/><stop offset="70%" stop-color="#F5EAD0"/><stop offset="71%" stop-color="#F5E9CF"/><stop offset="72%" stop-color="#F5E9CE"/><stop offset="73%" stop-color="#F5E9CD"/><stop offset="74%" stop-color="#F5E8CC"/><stop offset="75%" stop-color="#F5E8CB"/><stop offset="76%" stop-color="#F5E7CA"/><stop offset="77%" stop-color="#F4E7CA"/><stop offset="78%" stop-color="#F4E6C9"/><stop offset="79%" stop-color="#F4E6C8"/><stop offset="80%" stop-color="#F4E6C7"/><stop offset="81%" stop-color="#F4E5C6"/><stop offset="82%" stop-color="#F4E5C5"/><stop offset="83%" stop-color="#F3E4C5"/><stop offset="84%" stop-color="#F3E4C4"/><stop offset="85%" stop-color="#F3E3C3"/><stop offset="86%" stop-color="#F3E3C2"/><stop offset="87%" stop-color="#F0DFBB"/><stop offset="88%" stop-color="#EEDBB3"/><stop offset="89%" stop-color="#EBD7AC"/><stop offset="90%" stop-color="#E9D3A5"/><stop offset="91%" stop-color="#E6CF9D"/><stop offset="92%" stop-color="#E4CB96"/><stop offset="93%" stop-color="#E1C78E"/><stop offset="94%" stop-color="#DFC387"/><stop offset="95%" stop-color="#DCBF80"/><stop offset="96%" stop-color="#DABB78"/><stop offset="97%" stop-color="#D7B771"/><stop offset="98%" stop-color="#D5B36A"/><stop offset="99%" stop-color="#D2AF62"/><stop offset="100%" stop-color="#D0AB5B"/></linearGradient><linearGradient id="k" x1="-85.737" x2="19.551" y1="-13.458" y2="-95.993" gradientUnits="userSpaceOnUse"><stop offset="0%" stop-color="#482A0F"/><stop offset="1%" stop-color="#523112"/><stop offset="2%" stop-color="#5B3814"/><stop offset="3%" stop-color="#653F17"/><stop offset="4%" stop-color="#6E4619"/><stop offset="5%" stop-color="#784E1C"/><stop offset="6%" stop-color="#81551F"/><stop offset="7%" stop-color="#8B5C21"/><stop offset="8%" stop-color="#946324"/><stop offset="9%" stop-color="#9E6A26"/><stop offset="10%" stop-color="#A77129"/><stop offset="11%" stop-color="#B98D54"/><stop offset="12%" stop-color="#CAAA7F"/><stop offset="13%" stop-color="#DCC6A9"/><stop offset="14%" stop-color="#EDE3D4"/><stop offset="15%" stop-color="#FFF"/><stop offset="16%" stop-color="#FAF1E4"/><stop offset="17%" stop-color="#F4E3C9"/><stop offset="18%" stop-color="#EFD5AE"/><stop offset="19%" stop-color="#EAC892"/><stop offset="20%" stop-color="#E5BA77"/><stop offset="21%" stop-color="#DFAC5C"/><stop offset="22%" stop-color="#DA9E41"/><stop offset="23%" stop-color="#D4983F"/><stop offset="24%" stop-color="#CD933C"/><stop offset="25%" stop-color="#C78D3A"/><stop offset="26%" stop-color="#C18737"/><stop offset="27%" stop-color="#BA8135"/><stop offset="28%" stop-color="#B47C32"/><stop offset="29%" stop-color="#AE7630"/><stop offset="30%" stop-color="#A7702D"/><stop offset="31%" stop-color="#A16A2B"/><stop offset="32%" stop-color="#9B6528"/><stop offset="33%" stop-color="#945F26"/><stop offset="34%" stop-color="#8E5923"/><stop offset="35%" stop-color="#935E26"/><stop offset="36%" stop-color="#976328"/><stop offset="37%" stop-color="#9C672B"/><stop offset="38%" stop-color="#A16C2E"/><stop offset="39%" stop-color="#A57130"/><stop offset="40%" stop-color="#AA7633"/><stop offset="41%" stop-color="#AE7B35"/><stop offset="42%" stop-color="#B38038"/><stop offset="43%" stop-color="#B8843B"/><stop offset="44%" stop-color="#BC893D"/><stop offset="45%" stop-color="#C18E40"/><stop offset="46%" stop-color="#C69343"/><stop offset="47%" stop-color="#CA9845"/><stop offset="48%" stop-color="#CF9C48"/><stop offset="49%" stop-color="#D3A14A"/><stop offset="50%" stop-color="#D8A64D"/><stop offset="51%" stop-color="#DAAA50"/><stop offset="52%" stop-color="#DCAE53"/><stop offset="53%" stop-color="#DDB157"/><stop offset="54%" stop-color="#DFB55A"/><stop offset="55%" stop-color="#E1B95D"/><stop offset="56%" stop-color="#E3BD60"/><stop offset="57%" stop-color="#E5C163"/><stop offset="58%" stop-color="#E7C467"/><stop offset="59%" stop-color="#E8C86A"/><stop offset="60%" stop-color="#EACC6D"/><stop offset="61%" stop-color="#ECD070"/><stop offset="62%" stop-color="#EED473"/><stop offset="63%" stop-color="#F0D876"/><stop offset="64%" stop-color="#F1DB7A"/><stop offset="65%" stop-color="#F3DF7D"/><stop offset="66%" stop-color="#F5E380"/><stop offset="67%" stop-color="#F0DD7B"/><stop offset="68%" stop-color="#ECD877"/><stop offset="69%" stop-color="#E7D272"/><stop offset="70%" stop-color="#E3CC6D"/><stop offset="71%" stop-color="#DEC769"/><stop offset="72%" stop-color="#DAC164"/><stop offset="73%" stop-color="#E1CD83"/><stop offset="74%" stop-color="#E9DAA2"/><stop offset="75%" stop-color="#F0E6C1"/><stop offset="76%" stop-color="#F8F3E0"/><stop offset="77%" stop-color="#FFF"/><stop offset="78%" stop-color="#EFE8DC"/><stop offset="79%" stop-color="#DFD1B8"/><stop offset="80%" stop-color="#D0BA95"/><stop offset="81%" stop-color="#C0A372"/><stop offset="82%" stop-color="#B08C4E"/><stop offset="83%" stop-color="#A0752B"/><stop offset="84%" stop-color="#9D722A"/><stop offset="85%" stop-color="#996F29"/><stop offset="86%" stop-color="#966C28"/><stop offset="87%" stop-color="#926927"/><stop offset="88%" stop-color="#8F6626"/><stop offset="89%" stop-color="#8C6325"/><stop offset="90%" stop-color="#886024"/><stop offset="91%" stop-color="#855D23"/><stop offset="92%" stop-color="#815A21"/><stop offset="93%" stop-color="#7E5720"/><stop offset="94%" stop-color="#7A541F"/><stop offset="95%" stop-color="#77511E"/><stop offset="96%" stop-color="#744E1D"/><stop offset="97%" stop-color="#704B1C"/><stop offset="98%" stop-color="#6D481B"/><stop offset="99%" stop-color="#69451A"/><stop offset="100%" stop-color="#664219"/></linearGradient><linearGradient id="o" x1="90.646" x2="-6.971" y1="186.937" y2="186.937" gradientUnits="userSpaceOnUse"><stop offset="0%" stop-color="#B2AC9F"/><stop offset="1%" stop-color="#B3AEA1"/><stop offset="2%" stop-color="#B4AFA2"/><stop offset="3%" stop-color="#B6B1A4"/><stop offset="4%" stop-color="#B7B2A5"/><stop offset="5%" stop-color="#B8B4A7"/><stop offset="6%" stop-color="#C1BDB2"/><stop offset="7%" stop-color="#CAC7BD"/><stop offset="8%" stop-color="#D3D0C8"/><stop offset="9%" stop-color="#DCD9D3"/><stop offset="10%" stop-color="#E4E3DE"/><stop offset="11%" stop-color="#EDECE9"/><stop offset="12%" stop-color="#F6F6F4"/><stop offset="13%" stop-color="#FFF"/><stop offset="14%" stop-color="#FDFDFC"/><stop offset="15%" stop-color="#FBFAF9"/><stop offset="16%" stop-color="#F9F8F6"/><stop offset="17%" stop-color="#F7F6F3"/><stop offset="18%" stop-color="#F5F3F0"/><stop offset="19%" stop-color="#F3F1ED"/><stop offset="20%" stop-color="#F1EEEA"/><stop offset="21%" stop-color="#EFECE7"/><stop offset="22%" stop-color="#EDEAE4"/><stop offset="23%" stop-color="#EAE7E1"/><stop offset="24%" stop-color="#E8E5DE"/><stop offset="25%" stop-color="#E6E3DB"/><stop offset="26%" stop-color="#E4E0D8"/><stop offset="27%" stop-color="#E2DED5"/><stop offset="28%" stop-color="#E0DCD2"/><stop offset="29%" stop-color="#DED9CF"/><stop offset="30%" stop-color="#DCD7CC"/><stop offset="31%" stop-color="#DAD4C9"/><stop offset="32%" stop-color="#D8D2C6"/><stop offset="33%" stop-color="#D6D0C3"/><stop offset="34%" stop-color="#D4CDC0"/><stop offset="35%" stop-color="#D2CBBD"/><stop offset="36%" stop-color="#D0C9BA"/><stop offset="37%" stop-color="#CEC6B7"/><stop offset="38%" stop-color="#CCC4B4"/><stop offset="39%" stop-color="#CAC2B1"/><stop offset="40%" stop-color="#C8BFAE"/><stop offset="41%" stop-color="#C5BDAB"/><stop offset="42%" stop-color="#C3BBA8"/><stop offset="43%" stop-color="#C1B8A5"/><stop offset="44%" stop-color="#BFB6A2"/><stop offset="45%" stop-color="#BDB39F"/><stop offset="46%" stop-color="#BBB19C"/><stop offset="47%" stop-color="#B9AF99"/><stop offset="48%" stop-color="#B7AC96"/><stop offset="49%" stop-color="#B5AA93"/><stop offset="50%" stop-color="#B7AC96"/><stop offset="51%" stop-color="#B9AF99"/><stop offset="52%" stop-color="#BBB19C"/><stop offset="53%" stop-color="#BDB49F"/><stop offset="54%" stop-color="#C0B6A2"/><stop offset="55%" stop-color="#C2B9A6"/><stop offset="56%" stop-color="#C4BBA9"/><stop offset="57%" stop-color="#C6BDAC"/><stop offset="58%" stop-color="#C8C0AF"/><stop offset="59%" stop-color="#CAC2B2"/><stop offset="60%" stop-color="#CCC5B5"/><stop offset="61%" stop-color="#CEC7B8"/><stop offset="62%" stop-color="#D0CABB"/><stop offset="63%" stop-color="#D3CCBE"/><stop offset="64%" stop-color="#D5CEC1"/><stop offset="65%" stop-color="#D7D1C4"/><stop offset="66%" stop-color="#D9D3C7"/><stop offset="67%" stop-color="#DBD6CB"/><stop offset="68%" stop-color="#DDD8CE"/><stop offset="69%" stop-color="#DFDBD1"/><stop offset="70%" stop-color="#E1DDD4"/><stop offset="71%" stop-color="#E4DFD7"/><stop offset="72%" stop-color="#E6E2DA"/><stop offset="73%" stop-color="#E8E4DD"/><stop offset="74%" stop-color="#EAE7E0"/><stop offset="75%" stop-color="#ECE9E3"/><stop offset="76%" stop-color="#EEECE6"/><stop offset="77%" stop-color="#F0EEE9"/><stop offset="78%" stop-color="#F2F0EC"/><stop offset="79%" stop-color="#F4F3F0"/><stop offset="80%" stop-color="#F7F5F3"/><stop offset="81%" stop-color="#F9F8F6"/><stop offset="82%" stop-color="#FBFAF9"/><stop offset="83%" stop-color="#FDFDFC"/><stop offset="84%" stop-color="#FFF"/><stop offset="85%" stop-color="#F7F7F6"/><stop offset="86%" stop-color="#EFEEED"/><stop offset="87%" stop-color="#E7E6E3"/><stop offset="88%" stop-color="#E0DEDA"/><stop offset="89%" stop-color="#D8D5D1"/><stop offset="90%" stop-color="#D0CDC8"/><stop offset="91%" stop-color="#CBC7C1"/><stop offset="92%" stop-color="#C6C2BA"/><stop offset="93%" stop-color="#C1BCB3"/><stop offset="94%" stop-color="#BCB6AC"/><stop offset="95%" stop-color="#B6B1A5"/><stop offset="96%" stop-color="#B1AB9E"/><stop offset="97%" stop-color="#ACA597"/><stop offset="98%" stop-color="#A79F90"/><stop offset="99%" stop-color="#A29A89"/><stop offset="100%" stop-color="#9D9482"/></linearGradient><linearGradient id="s" x1="136.189" x2="110.562" y1="7.098" y2="118.471" gradientUnits="userSpaceOnUse"><stop offset="0%" stop-color="#482A0F"/><stop offset="1%" stop-color="#523112"/><stop offset="2%" stop-color="#5B3814"/><stop offset="3%" stop-color="#653F17"/><stop offset="4%" stop-color="#6E4619"/><stop offset="5%" stop-color="#784E1C"/><stop offset="6%" stop-color="#81551F"/><stop offset="7%" stop-color="#8B5C21"/><stop offset="8%" stop-color="#946324"/><stop offset="9%" stop-color="#9E6A26"/><stop offset="10%" stop-color="#A77129"/><stop offset="11%" stop-color="#B98D54"/><stop offset="12%" stop-color="#CAAA7F"/><stop offset="13%" stop-color="#DCC6A9"/><stop offset="14%" stop-color="#EDE3D4"/><stop offset="15%" stop-color="#FFF"/><stop offset="16%" stop-color="#FAF1E4"/><stop offset="17%" stop-color="#F4E3C9"/><stop offset="18%" stop-color="#EFD5AE"/><stop offset="19%" stop-color="#EAC892"/><stop offset="20%" stop-color="#E5BA77"/><stop offset="21%" stop-color="#DFAC5C"/><stop offset="22%" stop-color="#DA9E41"/><stop offset="23%" stop-color="#D4983F"/><stop offset="24%" stop-color="#CD933C"/><stop offset="25%" stop-color="#C78D3A"/><stop offset="26%" stop-color="#C18737"/><stop offset="27%" stop-color="#BA8135"/><stop offset="28%" stop-color="#B47C32"/><stop offset="29%" stop-color="#AE7630"/><stop offset="30%" stop-color="#A7702D"/><stop offset="31%" stop-color="#A16A2B"/><stop offset="32%" stop-color="#9B6528"/><stop offset="33%" stop-color="#945F26"/><stop offset="34%" stop-color="#8E5923"/><stop offset="35%" stop-color="#935E26"/><stop offset="36%" stop-color="#976328"/><stop offset="37%" stop-color="#9C672B"/><stop offset="38%" stop-color="#A16C2E"/><stop offset="39%" stop-color="#A57130"/><stop offset="40%" stop-color="#AA7633"/><stop offset="41%" stop-color="#AE7B35"/><stop offset="42%" stop-color="#B38038"/><stop offset="43%" stop-color="#B8843B"/><stop offset="44%" stop-color="#BC893D"/><stop offset="45%" stop-color="#C18E40"/><stop offset="46%" stop-color="#C69343"/><stop offset="47%" stop-color="#CA9845"/><stop offset="48%" stop-color="#CF9C48"/><stop offset="49%" stop-color="#D3A14A"/><stop offset="50%" stop-color="#D8A64D"/><stop offset="51%" stop-color="#DAAA50"/><stop offset="52%" stop-color="#DCAE53"/><stop offset="53%" stop-color="#DDB157"/><stop offset="54%" stop-color="#DFB55A"/><stop offset="55%" stop-color="#E1B95D"/><stop offset="56%" stop-color="#E3BD60"/><stop offset="57%" stop-color="#E5C163"/><stop offset="58%" stop-color="#E7C467"/><stop offset="59%" stop-color="#E8C86A"/><stop offset="60%" stop-color="#EACC6D"/><stop offset="61%" stop-color="#ECD070"/><stop offset="62%" stop-color="#EED473"/><stop offset="63%" stop-color="#F0D876"/><stop offset="64%" stop-color="#F1DB7A"/><stop offset="65%" stop-color="#F3DF7D"/><stop offset="66%" stop-color="#F5E380"/><stop offset="67%" stop-color="#F0DD7B"/><stop offset="68%" stop-color="#ECD877"/><stop offset="69%" stop-color="#E7D272"/><stop offset="70%" stop-color="#E3CC6D"/><stop offset="71%" stop-color="#DEC769"/><stop offset="72%" stop-color="#DAC164"/><stop offset="73%" stop-color="#E1CD83"/><stop offset="74%" stop-color="#E9DAA2"/><stop offset="75%" stop-color="#F0E6C1"/><stop offset="76%" stop-color="#F8F3E0"/><stop offset="77%" stop-color="#FFF"/><stop offset="78%" stop-color="#EFE8DC"/><stop offset="79%" stop-color="#DFD1B8"/><stop offset="80%" stop-color="#D0BA95"/><stop offset="81%" stop-color="#C0A372"/><stop offset="82%" stop-color="#B08C4E"/><stop offset="83%" stop-color="#A0752B"/><stop offset="84%" stop-color="#9D722A"/><stop offset="85%" stop-color="#996F29"/><stop offset="86%" stop-color="#966C28"/><stop offset="87%" stop-color="#926927"/><stop offset="88%" stop-color="#8F6626"/><stop offset="89%" stop-color="#8C6325"/><stop offset="90%" stop-color="#886024"/><stop offset="91%" stop-color="#855D23"/><stop offset="92%" stop-color="#815A21"/><stop offset="93%" stop-color="#7E5720"/><stop offset="94%" stop-color="#7A541F"/><stop offset="95%" stop-color="#77511E"/><stop offset="96%" stop-color="#744E1D"/><stop offset="97%" stop-color="#704B1C"/><stop offset="98%" stop-color="#6D481B"/><stop offset="99%" stop-color="#69451A"/><stop offset="100%" stop-color="#664219"/></linearGradient><linearGradient id="w" x1="80.734" x2="99.494" y1="-12.526" y2="84.305" gradientUnits="userSpaceOnUse"><stop offset="0%" stop-color="#482A0F"/><stop offset="1%" stop-color="#523112"/><stop offset="2%" stop-color="#5B3814"/><stop offset="3%" stop-color="#653F17"/><stop offset="4%" stop-color="#6E4619"/><stop offset="5%" stop-color="#784E1C"/><stop offset="6%" stop-color="#81551F"/><stop offset="7%" stop-color="#8B5C21"/><stop offset="8%" stop-color="#946324"/><stop offset="9%" stop-color="#9E6A26"/><stop offset="10%" stop-color="#A77129"/><stop offset="11%" stop-color="#B98D54"/><stop offset="12%" stop-color="#CAAA7F"/><stop offset="13%" stop-color="#DCC6A9"/><stop offset="14%" stop-color="#EDE3D4"/><stop offset="15%" stop-color="#FFF"/><stop offset="16%" stop-color="#FAF1E4"/><stop offset="17%" stop-color="#F4E3C9"/><stop offset="18%" stop-color="#EFD5AE"/><stop offset="19%" stop-color="#EAC892"/><stop offset="20%" stop-color="#E5BA77"/><stop offset="21%" stop-color="#DFAC5C"/><stop offset="22%" stop-color="#DA9E41"/><stop offset="23%" stop-color="#D4983F"/><stop offset="24%" stop-color="#CD933C"/><stop offset="25%" stop-color="#C78D3A"/><stop offset="26%" stop-color="#C18737"/><stop offset="27%" stop-color="#BA8135"/><stop offset="28%" stop-color="#B47C32"/><stop offset="29%" stop-color="#AE7630"/><stop offset="30%" stop-color="#A7702D"/><stop offset="31%" stop-color="#A16A2B"/><stop offset="32%" stop-color="#9B6528"/><stop offset="33%" stop-color="#945F26"/><stop offset="34%" stop-color="#8E5923"/><stop offset="35%" stop-color="#935E26"/><stop offset="36%" stop-color="#976328"/><stop offset="37%" stop-color="#9C672B"/><stop offset="38%" stop-color="#A16C2E"/><stop offset="39%" stop-color="#A57130"/><stop offset="40%" stop-color="#AA7633"/><stop offset="41%" stop-color="#AE7B35"/><stop offset="42%" stop-color="#B38038"/><stop offset="43%" stop-color="#B8843B"/><stop offset="44%" stop-color="#BC893D"/><stop offset="45%" stop-color="#C18E40"/><stop offset="46%" stop-color="#C69343"/><stop offset="47%" stop-color="#CA9845"/><stop offset="48%" stop-color="#CF9C48"/><stop offset="49%" stop-color="#D3A14A"/><stop offset="50%" stop-color="#D8A64D"/><stop offset="51%" stop-color="#DAAA50"/><stop offset="52%" stop-color="#DCAE53"/><stop offset="53%" stop-color="#DDB157"/><stop offset="54%" stop-color="#DFB55A"/><stop offset="55%" stop-color="#E1B95D"/><stop offset="56%" stop-color="#E3BD60"/><stop offset="57%" stop-color="#E5C163"/><stop offset="58%" stop-color="#E7C467"/><stop offset="59%" stop-color="#E8C86A"/><stop offset="60%" stop-color="#EACC6D"/><stop offset="61%" stop-color="#ECD070"/><stop offset="62%" stop-color="#EED473"/><stop offset="63%" stop-color="#F0D876"/><stop offset="64%" stop-color="#F1DB7A"/><stop offset="65%" stop-color="#F3DF7D"/><stop offset="66%" stop-color="#F5E380"/><stop offset="67%" stop-color="#F0DD7B"/><stop offset="68%" stop-color="#ECD877"/><stop offset="69%" stop-color="#E7D272"/><stop offset="70%" stop-color="#E3CC6D"/><stop offset="71%" stop-color="#DEC769"/><stop offset="72%" stop-color="#DAC164"/><stop offset="73%" stop-color="#E1CD83"/><stop offset="74%" stop-color="#E9DAA2"/><stop offset="75%" stop-color="#F0E6C1"/><stop offset="76%" stop-color="#F8F3E0"/><stop offset="77%" stop-color="#FFF"/><stop offset="78%" stop-color="#EFE8DC"/><stop offset="79%" stop-color="#DFD1B8"/><stop offset="80%" stop-color="#D0BA95"/><stop offset="81%" stop-color="#C0A372"/><stop offset="82%" stop-color="#B08C4E"/><stop offset="83%" stop-color="#A0752B"/><stop offset="84%" stop-color="#9D722A"/><stop offset="85%" stop-color="#996F29"/><stop offset="86%" stop-color="#966C28"/><stop offset="87%" stop-color="#926927"/><stop offset="88%" stop-color="#8F6626"/><stop offset="89%" stop-color="#8C6325"/><stop offset="90%" stop-color="#886024"/><stop offset="91%" stop-color="#855D23"/><stop offset="92%" stop-color="#815A21"/><stop offset="93%" stop-color="#7E5720"/><stop offset="94%" stop-color="#7A541F"/><stop offset="95%" stop-color="#77511E"/><stop offset="96%" stop-color="#744E1D"/><stop offset="97%" stop-color="#704B1C"/><stop offset="98%" stop-color="#6D481B"/><stop offset="99%" stop-color="#69451A"/><stop offset="100%" stop-color="#664219"/></linearGradient><linearGradient id="A" x1="89.351" x2="89.351" y1="-.031" y2="89.32" gradientUnits="userSpaceOnUse"><stop offset="0%" stop-color="#BA9555"/><stop offset="1%" stop-color="#B79051"/><stop offset="2%" stop-color="#B48B4D"/><stop offset="3%" stop-color="#B18649"/><stop offset="4%" stop-color="#AE8145"/><stop offset="5%" stop-color="#AB7C41"/><stop offset="6%" stop-color="#A8773C"/><stop offset="7%" stop-color="#A57138"/><stop offset="8%" stop-color="#A26C34"/><stop offset="9%" stop-color="#9F6730"/><stop offset="10%" stop-color="#9C622C"/><stop offset="11%" stop-color="#995D28"/><stop offset="12%" stop-color="#965824"/><stop offset="13%" stop-color="#9A5E29"/><stop offset="14%" stop-color="#9D632E"/><stop offset="15%" stop-color="#A16933"/><stop offset="16%" stop-color="#A56F37"/><stop offset="17%" stop-color="#A8743C"/><stop offset="18%" stop-color="#AC7A41"/><stop offset="19%" stop-color="#AF7F46"/><stop offset="20%" stop-color="#B3854B"/><stop offset="21%" stop-color="#B78B50"/><stop offset="22%" stop-color="#BA9055"/><stop offset="23%" stop-color="#BE9659"/><stop offset="24%" stop-color="#C29C5E"/><stop offset="25%" stop-color="#C5A163"/><stop offset="26%" stop-color="#C9A768"/><stop offset="27%" stop-color="#CDAD6D"/><stop offset="28%" stop-color="#D0B272"/><stop offset="29%" stop-color="#D4B877"/><stop offset="30%" stop-color="#D8BE7B"/><stop offset="31%" stop-color="#DBC380"/><stop offset="32%" stop-color="#DFC985"/><stop offset="33%" stop-color="#E2CE8A"/><stop offset="34%" stop-color="#E6D48F"/><stop offset="35%" stop-color="#EADA94"/><stop offset="36%" stop-color="#EDDF99"/><stop offset="37%" stop-color="#F1E59D"/><stop offset="38%" stop-color="#F5EBA2"/><stop offset="39%" stop-color="#F8F0A7"/><stop offset="40%" stop-color="#FCF6AC"/><stop offset="41%" stop-color="#FAF3A9"/><stop offset="42%" stop-color="#F9F1A5"/><stop offset="43%" stop-color="#F7EEA2"/><stop offset="44%" stop-color="#F6EB9F"/><stop offset="45%" stop-color="#F4E89C"/><stop offset="46%" stop-color="#F3E698"/><stop offset="47%" stop-color="#F1E395"/><stop offset="48%" stop-color="#F0E092"/><stop offset="49%" stop-color="#EEDD8E"/><stop offset="50%" stop-color="#EDDB8B"/><stop offset="51%" stop-color="#EBD888"/><stop offset="52%" stop-color="#EAD584"/><stop offset="53%" stop-color="#E8D281"/><stop offset="54%" stop-color="#E7D07E"/><stop offset="55%" stop-color="#E5CD7B"/><stop offset="56%" stop-color="#E4CA77"/><stop offset="57%" stop-color="#E2C774"/><stop offset="58%" stop-color="#E1C571"/><stop offset="59%" stop-color="#DFC26D"/><stop offset="60%" stop-color="#DEBF6A"/><stop offset="61%" stop-color="#DCBC67"/><stop offset="62%" stop-color="#DBBA63"/><stop offset="63%" stop-color="#D9B760"/><stop offset="64%" stop-color="#D8B45D"/><stop offset="65%" stop-color="#D6B15A"/><stop offset="66%" stop-color="#D5AF56"/><stop offset="67%" stop-color="#D3AC53"/><stop offset="68%" stop-color="#D2AA51"/><stop offset="69%" stop-color="#D1A84F"/><stop offset="70%" stop-color="#CFA64C"/><stop offset="71%" stop-color="#CEA44A"/><stop offset="72%" stop-color="#CDA248"/><stop offset="73%" stop-color="#CCA046"/><stop offset="74%" stop-color="#CA9E44"/><stop offset="75%" stop-color="#C99C42"/><stop offset="76%" stop-color="#C89A3F"/><stop offset="77%" stop-color="#C7983D"/><stop offset="78%" stop-color="#C6963B"/><stop offset="79%" stop-color="#C49439"/><stop offset="80%" stop-color="#C39237"/><stop offset="81%" stop-color="#C29035"/><stop offset="82%" stop-color="#C18E32"/><stop offset="83%" stop-color="#BF8C30"/><stop offset="84%" stop-color="#BE8A2E"/><stop offset="85%" stop-color="#BD882C"/><stop offset="86%" stop-color="#BB852C"/><stop offset="87%" stop-color="#B9822B"/><stop offset="88%" stop-color="#B87F2B"/><stop offset="89%" stop-color="#B67D2A"/><stop offset="90%" stop-color="#B47A2A"/><stop offset="91%" stop-color="#B27729"/><stop offset="92%" stop-color="#B07429"/><stop offset="93%" stop-color="#AF7128"/><stop offset="94%" stop-color="#AD6E28"/><stop offset="95%" stop-color="#AB6B27"/><stop offset="96%" stop-color="#A96827"/><stop offset="97%" stop-color="#A76626"/><stop offset="98%" stop-color="#A66326"/><stop offset="99%" stop-color="#A46025"/><stop offset="100%" stop-color="#A25D25"/></linearGradient><linearGradient id="E" x1="78.744" x2="97.074" y1="-10.984" y2="83.64" gradientUnits="userSpaceOnUse"><stop offset="0%" stop-color="#482A0F"/><stop offset="1%" stop-color="#523112"/><stop offset="2%" stop-color="#5B3814"/><stop offset="3%" stop-color="#653F17"/><stop offset="4%" stop-color="#6E4619"/><stop offset="5%" stop-color="#784E1C"/><stop offset="6%" stop-color="#81551F"/><stop offset="7%" stop-color="#8B5C21"/><stop offset="8%" stop-color="#946324"/><stop offset="9%" stop-color="#9E6A26"/><stop offset="10%" stop-color="#A77129"/><stop offset="11%" stop-color="#B98D54"/><stop offset="12%" stop-color="#CAAA7F"/><stop offset="13%" stop-color="#DCC6A9"/><stop offset="14%" stop-color="#EDE3D4"/><stop offset="15%" stop-color="#FFF"/><stop offset="16%" stop-color="#FAF1E4"/><stop offset="17%" stop-color="#F4E3C9"/><stop offset="18%" stop-color="#EFD5AE"/><stop offset="19%" stop-color="#EAC892"/><stop offset="20%" stop-color="#E5BA77"/><stop offset="21%" stop-color="#DFAC5C"/><stop offset="22%" stop-color="#DA9E41"/><stop offset="23%" stop-color="#D4983F"/><stop offset="24%" stop-color="#CD933C"/><stop offset="25%" stop-color="#C78D3A"/><stop offset="26%" stop-color="#C18737"/><stop offset="27%" stop-color="#BA8135"/><stop offset="28%" stop-color="#B47C32"/><stop offset="29%" stop-color="#AE7630"/><stop offset="30%" stop-color="#A7702D"/><stop offset="31%" stop-color="#A16A2B"/><stop offset="32%" stop-color="#9B6528"/><stop offset="33%" stop-color="#945F26"/><stop offset="34%" stop-color="#8E5923"/><stop offset="35%" stop-color="#935E26"/><stop offset="36%" stop-color="#976328"/><stop offset="37%" stop-color="#9C672B"/><stop offset="38%" stop-color="#A16C2E"/><stop offset="39%" stop-color="#A57130"/><stop offset="40%" stop-color="#AA7633"/><stop offset="41%" stop-color="#AE7B35"/><stop offset="42%" stop-color="#B38038"/><stop offset="43%" stop-color="#B8843B"/><stop offset="44%" stop-color="#BC893D"/><stop offset="45%" stop-color="#C18E40"/><stop offset="46%" stop-color="#C69343"/><stop offset="47%" stop-color="#CA9845"/><stop offset="48%" stop-color="#CF9C48"/><stop offset="49%" stop-color="#D3A14A"/><stop offset="50%" stop-color="#D8A64D"/><stop offset="51%" stop-color="#DAAA50"/><stop offset="52%" stop-color="#DCAE53"/><stop offset="53%" stop-color="#DDB157"/><stop offset="54%" stop-color="#DFB55A"/><stop offset="55%" stop-color="#E1B95D"/><stop offset="56%" stop-color="#E3BD60"/><stop offset="57%" stop-color="#E5C163"/><stop offset="58%" stop-color="#E7C467"/><stop offset="59%" stop-color="#E8C86A"/><stop offset="60%" stop-color="#EACC6D"/><stop offset="61%" stop-color="#ECD070"/><stop offset="62%" stop-color="#EED473"/><stop offset="63%" stop-color="#F0D876"/><stop offset="64%" stop-color="#F1DB7A"/><stop offset="65%" stop-color="#F3DF7D"/><stop offset="66%" stop-color="#F5E380"/><stop offset="67%" stop-color="#F0DD7B"/><stop offset="68%" stop-color="#ECD877"/><stop offset="69%" stop-color="#E7D272"/><stop offset="70%" stop-color="#E3CC6D"/><stop offset="71%" stop-color="#DEC769"/><stop offset="72%" stop-color="#DAC164"/><stop offset="73%" stop-color="#E1CD83"/><stop offset="74%" stop-color="#E9DAA2"/><stop offset="75%" stop-color="#F0E6C1"/><stop offset="76%" stop-color="#F8F3E0"/><stop offset="77%" stop-color="#FFF"/><stop offset="78%" stop-color="#EFE8DC"/><stop offset="79%" stop-color="#DFD1B8"/><stop offset="80%" stop-color="#D0BA95"/><stop offset="81%" stop-color="#C0A372"/><stop offset="82%" stop-color="#B08C4E"/><stop offset="83%" stop-color="#A0752B"/><stop offset="84%" stop-color="#9D722A"/><stop offset="85%" stop-color="#996F29"/><stop offset="86%" stop-color="#966C28"/><stop offset="87%" stop-color="#926927"/><stop offset="88%" stop-color="#8F6626"/><stop offset="89%" stop-color="#8C6325"/><stop offset="90%" stop-color="#886024"/><stop offset="91%" stop-color="#855D23"/><stop offset="92%" stop-color="#815A21"/><stop offset="93%" stop-color="#7E5720"/><stop offset="94%" stop-color="#7A541F"/><stop offset="95%" stop-color="#77511E"/><stop offset="96%" stop-color="#744E1D"/><stop offset="97%" stop-color="#704B1C"/><stop offset="98%" stop-color="#6D481B"/><stop offset="99%" stop-color="#69451A"/><stop offset="100%" stop-color="#664219"/></linearGradient></defs><g clip-path="url(#a)" transform="scale(1.3333)"><path fill-rule="evenodd" d="M44.809 81.557c-21.114 0-38.337-17.162-38.337-38.21C6.472 22.302 23.695 5.14 44.81 5.14s38.336 17.165 38.336 38.209-17.222 38.209-38.336 38.209m4.06 1.485c22.441-3.55 37.746-24.561 34.184-46.929-3.563-22.367-24.644-37.62-47.085-34.07S-1.78 26.604 1.783 48.97C5.346 71.34 26.427 86.593 48.868 83.042"/><path fill="url(#c)" d="m0-117 89 89v233L0 116" clip-path="url(#b)" transform="matrix(1 0 0 -1 0 89)"/><path fill="#482A0F" fill-rule="evenodd" d="M0-115.55 89-26.85V0H0" clip-path="url(#d)" transform="matrix(1 0 0 -1 0 89)"/><path fill="#664219" fill-rule="evenodd" d="m0 114.989 89 88.699V89H0" clip-path="url(#e)" transform="matrix(1 0 0 -1 0 89)"/><path fill="none" d="M24.659 6.336C35.165.808 46.959.054 57.515 3.299s19.878 10.49 25.428 20.957C88.489 34.724 89.246 46.478 85.989 57 82.733 67.523 75.461 76.81 64.962 82.34c-10.5 5.528-22.294 6.28-32.85 3.034C21.556 82.13 12.234 74.882 6.684 64.42v-.007C1.137 53.95.381 42.196 3.641 31.675c3.256-10.52 10.528-19.811 21.024-25.342zm-.794-1.498C12.95 10.588 5.394 20.242 2.01 31.18c-3.384 10.935-2.6 23.153 3.166 34.032v.003C10.944 76.094 20.63 83.62 31.603 86.997c10.971 3.373 23.23 2.592 34.146-3.155h.003c10.916-5.749 18.472-15.404 21.856-26.339s2.6-23.156-3.165-34.031v-.007c-5.77-10.878-15.457-18.41-26.431-21.782C47.04-1.69 34.78-.908 23.865 4.838"/><path fill="url(#g)" d="m0-8 89-3V97l-89 3" clip-path="url(#f)" transform="matrix(1 0 0 -1 0 89)"/><path fill="#F4C761" fill-rule="evenodd" d="m0-6.605 89-3.096V0H0" clip-path="url(#h)" transform="matrix(1 0 0 -1 0 89)"/><path fill="#D0AB5B" fill-rule="evenodd" d="m0 99.08 89-3.097V89H0" clip-path="url(#i)" transform="matrix(1 0 0 -1 0 89)"/><path fill="none" d="M30.7 3.522C8.09 11.246-3.923 35.669 3.868 58.074c7.794 22.409 32.44 34.31 55.05 26.587 22.61-7.721 34.624-32.147 26.83-54.553C77.957 7.703 53.308-4.199 30.7 3.522"/><path fill="url(#k)" d="m0 96 89 113V-7L0-121" clip-path="url(#j)" transform="matrix(1 0 0 -1 0 89)"/><path fill="#482A0F" fill-rule="evenodd" d="M0 94.915 89 208.45V89H0" clip-path="url(#l)" transform="matrix(1 0 0 -1 0 89)"/><path fill="#664219" fill-rule="evenodd" d="M0-119.934 89-6.398V0H0" clip-path="url(#m)" transform="matrix(1 0 0 -1 0 89)"/><path fill="none" d="M32.344 10.373c-18.558 6.911-28.019 27.609-21.135 46.23 6.887 18.623 27.507 28.118 46.065 21.21C75.83 70.9 85.292 50.203 78.408 31.58 71.524 12.96 50.898 3.46 32.344 10.373"/><path fill="url(#o)" d="M90.646 0v89H-6.97V0" clip-path="url(#n)" transform="matrix(1 0 0 -1 0 89)"/><path fill="#B2AC9F" fill-rule="evenodd" d="M90.646 0v89H89V0" clip-path="url(#p)" transform="matrix(1 0 0 -1 0 89)"/><path fill="#9D9482" fill-rule="evenodd" d="M-6.971 0v89H0V0" clip-path="url(#q)" transform="matrix(1 0 0 -1 0 89)"/><path fill="none" d="M9.991 42.574c-.843 19.301 14.174 35.628 33.543 36.468 19.366.84 35.75-14.127 36.59-33.432.843-19.304-14.174-35.63-33.543-36.468-19.366-.84-35.747 14.127-36.59 33.432"/><path fill="url(#s)" d="M0-24 89-4v118L0 93" clip-path="url(#r)" transform="matrix(1 0 0 -1 0 89)"/><path fill="#482A0F" fill-rule="evenodd" d="M0-23.238 89-2.76V0H0" clip-path="url(#t)" transform="matrix(1 0 0 -1 0 89)"/><path fill="#664219" fill-rule="evenodd" d="m0 92.031 89 20.479V89H0" clip-path="url(#u)" transform="matrix(1 0 0 -1 0 89)"/><path fill="none" d="M14.022 59.11c-3.883-7.798-4.761-17.06-1.716-25.941 3.049-8.882 9.447-15.698 17.326-19.543a34.56 34.56 0 0 1 26.217-1.697c8.976 3.016 15.867 9.347 19.75 17.143s4.76 17.06 1.715 25.942c-3.048 8.882-9.446 15.7-17.325 19.543a34.56 34.56 0 0 1-26.217 1.697c-8.977-3.016-15.867-9.348-19.75-17.143m-2.205-26.106c-3.093 9.016-2.202 18.42 1.74 26.333 3.943 7.914 10.937 14.341 20.048 17.401a35.06 35.06 0 0 0 26.61-1.722c7.998-3.901 14.493-10.822 17.586-19.838 3.092-9.015 2.201-18.419-1.741-26.332S65.123 14.508 56.012 11.444A35.08 35.08 0 0 0 29.4 13.167c-7.998 3.9-14.494 10.822-17.586 19.837z"/><path fill="url(#w)" d="m0 3 89-17V86L0 104" clip-path="url(#v)" transform="matrix(1 0 0 -1 0 89)"/><path fill="#482A0F" fill-rule="evenodd" d="m0 4.116 89-17.243V0H0" clip-path="url(#x)" transform="matrix(1 0 0 -1 0 89)"/><path fill="#664219" fill-rule="evenodd" d="m0 102.58 89-17.242V89H0" clip-path="url(#y)" transform="matrix(1 0 0 -1 0 89)"/><path fill="none" d="M10.13 47.216a34.11 34.11 0 0 1 7.922-25.183c6.154-7.311 14.723-11.461 23.598-12.261 8.876-.8 18.058 1.751 25.446 7.841s11.581 14.57 12.39 23.354a34.11 34.11 0 0 1-7.924 25.183C65.408 73.46 56.839 77.61 47.964 78.41c-8.875.8-18.058-1.75-25.449-7.84C15.127 64.48 10.934 56 10.126 47.215zm7.522-25.518c-6.248 7.423-8.866 16.65-8.046 25.564.82 8.917 5.077 17.52 12.577 23.707 7.5 6.183 16.824 8.771 25.831 7.962 9.007-.812 17.704-5.027 23.952-12.45 6.248-7.42 8.866-16.646 8.045-25.563-.82-8.914-5.076-17.521-12.577-23.704-7.5-6.184-16.824-8.775-25.83-7.96-9.01.812-17.708 5.024-23.952 12.448z"/><path fill="url(#A)" d="M0-.031h89v89.35H0" clip-path="url(#z)" transform="matrix(1 0 0 -1 0 89)"/><path fill="#BA9555" fill-rule="evenodd" d="M0-.031h89V0H0" clip-path="url(#B)" transform="matrix(1 0 0 -1 0 89)"/><path fill="#A25D25" fill-rule="evenodd" d="M0 89.32h89V89H0" clip-path="url(#C)" transform="matrix(1 0 0 -1 0 89)"/><path fill="none" d="M34.375 5.485a.307.307 0 0 0-.218.38.313.313 0 0 0 .38.22.307.307 0 0 0 .219-.38.31.31 0 0 0-.38-.217zM24.65 9.502a.306.306 0 0 0-.113.424c.085.15.275.199.425.112a.31.31 0 0 0-.312-.535m-8.353 6.39a.312.312 0 1 0 .44 0 .31.31 0 0 0-.44 0m-6.409 8.325a.31.31 0 0 0 .113.424c.15.084.34.034.424-.115a.31.31 0 0 0-.112-.42.31.31 0 0 0-.425.111m-4.03 9.698a.31.31 0 1 0 .6.16.31.31 0 0 0-.219-.38.313.313 0 0 0-.38.22M4.481 44.323a.312.312 0 0 0 .624 0 .31.31 0 0 0-.312-.308.31.31 0 0 0-.312.308m1.373 10.408a.31.31 0 0 0 .381.217.307.307 0 0 0 .219-.38.31.31 0 0 0-.381-.217.31.31 0 0 0-.219.38m4.027 9.697c.087.147.275.2.425.113a.31.31 0 0 0-.312-.535.31.31 0 0 0-.116.422zm6.408 8.329a.312.312 0 0 0 .44-.439.317.317 0 0 0-.44 0 .31.31 0 0 0 0 .439m8.35 6.39c.15.087.337.034.425-.112a.312.312 0 0 0-.54-.311.31.31 0 0 0 .112.423zm9.727 4.018a.31.31 0 1 0 .163-.597.31.31 0 0 0-.163.597m10.438 1.369a.307.307 0 0 0 .309-.308.31.31 0 0 0-.309-.311.315.315 0 0 0-.312.31c0 .172.14.312.312.309m10.438-1.366a.31.31 0 0 0 .219-.38.31.31 0 1 0-.219.38m9.727-4.018a.31.31 0 1 0-.312-.534.31.31 0 0 0 .312.534m8.353-6.39a.312.312 0 1 0-.44 0 .31.31 0 0 0 .44 0m6.408-8.325a.31.31 0 0 0-.112-.424.313.313 0 0 0-.425.112.31.31 0 0 0 .116.424c.15.084.34.034.424-.112zm4.03-9.698a.31.31 0 1 0-.38.218.313.313 0 0 0 .38-.221zm1.377-10.408a.313.313 0 0 0-.624 0 .313.313 0 0 0 .624 0m-1.374-10.404a.31.31 0 1 0-.219.377.31.31 0 0 0 .22-.38zm-4.027-9.698a.31.31 0 0 0-.424-.112.31.31 0 0 0 .312.535c.15-.084.2-.274.112-.423m-6.408-8.329a.311.311 0 0 0-.44.44.312.312 0 0 0 .44-.44m-8.35-6.39a.31.31 0 0 0-.424.116.311.311 0 0 0 .54.311.31.31 0 0 0-.113-.423zm-9.726-4.017a.31.31 0 1 0-.163.597.31.31 0 0 0 .163-.597M39.65 4.45a.31.31 0 1 0 .078.613.31.31 0 0 0 .269-.348.313.313 0 0 0-.35-.268zm-10.176 2.69a.31.31 0 1 0 .238.572.31.31 0 1 0-.237-.573m-9.13 5.225a.314.314 0 0 0-.06.436c.107.136.3.161.435.056a.307.307 0 0 0 .06-.433.313.313 0 0 0-.435-.06m-7.463 7.404a.31.31 0 0 0 .056.436.31.31 0 1 0 .38-.492.316.316 0 0 0-.436.056m-5.288 9.075a.31.31 0 0 0 .571.24.31.31 0 0 0-.571-.24M4.843 38.98a.311.311 0 0 0 .618.084.31.31 0 0 0-.265-.348.314.314 0 0 0-.35.267zm-.028 10.498c.022.168.178.29.346.264a.309.309 0 1 0-.08-.613.31.31 0 0 0-.27.349zm2.7 10.146a.31.31 0 1 0 .574-.237.31.31 0 0 0-.574.237m5.24 9.104a.31.31 0 0 0 .494-.374.311.311 0 1 0-.496.377zm7.427 7.441c.134.106.33.081.434-.056a.314.314 0 0 0-.056-.436.316.316 0 0 0-.437.056.314.314 0 0 0 .056.436zm9.102 5.272a.31.31 0 0 0 .406-.168.307.307 0 0 0-.166-.404.309.309 0 1 0-.237.57zm10.16 2.742a.314.314 0 0 0 .35-.267.305.305 0 0 0-.265-.346.31.31 0 0 0-.35.265.31.31 0 0 0 .269.348zm10.526.028a.31.31 0 0 0 .268-.348.31.31 0 0 0-.615.08.31.31 0 0 0 .347.268m10.176-2.692a.31.31 0 1 0-.236-.572.31.31 0 0 0 .236.572m9.13-5.225a.31.31 0 0 0 .06-.433.313.313 0 0 0-.434-.06.31.31 0 1 0 .375.492m7.464-7.401a.31.31 0 0 0-.056-.436.31.31 0 1 0 .056.436m5.288-9.076a.31.31 0 0 0-.169-.405.31.31 0 0 0-.406.168.31.31 0 0 0 .574.237m2.75-10.13a.31.31 0 1 0-.347.264.314.314 0 0 0 .35-.265zm.028-10.495a.31.31 0 1 0-.615.08c.022.169.178.29.35.268a.31.31 0 0 0 .268-.345zm-2.697-10.146a.31.31 0 1 0-.574.237.31.31 0 0 0 .574-.237m-5.241-9.104a.31.31 0 0 0-.493.377c.103.137.3.162.437.059a.31.31 0 0 0 .056-.436m-7.426-7.438a.307.307 0 0 0-.434.056.314.314 0 0 0 .056.436c.137.102.331.077.437-.057a.304.304 0 0 0-.056-.432zM60.34 7.23a.31.31 0 1 0 .165.407.31.31 0 0 0-.169-.404zM50.18 4.489a.31.31 0 1 0 .265.348.31.31 0 0 0-.269-.348zm-13.152.398a.31.31 0 1 0 .122.607.31.31 0 0 0 .247-.364.314.314 0 0 0-.365-.246zm-9.976 3.355a.31.31 0 0 0-.143.414.306.306 0 0 0 .415.14.31.31 0 0 0 .143-.414.313.313 0 0 0-.415-.143zm-8.765 5.814a.309.309 0 1 0 .409.464.306.306 0 0 0 .028-.436.31.31 0 0 0-.437-.028m-6.958 7.877a.31.31 0 1 0 .515.346.31.31 0 1 0-.515-.343zm-4.676 9.402a.31.31 0 0 0 .194.396.31.31 0 0 0 .393-.193.31.31 0 0 0-.193-.393.31.31 0 0 0-.394.193zM4.578 41.628a.31.31 0 0 0 .29.33.31.31 0 0 0 .33-.287.31.31 0 0 0-.621-.04zm.668 10.476a.31.31 0 0 0 .365.242.31.31 0 1 0-.122-.607.31.31 0 0 0-.243.365M8.61 62.05a.31.31 0 0 0 .415.14.307.307 0 0 0 .14-.414.31.31 0 0 0-.415-.14.307.307 0 0 0-.14.414m5.83 8.739c.113.13.31.143.437.031a.306.306 0 0 0 .032-.436.315.315 0 0 0-.44-.03.306.306 0 0 0-.029.435m7.9 6.937a.31.31 0 0 0 .432-.084.306.306 0 0 0-.085-.43.31.31 0 1 0-.346.514m9.43 4.663a.313.313 0 0 0 .397-.193.307.307 0 0 0-.193-.393.31.31 0 1 0-.2.586zm10.32 2.07a.308.308 0 1 0 .044-.616.31.31 0 0 0-.044.618zm10.507-.667a.31.31 0 1 0-.122-.607.31.31 0 1 0 .122.607m9.977-3.352a.31.31 0 1 0-.416-.14.313.313 0 0 0 .416.143zm8.765-5.814a.31.31 0 0 0 .03-.435.31.31 0 0 0-.436-.031.31.31 0 0 0-.028.438.31.31 0 0 0 .437.028zm6.957-7.877a.31.31 0 0 0-.084-.43.31.31 0 0 0-.43.085.307.307 0 0 0 .084.43.314.314 0 0 0 .43-.085m4.676-9.405a.307.307 0 0 0-.193-.392.31.31 0 0 0-.393.193.313.313 0 0 0 .193.395.31.31 0 0 0 .393-.193zm2.076-10.29a.31.31 0 0 0-.618-.043.31.31 0 0 0 .29.33.31.31 0 0 0 .331-.286zm-.668-10.475a.31.31 0 0 0-.365-.243.31.31 0 1 0 .122.607.307.307 0 0 0 .243-.364m-3.362-9.944a.313.313 0 0 0-.415-.143.307.307 0 0 0-.14.414.313.313 0 0 0 .415.143.307.307 0 0 0 .14-.414m-5.83-8.74a.31.31 0 0 0-.438-.028.306.306 0 0 0-.03.436c.112.128.308.14.44.028a.31.31 0 0 0 .027-.436m-7.901-6.937a.31.31 0 1 0-.346.513.31.31 0 0 0 .346-.513m-9.433-4.662a.31.31 0 0 0-.393.193.307.307 0 0 0 .193.392.31.31 0 1 0 .2-.585M47.535 4.23a.308.308 0 1 0-.043.617.308.308 0 1 0 .04-.617zm-15.62 2.02a.31.31 0 0 0-.196.392.314.314 0 0 0 .393.196.31.31 0 0 0 .194-.392.31.31 0 0 0-.394-.193zm-9.448 4.628a.309.309 0 1 0 .343.514.306.306 0 0 0 .084-.43.31.31 0 0 0-.43-.084zm-7.926 6.91a.309.309 0 1 0 .465.407.304.304 0 0 0-.028-.436.31.31 0 0 0-.437.028M8.68 26.504a.31.31 0 0 0 .556.274.304.304 0 0 0-.14-.414.31.31 0 0 0-.416.14M5.28 36.44a.313.313 0 0 0 .243.364.31.31 0 0 0 .366-.243.31.31 0 0 0-.609-.121m-.705 10.472a.31.31 0 0 0 .62-.04.31.31 0 0 0-.62.04M6.61 57.211a.314.314 0 0 0 .393.196.31.31 0 0 0 .197-.392.314.314 0 0 0-.394-.196.314.314 0 0 0-.196.392m4.641 9.421a.31.31 0 1 0 .519-.343.31.31 0 0 0-.519.343m6.927 7.902a.309.309 0 1 0 .409-.464.31.31 0 0 0-.44.028.31.31 0 0 0 .028.436zm8.743 5.848a.31.31 0 1 0-.14-.414.314.314 0 0 0 .14.417zm9.964 3.39a.31.31 0 1 0 .123-.607.31.31 0 0 0-.123.606m10.504.703a.31.31 0 1 0-.331-.293.31.31 0 0 0 .33.29zm10.329-2.03a.31.31 0 1 0-.2-.585.31.31 0 0 0-.194.393.31.31 0 0 0 .394.193m9.448-4.627a.312.312 0 0 0-.346-.517.31.31 0 1 0 .343.513zm7.926-6.907a.313.313 0 0 0-.028-.438.309.309 0 1 0 .028.436zm5.862-8.717a.313.313 0 0 0-.14-.417.31.31 0 0 0-.416.14.307.307 0 0 0 .14.414c.154.074.34.012.416-.137m3.399-9.935a.31.31 0 0 0-.609-.121.31.31 0 0 0 .244.364.31.31 0 0 0 .365-.243m.705-10.47a.31.31 0 0 0-.33-.289.31.31 0 1 0 .04.62.31.31 0 0 0 .29-.33m-2.035-10.298a.314.314 0 0 0-.393-.196.31.31 0 0 0-.194.392.314.314 0 0 0 .394.196.31.31 0 0 0 .193-.392m-4.641-9.424a.311.311 0 0 0-.519.345.31.31 0 0 0 .518-.342zm-6.93-7.902a.31.31 0 0 0-.437.028.313.313 0 0 0 .028.439c.128.112.325.1.44-.028a.31.31 0 0 0-.028-.436zM62.709 8.32a.31.31 0 1 0-.274.553.31.31 0 0 0 .274-.553m-9.964-3.39a.31.31 0 1 0-.123.607.31.31 0 0 0 .123-.606m-10.504-.703a.31.31 0 0 0-.29.33c.01.168.16.299.33.29a.31.31 0 1 0-.04-.62m2.575-.08a.31.31 0 1 0 0 .62c.172-.001.313-.141.313-.31a.315.315 0 0 0-.312-.31"/><path fill="url(#E)" d="m0 4 89-17v98L0 102" clip-path="url(#D)" transform="matrix(1 0 0 -1 0 89)"/><path fill="#482A0F" fill-rule="evenodd" d="m0 5.27 89-17.24V0H0" clip-path="url(#F)" transform="matrix(1 0 0 -1 0 89)"/><path fill="#664219" fill-rule="evenodd" d="m0 101.444 89-17.24V89H0" clip-path="url(#G)" transform="matrix(1 0 0 -1 0 89)"/><path fill="none" d="M40.532 11.525c1.482-.983 2.958-1.962 4.583-1.962s3.118.986 4.614 1.973c1.194.785 2.392 1.578 3.712 1.93 1.322.353 2.75.263 4.17.174 1.78-.111 3.548-.225 4.954.584 1.402.807 2.201 2.402 3.003 4.007.639 1.277 1.281 2.558 2.246 3.52.969.965 2.25 1.598 3.524 2.228 1.597.79 3.184 1.575 3.997 2.976s.704 3.18.593 4.97c-.087 1.421-.173 2.85.18 4.166.355 1.318 1.146 2.501 1.935 3.685.99 1.48 1.968 2.952 1.968 4.568s-.986 3.107-1.979 4.598c-.788 1.187-1.583 2.381-1.937 3.7-.354 1.318-.264 2.74-.174 4.156.115 1.775.226 3.536-.586 4.938-.81 1.401-2.41 2.193-4.021 2.993-1.281.637-2.566 1.277-3.534 2.239-.966.962-1.601 2.242-2.236 3.512-.792 1.592-1.58 3.173-2.983 3.983-1.406.81-3.19.702-4.985.592-1.427-.087-2.861-.177-4.18.18-1.323.353-2.514 1.142-3.698 1.927-1.486.983-2.962 1.962-4.583 1.962-1.622 0-3.114-.983-4.61-1.969-1.195-.785-2.393-1.578-3.712-1.93-1.323-.354-2.75-.264-4.17-.174-1.778.11-3.548.225-4.955-.585-1.406-.806-2.2-2.405-3.003-4.007-.639-1.277-1.277-2.557-2.246-3.519-.969-.965-2.25-1.599-3.524-2.228-1.597-.79-3.187-1.575-3.996-2.973-.813-1.405-.702-3.184-.594-4.97.087-1.421.174-2.85-.177-4.165-.354-1.319-1.146-2.506-1.934-3.686-.99-1.477-1.969-2.948-1.969-4.567s.986-3.108 1.98-4.596c.788-1.19 1.583-2.384 1.937-3.699.354-1.318.264-2.74.173-4.156-.114-1.775-.225-3.537.587-4.938.81-1.401 2.41-2.197 4.02-2.993 1.278-.637 2.563-1.274 3.532-2.24.968-.965 1.604-2.241 2.235-3.511.792-1.592 1.58-3.177 2.983-3.983 1.406-.81 3.19-.7 4.986-.592 1.427.086 2.86.173 4.18-.177 1.323-.352 2.513-1.141 3.697-1.927zm4.583-2.657c-1.83 0-3.396 1.034-4.968 2.08-1.136.754-2.282 1.512-3.493 1.837-1.212.322-2.59.239-3.958.156-1.9-.115-3.788-.232-5.375.685-1.586.913-2.42 2.592-3.26 4.277-.608 1.221-1.215 2.443-2.104 3.329-.885.882-2.121 1.498-3.354 2.107-1.701.844-3.392 1.685-4.308 3.27-.917 1.585-.799 3.45-.677 5.33.083 1.359.17 2.722-.153 3.934-.327 1.207-1.087 2.353-1.844 3.495-1.048 1.581-2.093 3.152-2.093 4.98 0 1.826 1.038 3.383 2.086 4.95.757 1.132 1.517 2.274 1.84 3.482s.24 2.582.157 3.948c-.115 1.893-.233 3.772.687 5.357.917 1.581 2.597 2.412 4.288 3.25 1.225.605 2.455 1.21 3.34 2.096s1.503 2.115 2.114 3.34c.847 1.695 1.691 3.38 3.281 4.297 1.587.914 3.462.796 5.347.679 1.361-.087 2.732-.173 3.944.152s2.361 1.083 3.507 1.837c1.586 1.045 3.163 2.09 4.996 2.09s3.395-1.038 4.968-2.08c1.136-.754 2.281-1.511 3.493-1.837 1.212-.325 2.59-.238 3.958-.155 1.896.114 3.784.231 5.374-.682 1.587-.914 2.42-2.592 3.26-4.277.605-1.218 1.216-2.443 2.105-3.329.885-.886 2.121-1.498 3.35-2.107 1.701-.845 3.392-1.686 4.312-3.27.917-1.582.799-3.45.677-5.33-.083-1.356-.173-2.723.153-3.93.323-1.208 1.087-2.354 1.844-3.495 1.048-1.582 2.097-3.153 2.097-4.98s-1.042-3.384-2.087-4.952c-.757-1.131-1.517-2.273-1.84-3.481-.327-1.208-.24-2.578-.156-3.945.114-1.89.232-3.772-.684-5.357-.917-1.58-2.597-2.411-4.292-3.249-1.222-.605-2.45-1.211-3.34-2.097s-1.5-2.114-2.114-3.343c-.847-1.695-1.69-3.38-3.281-4.294-1.587-.917-3.462-.796-5.347-.678-1.36.086-2.732.173-3.944-.152-1.212-.326-2.36-1.084-3.507-1.838-1.586-1.048-3.162-2.087-4.996-2.087z"/><path fill-rule="evenodd" d="M45.073 6.46C15.903 6.43-2.454 38.332 12.284 63.41c12.874 22.261 44.476 25.282 61.387 5.928 11.614-12.904 12.604-33.182 2.285-47.137-6.975-9.776-18.752-15.808-30.81-15.745h-.073z"/></g></svg>