<svg xmlns="http://www.w3.org/2000/svg" width="199" height="143"><defs><clipPath id="a"><path d="M0 107V-.758h150V107z" clip-rule="evenodd"/></clipPath><clipPath id="b"><path d="m11.536 69.46 40.715-16.48 3.67 9.034L6.374 82.068l-.053-.126v-.002l-.005-.009-.003-.008v-.003l-.022-.052v-.001l-.006-.013a9.47 9.47 0 0 1 .065-7.28 9.5 9.5 0 0 1 5.176-5.11l.012-.005m40.827-17.903.593-.24.24.592 4.153 10.216.24.593-.594.24L6.294 83.478l-.545.22-.267-.521c-.056-.11-.121-.246-.199-.416a10 10 0 0 1-.186-.427l-.048-.118v-.001a10.75 10.75 0 0 1 .122-8.136 10.77 10.77 0 0 1 5.884-5.805l.117-.048zM7.228 86.65a9.5 9.5 0 0 0-5.188 5.115 9.47 9.47 0 0 0-.065 7.28v.002q.047.114.09.212l59.249-23.979-3.672-9.033zm50.527-21.828.593-.24.24.592 4.152 10.218.24.591-.593.24-60.401 24.447-.543.22-.266-.522a11 11 0 0 1-.389-.842l-.047-.118v-.002a10.74 10.74 0 0 1 .121-8.135 10.78 10.78 0 0 1 5.884-5.805l51.008-20.644M24.157 33.827l17.442-7.06 3.67 9.033-26.275 10.635-.065-.153-.006-.012-.003-.008-.008-.02v-.002l-.009-.019a9.47 9.47 0 0 1 .065-7.28 9.5 9.5 0 0 1 5.176-5.11zm17.554-8.485.593-.24.24.592 4.153 10.218.24.591-.594.24-27.428 11.102-.542.22-.267-.522a11 11 0 0 1-.389-.842l-.047-.117v-.003a10.74 10.74 0 0 1 .122-8.135c1.08-2.55 3.13-4.69 5.884-5.804l.117-.048zm97.234 42.933L97.638 51.557l-.594-.24-.24.592-4.153 10.216-.241.593.594.24 50.702 20.52.544.22.268-.522q.085-.167.2-.419.075-.162.133-.299l.002-.002.043-.103v-.002l.007-.016a10.74 10.74 0 0 0-.074-8.255 10.77 10.77 0 0 0-5.884-5.805M97.75 52.981l-3.67 9.033 49.548 20.054.09-.213.009-.025a9.47 9.47 0 0 0-.075-7.255 9.5 9.5 0 0 0-5.188-5.115zm45.504 32.486a10.77 10.77 0 0 1 5.883 5.805 10.74 10.74 0 0 1 .075 8.254v.002a12 12 0 0 1-.388.84l-.268.521-.541-.219-60.402-24.446-.593-.24.24-.592 4.153-10.217.24-.592.594.24zm-50.896-19.22 50.414 20.404a9.5 9.5 0 0 1 5.188 5.115 9.47 9.47 0 0 1 .078 7.246l-.013.035q-.047.115-.09.213L88.689 75.28zm33.849-33.654-17.917-7.251-.593-.24-.24.592-4.153 10.217-.24.592.593.24 27.429 11.102.545.22.267-.523a11 11 0 0 0 .384-.842l.048-.118v-.002a10.74 10.74 0 0 0-.122-8.135 10.78 10.78 0 0 0-5.884-5.805zm-17.804-5.827-3.671 9.034 26.275 10.633.058-.137.002-.004.004-.01.006-.013v-.002l.02-.046a9.47 9.47 0 0 0-.065-7.28 9.5 9.5 0 0 0-5.174-5.11l-.014-.004-17.44-7.06zm24.472 24.02-29.992-12.139-.594-.24-.24.592-4.153 10.218-.24.592.593.24 39.386 15.941.545.221.267-.523q.082-.16.199-.416.11-.24.185-.426a10.74 10.74 0 0 0-.073-8.255 10.77 10.77 0 0 0-5.885-5.805zm-29.88-10.714 29.398 11.899a9.5 9.5 0 0 1 5.189 5.115 9.47 9.47 0 0 1-.025 7.493L99.324 49.105zM17.606 51.971l29.4-11.899 3.67 9.033L12.443 64.58l-.09-.213a9.47 9.47 0 0 1 .065-7.28 9.5 9.5 0 0 1 5.188-5.115m29.51-13.323-29.99 12.139a10.77 10.77 0 0 0-5.885 5.805 10.74 10.74 0 0 0 .112 8.681q.094.204.202.416l.267.521.542-.219 39.386-15.94.594-.241-.24-.592-4.153-10.217-.241-.593z" clip-rule="evenodd"/></clipPath><clipPath id="d"><path d="m11.536 69.46 40.715-16.48 3.67 9.034L6.374 82.068l-.053-.126v-.002l-.005-.009-.003-.008v-.003l-.022-.052v-.001l-.006-.013a9.47 9.47 0 0 1 .065-7.28 9.5 9.5 0 0 1 5.176-5.11l.012-.005m40.827-17.903.593-.24.24.592 4.153 10.216.24.593-.594.24L6.294 83.478l-.545.22-.267-.521c-.056-.11-.121-.246-.199-.416a10 10 0 0 1-.186-.427l-.048-.118v-.001a10.75 10.75 0 0 1 .122-8.136 10.77 10.77 0 0 1 5.884-5.805l.117-.048zM7.228 86.65a9.5 9.5 0 0 0-5.188 5.115 9.47 9.47 0 0 0-.065 7.28v.002q.047.114.09.212l59.249-23.979-3.672-9.033zm50.527-21.828.593-.24.24.592 4.152 10.218.24.591-.593.24-60.401 24.447-.543.22-.266-.522a11 11 0 0 1-.389-.842l-.047-.118v-.002a10.74 10.74 0 0 1 .121-8.135 10.78 10.78 0 0 1 5.884-5.805l51.008-20.644M24.157 33.827l17.442-7.06 3.67 9.033-26.275 10.635-.065-.153-.006-.012-.003-.008-.008-.02v-.002l-.009-.019a9.47 9.47 0 0 1 .065-7.28 9.5 9.5 0 0 1 5.176-5.11zm17.554-8.485.593-.24.24.592 4.153 10.218.24.591-.594.24-27.428 11.102-.542.22-.267-.522a11 11 0 0 1-.389-.842l-.047-.117v-.003a10.74 10.74 0 0 1 .122-8.135c1.08-2.55 3.13-4.69 5.884-5.804l.117-.048zm97.234 42.933L97.638 51.557l-.594-.24-.24.592-4.153 10.216-.241.593.594.24 50.702 20.52.544.22.268-.522q.085-.167.2-.419.075-.162.133-.299l.002-.002.043-.103v-.002l.007-.016a10.74 10.74 0 0 0-.074-8.255 10.77 10.77 0 0 0-5.884-5.805M97.75 52.981l-3.67 9.033 49.548 20.054.09-.213.009-.025a9.47 9.47 0 0 0-.075-7.255 9.5 9.5 0 0 0-5.188-5.115zm45.504 32.486a10.77 10.77 0 0 1 5.883 5.805 10.74 10.74 0 0 1 .075 8.254v.002a12 12 0 0 1-.388.84l-.268.521-.541-.219-60.402-24.446-.593-.24.24-.592 4.153-10.217.24-.592.594.24zm-50.896-19.22 50.414 20.404a9.5 9.5 0 0 1 5.188 5.115 9.47 9.47 0 0 1 .078 7.246l-.013.035q-.047.115-.09.213L88.689 75.28zm33.849-33.654-17.917-7.251-.593-.24-.24.592-4.153 10.217-.24.592.593.24 27.429 11.102.545.22.267-.523a11 11 0 0 0 .384-.842l.048-.118v-.002a10.74 10.74 0 0 0-.122-8.135 10.78 10.78 0 0 0-5.884-5.805zm-17.804-5.827-3.671 9.034 26.275 10.633.058-.137.002-.004.004-.01.006-.013v-.002l.02-.046a9.47 9.47 0 0 0-.065-7.28 9.5 9.5 0 0 0-5.174-5.11l-.014-.004-17.44-7.06zm24.472 24.02-29.992-12.139-.594-.24-.24.592-4.153 10.218-.24.592.593.24 39.386 15.941.545.221.267-.523q.082-.16.199-.416.11-.24.185-.426a10.74 10.74 0 0 0-.073-8.255 10.77 10.77 0 0 0-5.885-5.805zm-29.88-10.714 29.398 11.899a9.5 9.5 0 0 1 5.189 5.115 9.47 9.47 0 0 1-.025 7.493L99.324 49.105zM17.606 51.971l29.4-11.899 3.67 9.033L12.443 64.58l-.09-.213a9.47 9.47 0 0 1 .065-7.28 9.5 9.5 0 0 1 5.188-5.115m29.51-13.323-29.99 12.139a10.77 10.77 0 0 0-5.885 5.805 10.74 10.74 0 0 0 .112 8.681q.094.204.202.416l.267.521.542-.219 39.386-15.94.594-.241-.24-.592-4.153-10.217-.241-.593z" clip-rule="evenodd"/></clipPath><clipPath id="e"><path d="m11.536 69.46 40.715-16.48 3.67 9.034L6.374 82.068l-.053-.126v-.002l-.005-.009-.003-.008v-.003l-.022-.052v-.001l-.006-.013a9.47 9.47 0 0 1 .065-7.28 9.5 9.5 0 0 1 5.176-5.11l.012-.005m40.827-17.903.593-.24.24.592 4.153 10.216.24.593-.594.24L6.294 83.478l-.545.22-.267-.521c-.056-.11-.121-.246-.199-.416a10 10 0 0 1-.186-.427l-.048-.118v-.001a10.75 10.75 0 0 1 .122-8.136 10.77 10.77 0 0 1 5.884-5.805l.117-.048zM7.228 86.65a9.5 9.5 0 0 0-5.188 5.115 9.47 9.47 0 0 0-.065 7.28v.002q.047.114.09.212l59.249-23.979-3.672-9.033zm50.527-21.828.593-.24.24.592 4.152 10.218.24.591-.593.24-60.401 24.447-.543.22-.266-.522a11 11 0 0 1-.389-.842l-.047-.118v-.002a10.74 10.74 0 0 1 .121-8.135 10.78 10.78 0 0 1 5.884-5.805l51.008-20.644M24.157 33.827l17.442-7.06 3.67 9.033-26.275 10.635-.065-.153-.006-.012-.003-.008-.008-.02v-.002l-.009-.019a9.47 9.47 0 0 1 .065-7.28 9.5 9.5 0 0 1 5.176-5.11zm17.554-8.485.593-.24.24.592 4.153 10.218.24.591-.594.24-27.428 11.102-.542.22-.267-.522a11 11 0 0 1-.389-.842l-.047-.117v-.003a10.74 10.74 0 0 1 .122-8.135c1.08-2.55 3.13-4.69 5.884-5.804l.117-.048zm97.234 42.933L97.638 51.557l-.594-.24-.24.592-4.153 10.216-.241.593.594.24 50.702 20.52.544.22.268-.522q.085-.167.2-.419.075-.162.133-.299l.002-.002.043-.103v-.002l.007-.016a10.74 10.74 0 0 0-.074-8.255 10.77 10.77 0 0 0-5.884-5.805M97.75 52.981l-3.67 9.033 49.548 20.054.09-.213.009-.025a9.47 9.47 0 0 0-.075-7.255 9.5 9.5 0 0 0-5.188-5.115zm45.504 32.486a10.77 10.77 0 0 1 5.883 5.805 10.74 10.74 0 0 1 .075 8.254v.002a12 12 0 0 1-.388.84l-.268.521-.541-.219-60.402-24.446-.593-.24.24-.592 4.153-10.217.24-.592.594.24zm-50.896-19.22 50.414 20.404a9.5 9.5 0 0 1 5.188 5.115 9.47 9.47 0 0 1 .078 7.246l-.013.035q-.047.115-.09.213L88.689 75.28zm33.849-33.654-17.917-7.251-.593-.24-.24.592-4.153 10.217-.24.592.593.24 27.429 11.102.545.22.267-.523a11 11 0 0 0 .384-.842l.048-.118v-.002a10.74 10.74 0 0 0-.122-8.135 10.78 10.78 0 0 0-5.884-5.805zm-17.804-5.827-3.671 9.034 26.275 10.633.058-.137.002-.004.004-.01.006-.013v-.002l.02-.046a9.47 9.47 0 0 0-.065-7.28 9.5 9.5 0 0 0-5.174-5.11l-.014-.004-17.44-7.06zm24.472 24.02-29.992-12.139-.594-.24-.24.592-4.153 10.218-.24.592.593.24 39.386 15.941.545.221.267-.523q.082-.16.199-.416.11-.24.185-.426a10.74 10.74 0 0 0-.073-8.255 10.77 10.77 0 0 0-5.885-5.805zm-29.88-10.714 29.398 11.899a9.5 9.5 0 0 1 5.189 5.115 9.47 9.47 0 0 1-.025 7.493L99.324 49.105zM17.606 51.971l29.4-11.899 3.67 9.033L12.443 64.58l-.09-.213a9.47 9.47 0 0 1 .065-7.28 9.5 9.5 0 0 1 5.188-5.115m29.51-13.323-29.99 12.139a10.77 10.77 0 0 0-5.885 5.805 10.74 10.74 0 0 0 .112 8.681q.094.204.202.416l.267.521.542-.219 39.386-15.94.594-.241-.24-.592-4.153-10.217-.241-.593z" clip-rule="evenodd"/></clipPath><clipPath id="f"><path d="m52.605 52.15 4.152 10.218L6.054 82.887a10 10 0 0 1-.364-.793c-2.103-5.175.42-11.128 5.606-13.227L52.604 52.15zm5.39 13.266L6.989 86.06c-5.186 2.098-7.71 8.05-5.606 13.227q.166.406.363.792l60.402-24.446zm-16.044-39.48 4.152 10.217-27.428 11.101q-.198-.385-.364-.792c-2.103-5.176.42-11.129 5.606-13.227zM97.397 52.15l-4.152 10.217 50.702 20.52q.196-.384.362-.791c2.104-5.176-.42-11.129-5.606-13.228L97.396 52.15m-5.392 13.266 51.008 20.644c5.185 2.099 7.709 8.052 5.605 13.227q-.166.408-.363.793L87.854 75.634l4.151-10.217m16.045-39.481-4.152 10.217 27.429 11.102q.196-.385.362-.793c2.104-5.176-.42-11.128-5.605-13.227zm-5.407 13.306 29.991 12.138c5.187 2.1 7.71 8.052 5.606 13.228q-.166.406-.363.792L98.491 49.458l4.152-10.218m-55.285 0L17.366 51.379c-5.186 2.1-7.71 8.052-5.606 13.228q.166.406.364.792L51.51 49.458z" clip-rule="evenodd"/></clipPath><clipPath id="h"><path d="m52.605 52.15 4.152 10.218L6.054 82.887a10 10 0 0 1-.364-.793c-2.103-5.175.42-11.128 5.606-13.227L52.604 52.15zm5.39 13.266L6.989 86.06c-5.186 2.098-7.71 8.05-5.606 13.227q.166.406.363.792l60.402-24.446zm-16.044-39.48 4.152 10.217-27.428 11.101q-.198-.385-.364-.792c-2.103-5.176.42-11.129 5.606-13.227zM97.397 52.15l-4.152 10.217 50.702 20.52q.196-.384.362-.791c2.104-5.176-.42-11.129-5.606-13.228L97.396 52.15m-5.392 13.266 51.008 20.644c5.185 2.099 7.709 8.052 5.605 13.227q-.166.408-.363.793L87.854 75.634l4.151-10.217m16.045-39.481-4.152 10.217 27.429 11.102q.196-.385.362-.793c2.104-5.176-.42-11.128-5.605-13.227zm-5.407 13.306 29.991 12.138c5.187 2.1 7.71 8.052 5.606 13.228q-.166.406-.363.792L98.491 49.458l4.152-10.218m-55.285 0L17.366 51.379c-5.186 2.1-7.71 8.052-5.606 13.228q.166.406.364.792L51.51 49.458z" clip-rule="evenodd"/></clipPath><clipPath id="i"><path d="m52.605 52.15 4.152 10.218L6.054 82.887a10 10 0 0 1-.364-.793c-2.103-5.175.42-11.128 5.606-13.227L52.604 52.15zm5.39 13.266L6.989 86.06c-5.186 2.098-7.71 8.05-5.606 13.227q.166.406.363.792l60.402-24.446zm-16.044-39.48 4.152 10.217-27.428 11.101q-.198-.385-.364-.792c-2.103-5.176.42-11.129 5.606-13.227zM97.397 52.15l-4.152 10.217 50.702 20.52q.196-.384.362-.791c2.104-5.176-.42-11.129-5.606-13.228L97.396 52.15m-5.392 13.266 51.008 20.644c5.185 2.099 7.709 8.052 5.605 13.227q-.166.408-.363.793L87.854 75.634l4.151-10.217m16.045-39.481-4.152 10.217 27.429 11.102q.196-.385.362-.793c2.104-5.176-.42-11.128-5.605-13.227zm-5.407 13.306 29.991 12.138c5.187 2.1 7.71 8.052 5.606 13.228q-.166.406-.363.792L98.491 49.458l4.152-10.218m-55.285 0L17.366 51.379c-5.186 2.1-7.71 8.052-5.606 13.228q.166.406.364.792L51.51 49.458z" clip-rule="evenodd"/></clipPath><clipPath id="j"><path d="M75 107.758c-3.78 0-7.057-4.34-10.753-5.125-3.697-.785-7.973 1.954-11.426.42-3.451-1.534-4.677-6.83-7.735-9.047-3.056-2.216-8.08-1.451-10.608-4.253-2.53-2.803-1.49-8.138-3.379-11.405-1.889-3.265-6.79-4.606-7.958-8.192-1.167-3.586 1.957-8.039 1.562-11.79s-4.326-6.963-3.932-10.713c.395-3.751 5.064-6.55 6.233-10.137 1.167-3.587-1.115-8.118.774-11.384s7.296-3.928 9.825-6.73 2.29-7.868 5.348-10.085 8.265-.628 11.717-2.162 5.3-6.259 8.996-7.043S71.47 2.894 75.25 2.894 82.642-.67 86.339.112c3.696.785 5.998 5.711 9.45 7.244 3.452 1.534 8.206-.257 11.263 1.96s3.153 7.651 5.68 10.454c2.529 2.802 7.602 3.096 9.491 6.361 1.89 3.266-.239 8.27.93 11.856 1.167 3.586 5.682 5.913 6.076 9.665.396 3.75-3.588 7.456-3.983 11.207s2.781 7.709 1.614 11.295-6.318 5.357-8.207 8.623-.6 8.171-3.13 10.973-7.954 2.329-11.012 4.547c-3.057 2.215-3.88 7.22-7.331 8.753-3.453 1.534-8.216-1.101-11.913-.317-3.696.784-6.487 5.022-10.266 5.022z" clip-rule="evenodd"/></clipPath><clipPath id="l"><path d="M75 107.758c-3.78 0-7.057-4.34-10.753-5.125-3.697-.785-7.973 1.954-11.426.42-3.451-1.534-4.677-6.83-7.735-9.047-3.056-2.216-8.08-1.451-10.608-4.253-2.53-2.803-1.49-8.138-3.379-11.405-1.889-3.265-6.79-4.606-7.958-8.192-1.167-3.586 1.957-8.039 1.562-11.79s-4.326-6.963-3.932-10.713c.395-3.751 5.064-6.55 6.233-10.137 1.167-3.587-1.115-8.118.774-11.384s7.296-3.928 9.825-6.73 2.29-7.868 5.348-10.085 8.265-.628 11.717-2.162 5.3-6.259 8.996-7.043S71.47 2.894 75.25 2.894 82.642-.67 86.339.112c3.696.785 5.998 5.711 9.45 7.244 3.452 1.534 8.206-.257 11.263 1.96s3.153 7.651 5.68 10.454c2.529 2.802 7.602 3.096 9.491 6.361 1.89 3.266-.239 8.27.93 11.856 1.167 3.586 5.682 5.913 6.076 9.665.396 3.75-3.588 7.456-3.983 11.207s2.781 7.709 1.614 11.295-6.318 5.357-8.207 8.623-.6 8.171-3.13 10.973-7.954 2.329-11.012 4.547c-3.057 2.215-3.88 7.22-7.331 8.753-3.453 1.534-8.216-1.101-11.913-.317-3.696.784-6.487 5.022-10.266 5.022z" clip-rule="evenodd"/></clipPath><clipPath id="m"><path d="M75 107.758c-3.78 0-7.057-4.34-10.753-5.125-3.697-.785-7.973 1.954-11.426.42-3.451-1.534-4.677-6.83-7.735-9.047-3.056-2.216-8.08-1.451-10.608-4.253-2.53-2.803-1.49-8.138-3.379-11.405-1.889-3.265-6.79-4.606-7.958-8.192-1.167-3.586 1.957-8.039 1.562-11.79s-4.326-6.963-3.932-10.713c.395-3.751 5.064-6.55 6.233-10.137 1.167-3.587-1.115-8.118.774-11.384s7.296-3.928 9.825-6.73 2.29-7.868 5.348-10.085 8.265-.628 11.717-2.162 5.3-6.259 8.996-7.043S71.47 2.894 75.25 2.894 82.642-.67 86.339.112c3.696.785 5.998 5.711 9.45 7.244 3.452 1.534 8.206-.257 11.263 1.96s3.153 7.651 5.68 10.454c2.529 2.802 7.602 3.096 9.491 6.361 1.89 3.266-.239 8.27.93 11.856 1.167 3.586 5.682 5.913 6.076 9.665.396 3.75-3.588 7.456-3.983 11.207s2.781 7.709 1.614 11.295-6.318 5.357-8.207 8.623-.6 8.171-3.13 10.973-7.954 2.329-11.012 4.547c-3.057 2.215-3.88 7.22-7.331 8.753-3.453 1.534-8.216-1.101-11.913-.317-3.696.784-6.487 5.022-10.266 5.022z" clip-rule="evenodd"/></clipPath><clipPath id="n"><path d="M75 6.93c-25.913 0-47.046 21.092-47.046 46.95 0 25.857 21.134 46.95 47.046 46.95s47.045-21.091 47.045-46.95c0-25.858-21.134-46.949-47.045-46.949" clip-rule="evenodd"/></clipPath><clipPath id="p"><path d="M75 6.93c-25.913 0-47.046 21.092-47.046 46.95 0 25.857 21.134 46.95 47.046 46.95s47.045-21.091 47.045-46.95c0-25.858-21.134-46.949-47.045-46.949" clip-rule="evenodd"/></clipPath><clipPath id="q"><path d="M75 6.93c-25.913 0-47.046 21.092-47.046 46.95 0 25.857 21.134 46.95 47.046 46.95s47.045-21.091 47.045-46.95c0-25.858-21.134-46.949-47.045-46.949" clip-rule="evenodd"/></clipPath><clipPath id="r"><path d="M42.304 21.25C50.686 12.886 62.256 7.699 75 7.699s24.312 5.187 32.696 13.553 13.58 19.912 13.58 32.628-5.197 24.263-13.58 32.63C99.312 94.874 87.743 100.06 75 100.06c-12.744 0-24.313-5.187-32.696-13.552-8.384-8.367-13.58-19.912-13.58-32.63 0-12.717 5.197-24.263 13.58-32.628M75 6.164c-13.168 0-25.123 5.36-33.784 14.002C32.555 28.81 27.185 40.74 27.185 53.88s5.37 25.072 14.031 33.715S61.832 101.597 75 101.597s25.122-5.36 33.784-14.003 14.03-20.573 14.03-33.715c0-13.14-5.369-25.07-14.03-33.714C100.122 11.522 88.168 6.163 75 6.163" clip-rule="evenodd"/></clipPath><clipPath id="t"><path d="M42.304 21.25C50.686 12.886 62.256 7.699 75 7.699s24.312 5.187 32.696 13.553 13.58 19.912 13.58 32.628-5.197 24.263-13.58 32.63C99.312 94.874 87.743 100.06 75 100.06c-12.744 0-24.313-5.187-32.696-13.552-8.384-8.367-13.58-19.912-13.58-32.63 0-12.717 5.197-24.263 13.58-32.628M75 6.164c-13.168 0-25.123 5.36-33.784 14.002C32.555 28.81 27.185 40.74 27.185 53.88s5.37 25.072 14.031 33.715S61.832 101.597 75 101.597s25.122-5.36 33.784-14.003 14.03-20.573 14.03-33.715c0-13.14-5.369-25.07-14.03-33.714C100.122 11.522 88.168 6.163 75 6.163" clip-rule="evenodd"/></clipPath><clipPath id="u"><path d="M42.304 21.25C50.686 12.886 62.256 7.699 75 7.699s24.312 5.187 32.696 13.553 13.58 19.912 13.58 32.628-5.197 24.263-13.58 32.63C99.312 94.874 87.743 100.06 75 100.06c-12.744 0-24.313-5.187-32.696-13.552-8.384-8.367-13.58-19.912-13.58-32.63 0-12.717 5.197-24.263 13.58-32.628M75 6.164c-13.168 0-25.123 5.36-33.784 14.002C32.555 28.81 27.185 40.74 27.185 53.88s5.37 25.072 14.031 33.715S61.832 101.597 75 101.597s25.122-5.36 33.784-14.003 14.03-20.573 14.03-33.715c0-13.14-5.369-25.07-14.03-33.714C100.122 11.522 88.168 6.163 75 6.163" clip-rule="evenodd"/></clipPath><clipPath id="v"><path d="M44.74 23.682C52.5 15.94 63.208 11.14 75 11.14s22.502 4.8 30.26 12.543S117.83 42.11 117.83 53.88s-4.81 22.455-12.569 30.198C97.502 91.821 86.795 96.621 75 96.621c-11.794 0-22.501-4.8-30.26-12.543-7.758-7.743-12.567-18.428-12.567-30.198s4.81-22.455 12.568-30.198M75 10.688c-11.92 0-22.74 4.85-30.58 12.675-7.84 7.824-12.7 18.622-12.7 30.517s4.86 22.694 12.7 30.517C52.262 92.222 63.083 97.072 75 97.072c11.919 0 22.74-4.85 30.58-12.675 7.84-7.824 12.701-18.623 12.701-30.517s-4.86-22.693-12.7-30.517C97.74 15.539 86.92 10.688 75 10.688" clip-rule="evenodd"/></clipPath><clipPath id="x"><path d="M44.74 23.682C52.5 15.94 63.208 11.14 75 11.14s22.502 4.8 30.26 12.543S117.83 42.11 117.83 53.88s-4.81 22.455-12.569 30.198C97.502 91.821 86.795 96.621 75 96.621c-11.794 0-22.501-4.8-30.26-12.543-7.758-7.743-12.567-18.428-12.567-30.198s4.81-22.455 12.568-30.198M75 10.688c-11.92 0-22.74 4.85-30.58 12.675-7.84 7.824-12.7 18.622-12.7 30.517s4.86 22.694 12.7 30.517C52.262 92.222 63.083 97.072 75 97.072c11.919 0 22.74-4.85 30.58-12.675 7.84-7.824 12.701-18.623 12.701-30.517s-4.86-22.693-12.7-30.517C97.74 15.539 86.92 10.688 75 10.688" clip-rule="evenodd"/></clipPath><clipPath id="y"><path d="M44.74 23.682C52.5 15.94 63.208 11.14 75 11.14s22.502 4.8 30.26 12.543S117.83 42.11 117.83 53.88s-4.81 22.455-12.569 30.198C97.502 91.821 86.795 96.621 75 96.621c-11.794 0-22.501-4.8-30.26-12.543-7.758-7.743-12.567-18.428-12.567-30.198s4.81-22.455 12.568-30.198M75 10.688c-11.92 0-22.74 4.85-30.58 12.675-7.84 7.824-12.7 18.622-12.7 30.517s4.86 22.694 12.7 30.517C52.262 92.222 63.083 97.072 75 97.072c11.919 0 22.74-4.85 30.58-12.675 7.84-7.824 12.701-18.623 12.701-30.517s-4.86-22.693-12.7-30.517C97.74 15.539 86.92 10.688 75 10.688" clip-rule="evenodd"/></clipPath><linearGradient id="c" x1="102.328" x2="-44.548" y1="279.299" y2="245.321" gradientUnits="userSpaceOnUse"><stop offset="0%" stop-color="#482A0F"/><stop offset="1%" stop-color="#523112"/><stop offset="2%" stop-color="#5B3814"/><stop offset="3%" stop-color="#653F17"/><stop offset="4%" stop-color="#6E4619"/><stop offset="5%" stop-color="#784E1C"/><stop offset="6%" stop-color="#81551F"/><stop offset="7%" stop-color="#8B5C21"/><stop offset="8%" stop-color="#946324"/><stop offset="9%" stop-color="#9E6A26"/><stop offset="10%" stop-color="#A77129"/><stop offset="11%" stop-color="#B98D54"/><stop offset="12%" stop-color="#CAAA7F"/><stop offset="13%" stop-color="#DCC6A9"/><stop offset="14%" stop-color="#EDE3D4"/><stop offset="15%" stop-color="#FFF"/><stop offset="16%" stop-color="#FAF1E4"/><stop offset="17%" stop-color="#F4E3C9"/><stop offset="18%" stop-color="#EFD5AE"/><stop offset="19%" stop-color="#EAC892"/><stop offset="20%" stop-color="#E5BA77"/><stop offset="21%" stop-color="#DFAC5C"/><stop offset="22%" stop-color="#DA9E41"/><stop offset="23%" stop-color="#D4983F"/><stop offset="24%" stop-color="#CD933C"/><stop offset="25%" stop-color="#C78D3A"/><stop offset="26%" stop-color="#C18737"/><stop offset="27%" stop-color="#BA8135"/><stop offset="28%" stop-color="#B47C32"/><stop offset="29%" stop-color="#AE7630"/><stop offset="30%" stop-color="#A7702D"/><stop offset="31%" stop-color="#A16A2B"/><stop offset="32%" stop-color="#9B6528"/><stop offset="33%" stop-color="#945F26"/><stop offset="34%" stop-color="#8E5923"/><stop offset="35%" stop-color="#935E26"/><stop offset="36%" stop-color="#976328"/><stop offset="37%" stop-color="#9C672B"/><stop offset="38%" stop-color="#A16C2E"/><stop offset="39%" stop-color="#A57130"/><stop offset="40%" stop-color="#AA7633"/><stop offset="41%" stop-color="#AE7B35"/><stop offset="42%" stop-color="#B38038"/><stop offset="43%" stop-color="#B8843B"/><stop offset="44%" stop-color="#BC893D"/><stop offset="45%" stop-color="#C18E40"/><stop offset="46%" stop-color="#C69343"/><stop offset="47%" stop-color="#CA9845"/><stop offset="48%" stop-color="#CF9C48"/><stop offset="49%" stop-color="#D3A14A"/><stop offset="50%" stop-color="#D8A64D"/><stop offset="51%" stop-color="#DAAA50"/><stop offset="52%" stop-color="#DCAE53"/><stop offset="53%" stop-color="#DDB157"/><stop offset="54%" stop-color="#DFB55A"/><stop offset="55%" stop-color="#E1B95D"/><stop offset="56%" stop-color="#E3BD60"/><stop offset="57%" stop-color="#E5C163"/><stop offset="58%" stop-color="#E7C467"/><stop offset="59%" stop-color="#E8C86A"/><stop offset="60%" stop-color="#EACC6D"/><stop offset="61%" stop-color="#ECD070"/><stop offset="62%" stop-color="#EED473"/><stop offset="63%" stop-color="#F0D876"/><stop offset="64%" stop-color="#F1DB7A"/><stop offset="65%" stop-color="#F3DF7D"/><stop offset="66%" stop-color="#F5E380"/><stop offset="67%" stop-color="#F0DD7B"/><stop offset="68%" stop-color="#ECD877"/><stop offset="69%" stop-color="#E7D272"/><stop offset="70%" stop-color="#E3CC6D"/><stop offset="71%" stop-color="#DEC769"/><stop offset="72%" stop-color="#DAC164"/><stop offset="73%" stop-color="#E1CD83"/><stop offset="74%" stop-color="#E9DAA2"/><stop offset="75%" stop-color="#F0E6C1"/><stop offset="76%" stop-color="#F8F3E0"/><stop offset="77%" stop-color="#FFF"/><stop offset="78%" stop-color="#EFE8DC"/><stop offset="79%" stop-color="#DFD1B8"/><stop offset="80%" stop-color="#D0BA95"/><stop offset="81%" stop-color="#C0A372"/><stop offset="82%" stop-color="#B08C4E"/><stop offset="83%" stop-color="#A0752B"/><stop offset="84%" stop-color="#9D722A"/><stop offset="85%" stop-color="#996F29"/><stop offset="86%" stop-color="#966C28"/><stop offset="87%" stop-color="#926927"/><stop offset="88%" stop-color="#8F6626"/><stop offset="89%" stop-color="#8C6325"/><stop offset="90%" stop-color="#886024"/><stop offset="91%" stop-color="#855D23"/><stop offset="92%" stop-color="#815A21"/><stop offset="93%" stop-color="#7E5720"/><stop offset="94%" stop-color="#7A541F"/><stop offset="95%" stop-color="#77511E"/><stop offset="96%" stop-color="#744E1D"/><stop offset="97%" stop-color="#704B1C"/><stop offset="98%" stop-color="#6D481B"/><stop offset="99%" stop-color="#69451A"/><stop offset="100%" stop-color="#664219"/></linearGradient><linearGradient id="g" x1="-.722" x2="150.721" y1="-51.363" y2="-51.363" gradientUnits="userSpaceOnUse"><stop offset="0%" stop-color="#DBA73E"/><stop offset="1%" stop-color="#DBA942"/><stop offset="2%" stop-color="#DCAB46"/><stop offset="3%" stop-color="#DCAD4A"/><stop offset="4%" stop-color="#DCAF4E"/><stop offset="5%" stop-color="#DDB152"/><stop offset="6%" stop-color="#DDB356"/><stop offset="7%" stop-color="#DDB55A"/><stop offset="8%" stop-color="#DEB75D"/><stop offset="9%" stop-color="#DEB961"/><stop offset="10%" stop-color="#DEBB65"/><stop offset="11%" stop-color="#DEBD69"/><stop offset="12%" stop-color="#DFBF6D"/><stop offset="13%" stop-color="#DFC171"/><stop offset="14%" stop-color="#DFC375"/><stop offset="15%" stop-color="#E0C579"/><stop offset="16%" stop-color="#E0C77D"/><stop offset="17%" stop-color="#E1C87F"/><stop offset="18%" stop-color="#E1C980"/><stop offset="19%" stop-color="#E2CA82"/><stop offset="20%" stop-color="#E2CC83"/><stop offset="21%" stop-color="#E3CD85"/><stop offset="22%" stop-color="#E3CE86"/><stop offset="23%" stop-color="#E4CF88"/><stop offset="24%" stop-color="#E4D089"/><stop offset="25%" stop-color="#E5D18B"/><stop offset="26%" stop-color="#E5D38D"/><stop offset="27%" stop-color="#E6D48E"/><stop offset="28%" stop-color="#E6D590"/><stop offset="29%" stop-color="#E7D691"/><stop offset="30%" stop-color="#E7D793"/><stop offset="31%" stop-color="#E8D894"/><stop offset="32%" stop-color="#E8DA96"/><stop offset="33%" stop-color="#E9DB97"/><stop offset="34%" stop-color="#E9DC99"/><stop offset="35%" stop-color="#EADD9A"/><stop offset="36%" stop-color="#EBDE9C"/><stop offset="37%" stop-color="#EBDF9E"/><stop offset="38%" stop-color="#ECE09F"/><stop offset="39%" stop-color="#ECE2A1"/><stop offset="40%" stop-color="#EDE3A2"/><stop offset="41%" stop-color="#EDE4A4"/><stop offset="42%" stop-color="#EEE5A5"/><stop offset="43%" stop-color="#EEE6A7"/><stop offset="44%" stop-color="#EFE7A8"/><stop offset="45%" stop-color="#EFE9AA"/><stop offset="46%" stop-color="#F0EAAC"/><stop offset="47%" stop-color="#F0EBAD"/><stop offset="48%" stop-color="#F1ECAF"/><stop offset="49%" stop-color="#F1EDB0"/><stop offset="50%" stop-color="#F2EEB2"/><stop offset="51%" stop-color="#F2F0B3"/><stop offset="52%" stop-color="#F3F1B5"/><stop offset="53%" stop-color="#F3F2B6"/><stop offset="54%" stop-color="#F4F3B8"/><stop offset="55%" stop-color="#F6F0A9"/><stop offset="56%" stop-color="#F7ED9A"/><stop offset="57%" stop-color="#F5EA97"/><stop offset="58%" stop-color="#F3E694"/><stop offset="59%" stop-color="#F1E392"/><stop offset="60%" stop-color="#EEE08F"/><stop offset="61%" stop-color="#ECDC8C"/><stop offset="62%" stop-color="#EAD989"/><stop offset="63%" stop-color="#E8D687"/><stop offset="64%" stop-color="#E6D384"/><stop offset="65%" stop-color="#E4CF81"/><stop offset="66%" stop-color="#E1CC7E"/><stop offset="67%" stop-color="#DFC97C"/><stop offset="68%" stop-color="#DDC579"/><stop offset="69%" stop-color="#DBC276"/><stop offset="70%" stop-color="#DDC57A"/><stop offset="71%" stop-color="#DEC97F"/><stop offset="72%" stop-color="#E0CC83"/><stop offset="73%" stop-color="#E2CF88"/><stop offset="74%" stop-color="#E3D28C"/><stop offset="75%" stop-color="#E5D690"/><stop offset="76%" stop-color="#E7D995"/><stop offset="77%" stop-color="#E8DC99"/><stop offset="78%" stop-color="#EADF9E"/><stop offset="79%" stop-color="#ECE3A2"/><stop offset="80%" stop-color="#EDE6A6"/><stop offset="81%" stop-color="#EFE9AB"/><stop offset="82%" stop-color="#F1ECAF"/><stop offset="83%" stop-color="#F2F0B4"/><stop offset="84%" stop-color="#F4F3B8"/><stop offset="85%" stop-color="#F3F0B4"/><stop offset="86%" stop-color="#F2EDB1"/><stop offset="87%" stop-color="#F0EBAD"/><stop offset="88%" stop-color="#EFE8A9"/><stop offset="89%" stop-color="#EEE5A6"/><stop offset="90%" stop-color="#EDE2A2"/><stop offset="91%" stop-color="#EBE09E"/><stop offset="92%" stop-color="#EADD9B"/><stop offset="93%" stop-color="#E9DA97"/><stop offset="94%" stop-color="#E8D793"/><stop offset="95%" stop-color="#E6D58F"/><stop offset="96%" stop-color="#E5D28C"/><stop offset="97%" stop-color="#E4CF88"/><stop offset="98%" stop-color="#E3CC84"/><stop offset="99%" stop-color="#E1CA81"/><stop offset="100%" stop-color="#E0C77D"/></linearGradient><linearGradient id="k" x1="129.843" x2="129.843" y1="-.669" y2="108.43" gradientUnits="userSpaceOnUse"><stop offset="0%" stop-color="#F4C761"/><stop offset="1%" stop-color="#F1C45F"/><stop offset="2%" stop-color="#EFC25D"/><stop offset="3%" stop-color="#ECBF5B"/><stop offset="4%" stop-color="#E9BD59"/><stop offset="5%" stop-color="#E7BA58"/><stop offset="6%" stop-color="#E4B856"/><stop offset="7%" stop-color="#E1B554"/><stop offset="8%" stop-color="#DFB252"/><stop offset="9%" stop-color="#DCB050"/><stop offset="10%" stop-color="#D9AD4E"/><stop offset="11%" stop-color="#D7AB4C"/><stop offset="12%" stop-color="#D4A84A"/><stop offset="13%" stop-color="#D1A648"/><stop offset="14%" stop-color="#CFA346"/><stop offset="15%" stop-color="#CCA045"/><stop offset="16%" stop-color="#C99E43"/><stop offset="17%" stop-color="#C69B41"/><stop offset="18%" stop-color="#C4993F"/><stop offset="19%" stop-color="#C1963D"/><stop offset="20%" stop-color="#BE943B"/><stop offset="21%" stop-color="#BC9139"/><stop offset="22%" stop-color="#B98E37"/><stop offset="23%" stop-color="#B68C35"/><stop offset="24%" stop-color="#B48934"/><stop offset="25%" stop-color="#B18732"/><stop offset="26%" stop-color="#AE8430"/><stop offset="27%" stop-color="#AC822E"/><stop offset="28%" stop-color="#A97F2C"/><stop offset="29%" stop-color="#987028"/><stop offset="30%" stop-color="#886224"/><stop offset="31%" stop-color="#77531F"/><stop offset="32%" stop-color="#66451B"/><stop offset="33%" stop-color="#553617"/><stop offset="34%" stop-color="#442812"/><stop offset="35%" stop-color="#34190E"/><stop offset="36%" stop-color="#230B0A"/><stop offset="37%" stop-color="#2A110C"/><stop offset="38%" stop-color="#32180E"/><stop offset="39%" stop-color="#391E10"/><stop offset="40%" stop-color="#412512"/><stop offset="41%" stop-color="#482B14"/><stop offset="42%" stop-color="#4F3216"/><stop offset="43%" stop-color="#573818"/><stop offset="44%" stop-color="#5E3F1A"/><stop offset="45%" stop-color="#66451C"/><stop offset="46%" stop-color="#6D4C1E"/><stop offset="47%" stop-color="#5C3F19"/><stop offset="48%" stop-color="#4C3214"/><stop offset="49%" stop-color="#3B250F"/><stop offset="50%" stop-color="#2B180A"/><stop offset="51%" stop-color="#1A0B05"/><stop offset="52%" stop-color="#897E71"/><stop offset="53%" stop-color="#F8F1DE"/><stop offset="54%" stop-color="#F8F1DD"/><stop offset="55%" stop-color="#F8F0DC"/><stop offset="56%" stop-color="#F8F0DB"/><stop offset="57%" stop-color="#F7EFDB"/><stop offset="58%" stop-color="#F7EFDA"/><stop offset="59%" stop-color="#F7EED9"/><stop offset="60%" stop-color="#F7EED8"/><stop offset="61%" stop-color="#F7EED7"/><stop offset="62%" stop-color="#F7EDD6"/><stop offset="63%" stop-color="#F6EDD6"/><stop offset="64%" stop-color="#F6ECD5"/><stop offset="65%" stop-color="#F6ECD4"/><stop offset="66%" stop-color="#F6EBD3"/><stop offset="67%" stop-color="#F6EBD2"/><stop offset="68%" stop-color="#F6EBD1"/><stop offset="69%" stop-color="#F6EAD0"/><stop offset="70%" stop-color="#F5EAD0"/><stop offset="71%" stop-color="#F5E9CF"/><stop offset="72%" stop-color="#F5E9CE"/><stop offset="73%" stop-color="#F5E9CD"/><stop offset="74%" stop-color="#F5E8CC"/><stop offset="75%" stop-color="#F5E8CB"/><stop offset="76%" stop-color="#F5E7CA"/><stop offset="77%" stop-color="#F4E7CA"/><stop offset="78%" stop-color="#F4E6C9"/><stop offset="79%" stop-color="#F4E6C8"/><stop offset="80%" stop-color="#F4E6C7"/><stop offset="81%" stop-color="#F4E5C6"/><stop offset="82%" stop-color="#F4E5C5"/><stop offset="83%" stop-color="#F3E4C5"/><stop offset="84%" stop-color="#F3E4C4"/><stop offset="85%" stop-color="#F3E3C3"/><stop offset="86%" stop-color="#F3E3C2"/><stop offset="87%" stop-color="#F0DFBB"/><stop offset="88%" stop-color="#EEDBB3"/><stop offset="89%" stop-color="#EBD7AC"/><stop offset="90%" stop-color="#E9D3A5"/><stop offset="91%" stop-color="#E6CF9D"/><stop offset="92%" stop-color="#E4CB96"/><stop offset="93%" stop-color="#E1C78E"/><stop offset="94%" stop-color="#DFC387"/><stop offset="95%" stop-color="#DCBF80"/><stop offset="96%" stop-color="#DABB78"/><stop offset="97%" stop-color="#D7B771"/><stop offset="98%" stop-color="#D5B36A"/><stop offset="99%" stop-color="#D2AF62"/><stop offset="100%" stop-color="#D0AB5B"/></linearGradient><linearGradient id="o" x1="27.954" x2="122.045" y1="6.738" y2="6.738" gradientUnits="userSpaceOnUse"><stop offset="0%" stop-color="#DBA73E"/><stop offset="1%" stop-color="#DBA63E"/><stop offset="2%" stop-color="#DBA63D"/><stop offset="3%" stop-color="#DAA53D"/><stop offset="4%" stop-color="#DAA53D"/><stop offset="5%" stop-color="#DAA43D"/><stop offset="6%" stop-color="#DAA33C"/><stop offset="7%" stop-color="#DAA33C"/><stop offset="8%" stop-color="#DAA23C"/><stop offset="9%" stop-color="#D9A13C"/><stop offset="10%" stop-color="#D9A13B"/><stop offset="11%" stop-color="#D9A03B"/><stop offset="12%" stop-color="#D9A03B"/><stop offset="13%" stop-color="#D99F3B"/><stop offset="14%" stop-color="#D89E3A"/><stop offset="15%" stop-color="#D89E3A"/><stop offset="16%" stop-color="#D89D3A"/><stop offset="17%" stop-color="#D99F3D"/><stop offset="18%" stop-color="#D9A241"/><stop offset="19%" stop-color="#DAA444"/><stop offset="20%" stop-color="#DBA647"/><stop offset="21%" stop-color="#DCA84B"/><stop offset="22%" stop-color="#DCAB4E"/><stop offset="23%" stop-color="#DDAD51"/><stop offset="24%" stop-color="#DEAF55"/><stop offset="25%" stop-color="#DFB158"/><stop offset="26%" stop-color="#DFB45B"/><stop offset="27%" stop-color="#E0B65E"/><stop offset="28%" stop-color="#E1B862"/><stop offset="29%" stop-color="#E2BA65"/><stop offset="30%" stop-color="#E2BD68"/><stop offset="31%" stop-color="#E3BF6C"/><stop offset="32%" stop-color="#E4C16F"/><stop offset="33%" stop-color="#E5C372"/><stop offset="34%" stop-color="#E5C676"/><stop offset="35%" stop-color="#E6C879"/><stop offset="36%" stop-color="#E7CA7C"/><stop offset="37%" stop-color="#E7CD80"/><stop offset="38%" stop-color="#E8CF83"/><stop offset="39%" stop-color="#E9D186"/><stop offset="40%" stop-color="#EAD38A"/><stop offset="41%" stop-color="#EAD68D"/><stop offset="42%" stop-color="#EBD890"/><stop offset="43%" stop-color="#ECDA94"/><stop offset="44%" stop-color="#EDDC97"/><stop offset="45%" stop-color="#EDDF9A"/><stop offset="46%" stop-color="#EEE19D"/><stop offset="47%" stop-color="#EFE3A1"/><stop offset="48%" stop-color="#F0E5A4"/><stop offset="49%" stop-color="#F0E8A7"/><stop offset="50%" stop-color="#F1EAAB"/><stop offset="51%" stop-color="#F2ECAE"/><stop offset="52%" stop-color="#F3EEB1"/><stop offset="53%" stop-color="#F3F1B5"/><stop offset="54%" stop-color="#F4F3B8"/><stop offset="55%" stop-color="#F6F0A9"/><stop offset="56%" stop-color="#F7ED9A"/><stop offset="57%" stop-color="#F4E996"/><stop offset="58%" stop-color="#F2E592"/><stop offset="59%" stop-color="#EFE18E"/><stop offset="60%" stop-color="#EDDC8A"/><stop offset="61%" stop-color="#EAD886"/><stop offset="62%" stop-color="#E7D482"/><stop offset="63%" stop-color="#E5D07F"/><stop offset="64%" stop-color="#E2CC7B"/><stop offset="65%" stop-color="#DFC877"/><stop offset="66%" stop-color="#DDC373"/><stop offset="67%" stop-color="#DABF6F"/><stop offset="68%" stop-color="#D8BB6B"/><stop offset="69%" stop-color="#D5B767"/><stop offset="70%" stop-color="#D5B666"/><stop offset="71%" stop-color="#D4B566"/><stop offset="72%" stop-color="#D4B565"/><stop offset="73%" stop-color="#D4B464"/><stop offset="74%" stop-color="#D3B363"/><stop offset="75%" stop-color="#D3B263"/><stop offset="76%" stop-color="#D3B262"/><stop offset="77%" stop-color="#D2B161"/><stop offset="78%" stop-color="#D2B060"/><stop offset="79%" stop-color="#D2AF60"/><stop offset="80%" stop-color="#D2AF5F"/><stop offset="81%" stop-color="#D1AE5E"/><stop offset="82%" stop-color="#D1AD5D"/><stop offset="83%" stop-color="#D1AC5D"/><stop offset="84%" stop-color="#D0AC5C"/><stop offset="85%" stop-color="#D0AB5B"/><stop offset="86%" stop-color="#D1AD5D"/><stop offset="87%" stop-color="#D2AF60"/><stop offset="88%" stop-color="#D3B162"/><stop offset="89%" stop-color="#D4B264"/><stop offset="90%" stop-color="#D5B466"/><stop offset="91%" stop-color="#D6B669"/><stop offset="92%" stop-color="#D7B86B"/><stop offset="93%" stop-color="#D9BA6D"/><stop offset="94%" stop-color="#DABC6F"/><stop offset="95%" stop-color="#DBBE72"/><stop offset="96%" stop-color="#DCC074"/><stop offset="97%" stop-color="#DDC176"/><stop offset="98%" stop-color="#DEC378"/><stop offset="99%" stop-color="#DFC57B"/><stop offset="100%" stop-color="#E0C77D"/></linearGradient><linearGradient id="s" x1="109.51" x2="128.732" y1="-4.062" y2="95.031" gradientUnits="userSpaceOnUse"><stop offset="0%" stop-color="#482A0F"/><stop offset="1%" stop-color="#523112"/><stop offset="2%" stop-color="#5B3814"/><stop offset="3%" stop-color="#653F17"/><stop offset="4%" stop-color="#6E4619"/><stop offset="5%" stop-color="#784E1C"/><stop offset="6%" stop-color="#81551F"/><stop offset="7%" stop-color="#8B5C21"/><stop offset="8%" stop-color="#946324"/><stop offset="9%" stop-color="#9E6A26"/><stop offset="10%" stop-color="#A77129"/><stop offset="11%" stop-color="#B98D54"/><stop offset="12%" stop-color="#CAAA7F"/><stop offset="13%" stop-color="#DCC6A9"/><stop offset="14%" stop-color="#EDE3D4"/><stop offset="15%" stop-color="#FFF"/><stop offset="16%" stop-color="#FAF1E4"/><stop offset="17%" stop-color="#F4E3C9"/><stop offset="18%" stop-color="#EFD5AE"/><stop offset="19%" stop-color="#EAC892"/><stop offset="20%" stop-color="#E5BA77"/><stop offset="21%" stop-color="#DFAC5C"/><stop offset="22%" stop-color="#DA9E41"/><stop offset="23%" stop-color="#D4983F"/><stop offset="24%" stop-color="#CD933C"/><stop offset="25%" stop-color="#C78D3A"/><stop offset="26%" stop-color="#C18737"/><stop offset="27%" stop-color="#BA8135"/><stop offset="28%" stop-color="#B47C32"/><stop offset="29%" stop-color="#AE7630"/><stop offset="30%" stop-color="#A7702D"/><stop offset="31%" stop-color="#A16A2B"/><stop offset="32%" stop-color="#9B6528"/><stop offset="33%" stop-color="#945F26"/><stop offset="34%" stop-color="#8E5923"/><stop offset="35%" stop-color="#935E26"/><stop offset="36%" stop-color="#976328"/><stop offset="37%" stop-color="#9C672B"/><stop offset="38%" stop-color="#A16C2E"/><stop offset="39%" stop-color="#A57130"/><stop offset="40%" stop-color="#AA7633"/><stop offset="41%" stop-color="#AE7B35"/><stop offset="42%" stop-color="#B38038"/><stop offset="43%" stop-color="#B8843B"/><stop offset="44%" stop-color="#BC893D"/><stop offset="45%" stop-color="#C18E40"/><stop offset="46%" stop-color="#C69343"/><stop offset="47%" stop-color="#CA9845"/><stop offset="48%" stop-color="#CF9C48"/><stop offset="49%" stop-color="#D3A14A"/><stop offset="50%" stop-color="#D8A64D"/><stop offset="51%" stop-color="#DAAA50"/><stop offset="52%" stop-color="#DCAE53"/><stop offset="53%" stop-color="#DDB157"/><stop offset="54%" stop-color="#DFB55A"/><stop offset="55%" stop-color="#E1B95D"/><stop offset="56%" stop-color="#E3BD60"/><stop offset="57%" stop-color="#E5C163"/><stop offset="58%" stop-color="#E7C467"/><stop offset="59%" stop-color="#E8C86A"/><stop offset="60%" stop-color="#EACC6D"/><stop offset="61%" stop-color="#ECD070"/><stop offset="62%" stop-color="#EED473"/><stop offset="63%" stop-color="#F0D876"/><stop offset="64%" stop-color="#F1DB7A"/><stop offset="65%" stop-color="#F3DF7D"/><stop offset="66%" stop-color="#F5E380"/><stop offset="67%" stop-color="#F0DD7B"/><stop offset="68%" stop-color="#ECD877"/><stop offset="69%" stop-color="#E7D272"/><stop offset="70%" stop-color="#E3CC6D"/><stop offset="71%" stop-color="#DEC769"/><stop offset="72%" stop-color="#DAC164"/><stop offset="73%" stop-color="#E1CD83"/><stop offset="74%" stop-color="#E9DAA2"/><stop offset="75%" stop-color="#F0E6C1"/><stop offset="76%" stop-color="#F8F3E0"/><stop offset="77%" stop-color="#FFF"/><stop offset="78%" stop-color="#EFE8DC"/><stop offset="79%" stop-color="#DFD1B8"/><stop offset="80%" stop-color="#D0BA95"/><stop offset="81%" stop-color="#C0A372"/><stop offset="82%" stop-color="#B08C4E"/><stop offset="83%" stop-color="#A0752B"/><stop offset="84%" stop-color="#9D722A"/><stop offset="85%" stop-color="#996F29"/><stop offset="86%" stop-color="#966C28"/><stop offset="87%" stop-color="#926927"/><stop offset="88%" stop-color="#8F6626"/><stop offset="89%" stop-color="#8C6325"/><stop offset="90%" stop-color="#886024"/><stop offset="91%" stop-color="#855D23"/><stop offset="92%" stop-color="#815A21"/><stop offset="93%" stop-color="#7E5720"/><stop offset="94%" stop-color="#7A541F"/><stop offset="95%" stop-color="#77511E"/><stop offset="96%" stop-color="#744E1D"/><stop offset="97%" stop-color="#704B1C"/><stop offset="98%" stop-color="#6D481B"/><stop offset="99%" stop-color="#69451A"/><stop offset="100%" stop-color="#664219"/></linearGradient><linearGradient id="w" x1="106.237" x2="123.636" y1="1.433" y2="91.127" gradientUnits="userSpaceOnUse"><stop offset="0%" stop-color="#482A0F"/><stop offset="1%" stop-color="#523112"/><stop offset="2%" stop-color="#5B3814"/><stop offset="3%" stop-color="#653F17"/><stop offset="4%" stop-color="#6E4619"/><stop offset="5%" stop-color="#784E1C"/><stop offset="6%" stop-color="#81551F"/><stop offset="7%" stop-color="#8B5C21"/><stop offset="8%" stop-color="#946324"/><stop offset="9%" stop-color="#9E6A26"/><stop offset="10%" stop-color="#A77129"/><stop offset="11%" stop-color="#B98D54"/><stop offset="12%" stop-color="#CAAA7F"/><stop offset="13%" stop-color="#DCC6A9"/><stop offset="14%" stop-color="#EDE3D4"/><stop offset="15%" stop-color="#FFF"/><stop offset="16%" stop-color="#FAF1E4"/><stop offset="17%" stop-color="#F4E3C9"/><stop offset="18%" stop-color="#EFD5AE"/><stop offset="19%" stop-color="#EAC892"/><stop offset="20%" stop-color="#E5BA77"/><stop offset="21%" stop-color="#DFAC5C"/><stop offset="22%" stop-color="#DA9E41"/><stop offset="23%" stop-color="#D4983F"/><stop offset="24%" stop-color="#CD933C"/><stop offset="25%" stop-color="#C78D3A"/><stop offset="26%" stop-color="#C18737"/><stop offset="27%" stop-color="#BA8135"/><stop offset="28%" stop-color="#B47C32"/><stop offset="29%" stop-color="#AE7630"/><stop offset="30%" stop-color="#A7702D"/><stop offset="31%" stop-color="#A16A2B"/><stop offset="32%" stop-color="#9B6528"/><stop offset="33%" stop-color="#945F26"/><stop offset="34%" stop-color="#8E5923"/><stop offset="35%" stop-color="#935E26"/><stop offset="36%" stop-color="#976328"/><stop offset="37%" stop-color="#9C672B"/><stop offset="38%" stop-color="#A16C2E"/><stop offset="39%" stop-color="#A57130"/><stop offset="40%" stop-color="#AA7633"/><stop offset="41%" stop-color="#AE7B35"/><stop offset="42%" stop-color="#B38038"/><stop offset="43%" stop-color="#B8843B"/><stop offset="44%" stop-color="#BC893D"/><stop offset="45%" stop-color="#C18E40"/><stop offset="46%" stop-color="#C69343"/><stop offset="47%" stop-color="#CA9845"/><stop offset="48%" stop-color="#CF9C48"/><stop offset="49%" stop-color="#D3A14A"/><stop offset="50%" stop-color="#D8A64D"/><stop offset="51%" stop-color="#DAAA50"/><stop offset="52%" stop-color="#DCAE53"/><stop offset="53%" stop-color="#DDB157"/><stop offset="54%" stop-color="#DFB55A"/><stop offset="55%" stop-color="#E1B95D"/><stop offset="56%" stop-color="#E3BD60"/><stop offset="57%" stop-color="#E5C163"/><stop offset="58%" stop-color="#E7C467"/><stop offset="59%" stop-color="#E8C86A"/><stop offset="60%" stop-color="#EACC6D"/><stop offset="61%" stop-color="#ECD070"/><stop offset="62%" stop-color="#EED473"/><stop offset="63%" stop-color="#F0D876"/><stop offset="64%" stop-color="#F1DB7A"/><stop offset="65%" stop-color="#F3DF7D"/><stop offset="66%" stop-color="#F5E380"/><stop offset="67%" stop-color="#F0DD7B"/><stop offset="68%" stop-color="#ECD877"/><stop offset="69%" stop-color="#E7D272"/><stop offset="70%" stop-color="#E3CC6D"/><stop offset="71%" stop-color="#DEC769"/><stop offset="72%" stop-color="#DAC164"/><stop offset="73%" stop-color="#E1CD83"/><stop offset="74%" stop-color="#E9DAA2"/><stop offset="75%" stop-color="#F0E6C1"/><stop offset="76%" stop-color="#F8F3E0"/><stop offset="77%" stop-color="#FFF"/><stop offset="78%" stop-color="#EFE8DC"/><stop offset="79%" stop-color="#DFD1B8"/><stop offset="80%" stop-color="#D0BA95"/><stop offset="81%" stop-color="#C0A372"/><stop offset="82%" stop-color="#B08C4E"/><stop offset="83%" stop-color="#A0752B"/><stop offset="84%" stop-color="#9D722A"/><stop offset="85%" stop-color="#996F29"/><stop offset="86%" stop-color="#966C28"/><stop offset="87%" stop-color="#926927"/><stop offset="88%" stop-color="#8F6626"/><stop offset="89%" stop-color="#8C6325"/><stop offset="90%" stop-color="#886024"/><stop offset="91%" stop-color="#855D23"/><stop offset="92%" stop-color="#815A21"/><stop offset="93%" stop-color="#7E5720"/><stop offset="94%" stop-color="#7A541F"/><stop offset="95%" stop-color="#77511E"/><stop offset="96%" stop-color="#744E1D"/><stop offset="97%" stop-color="#704B1C"/><stop offset="98%" stop-color="#6D481B"/><stop offset="99%" stop-color="#69451A"/><stop offset="100%" stop-color="#664219"/></linearGradient></defs><g clip-path="url(#a)" transform="scale(1.3333)"><path fill="url(#c)" d="M0 722 149 78v-669L0 53" clip-path="url(#b)" transform="matrix(1 0 0 -1 0 107)"/><path fill="#482A0F" fill-rule="evenodd" d="m0 720.624 149-644.07V107H0" clip-path="url(#d)" transform="matrix(1 0 0 -1 0 107)"/><path fill="#664219" fill-rule="evenodd" d="m0 53.757 149-644.07V0H0" clip-path="url(#e)" transform="matrix(1 0 0 -1 0 107)"/><path fill="none" d="m11.536 37.54 40.715 16.48 3.67-9.034L6.374 24.932l-.053.126v.002l-.005.009-.003.008v.003l-.022.052v.001l-.006.013a9.47 9.47 0 0 0 .065 7.28 9.5 9.5 0 0 0 5.176 5.11l.012.005m40.827 17.903.593.24.24-.592 4.153-10.216.24-.593-.594-.24L6.294 23.522l-.545-.22-.267.521q-.083.163-.199.416a10 10 0 0 0-.186.427l-.048.118v.001a10.75 10.75 0 0 0 .122 8.136 10.77 10.77 0 0 0 5.884 5.805l.117.048zM7.228 20.35a9.5 9.5 0 0 1-5.188-5.115 9.47 9.47 0 0 1-.065-7.28v-.002q.047-.114.09-.212l59.249 23.979-3.672 9.033zm50.527 21.828.593.24.24-.592 4.152-10.218.24-.591-.593-.24L1.986 6.328l-.543-.22-.266.522a11 11 0 0 0-.389.842l-.047.118v.002a10.74 10.74 0 0 0 .121 8.135 10.78 10.78 0 0 0 5.884 5.805l51.008 20.644M24.157 73.173l17.442 7.06 3.67-9.033-26.275-10.635-.065.153-.006.012-.003.008-.008.02v.002l-.009.019a9.47 9.47 0 0 0 .065 7.28 9.5 9.5 0 0 0 5.176 5.11zm17.554 8.485.593.24.24-.592 4.153-10.218.24-.591-.594-.24-27.428-11.102-.542-.22-.267.522a11 11 0 0 0-.389.842l-.047.117v.003a10.74 10.74 0 0 0 .122 8.135c1.08 2.55 3.13 4.69 5.884 5.804l.117.048zm97.234-42.933L97.638 55.443l-.594.24-.24-.592-4.153-10.216-.241-.593.594-.24 50.702-20.52.544-.22.268.522q.085.167.2.419.075.161.133.299l.002.002.043.103v.002l.007.016a10.74 10.74 0 0 1-.074 8.255 10.77 10.77 0 0 1-5.884 5.805M97.75 54.019l-3.67-9.033 49.548-20.054.09.213.009.025a9.47 9.47 0 0 1-.075 7.255 9.5 9.5 0 0 1-5.188 5.115zm45.504-32.486a10.77 10.77 0 0 0 5.883-5.805 10.74 10.74 0 0 0 .075-8.254v-.002a12 12 0 0 0-.388-.84l-.268-.521-.541.219-60.402 24.446-.593.24.24.592 4.153 10.217.24.592.594-.24zm-50.896 19.22 50.414-20.404a9.5 9.5 0 0 0 5.188-5.115 9.47 9.47 0 0 0 .078-7.246l-.013-.035q-.047-.115-.09-.213L88.689 31.72zm33.849 33.654-17.917 7.251-.593.24-.24-.592-4.153-10.217-.24-.592.593-.24 27.429-11.102.545-.22.267.523a11 11 0 0 1 .384.842l.048.118v.002a10.74 10.74 0 0 1-.122 8.135 10.78 10.78 0 0 1-5.884 5.805zm-17.804 5.827-3.671-9.034 26.275-10.633.058.137.002.004.004.01.006.013v.002l.02.046a9.47 9.47 0 0 1-.065 7.28 9.5 9.5 0 0 1-5.174 5.11l-.014.004-17.44 7.06zm24.472-24.02-29.992 12.139-.594.24-.24-.592-4.153-10.218-.24-.592.593-.24 39.386-15.941.545-.221.267.523q.082.16.199.416.11.24.185.426a10.74 10.74 0 0 1-.073 8.255 10.77 10.77 0 0 1-5.885 5.805zm-29.88 10.714 29.398-11.899a9.5 9.5 0 0 0 5.189-5.115 9.47 9.47 0 0 0-.025-7.493L99.324 57.895zM17.606 55.029l29.4 11.899 3.67-9.033L12.443 42.42l-.09.213a9.47 9.47 0 0 0 .065 7.28 9.5 9.5 0 0 0 5.188 5.115m29.51 13.323-29.99-12.139a10.77 10.77 0 0 1-5.885-5.805 10.74 10.74 0 0 1 .112-8.681q.094-.204.202-.416l.267-.521.542.219 39.386 15.94.594.241-.24.592-4.153 10.217-.241.593z"/><path fill="url(#g)" d="M-.722 0v107h151.443V0" clip-path="url(#f)" transform="matrix(1 0 0 -1 0 107)"/><path fill="#DBA73E" fill-rule="evenodd" d="M-.722 0v107H0V0" clip-path="url(#h)" transform="matrix(1 0 0 -1 0 107)"/><path fill="#E0C77D" fill-rule="evenodd" d="M150.721 0v107H149V0" clip-path="url(#i)" transform="matrix(1 0 0 -1 0 107)"/><path fill="none" d="m52.605 54.85 4.152-10.218L6.054 24.113q-.197.384-.364.793c-2.103 5.175.42 11.128 5.606 13.227L52.604 54.85zm5.39-13.266L6.989 20.94c-5.186-2.098-7.71-8.05-5.606-13.227q.166-.406.363-.792l60.402 24.446zm-16.044 39.48 4.152-10.217-27.428-11.101q-.198.385-.364.792c-2.103 5.176.42 11.129 5.606 13.227zM97.397 54.85l-4.152-10.217 50.702-20.52q.196.384.362.791c2.104 5.176-.42 11.129-5.606 13.228L97.396 54.85m-5.392-13.266 51.008-20.644c5.185-2.099 7.709-8.052 5.605-13.227a10 10 0 0 0-.363-.793L87.854 31.366l4.151 10.217m16.045 39.481-4.152-10.217 27.429-11.102q.196.385.362.793c2.104 5.176-.42 11.128-5.605 13.227zm-5.407-13.306 29.991-12.138c5.187-2.1 7.71-8.052 5.606-13.228q-.166-.407-.363-.792L98.491 57.542l4.152 10.218m-55.285 0L17.366 55.621c-5.186-2.1-7.71-8.052-5.606-13.228q.166-.407.364-.792L51.51 57.542z"/><path fill="url(#k)" d="M0-.67h149v109.1H0" clip-path="url(#j)" transform="matrix(1 0 0 -1 0 107)"/><path fill="#F4C761" fill-rule="evenodd" d="M0-.67h149V0H0" clip-path="url(#l)" transform="matrix(1 0 0 -1 0 107)"/><path fill="#D0AB5B" fill-rule="evenodd" d="M0 108.43h149V107H0" clip-path="url(#m)" transform="matrix(1 0 0 -1 0 107)"/><path fill="none" d="M75-.758c-3.78 0-7.057 4.34-10.753 5.125-3.697.785-7.973-1.954-11.426-.42-3.451 1.534-4.677 6.83-7.735 9.047-3.056 2.216-8.08 1.451-10.608 4.253-2.53 2.803-1.49 8.138-3.379 11.405-1.889 3.265-6.79 4.606-7.958 8.192-1.167 3.586 1.957 8.039 1.562 11.79s-4.326 6.963-3.932 10.713c.395 3.751 5.064 6.55 6.233 10.137 1.167 3.587-1.115 8.118.774 11.384s7.296 3.928 9.825 6.73 2.29 7.868 5.348 10.085 8.265.628 11.717 2.162 5.3 6.259 8.996 7.043 7.807-2.782 11.586-2.782 7.392 3.565 11.089 2.782c3.696-.785 5.998-5.711 9.45-7.244 3.452-1.534 8.206.257 11.263-1.96s3.153-7.651 5.68-10.454c2.529-2.802 7.602-3.096 9.491-6.361 1.89-3.266-.239-8.27.93-11.856 1.167-3.586 5.682-5.913 6.076-9.665.396-3.75-3.588-7.456-3.983-11.207s2.781-7.709 1.614-11.295-6.318-5.357-8.207-8.623-.6-8.171-3.13-10.973-7.954-2.329-11.012-4.547c-3.057-2.215-3.88-7.22-7.331-8.753-3.453-1.534-8.216 1.101-11.913.317-3.696-.784-6.487-5.022-10.266-5.022z"/><path fill="url(#o)" d="M27.954 0v107h94.091V0" clip-path="url(#n)" transform="matrix(1 0 0 -1 0 107)"/><path fill="#DBA73E" fill-rule="evenodd" d="M27.954 0v107H0V0" clip-path="url(#p)" transform="matrix(1 0 0 -1 0 107)"/><path fill="#E0C77D" fill-rule="evenodd" d="M122.045 0v107H149V0" clip-path="url(#q)" transform="matrix(1 0 0 -1 0 107)"/><path fill="none" d="M75 100.07c-25.913 0-47.046-21.092-47.046-46.95C27.954 27.263 49.088 6.17 75 6.17s47.045 21.091 47.045 46.95c0 25.858-21.134 46.949-47.045 46.949"/><path fill="url(#s)" d="m0 17 149-29V91L0 120" clip-path="url(#r)" transform="matrix(1 0 0 -1 0 107)"/><path fill="#482A0F" fill-rule="evenodd" d="m0 18.182 149-28.904V0H0" clip-path="url(#t)" transform="matrix(1 0 0 -1 0 107)"/><path fill="#664219" fill-rule="evenodd" d="m0 119.003 149-28.904V107H0" clip-path="url(#u)" transform="matrix(1 0 0 -1 0 107)"/><path fill="none" d="M42.304 85.75C50.686 94.114 62.256 99.301 75 99.301s24.312-5.187 32.696-13.553 13.58-19.912 13.58-32.628-5.197-24.263-13.58-32.63C99.312 12.126 87.743 6.94 75 6.94c-12.744 0-24.313 5.187-32.696 13.552-8.384 8.367-13.58 19.912-13.58 32.63 0 12.717 5.197 24.263 13.58 32.628M75 100.836c-13.168 0-25.123-5.36-33.784-14.002C32.555 78.19 27.185 66.26 27.185 53.12s5.37-25.072 14.031-33.715S61.832 5.403 75 5.403s25.122 5.36 33.784 14.003 14.03 20.573 14.03 33.715c0 13.14-5.369 25.07-14.03 33.714-8.662 8.643-20.616 14.002-33.784 14.002"/><path fill="url(#w)" d="M0 22 149-7v93L0 115" clip-path="url(#v)" transform="matrix(1 0 0 -1 0 107)"/><path fill="#482A0F" fill-rule="evenodd" d="M0 23.04 149-5.861V0H0" clip-path="url(#x)" transform="matrix(1 0 0 -1 0 107)"/><path fill="#664219" fill-rule="evenodd" d="m0 114.11 149-28.903V107H0" clip-path="url(#y)" transform="matrix(1 0 0 -1 0 107)"/><path fill="none" d="M44.74 83.318C52.5 91.06 63.208 95.86 75 95.86s22.502-4.8 30.26-12.543S117.83 64.89 117.83 53.12s-4.81-22.455-12.569-30.198C97.502 15.179 86.795 10.379 75 10.379c-11.794 0-22.501 4.8-30.26 12.543-7.758 7.743-12.567 18.428-12.567 30.198s4.81 22.455 12.568 30.198M75 96.312c-11.92 0-22.74-4.85-30.58-12.675-7.84-7.824-12.7-18.622-12.7-30.517s4.86-22.694 12.7-30.517C52.262 14.778 63.083 9.928 75 9.928c11.919 0 22.74 4.85 30.58 12.675 7.84 7.824 12.701 18.623 12.701 30.517s-4.86 22.693-12.7 30.517C97.74 91.461 86.92 96.312 75 96.312"/><path fill-rule="evenodd" d="M84.012 12.76c22.337 4.967 36.409 27.065 31.43 49.355S88.323 98.45 65.988 93.481c-22.336-4.968-36.408-27.066-31.43-49.355 4.978-22.292 27.12-36.335 49.456-31.367"/><path fill="#443E3E" fill-rule="evenodd" d="M75.014 13.28c22.134 0 40.187 18.015 40.187 40.103-37.425-37.194-81.729 19.872-80.372 0 0-22.089 18.053-40.104 40.185-40.104"/></g></svg>