<svg xmlns="http://www.w3.org/2000/svg" width="28" height="28" viewBox="0 0 28 28" fill="none">
  <g clip-path="url(#clip0_13356_244875)">
    <path d="M11.8898 13.1413H2.11014C1.25251 13.1413 0.554321 12.4431 0.554321 11.5855V1.80582C0.554321 0.948184 1.25251 0.25 2.11014 0.25H11.8899C12.7474 0.25 13.4456 0.948179 13.4456 1.80582V11.5855C13.4456 12.4431 12.7474 13.1413 11.8898 13.1413ZM24.6724 11.9239H17.3275C16.4699 11.9239 15.7717 11.2258 15.7717 10.3681V3.02321C15.7717 2.16552 16.4699 1.46739 17.3275 1.46739H24.6724C25.5301 1.46739 26.2282 2.16552 26.2282 3.02321V10.3682C26.2282 11.2258 25.5301 11.9239 24.6724 11.9239ZM25.8898 27.75H16.1101C15.2525 27.75 14.5543 27.0518 14.5543 26.1942V16.4145C14.5543 15.5569 15.2525 14.8587 16.1101 14.8587H25.8898C26.7474 14.8587 27.4456 15.5569 27.4456 16.4145V26.1942C27.4456 27.0518 26.7474 27.75 25.8898 27.75ZM10.6724 26.5326H3.32753C2.46984 26.5326 1.77171 25.8344 1.77171 24.9768V17.6319C1.77171 16.7743 2.46984 16.0761 3.32753 16.0761H10.6725C11.5301 16.0761 12.2282 16.7743 12.2282 17.6319V24.9768C12.2282 25.8344 11.5301 26.5326 10.6724 26.5326Z" fill="#B3B3B3" stroke="#808080" stroke-width="0.5"/>
  </g>
  <defs>
    <clipPath id="clip0_13356_244875">
      <rect width="28" height="28" fill="white"/>
    </clipPath>
  </defs>
</svg>