<svg xmlns="http://www.w3.org/2000/svg" width="28" height="28" viewBox="0 0 28 28" fill="none">
  <mask id="path-1-outside-1_13356_305468" maskUnits="userSpaceOnUse" x="1.41382" y="2.11133" width="26" height="24" fill="black">
    <rect fill="white" x="1.41382" y="2.11133" width="26" height="24"/>
    <path d="M4.80562 7.89493C6.12657 7.89493 7.19742 6.82408 7.19742 5.50313C7.19742 4.18217 6.12657 3.11133 4.80562 3.11133C3.48466 3.11133 2.41382 4.18217 2.41382 5.50313C2.41382 6.82408 3.48466 7.89493 4.80562 7.89493Z"/>
    <path fill-rule="evenodd" clip-rule="evenodd" d="M9.27031 5.42339C9.27031 4.57211 9.96041 3.88201 10.8117 3.88201H25.2919C26.1432 3.88201 26.8333 4.57211 26.8333 5.42339C26.8333 6.27467 26.1432 6.96477 25.2919 6.96477H10.8117C9.96041 6.96477 9.27031 6.27467 9.27031 5.42339Z"/>
    <path fill-rule="evenodd" clip-rule="evenodd" d="M9.27031 22.3786C9.27031 21.5273 9.96041 20.8372 10.8117 20.8372H25.2919C26.1432 20.8372 26.8333 21.5273 26.8333 22.3786C26.8333 23.2299 26.1432 23.92 25.2919 23.92H10.8117C9.96041 23.92 9.27031 23.2299 9.27031 22.3786Z"/>
    <path fill-rule="evenodd" clip-rule="evenodd" d="M9.27031 13.901C9.27031 13.0497 9.96041 12.3596 10.8117 12.3596H25.2919C26.1432 12.3596 26.8333 13.0497 26.8333 13.901C26.8333 14.7523 26.1432 15.4424 25.2919 15.4424H10.8117C9.96041 15.4424 9.27031 14.7523 9.27031 13.901Z"/>
    <path d="M4.80562 16.3726C6.12657 16.3726 7.19742 15.3017 7.19742 13.9808C7.19742 12.6598 6.12657 11.589 4.80562 11.589C3.48466 11.589 2.41382 12.6598 2.41382 13.9808C2.41382 15.3017 3.48466 16.3726 4.80562 16.3726Z"/>
    <path d="M4.80562 24.8502C6.12657 24.8502 7.19742 23.7794 7.19742 22.4584C7.19742 21.1374 6.12657 20.0666 4.80562 20.0666C3.48466 20.0666 2.41382 21.1374 2.41382 22.4584C2.41382 23.7794 3.48466 24.8502 4.80562 24.8502Z"/>
  </mask>
  <path d="M4.80562 7.89493C6.12657 7.89493 7.19742 6.82408 7.19742 5.50313C7.19742 4.18217 6.12657 3.11133 4.80562 3.11133C3.48466 3.11133 2.41382 4.18217 2.41382 5.50313C2.41382 6.82408 3.48466 7.89493 4.80562 7.89493Z" fill="#B3B3B3"/>
  <path fill-rule="evenodd" clip-rule="evenodd" d="M9.27031 5.42339C9.27031 4.57211 9.96041 3.88201 10.8117 3.88201H25.2919C26.1432 3.88201 26.8333 4.57211 26.8333 5.42339C26.8333 6.27467 26.1432 6.96477 25.2919 6.96477H10.8117C9.96041 6.96477 9.27031 6.27467 9.27031 5.42339Z" fill="#B3B3B3"/>
  <path fill-rule="evenodd" clip-rule="evenodd" d="M9.27031 22.3786C9.27031 21.5273 9.96041 20.8372 10.8117 20.8372H25.2919C26.1432 20.8372 26.8333 21.5273 26.8333 22.3786C26.8333 23.2299 26.1432 23.92 25.2919 23.92H10.8117C9.96041 23.92 9.27031 23.2299 9.27031 22.3786Z" fill="#B3B3B3"/>
  <path fill-rule="evenodd" clip-rule="evenodd" d="M9.27031 13.901C9.27031 13.0497 9.96041 12.3596 10.8117 12.3596H25.2919C26.1432 12.3596 26.8333 13.0497 26.8333 13.901C26.8333 14.7523 26.1432 15.4424 25.2919 15.4424H10.8117C9.96041 15.4424 9.27031 14.7523 9.27031 13.901Z" fill="#B3B3B3"/>
  <path d="M4.80562 16.3726C6.12657 16.3726 7.19742 15.3017 7.19742 13.9808C7.19742 12.6598 6.12657 11.589 4.80562 11.589C3.48466 11.589 2.41382 12.6598 2.41382 13.9808C2.41382 15.3017 3.48466 16.3726 4.80562 16.3726Z" fill="#B3B3B3"/>
  <path d="M4.80562 24.8502C6.12657 24.8502 7.19742 23.7794 7.19742 22.4584C7.19742 21.1374 6.12657 20.0666 4.80562 20.0666C3.48466 20.0666 2.41382 21.1374 2.41382 22.4584C2.41382 23.7794 3.48466 24.8502 4.80562 24.8502Z" fill="#B3B3B3"/>
  <path d="M6.69742 5.50313C6.69742 6.54794 5.85043 7.39493 4.80562 7.39493V8.39493C6.40271 8.39493 7.69742 7.10022 7.69742 5.50313H6.69742ZM4.80562 7.39493C3.76081 7.39493 2.91382 6.54794 2.91382 5.50313H1.91382C1.91382 7.10022 3.20852 8.39493 4.80562 8.39493V7.39493ZM2.91382 5.50313C2.91382 4.45832 3.76081 3.61133 4.80562 3.61133V2.61133C3.20852 2.61133 1.91382 3.90603 1.91382 5.50313H2.91382ZM4.80562 3.61133C5.85043 3.61133 6.69742 4.45832 6.69742 5.50313H7.69742C7.69742 3.90603 6.40271 2.61133 4.80562 2.61133V3.61133ZM10.8117 3.38201C9.68427 3.38201 8.77031 4.29596 8.77031 5.42339H9.77031C9.77031 4.84825 10.2366 4.38201 10.8117 4.38201V3.38201ZM25.2919 3.38201H10.8117V4.38201H25.2919V3.38201ZM27.3333 5.42339C27.3333 4.29596 26.4193 3.38201 25.2919 3.38201V4.38201C25.8671 4.38201 26.3333 4.84825 26.3333 5.42339H27.3333ZM25.2919 7.46477C26.4193 7.46477 27.3333 6.55081 27.3333 5.42339H26.3333C26.3333 5.99853 25.8671 6.46477 25.2919 6.46477V7.46477ZM10.8117 7.46477H25.2919V6.46477H10.8117V7.46477ZM8.77031 5.42339C8.77031 6.55081 9.68427 7.46477 10.8117 7.46477V6.46477C10.2366 6.46477 9.77031 5.99853 9.77031 5.42339H8.77031ZM10.8117 20.3372C9.68427 20.3372 8.77031 21.2512 8.77031 22.3786H9.77031C9.77031 21.8034 10.2366 21.3372 10.8117 21.3372V20.3372ZM25.2919 20.3372H10.8117V21.3372H25.2919V20.3372ZM27.3333 22.3786C27.3333 21.2512 26.4193 20.3372 25.2919 20.3372V21.3372C25.8671 21.3372 26.3333 21.8034 26.3333 22.3786H27.3333ZM25.2919 24.42C26.4193 24.42 27.3333 23.506 27.3333 22.3786H26.3333C26.3333 22.9537 25.8671 23.42 25.2919 23.42V24.42ZM10.8117 24.42H25.2919V23.42H10.8117V24.42ZM8.77031 22.3786C8.77031 23.506 9.68427 24.42 10.8117 24.42V23.42C10.2366 23.42 9.77031 22.9537 9.77031 22.3786H8.77031ZM10.8117 11.8596C9.68427 11.8596 8.77031 12.7736 8.77031 13.901H9.77031C9.77031 13.3258 10.2366 12.8596 10.8117 12.8596V11.8596ZM25.2919 11.8596H10.8117V12.8596H25.2919V11.8596ZM27.3333 13.901C27.3333 12.7736 26.4193 11.8596 25.2919 11.8596V12.8596C25.8671 12.8596 26.3333 13.3258 26.3333 13.901H27.3333ZM25.2919 15.9424C26.4193 15.9424 27.3333 15.0284 27.3333 13.901H26.3333C26.3333 14.4761 25.8671 14.9424 25.2919 14.9424V15.9424ZM10.8117 15.9424H25.2919V14.9424H10.8117V15.9424ZM8.77031 13.901C8.77031 15.0284 9.68427 15.9424 10.8117 15.9424V14.9424C10.2366 14.9424 9.77031 14.4761 9.77031 13.901H8.77031ZM6.69742 13.9808C6.69742 15.0256 5.85043 15.8726 4.80562 15.8726V16.8726C6.40271 16.8726 7.69742 15.5779 7.69742 13.9808H6.69742ZM4.80562 15.8726C3.76081 15.8726 2.91382 15.0256 2.91382 13.9808H1.91382C1.91382 15.5779 3.20852 16.8726 4.80562 16.8726V15.8726ZM2.91382 13.9808C2.91382 12.936 3.76081 12.089 4.80562 12.089V11.089C3.20852 11.089 1.91382 12.3837 1.91382 13.9808H2.91382ZM4.80562 12.089C5.85043 12.089 6.69742 12.936 6.69742 13.9808H7.69742C7.69742 12.3837 6.40271 11.089 4.80562 11.089V12.089ZM6.69742 22.4584C6.69742 23.5032 5.85043 24.3502 4.80562 24.3502V25.3502C6.40271 25.3502 7.69742 24.0555 7.69742 22.4584H6.69742ZM4.80562 24.3502C3.76081 24.3502 2.91382 23.5032 2.91382 22.4584H1.91382C1.91382 24.0555 3.20852 25.3502 4.80562 25.3502V24.3502ZM2.91382 22.4584C2.91382 21.4136 3.76081 20.5666 4.80562 20.5666V19.5666C3.20852 19.5666 1.91382 20.8613 1.91382 22.4584H2.91382ZM4.80562 20.5666C5.85043 20.5666 6.69742 21.4136 6.69742 22.4584H7.69742C7.69742 20.8613 6.40271 19.5666 4.80562 19.5666V20.5666Z" fill="#808080" mask="url(#path-1-outside-1_13356_305468)"/>
</svg>