<svg width="192" height="35" viewBox="0 0 192 35" fill="none" xmlns="http://www.w3.org/2000/svg">
<g id="Vector">
<path d="M29.5961 0H26.5203C25.6147 0 24.8793 0.731816 24.8793 1.6332V20.8523C24.8793 25.2856 23.4872 27.5324 20.7433 27.5324H10.4938C7.74986 27.5324 6.3577 25.2856 6.3577 20.8523V1.6332C6.3577 0.731816 5.62241 0 4.71672 0H1.64099C0.735308 0 0 0.731816 0 1.6332V20.6292C0 24.9108 0.798074 28.3155 2.36957 30.7474C4.16748 33.5297 6.97645 35 10.4938 35H20.7433C24.2584 35 27.0673 33.523 28.8697 30.7274C30.4412 28.2887 31.2371 24.8907 31.2371 20.627V1.6332C31.2371 0.731816 30.5017 0 29.5961 0Z" fill="#B9B9B9"/>
<path d="M53.4801 0H37.05C36.1443 0 35.409 0.731816 35.409 1.6332V5.78983C35.409 6.69121 36.1443 7.42303 37.05 7.42303H53.1707C56.1724 7.42303 57.5242 10.3101 57.5242 12.3583V13.253C57.5242 15.1606 56.3428 18.1905 53.1707 18.1905H40.9328C37.68 18.1905 35.409 21.1602 35.409 25.4105V32.9206C35.409 33.822 36.1443 34.5538 37.05 34.5538H40.1571C41.0628 34.5538 41.7981 33.822 41.7981 32.9206V26.4391C41.7981 25.9839 41.8945 25.7229 41.9573 25.6136H53.4801C56.9167 25.6136 59.7391 24.0361 61.6424 21.0509C63.0255 18.8822 63.8506 15.9661 63.8506 13.253V12.3583C63.8506 9.66533 63.0502 6.77376 61.7096 4.62517C59.8198 1.59973 56.975 0 53.4801 0Z" fill="#B9B9B9"/>
<path d="M85.2596 0H72.923C69.6702 0 67.3993 2.96966 67.3993 7.22222V27.336C67.3993 31.5886 69.6702 34.5582 72.923 34.5582H85.1923C88.8644 34.5582 92.1576 32.7755 94.4666 29.5404C96.686 26.4279 97.8607 22.2512 97.8607 17.4587V17.0571C97.8607 12.2802 96.6949 8.11691 94.489 5.01339C92.1934 1.78269 88.916 0.00223115 85.2596 0.00223115V0ZM85.1609 7.55913C88.8935 7.55913 91.5007 11.4636 91.5007 17.0549V17.4565C91.5007 20.2633 90.8192 22.7689 89.5773 24.5136C88.7859 25.627 87.3893 26.9523 85.226 26.9523H73.9453C73.8825 26.8429 73.7861 26.5819 73.7861 26.1267V8.38242C73.7861 7.92726 73.8825 7.66622 73.9453 7.55689H85.1587L85.1609 7.55913Z" fill="#B9B9B9"/>
<path d="M125.367 6.53726C124.448 2.62606 121.733 0 118.613 0H112.37C109.247 0 106.534 2.62606 105.617 6.52387L99.282 32.5368C99.1632 33.0232 99.2752 33.5386 99.5868 33.9313C99.8984 34.324 100.374 34.556 100.878 34.556H104.109C104.866 34.556 105.525 34.0384 105.705 33.3066L111.45 9.66087C111.755 8.39804 112.441 7.73762 112.961 7.73762H118.023C118.541 7.73762 119.227 8.39804 119.534 9.66087L125.28 33.3066C125.457 34.0406 126.118 34.556 126.876 34.556H130.107C130.611 34.556 131.086 34.3262 131.398 33.9313C131.709 33.5364 131.821 33.0232 131.703 32.5368L125.37 6.53503L125.367 6.53726Z" fill="#B9B9B9"/>
<path d="M158.369 0H148.119C145.4 0 143.367 2.07497 142.773 5.24096V1.6332C142.773 0.731816 142.037 0 141.132 0H133.211C132.306 0 131.57 0.731816 131.57 1.6332V6.10219C131.57 7.00357 132.306 7.73539 133.211 7.73539H141.132C141.775 7.73539 142.333 7.36502 142.602 6.82731C142.598 6.95672 142.596 7.08612 142.596 7.21776V32.9183C142.596 33.8197 143.331 34.5515 144.236 34.5515H147.344C148.249 34.5515 148.985 33.8197 148.985 32.9183V8.56314C148.985 8.10799 149.081 7.84694 149.144 7.73985H158.369C159.274 7.73985 160.01 7.00803 160.01 6.10665V1.6332C160.01 0.731816 159.274 0 158.369 0Z" fill="#B9B9B9"/>
<path d="M190.359 0H165.199C164.293 0 163.558 0.731208 163.558 1.6332V6.10442C163.558 7.00641 164.293 7.73762 165.199 7.73762H190.359C191.265 7.73762 192 7.00641 192 6.10442V1.6332C192 0.731208 191.265 0 190.359 0Z" fill="#B9B9B9"/>
<path d="M190.359 13.4092H165.199C164.293 13.4092 163.558 14.1404 163.558 15.0424V19.5136C163.558 20.4156 164.293 21.1468 165.199 21.1468H190.359C191.265 21.1468 192 20.4156 192 19.5136V15.0424C192 14.1404 191.265 13.4092 190.359 13.4092Z" fill="#B9B9B9"/>
<path d="M190.359 26.8184H165.199C164.293 26.8184 163.558 27.5496 163.558 28.4516V32.9228C163.558 33.8248 164.293 34.556 165.199 34.556H190.359C191.265 34.556 192 33.8248 192 32.9228V28.4516C192 27.5496 191.265 26.8184 190.359 26.8184Z" fill="#B9B9B9"/>
</g>
</svg>
