<svg width="17" height="17" viewBox="0 0 17 17" fill="none" xmlns="http://www.w3.org/2000/svg">
<g id="Icon/Soccer/checkvar">
<g id="Vector">
<path d="M14.426 1.62571H2.5741C2.05045 1.62571 1.62595 2.05021 1.62595 2.57386V10.6331C1.62595 11.1568 2.05045 11.5813 2.5741 11.5813H14.426C14.9496 11.5813 15.3741 11.1568 15.3741 10.6331V2.57386C15.3741 2.05021 14.9496 1.62571 14.426 1.62571Z" fill="#66BB6A"/>
<path d="M2.33706 10.6331V2.57386C2.33706 2.0503 2.76166 1.62571 3.28521 1.62571H2.5741C2.05045 1.62571 1.62595 2.05021 1.62595 2.57386V10.6331C1.62595 11.1568 2.05045 11.5813 2.5741 11.5813H3.28521C2.76166 11.5813 2.33706 11.1567 2.33706 10.6331Z" fill="#4DAF4E"/>
<path d="M10.1593 11.5813V12.0553C10.1593 12.3173 9.94714 12.5294 9.68521 12.5294H6.84077C6.57884 12.5294 6.36669 12.3173 6.36669 12.0553V11.5813H10.1593Z" fill="#9E9D9E"/>
<path d="M7.07781 12.0553V11.5813H6.36669V12.0553C6.36669 12.3173 6.57884 12.5294 6.84077 12.5294H7.55188C7.28995 12.5294 7.07781 12.3173 7.07781 12.0553Z" fill="#757576"/>
<path d="M9.44818 12.5294H7.07781V15.3739H9.44818V12.5294Z" fill="#757576"/>
<path d="M7.55188 12.5294H7.07781V15.3739H7.55188V12.5294Z" fill="#616261"/>
<path d="M14.426 1.38867H2.5741C1.91988 1.38956 1.3898 1.91963 1.38892 2.57386V10.6331C1.3898 11.2873 1.91988 11.8174 2.5741 11.8183H6.12966V12.0553C6.12995 12.4479 6.44818 12.7662 6.84077 12.7664V15.3739C6.84077 15.5048 6.94684 15.6109 7.07781 15.6109C7.20877 15.6109 7.31484 15.5048 7.31484 15.3739V12.7664H9.21114V15.3739C9.21114 15.5048 9.31721 15.6109 9.44818 15.6109C9.57914 15.6109 9.68521 15.5048 9.68521 15.3739V12.7664C10.0778 12.7662 10.396 12.4479 10.3963 12.0553V11.8183H14.426C15.0802 11.8174 15.6102 11.2873 15.6111 10.6331V2.57386C15.6102 1.91963 15.0802 1.38956 14.426 1.38867ZM9.92225 12.0553C9.92225 12.1863 9.81618 12.2924 9.68521 12.2924H6.84077C6.7098 12.2924 6.60373 12.1863 6.60373 12.0553V11.8183H9.92225V12.0553ZM15.1371 10.6331C15.1368 11.0257 14.8185 11.3439 14.426 11.3442H2.5741C2.18151 11.3439 1.86329 11.0257 1.86299 10.6331V2.57386C1.86329 2.18126 2.18151 1.86304 2.5741 1.86275H14.426C14.8185 1.86304 15.1368 2.18126 15.1371 2.57386V10.6331ZM8.48492 5.33504C8.43869 5.21238 8.3021 5.15045 8.17943 5.19638C8.11543 5.22038 8.06506 5.27104 8.04077 5.33504L7.32966 7.23134C7.28373 7.35401 7.34566 7.4906 7.46832 7.53652C7.59099 7.58245 7.72758 7.52052 7.77351 7.39786L7.89351 7.07756H8.63158L8.75158 7.39786C8.79751 7.52052 8.9344 7.58245 9.05677 7.53652C9.17943 7.4906 9.24136 7.35371 9.19543 7.23134L8.48492 5.33504ZM8.07158 6.60349L8.26299 6.09326L8.4544 6.60349H8.07158ZM7.29973 5.50156L6.58862 7.39786C6.5424 7.52052 6.4058 7.58245 6.28314 7.53652C6.21914 7.51252 6.16877 7.46186 6.14447 7.39786L5.43336 5.50156C5.38743 5.37889 5.44936 5.2423 5.57203 5.19638C5.69469 5.15045 5.83129 5.21238 5.87721 5.33504L6.3664 6.63963L6.85558 5.33504C6.90151 5.21238 7.0384 5.15045 7.16077 5.19638C7.28314 5.2423 7.34566 5.37919 7.29973 5.50156ZM10.4464 5.18126H9.92225C9.79129 5.18126 9.68521 5.28734 9.68521 5.4183V7.3146C9.68521 7.44556 9.79129 7.55163 9.92225 7.55163C10.0532 7.55163 10.1593 7.44556 10.1593 7.3146V6.76141L10.6808 7.45682C10.7593 7.56141 10.908 7.58245 11.0126 7.50393C11.1172 7.42541 11.1382 7.27697 11.06 7.17238L10.615 6.57889C10.9045 6.50275 11.1065 6.24171 11.1074 5.94245V5.8426C11.1071 5.47756 10.8111 5.18156 10.4464 5.18126ZM10.6334 5.94245C10.6334 6.04586 10.5495 6.12941 10.4464 6.12941H10.1593V5.65534H10.4464C10.5498 5.65534 10.6334 5.73919 10.6334 5.8423V5.94245ZM13.4778 2.33682H3.52225C2.86803 2.33771 2.33795 2.86778 2.33706 3.52201V9.68497C2.33795 10.3392 2.86803 10.8693 3.52225 10.8702H13.4778C14.132 10.8693 14.6621 10.3392 14.663 9.68497V3.52201C14.6621 2.86778 14.132 2.33771 13.4778 2.33682ZM14.1889 9.68497C14.1886 10.0776 13.8704 10.3958 13.4778 10.3961H3.52225C3.12966 10.3958 2.81143 10.0776 2.81114 9.68497V3.52201C2.81143 3.12941 3.12966 2.81119 3.52225 2.81089H13.4778C13.8704 2.81119 14.1886 3.12941 14.1889 3.52201V9.68497Z" fill="black"/>
</g>
</g>
</svg>
