<svg xmlns="http://www.w3.org/2000/svg" width="18" height="18" viewBox="0 0 18 18" fill="none">
  <path d="M7.74022 10.0942C8.06034 10.7108 8.20939 11.3991 8.17241 12.09C8.13543 12.7809 7.91373 13.4501 7.52954 14.0305L11.9517 16.8451C11.9517 16.8451 13.8423 15.4388 13.8423 12.2966C13.8423 9.34685 12.4386 7.74806 12.4386 7.74806L7.74022 10.0942Z" fill="#009444"/>
  <path d="M7.60452 10.1719C7.63456 10.2299 7.66319 10.2885 7.69041 10.3477C7.69697 10.3619 7.70342 10.3762 7.70977 10.3906L7.71928 10.4121C7.71789 10.4089 7.71195 10.395 7.71928 10.4113C7.73249 10.4427 7.7454 10.4742 7.75799 10.5059C7.85617 10.7548 7.92809 11.013 7.97264 11.2763C7.97801 11.308 7.98297 11.3398 7.9875 11.3716C7.99014 11.3898 7.9879 11.374 7.9875 11.3705C7.98856 11.3785 7.98959 11.3865 7.99061 11.3946C7.99299 11.4133 7.99519 11.432 7.99721 11.4507C8.0047 11.518 8.01043 11.5854 8.01439 11.6531C8.02242 11.7903 8.02319 11.9278 8.0167 12.0652C8.0134 12.1352 8.00823 12.2051 8.00118 12.2749C7.99796 12.3067 7.99435 12.3385 7.99034 12.3703C7.98933 12.3782 7.98832 12.3861 7.9873 12.394C7.98777 12.3905 7.99008 12.3746 7.9873 12.3925C7.98453 12.4104 7.98195 12.4292 7.97905 12.4475C7.93865 12.7047 7.87226 12.9573 7.78085 13.2017C7.76826 13.2354 7.75517 13.2689 7.74161 13.3022C7.73487 13.3188 7.728 13.3354 7.721 13.3519C7.71439 13.3683 7.7204 13.3534 7.72172 13.3504C7.71664 13.3621 7.71148 13.3738 7.70626 13.3855C7.67715 13.4507 7.64632 13.5151 7.61377 13.5787C7.54746 13.7073 7.47411 13.8323 7.39404 13.9531C7.34628 14.0253 7.38182 14.1202 7.45046 14.1638L11.2693 16.5943C11.4675 16.7202 11.6622 16.8529 11.8639 16.9728C11.8668 16.9745 11.8696 16.9764 11.8724 16.9782C11.9147 17.0051 11.9893 17.0093 12.0309 16.9782C12.101 16.9253 12.1681 16.8687 12.2319 16.8086C12.3813 16.6681 12.5206 16.5177 12.6488 16.3584C12.8496 16.1114 13.029 15.8483 13.185 15.572C13.3848 15.2157 13.5483 14.8409 13.6731 14.4532C13.8265 13.9794 13.9208 13.4886 13.9671 12.9938C14.0203 12.4262 14.0068 11.8514 13.9425 11.2853C13.8851 10.7826 13.7874 10.2844 13.6401 9.7994C13.5243 9.41732 13.3784 9.04466 13.2035 8.68481C13.0866 8.44241 12.9533 8.2079 12.8046 7.98281C12.7293 7.86971 12.6508 7.75382 12.5601 7.65166C12.5565 7.64758 12.5531 7.64325 12.5495 7.6391C12.5025 7.58556 12.4181 7.5855 12.359 7.61502L8.23914 9.67212C8.04947 9.76683 7.85465 9.85527 7.66874 9.95698C7.6661 9.9584 7.66339 9.95963 7.66074 9.96099C7.58735 9.99763 7.56019 10.1046 7.60433 10.1717C7.65262 10.2451 7.74088 10.2662 7.81937 10.227L11.9394 8.17018C12.1289 8.07559 12.3247 7.98799 12.5099 7.88531C12.5124 7.88389 12.5152 7.88266 12.5178 7.8813L12.3274 7.85722C12.3419 7.87379 12.3555 7.89108 12.3693 7.90817C12.3846 7.92707 12.3386 7.86874 12.3561 7.89166L12.3679 7.907C12.377 7.91874 12.386 7.93057 12.3949 7.94248C12.4169 7.97157 12.4383 8.00096 12.4591 8.03066C12.5933 8.22221 12.7152 8.42181 12.8239 8.62829C12.9014 8.77378 12.9733 8.92191 13.0397 9.07267L13.0515 9.09941C13.0589 9.11624 13.0614 9.13075 13.0532 9.10323C13.0598 9.12511 13.0716 9.14648 13.0805 9.16758C13.099 9.21182 13.117 9.25624 13.1346 9.30082C13.1711 9.39314 13.2057 9.48616 13.2384 9.57986C13.3911 10.0189 13.5049 10.47 13.5787 10.9281C13.5893 10.9934 13.5991 11.0589 13.6082 11.1245C13.6046 11.0979 13.609 11.1315 13.6103 11.1406C13.6125 11.1574 13.6147 11.1742 13.6169 11.191C13.6213 11.2249 13.6254 11.2589 13.6291 11.2929C13.6446 11.4304 13.6569 11.5683 13.6659 11.7064C13.6854 11.9977 13.69 12.2898 13.6797 12.5816C13.6746 12.7169 13.6658 12.852 13.6532 12.9869C13.6471 13.053 13.6401 13.119 13.6321 13.1849C13.6285 13.215 13.6245 13.245 13.6206 13.275C13.6182 13.2932 13.6212 13.2707 13.6215 13.2685C13.6202 13.2776 13.619 13.2868 13.6176 13.2958C13.615 13.314 13.6123 13.3321 13.6096 13.3501C13.5738 13.5865 13.5252 13.8208 13.4639 14.052C13.4083 14.2614 13.3418 14.4679 13.2644 14.6705C13.246 14.7189 13.2269 14.767 13.2072 14.8149C13.1984 14.8364 13.1892 14.8582 13.1798 14.8801C13.1645 14.9162 13.1877 14.8622 13.1765 14.8878C13.1708 14.9007 13.1651 14.9137 13.1593 14.9266C13.1208 15.0132 13.0803 15.0989 13.0376 15.1837C12.8911 15.4754 12.719 15.7539 12.523 16.0162C12.5021 16.0441 12.481 16.0717 12.4595 16.0991C12.4445 16.1186 12.4568 16.1019 12.4661 16.0907C12.4607 16.0972 12.4557 16.1037 12.4505 16.1101C12.4403 16.1231 12.43 16.1358 12.4197 16.1484C12.3815 16.1952 12.3425 16.2414 12.3027 16.2868C12.2358 16.363 12.1663 16.437 12.0944 16.5087C12.0177 16.5857 11.9368 16.6585 11.8521 16.7269C11.8308 16.7439 11.8509 16.7277 11.8719 16.7119H12.0305L7.60888 13.8978L7.6653 14.1085C7.96398 13.6569 8.17229 13.1453 8.26788 12.6151C8.37055 12.0457 8.35476 11.4594 8.21338 10.8975C8.13551 10.5921 8.02233 10.2965 7.87605 10.0163C7.83872 9.94435 7.72945 9.91781 7.66101 9.96106C7.58589 10.0085 7.56455 10.0949 7.60452 10.1719Z" fill="#414042"/>
  <path d="M7.74022 10.0942L4.15593 11.8836L7.52954 14.0305C7.91373 13.4501 8.13543 12.7809 8.17241 12.09C8.20939 11.3991 8.06034 10.7108 7.74022 10.0942Z" fill="#006838"/>
  <path d="M7.66088 9.96112L4.51605 11.5309C4.37189 11.6029 4.22424 11.6704 4.08266 11.7473C4.08068 11.7484 4.07857 11.7493 4.07652 11.7503C3.96599 11.8055 3.98337 11.957 4.07652 12.0163L7.03643 13.9001C7.17213 13.9865 7.30578 14.0777 7.44432 14.1597C7.4463 14.1609 7.44815 14.1622 7.45013 14.1634C7.52373 14.2102 7.62071 14.1754 7.66517 14.1081C7.9656 13.6547 8.17048 13.1469 8.26775 12.6147C8.37022 12.0464 8.35469 11.4612 8.21404 10.9003C8.13621 10.5938 8.02276 10.2971 7.87592 10.016C7.83859 9.94396 7.72932 9.91742 7.66088 9.96067C7.58589 10.0081 7.56455 10.0944 7.60446 10.1714C7.63529 10.2304 7.66449 10.2901 7.69206 10.3505C7.69853 10.3646 7.70492 10.3787 7.71122 10.3929C7.71512 10.4018 7.73051 10.4383 7.71928 10.4111C7.73295 10.444 7.74663 10.4768 7.75964 10.5099C7.85669 10.7568 7.92792 11.0128 7.97224 11.2738C7.97792 11.3075 7.98288 11.3412 7.98803 11.3749C7.99081 11.393 7.98737 11.37 7.98711 11.3678C7.9883 11.3769 7.98949 11.386 7.99061 11.3949C7.9929 11.4131 7.9951 11.4312 7.99721 11.4494C8.00488 11.5179 8.01069 11.5866 8.01466 11.6555C8.02271 11.7953 8.02324 11.9354 8.01624 12.0753C8.01294 12.1414 8.00798 12.2073 8.00138 12.2732C7.99799 12.3069 7.99415 12.3405 7.98988 12.3741C7.98843 12.3854 7.98427 12.4143 7.9883 12.3867C7.98539 12.4067 7.98248 12.4266 7.97938 12.4465C7.93868 12.7058 7.87155 12.9605 7.779 13.2067C7.76676 13.2393 7.75407 13.2716 7.74095 13.3038C7.73355 13.3219 7.72595 13.3399 7.71842 13.3579C7.71181 13.3743 7.7206 13.3529 7.72139 13.351C7.71703 13.3609 7.71267 13.3709 7.70818 13.3808C7.67916 13.4459 7.64832 13.5103 7.61569 13.5738C7.54885 13.7039 7.47479 13.8302 7.39384 13.9523L7.60888 13.897L4.64897 12.0132C4.51334 11.9269 4.37995 11.8349 4.24109 11.7536C4.2391 11.7525 4.23725 11.7512 4.23527 11.7499V12.016L7.3801 10.446C7.52425 10.374 7.67191 10.3065 7.81349 10.2297C7.81547 10.2286 7.81758 10.2276 7.81963 10.2266C7.89303 10.19 7.92018 10.083 7.87605 10.0159C7.82763 9.94293 7.73943 9.92189 7.66088 9.96112Z" fill="#414042"/>
  <path d="M4.76393 11.8409C4.76396 11.9391 4.80381 12.0333 4.87471 12.1028C4.94561 12.1723 5.04176 12.2113 5.14202 12.2113H5.20015C5.30037 12.2112 5.39647 12.1722 5.46733 12.1027C5.53819 12.0333 5.57801 11.9391 5.57804 11.8409V5.37373L4.76393 5.83424V11.8409Z" fill="#58595B"/>
  <path d="M4.60689 11.8409C4.609 11.9859 4.66958 12.1322 4.78229 12.2288C4.89196 12.3228 5.0229 12.3654 5.16765 12.3654C5.31028 12.3654 5.43772 12.3283 5.54851 12.2385C5.66373 12.145 5.72887 12.0022 5.73521 11.8569C5.73845 11.7829 5.73561 11.708 5.73561 11.634V5.69517C5.73561 5.59243 5.73686 5.48955 5.73561 5.38681C5.73561 5.38247 5.73561 5.37807 5.73561 5.37386C5.73561 5.25662 5.60222 5.18249 5.4991 5.24088L4.68478 5.70171C4.66121 5.71531 4.64164 5.73467 4.62798 5.7579C4.61433 5.78113 4.60706 5.80743 4.60689 5.83424V11.5967C4.60689 11.6744 4.6055 11.7526 4.60689 11.8305C4.60689 11.8338 4.60689 11.8369 4.60689 11.8406C4.60689 11.9212 4.67916 11.9984 4.76406 11.9947C4.84895 11.9909 4.92123 11.927 4.92123 11.8406V6.07844C4.92123 6.00075 4.92347 5.92242 4.92123 5.84466C4.92123 5.8413 4.92123 5.83819 4.92123 5.8345L4.8434 5.96748L5.65772 5.50665L5.42121 5.37367V11.8074C5.42121 11.8171 5.42121 11.8268 5.42121 11.8364C5.42121 11.8378 5.42121 11.8393 5.42121 11.8407C5.42121 11.8465 5.42121 11.8512 5.42081 11.8568C5.42081 11.8639 5.41969 11.8709 5.41929 11.878C5.4181 11.8992 5.4259 11.8477 5.42035 11.8681C5.41685 11.8814 5.41447 11.8949 5.41037 11.9081C5.40839 11.9146 5.40528 11.921 5.40376 11.9275C5.39947 11.9453 5.41896 11.899 5.40555 11.9234C5.39894 11.9352 5.39306 11.9472 5.38573 11.9586C5.3821 11.9643 5.37813 11.9697 5.37443 11.9753C5.35818 12.0001 5.37972 11.967 5.38044 11.968C5.38117 11.9689 5.35507 11.9952 5.35283 11.9973C5.34623 12.0025 5.33994 12.0081 5.334 12.0141C5.3229 12.0277 5.36089 11.9969 5.33757 12.0114C5.32601 12.0186 5.31484 12.0261 5.30282 12.0326C5.29681 12.0358 5.2906 12.0387 5.28452 12.0418C5.25763 12.0558 5.2935 12.0371 5.29363 12.0383C5.29363 12.0409 5.25723 12.0499 5.254 12.0508C5.24739 12.0525 5.24025 12.0537 5.23345 12.0554C5.19923 12.0642 5.26866 12.0543 5.23299 12.0558C5.19731 12.0574 5.16144 12.0583 5.12583 12.0568C5.11863 12.0568 5.11143 12.0557 5.10423 12.0553C5.08256 12.0541 5.13514 12.0618 5.11433 12.0563C5.10072 12.0529 5.08698 12.0506 5.07351 12.0466C5.0669 12.0446 5.06029 12.0416 5.05369 12.0401C5.03387 12.0355 5.08011 12.054 5.0626 12.044C5.04939 12.0365 5.03512 12.0305 5.02198 12.0225C5.01616 12.0189 5.01068 12.015 5.00493 12.0114C4.97652 11.9939 5.02303 12.0294 5.0085 12.0141C4.99938 12.0044 4.98828 11.9963 4.97897 11.9866C4.97434 11.9818 4.97025 11.9762 4.96536 11.9718C4.95049 11.9583 4.98154 11.9965 4.97104 11.9794C4.96404 11.9679 4.95571 11.9573 4.94897 11.9456C4.9456 11.9398 4.94237 11.9338 4.93933 11.9279C4.93398 11.9181 4.93655 11.9059 4.93668 11.9232C4.93668 11.942 4.93814 11.9268 4.93543 11.9179C4.93345 11.9114 4.9312 11.9049 4.92935 11.8984C4.9275 11.892 4.92585 11.8852 4.92433 11.8784L4.92321 11.8734C4.92083 11.8598 4.92061 11.8598 4.92255 11.8734L4.92387 11.8835C4.92325 11.8782 4.92277 11.873 4.92242 11.8677C4.92175 11.8588 4.92156 11.85 4.92142 11.841C4.92023 11.7605 4.84994 11.6832 4.76426 11.687C4.67956 11.6905 4.60543 11.7545 4.60689 11.8409Z" fill="#414042"/>
  <path d="M4.76386 1.15336V5.8345L8.90072 3.4939L4.76386 1.15336Z" fill="#ED1C24"/>
  <path d="M6.91163 2.19059L4.8432 1.02032C4.74008 0.962052 4.60669 1.03612 4.60669 1.1533V5.83424C4.60669 5.95149 4.74008 6.02561 4.8432 5.96722L8.96612 3.63478L8.98013 3.62688C9.08213 3.56919 9.08213 3.41854 8.98013 3.36085L6.91163 2.19052C6.84042 2.15019 6.73636 2.17194 6.69659 2.24581C6.65682 2.31968 6.67677 2.41356 6.75301 2.45654L8.82151 3.62688V3.36111L4.68465 5.70152L4.92116 5.8345V1.15343L4.68465 1.28641L6.75288 2.45661C6.8241 2.49694 6.92815 2.47519 6.96792 2.40132C7.00769 2.32745 6.98774 2.23364 6.91163 2.19059Z" fill="#414042"/>
</svg>