<svg width="61" height="20" viewBox="0 0 61 20" fill="none" xmlns="http://www.w3.org/2000/svg">
<path d="M10.5266 4.98136C10.2901 4.09431 10.8504 3.19308 11.8087 2.98018L18.8958 1.40572C19.861 1.1913 20.8289 1.76491 21.0678 2.66101L24.3623 15.0181C24.5988 15.9052 24.0385 16.8064 23.0802 17.0193L15.9931 18.5937C15.0279 18.8082 14.06 18.2346 13.8211 17.3384L10.5266 4.98136Z" fill="#FFDA00" stroke="white" stroke-width="0.5"/>
<path d="M35.5266 4.98136C35.2901 4.09431 35.8504 3.19308 36.8087 2.98018L43.8958 1.40572C44.861 1.1913 45.8289 1.76491 46.0678 2.66101L49.3623 15.0181C49.5988 15.9052 49.0385 16.8064 48.0802 17.0193L40.9931 18.5937C40.0279 18.8082 39.06 18.2346 38.8211 17.3384L35.5266 4.98136Z" fill="#FFDA00" stroke="white" stroke-width="0.5"/>
</svg>
