<svg xmlns="http://www.w3.org/2000/svg" width="19" height="18" viewBox="0 0 19 18" fill="none">
  <path d="M10.6473 6.07722L8.25257 3.68242L8.53014 3.40486C9.50483 2.43017 11.1637 2.82392 11.5962 4.12781L12.7 7.03255L10.6473 6.07722Z" fill="#D99C00"/>
  <path d="M15.6952 13.9006L12.4355 6.29031C12.2677 5.89656 12.3258 5.83847 12.0224 5.53508L11.6867 5.19943C11.4221 4.93478 10.9896 4.93478 10.7249 5.19943C10.4603 5.46408 10.0278 5.46408 9.76315 5.19943L6.90363 2.33344C6.63898 2.06879 6.63898 1.63631 6.90363 1.37166C7.16828 1.10701 7.16828 0.674538 6.90363 0.409887L6.89072 0.396977C6.36142 -0.132326 5.49646 -0.132326 4.96716 0.396977L0.222798 5.14779C-0.0676732 5.43826 -0.0676732 5.90947 0.222798 6.19994L13.6619 17.3282C13.9524 17.6187 16.6764 17.8833 16.9668 17.5929L17.4961 17.2314C19.4907 15.4756 16.1793 15.0238 15.6952 13.9006Z" fill="#9B9B9B"/>
  <path fill-rule="evenodd" clip-rule="evenodd" d="M10.8024 7.81379C10.6798 7.69114 10.6023 7.52332 10.6023 7.33612C10.6023 6.96174 10.9057 6.65836 11.2801 6.65836H12.8551C13.2294 6.65836 13.5328 6.96174 13.5328 7.33612C13.5328 7.71051 13.2294 8.01389 12.8551 8.01389H11.2801C11.0993 8.01389 10.925 7.93643 10.8024 7.81379ZM11.8287 9.96973C11.706 9.84708 11.6286 9.67926 11.6286 9.49206C11.6286 9.11768 11.9319 8.8143 12.3063 8.8143H13.8813C14.2557 8.8143 14.5591 9.11768 14.5591 9.49206C14.5591 9.86645 14.2557 10.1698 13.8813 10.1698H12.3063C12.1256 10.1698 11.9513 10.0924 11.8287 9.96973ZM12.4806 11.7706C12.4806 11.9578 12.5581 12.1257 12.6807 12.2483C12.8034 12.371 12.9712 12.442 13.1584 12.4484H14.7334C15.1078 12.4484 15.4111 12.145 15.4111 11.7706C15.4111 11.3963 15.1078 11.0929 14.7334 11.0929H13.1584C12.784 11.0929 12.4806 11.3963 12.4806 11.7706Z" fill="#E6E6E6"/>
  <path d="M3.4438 1.92024L6.67771 5.21872C7.43939 5.99976 7.86541 7.04546 7.86541 8.14279L7.85895 10.0341L1.41696 3.92126L3.4438 1.92024Z" fill="#FFBE18"/>
  <path d="M15.6176 17.9478C15.6176 17.9478 13.0356 17.6896 9.85333 15.5401C7.05835 13.6617 0.222798 6.19994 0.222798 6.19994C-0.0741281 5.90302 -0.0743347 5.41882 0.222591 5.12191L2.10097 3.24353C2.10097 3.24353 7.94267 8.76892 8.85282 11.6026C10.4924 16.7407 17.5799 17.2119 17.5799 17.2119L17.128 17.6638C16.8311 17.9607 16.4244 18.0769 15.6176 17.9478Z" fill="#E4B764"/>
</svg>