<svg xmlns="http://www.w3.org/2000/svg" width="95" height="95"><defs><clipPath id="a"><path d="M0 71V-.429h71.28V71z" clip-rule="evenodd"/></clipPath><clipPath id="d"><path d="M35.64 71.429C15.954 71.429 0 55.395 0 35.714h2C2 54.296 17.064 69.43 35.64 69.43zm0-2c18.577 0 33.64-15.133 33.64-33.715h2c0 19.681-15.953 35.715-35.64 35.715zm33.64-33.715C69.28 17.132 54.218 2 35.64 2V0c19.687 0 35.64 16.033 35.64 35.714zM35.64 2C17.064 2 2 17.132 2 35.714H0C0 16.034 15.954 0 35.64 0z" clip-rule="evenodd"/></clipPath><clipPath id="e"><path d="M35.64 71.429C15.954 71.429 0 55.395 0 35.714h2C2 54.296 17.064 69.43 35.64 69.43zm0-2c18.577 0 33.64-15.133 33.64-33.715h2c0 19.681-15.953 35.715-35.64 35.715zm33.64-33.715C69.28 17.132 54.218 2 35.64 2V0c19.687 0 35.64 16.033 35.64 35.714zM35.64 2C17.064 2 2 17.132 2 35.714H0C0 16.034 15.954 0 35.64 0z" clip-rule="evenodd"/></clipPath><clipPath id="f"><path d="M35.64 71.429C15.954 71.429 0 55.395 0 35.714h2C2 54.296 17.064 69.43 35.64 69.43zm0-2c18.577 0 33.64-15.133 33.64-33.715h2c0 19.681-15.953 35.715-35.64 35.715zm33.64-33.715C69.28 17.132 54.218 2 35.64 2V0c19.687 0 35.64 16.033 35.64 35.714zM35.64 2C17.064 2 2 17.132 2 35.714H0C0 16.034 15.954 0 35.64 0z" clip-rule="evenodd"/></clipPath><linearGradient id="b" x1="-72.761" x2="-71.444" y1="72.903" y2="-.79" gradientUnits="userSpaceOnUse"><stop offset="0%" stop-color="#FFF"/><stop offset="1%" stop-color="#FFFEFB"/><stop offset="2%" stop-color="#FFFDF7"/><stop offset="3%" stop-color="#FEFDF3"/><stop offset="4%" stop-color="#FEFCEE"/><stop offset="5%" stop-color="#FEFBEA"/><stop offset="6%" stop-color="#FEFAE6"/><stop offset="7%" stop-color="#FDF9E2"/><stop offset="8%" stop-color="#FDF9DE"/><stop offset="9%" stop-color="#FDF8DA"/><stop offset="10%" stop-color="#FDF7D6"/><stop offset="11%" stop-color="#FCF6D2"/><stop offset="12%" stop-color="#FCF5CD"/><stop offset="13%" stop-color="#FCF5C9"/><stop offset="14%" stop-color="#FCF4C5"/><stop offset="15%" stop-color="#FBF3C1"/><stop offset="16%" stop-color="#FBF2BD"/><stop offset="17%" stop-color="#FBF1B9"/><stop offset="18%" stop-color="#FBF0B5"/><stop offset="19%" stop-color="#FAF0B0"/><stop offset="20%" stop-color="#FAEFAC"/><stop offset="21%" stop-color="#FAEEA8"/><stop offset="22%" stop-color="#FAEDA4"/><stop offset="23%" stop-color="#F9ECA0"/><stop offset="24%" stop-color="#F9EC9C"/><stop offset="25%" stop-color="#F9EB98"/><stop offset="26%" stop-color="#F9EA94"/><stop offset="27%" stop-color="#F8E98F"/><stop offset="28%" stop-color="#F8E88B"/><stop offset="29%" stop-color="#F8E788"/><stop offset="30%" stop-color="#F7E586"/><stop offset="31%" stop-color="#F6E285"/><stop offset="32%" stop-color="#F5E083"/><stop offset="33%" stop-color="#F4DE81"/><stop offset="34%" stop-color="#F3DB7F"/><stop offset="35%" stop-color="#F2D97E"/><stop offset="36%" stop-color="#F1D77C"/><stop offset="37%" stop-color="#F0D47A"/><stop offset="38%" stop-color="#EFD278"/><stop offset="39%" stop-color="#EED077"/><stop offset="40%" stop-color="#EDCD75"/><stop offset="41%" stop-color="#ECCB73"/><stop offset="42%" stop-color="#EBC971"/><stop offset="43%" stop-color="#EAC670"/><stop offset="44%" stop-color="#E9C46E"/><stop offset="45%" stop-color="#E8C26C"/><stop offset="46%" stop-color="#E7BF6A"/><stop offset="47%" stop-color="#E6BD69"/><stop offset="48%" stop-color="#E6BB67"/><stop offset="49%" stop-color="#E5B865"/><stop offset="50%" stop-color="#E4B865"/><stop offset="51%" stop-color="#E5BA66"/><stop offset="52%" stop-color="#E6BC68"/><stop offset="53%" stop-color="#E7BE69"/><stop offset="54%" stop-color="#E8C06B"/><stop offset="55%" stop-color="#E9C36D"/><stop offset="56%" stop-color="#EAC56E"/><stop offset="57%" stop-color="#EAC770"/><stop offset="58%" stop-color="#EBC972"/><stop offset="59%" stop-color="#ECCB73"/><stop offset="60%" stop-color="#EDCD75"/><stop offset="61%" stop-color="#EECF76"/><stop offset="62%" stop-color="#EFD178"/><stop offset="63%" stop-color="#F0D47A"/><stop offset="64%" stop-color="#F1D67B"/><stop offset="65%" stop-color="#F1D87D"/><stop offset="66%" stop-color="#F2DA7E"/><stop offset="67%" stop-color="#F3DC80"/><stop offset="68%" stop-color="#F4DE82"/><stop offset="69%" stop-color="#F4DE82"/><stop offset="70%" stop-color="#F4DD81"/><stop offset="71%" stop-color="#F3DC80"/><stop offset="72%" stop-color="#F3DB7F"/><stop offset="73%" stop-color="#F2DA7F"/><stop offset="74%" stop-color="#F2D97E"/><stop offset="75%" stop-color="#F2D87D"/><stop offset="76%" stop-color="#F1D77C"/><stop offset="77%" stop-color="#F1D67B"/><stop offset="78%" stop-color="#F0D57B"/><stop offset="79%" stop-color="#F0D47A"/><stop offset="80%" stop-color="#EFD379"/><stop offset="81%" stop-color="#EFD278"/><stop offset="82%" stop-color="#EFD178"/><stop offset="83%" stop-color="#EED077"/><stop offset="84%" stop-color="#EECF76"/><stop offset="85%" stop-color="#EDCE75"/><stop offset="86%" stop-color="#EDCD75"/><stop offset="87%" stop-color="#EDCC74"/><stop offset="88%" stop-color="#ECCB73"/><stop offset="89%" stop-color="#ECCA72"/><stop offset="90%" stop-color="#EBC971"/><stop offset="91%" stop-color="#EBC871"/><stop offset="92%" stop-color="#EAC770"/><stop offset="93%" stop-color="#EAC66F"/><stop offset="94%" stop-color="#EAC56E"/><stop offset="95%" stop-color="#E9C46E"/><stop offset="96%" stop-color="#E9C46E"/><stop offset="97%" stop-color="#E9C46E"/><stop offset="98%" stop-color="#E9C46E"/><stop offset="99%" stop-color="#E9C46E"/><stop offset="100%" stop-color="#E9C46E"/></linearGradient></defs><g clip-path="url(#a)" transform="scale(1.3333)"><path fill="url(#b)" d="m0 74 71 1V2L0 0" clip-path="url(#d)" transform="matrix(1 0 0 -1 0 71)"/><path fill="#FFF" fill-rule="evenodd" d="m0 73.203 71 1.27V71H0" clip-path="url(#e)" transform="matrix(1 0 0 -1 0 71)"/><path fill="#E9C46E" fill-rule="evenodd" d="m0 1.487 71 1.269V0H0" clip-path="url(#f)" transform="matrix(1 0 0 -1 0 71)"/><path fill="none" d="M35.64-.429C15.954-.429 0 15.605 0 35.286h2C2 16.704 17.064 1.57 35.64 1.57zm0 2c18.577 0 33.64 15.133 33.64 33.715h2C71.28 15.605 55.328-.43 35.64-.43zm33.64 33.715C69.28 53.868 54.218 69 35.64 69v2c19.687 0 35.64-16.033 35.64-35.714zM35.64 69C17.064 69 2 53.868 2 35.286H0C0 54.966 15.954 71 35.64 71z"/></g></svg>