<svg xmlns="http://www.w3.org/2000/svg" width="507" height="489"><defs><clipPath id="a"><path d="M0 367V0h380v367z" clip-rule="evenodd"/></clipPath><clipPath id="d"><path d="M0 357c0 5.523 4.477 10 10 10h360c5.523 0 10-4.477 10-10V10c0-5.523-4.477-10-10-10H10C4.477 0 0 4.477 0 10z" clip-rule="evenodd"/></clipPath><clipPath id="e"><path d="M0 357c0 5.523 4.477 10 10 10h360c5.523 0 10-4.477 10-10V10c0-5.523-4.477-10-10-10H10C4.477 0 0 4.477 0 10z" clip-rule="evenodd"/></clipPath><clipPath id="f"><path d="M0 357c0 5.523 4.477 10 10 10h360c5.523 0 10-4.477 10-10V10c0-5.523-4.477-10-10-10H10C4.477 0 0 4.477 0 10z" clip-rule="evenodd"/></clipPath><clipPath id="g"><path d="M0 10C0 4.477 4.477 0 10 0h360c5.523 0 10 4.477 10 10v347c0 5.523-4.477 10-10 10H10c-5.523 0-10-4.477-10-10z" clip-rule="evenodd"/></clipPath><linearGradient id="b" x1="190" x2="0" y1="557" y2="557" gradientUnits="userSpaceOnUse"><stop offset="0%" stop-color="#FFF3AD"/><stop offset="1%" stop-color="#FFF3AD"/><stop offset="2%" stop-color="#FFF3AC"/><stop offset="3%" stop-color="#FFF3AC"/><stop offset="4%" stop-color="#FFF3AC"/><stop offset="5%" stop-color="#FFF3AB"/><stop offset="6%" stop-color="#FFF3AB"/><stop offset="7%" stop-color="#FFF2AB"/><stop offset="8%" stop-color="#FEF2AA"/><stop offset="9%" stop-color="#FEF2AA"/><stop offset="10%" stop-color="#FEF2AA"/><stop offset="11%" stop-color="#FEF2A9"/><stop offset="12%" stop-color="#FEF2A9"/><stop offset="13%" stop-color="#FEF2A8"/><stop offset="14%" stop-color="#FEF2A8"/><stop offset="15%" stop-color="#FEF2A8"/><stop offset="16%" stop-color="#FEF1A7"/><stop offset="17%" stop-color="#FEF1A7"/><stop offset="18%" stop-color="#FEF1A7"/><stop offset="19%" stop-color="#FEF1A6"/><stop offset="20%" stop-color="#FEF1A6"/><stop offset="21%" stop-color="#FEF1A6"/><stop offset="22%" stop-color="#FDF1A5"/><stop offset="23%" stop-color="#FDF1A5"/><stop offset="24%" stop-color="#FDF1A5"/><stop offset="25%" stop-color="#FDF0A4"/><stop offset="26%" stop-color="#FDF0A4"/><stop offset="27%" stop-color="#FDF0A3"/><stop offset="28%" stop-color="#FDF0A3"/><stop offset="29%" stop-color="#FDF0A3"/><stop offset="30%" stop-color="#FDF0A2"/><stop offset="31%" stop-color="#FDF0A2"/><stop offset="32%" stop-color="#FDF0A2"/><stop offset="33%" stop-color="#FDF0A1"/><stop offset="34%" stop-color="#FDEFA1"/><stop offset="35%" stop-color="#FDEFA1"/><stop offset="36%" stop-color="#FCEFA0"/><stop offset="37%" stop-color="#FCEFA0"/><stop offset="38%" stop-color="#FCEF9F"/><stop offset="39%" stop-color="#FCEF9F"/><stop offset="40%" stop-color="#FCEF9F"/><stop offset="41%" stop-color="#FCEF9E"/><stop offset="42%" stop-color="#FCEF9E"/><stop offset="43%" stop-color="#FCEE9E"/><stop offset="44%" stop-color="#FCEE9D"/><stop offset="45%" stop-color="#FCEE9D"/><stop offset="46%" stop-color="#FCEE9D"/><stop offset="47%" stop-color="#FCEE9C"/><stop offset="48%" stop-color="#FCEE9C"/><stop offset="49%" stop-color="#FCEE9B"/><stop offset="50%" stop-color="#FBEE9B"/><stop offset="51%" stop-color="#FBED9B"/><stop offset="52%" stop-color="#FBED9A"/><stop offset="53%" stop-color="#FBED9A"/><stop offset="54%" stop-color="#FBED9A"/><stop offset="55%" stop-color="#FBED99"/><stop offset="56%" stop-color="#FBED99"/><stop offset="57%" stop-color="#FBED99"/><stop offset="58%" stop-color="#FBED98"/><stop offset="59%" stop-color="#FBED98"/><stop offset="60%" stop-color="#FBEC97"/><stop offset="61%" stop-color="#FBEC97"/><stop offset="62%" stop-color="#FBEC97"/><stop offset="63%" stop-color="#FBEC96"/><stop offset="64%" stop-color="#FBEC96"/><stop offset="65%" stop-color="#FAEC96"/><stop offset="66%" stop-color="#FAEC95"/><stop offset="67%" stop-color="#FAEC95"/><stop offset="68%" stop-color="#FAEC95"/><stop offset="69%" stop-color="#FAEB94"/><stop offset="70%" stop-color="#FAEB94"/><stop offset="71%" stop-color="#FAEB93"/><stop offset="72%" stop-color="#FAEB93"/><stop offset="73%" stop-color="#FAEB93"/><stop offset="74%" stop-color="#FAEB92"/><stop offset="75%" stop-color="#FAEB92"/><stop offset="76%" stop-color="#FAEB92"/><stop offset="77%" stop-color="#FAEB91"/><stop offset="78%" stop-color="#FAEA91"/><stop offset="79%" stop-color="#F9EA91"/><stop offset="80%" stop-color="#F9EA90"/><stop offset="81%" stop-color="#F9EA90"/><stop offset="82%" stop-color="#F9EA90"/><stop offset="83%" stop-color="#F9EA8F"/><stop offset="84%" stop-color="#F9EA8F"/><stop offset="85%" stop-color="#F9EA8E"/><stop offset="86%" stop-color="#F9EA8E"/><stop offset="87%" stop-color="#F9E98E"/><stop offset="88%" stop-color="#F9E98D"/><stop offset="89%" stop-color="#F9E98D"/><stop offset="90%" stop-color="#F9E98D"/><stop offset="91%" stop-color="#F9E98C"/><stop offset="92%" stop-color="#F9E98C"/><stop offset="93%" stop-color="#F8E98C"/><stop offset="94%" stop-color="#F8E98B"/><stop offset="95%" stop-color="#F8E98B"/><stop offset="96%" stop-color="#F8E88A"/><stop offset="97%" stop-color="#F8E88A"/><stop offset="98%" stop-color="#F8E88A"/><stop offset="99%" stop-color="#F8E889"/><stop offset="100%" stop-color="#F8E889"/></linearGradient></defs><g clip-path="url(#a)" transform="scale(1.3333)"><path fill="url(#b)" d="M190 0v367H0V0" clip-path="url(#d)" transform="matrix(1 0 0 -1 0 367)"/><path fill="#FFF3AD" fill-rule="evenodd" d="M190 0v367h190V0" clip-path="url(#e)" transform="matrix(1 0 0 -1 0 367)"/><path fill="#F8E889" fill-rule="evenodd" d="M0 0v367z" clip-path="url(#f)" transform="matrix(1 0 0 -1 0 367)"/><path fill="none" d="M0 10C0 4.477 4.477 0 10 0h360c5.523 0 10 4.477 10 10v347c0 5.523-4.477 10-10 10H10c-5.523 0-10-4.477-10-10z"/><g clip-path="url(#g)"><path fill="#E4B764" d="M380 0v367zM0 367V0zm380 0H0zM0 10C0 3.925 4.925-1 11-1h358c6.075 0 11 4.925 11 11 0-4.97-4.477-9-10-9H10C4.477 1 0 5.03 0 10"/></g></g></svg>