<svg width="361" height="427" viewBox="0 0 361 427" fill="none" xmlns="http://www.w3.org/2000/svg">
<rect width="360" height="427" rx="10" fill="white"/>
<g clip-path="url(#clip0_9030_290771)">
<rect width="36" height="427" fill="#F2E9D8"/>
<mask id="path-2-inside-1_9030_290771" fill="white">
<path d="M0 85.3999H36V170.8H0V85.3999Z"/>
</mask>
<path d="M0 85.3999V84.3999H-1V85.3999H0ZM0 86.3999H36V84.3999H0V86.3999ZM1 170.8V85.3999H-1V170.8H1Z" fill="#5C5C5C" mask="url(#path-2-inside-1_9030_290771)"/>
<path d="M1 171.8H26C30.9706 171.8 35 175.829 35 180.8V246.2C35 251.17 30.9706 255.2 26 255.2H1V171.8Z" stroke="#5C5C5C" stroke-width="2"/>
<mask id="path-5-inside-2_9030_290771" fill="white">
<path d="M0 256.2H36V341.6H0V256.2Z"/>
</mask>
<path d="M0 341.6H-1V342.6H0V341.6ZM36 340.6H0V342.6H36V340.6ZM1 341.6V256.2H-1V341.6H1Z" fill="#5C5C5C" mask="url(#path-5-inside-2_9030_290771)"/>
</g>
<g clip-path="url(#clip1_9030_290771)">
<rect width="36" height="427" transform="translate(35.9998)" fill="#F2E9D8"/>
<mask id="path-7-inside-3_9030_290771" fill="white">
<path d="M35.9998 85.3999H61.9997C67.5226 85.3999 71.9997 89.8771 71.9997 95.3999V170.8H35.9998V85.3999Z"/>
</mask>
<path d="M35.9998 84.3999H61.9997C68.0749 84.3999 72.9997 89.3248 72.9997 95.3999H70.9997C70.9997 90.4293 66.9703 86.3999 61.9997 86.3999H35.9998V84.3999ZM71.9997 170.8H35.9998H71.9997ZM35.9998 170.8V85.3999V170.8ZM61.9997 84.3999C68.0749 84.3999 72.9997 89.3248 72.9997 95.3999V170.8H70.9997V95.3999C70.9997 90.4293 66.9703 86.3999 61.9997 86.3999V84.3999Z" fill="#5C5C5C" mask="url(#path-7-inside-3_9030_290771)"/>
<mask id="path-9-inside-4_9030_290771" fill="white">
<path d="M35.9998 170.8H71.9997V256.2H35.9998V170.8Z"/>
</mask>
<path d="M70.9997 170.8V256.2H72.9997V170.8H70.9997Z" fill="#5C5C5C" mask="url(#path-9-inside-4_9030_290771)"/>
<path d="M48.9998 213.5C48.9998 210.739 51.2383 208.5 53.9998 208.5V208.5C56.7612 208.5 58.9998 210.739 58.9998 213.5V213.5C58.9998 216.261 56.7612 218.5 53.9998 218.5V218.5C51.2383 218.5 48.9998 216.261 48.9998 213.5V213.5Z" fill="#5C5C5C"/>
<mask id="path-12-inside-5_9030_290771" fill="white">
<path d="M35.9998 256.2H71.9997V331.6C71.9997 337.123 67.5226 341.6 61.9997 341.6H35.9998V256.2Z"/>
</mask>
<path d="M35.9998 256.2H71.9997H35.9998ZM72.9997 331.6C72.9997 337.675 68.0749 342.6 61.9997 342.6H35.9998V340.6H61.9997C66.9703 340.6 70.9997 336.571 70.9997 331.6H72.9997ZM35.9998 341.6V256.2V341.6ZM72.9997 256.2V331.6C72.9997 337.675 68.0749 342.6 61.9997 342.6V340.6C66.9703 340.6 70.9997 336.571 70.9997 331.6V256.2H72.9997Z" fill="#5C5C5C" mask="url(#path-12-inside-5_9030_290771)"/>
</g>
<g clip-path="url(#clip2_9030_290771)">
<mask id="path-14-inside-6_9030_290771" fill="white">
<path d="M72.0001 183.25C72.0001 177.865 76.3653 173.5 81.7501 173.5V173.5C96.2476 173.5 108 185.253 108 199.75V227.25C108 241.747 96.2476 253.5 81.7501 253.5V253.5C76.3653 253.5 72.0001 249.135 72.0001 243.75V183.25Z"/>
</mask>
<path d="M72.0001 182.967C72.0001 177.186 76.6864 172.5 82.4672 172.5H82.4672C97.1209 172.5 109 184.379 109 199.033L107 199.75C107 185.805 95.6953 174.5 81.7501 174.5C76.3653 174.5 72.0001 178.418 72.0001 183.25V182.967ZM109 227.967C109 242.621 97.1209 254.5 82.4672 254.5H82.4672C76.6864 254.5 72.0001 249.814 72.0001 244.033V243.75C72.0001 248.582 76.3653 252.5 81.7501 252.5C95.6953 252.5 107 241.195 107 227.25L109 227.967ZM72.0001 253.5V173.5V253.5ZM82.4672 172.5C97.1209 172.5 109 184.379 109 199.033V227.967C109 242.621 97.1209 254.5 82.4672 254.5L81.7501 252.5C95.6953 252.5 107 241.195 107 227.25V199.75C107 185.805 95.6953 174.5 81.7501 174.5L82.4672 172.5Z" fill="#5C5C5C" mask="url(#path-14-inside-6_9030_290771)"/>
</g>
<g clip-path="url(#clip3_9030_290771)">
<rect width="36" height="427" transform="translate(144)" fill="#F2E9D8"/>
</g>
<rect width="36" height="427" transform="translate(180)" fill="#F2E9D8"/>
<rect width="36" height="427" transform="translate(288)" fill="#F2E9D8"/>
<mask id="path-16-inside-7_9030_290771" fill="white">
<path d="M324 0H360V427H324V0Z"/>
</mask>
<path d="M324 0H360V427H324V0Z" fill="#F2E9D8"/>
<path d="M359 0V427H361V0H359Z" fill="#5C5C5C" mask="url(#path-16-inside-7_9030_290771)"/>
<path d="M324 213.5C324 194.17 339.67 178.5 359 178.5H360V248.5H359C339.67 248.5 324 232.83 324 213.5V213.5Z" stroke="#5C5C5C" stroke-width="2"/>
<defs>
<clipPath id="clip0_9030_290771">
<rect width="36" height="427" fill="white"/>
</clipPath>
<clipPath id="clip1_9030_290771">
<rect width="36" height="427" fill="white" transform="translate(35.9998)"/>
</clipPath>
<clipPath id="clip2_9030_290771">
<rect width="36" height="427" fill="white" transform="translate(72.0001)"/>
</clipPath>
<clipPath id="clip3_9030_290771">
<rect width="36" height="427" fill="white" transform="translate(144)"/>
</clipPath>
</defs>
</svg>
