<svg xmlns="http://www.w3.org/2000/svg" width="222" height="40" fill="none"><mask id="c" fill="#fff"><path d="M0 15C0 6.716 6.716 0 15 0h192c8.284 0 15 6.716 15 15v23a2 2 0 0 1-2 2H2a2 2 0 0 1-2-2z"/></mask><path fill="url(#a)" d="M0 15C0 6.716 6.716 0 15 0h192c8.284 0 15 6.716 15 15v23a2 2 0 0 1-2 2H2a2 2 0 0 1-2-2z"/><path fill="url(#b)" d="M0 15C0 5.059 8.059-3 18-3h186c9.941 0 18 8.059 18 18 0-6.627-6.716-12-15-12H15C6.716 3 0 8.373 0 15m222 25H0zM0 40V0zM222 0v40z" mask="url(#c)"/><defs><linearGradient id="a" x1="111" x2="111" y1="3" y2="40" gradientUnits="userSpaceOnUse"><stop stop-color="#5C5C5C"/><stop offset="1" stop-color="#1A1A1A"/></linearGradient><linearGradient id="b" x1="111" x2="110.945" y1="0" y2="40" gradientUnits="userSpaceOnUse"><stop stop-color="#1A1A1A"/><stop offset=".087" stop-color="#5C5C5C"/></linearGradient></defs></svg>