<svg xmlns="http://www.w3.org/2000/svg" width="13" height="14" fill="none"><path fill="#F8E889" d="M10.639 7.188v-1.31c0-1.908-1.29-3.526-3.056-4.055V1.23c0-.678-.56-1.23-1.25-1.23-.689 0-1.25.552-1.25 1.23v.593c-1.766.529-3.055 2.147-3.055 4.056v1.309c0 1.677-.65 3.267-1.829 4.477a.405.405 0 0 0-.082.445c.065.151.216.25.383.25h3.792A2.08 2.08 0 0 0 6.333 14a2.08 2.08 0 0 0 2.042-1.64h3.792a.42.42 0 0 0 .383-.25.405.405 0 0 0-.083-.445 6.4 6.4 0 0 1-1.828-4.477M5.917 1.23c0-.226.187-.41.416-.41.23 0 .417.184.417.41v.43a4.4 4.4 0 0 0-.833 0zm.416 11.95a1.25 1.25 0 0 1-1.178-.82h2.357a1.25 1.25 0 0 1-1.179.82m-4.935-1.64a7.18 7.18 0 0 0 1.463-4.352v-1.31c0-1.884 1.558-3.417 3.472-3.417 1.915 0 3.472 1.533 3.472 3.418v1.309c0 1.584.515 3.099 1.464 4.351z"/></svg>