<svg width="20" height="21" viewBox="0 0 20 21" fill="none" xmlns="http://www.w3.org/2000/svg">
<g clip-path="url(#clip0_8326_51775)">
<path fill-rule="evenodd" clip-rule="evenodd" d="M17.5237 17.5481V15.8179C17.4292 15.6239 17.1907 15.3759 16.9379 15.1131C16.5526 14.7125 16.134 14.2771 16.1403 13.9448V8.75029C16.1403 6.01138 13.8655 3.73881 10.9091 3.35139C10.6163 3.31302 10.3167 3.29314 10.012 3.29314C9.70733 3.29314 9.40778 3.31302 9.11492 3.35139C6.15858 3.73881 3.88376 6.01138 3.88376 8.75029V13.9448C3.89008 14.2771 3.47142 14.7125 3.08613 15.1131C2.83332 15.3759 2.59488 15.6239 2.50032 15.8179V17.5481L17.5237 17.5481ZM9.24995 2.77672C9.46195 2.93679 9.7259 3.03172 10.012 3.03172C10.2981 3.03172 10.5621 2.93679 10.7741 2.77672C11.0801 2.54566 11.2779 2.17886 11.2779 1.76586C11.2779 1.06674 10.7111 0.5 10.012 0.5C9.3129 0.5 8.74616 1.06674 8.74616 1.76586C8.74616 2.17886 8.94394 2.54566 9.24995 2.77672ZM12.7969 17.9689C12.7898 18.0138 12.7822 18.0587 12.7741 18.1036C12.7486 18.2448 12.7182 18.3857 12.6814 18.5244C12.396 19.6009 11.7274 20.5474 10.012 20.4982C8.45286 20.4981 7.57389 19.627 7.21407 18.5244C7.16932 18.3873 7.13261 18.2466 7.10361 18.1036C7.09454 18.0589 7.08623 18.014 7.07867 17.9689H12.7969ZM12.1037 18.5244H7.80442C7.93056 18.8415 8.10827 19.1196 8.33674 19.341C8.70145 19.6944 9.235 19.9426 10.012 19.9426H10.02L10.028 19.9428C10.8949 19.9677 11.3698 19.704 11.6626 19.3697C11.8603 19.1441 12.0018 18.856 12.1037 18.5244ZM3.05588 16.9925L16.9682 16.9925V15.9754C16.9307 15.9255 16.8747 15.858 16.7947 15.7701C16.7137 15.6812 16.6338 15.5983 16.5472 15.5083C16.481 15.4396 16.411 15.3669 16.3334 15.2842C16.1715 15.1116 15.9952 14.914 15.8586 14.7125C15.7336 14.528 15.5809 14.2544 15.5847 13.9406V8.75029C15.5847 6.10571 13.148 3.84869 10.012 3.84869C6.87608 3.84869 4.43931 6.10571 4.43931 8.75029V13.9406C4.44314 14.2544 4.29045 14.528 4.16548 14.7125C4.02888 14.914 3.85252 15.1116 3.69064 15.2842C3.61306 15.3669 3.543 15.4396 3.4769 15.5083C3.39023 15.5982 3.31038 15.6812 3.22936 15.7701C3.14929 15.858 3.09329 15.9255 3.05588 15.9754L3.05588 16.9925ZM8.3012 5.93563C8.78097 5.68752 8.38222 5.04763 7.89606 5.27485C6.46314 5.96538 5.5697 7.3015 5.5697 8.75029C5.56913 8.79972 5.57965 8.84875 5.60063 8.89452C5.6216 8.94028 5.65263 8.98186 5.69188 9.01682C5.73114 9.05177 5.77783 9.0794 5.82922 9.09808C5.88062 9.11676 5.93568 9.12612 5.99119 9.12562C6.22717 9.12562 6.41268 8.96042 6.41268 8.75029C6.41414 8.17334 6.59025 7.60741 6.92247 7.11208C7.25469 6.61675 7.73073 6.21034 8.30048 5.93563H8.3012ZM8.43279 6.49119H8.43635L8.55639 6.42911C8.79766 6.30434 8.982 6.09707 9.04811 5.82859C9.11143 5.57142 9.04998 5.32349 8.93343 5.13491C8.69747 4.75312 8.18059 4.52863 7.66083 4.77155L7.65487 4.77438C6.05384 5.54593 5.01519 7.06196 5.01415 8.74776M10.012 2.47616C10.4043 2.47616 10.7223 2.15815 10.7223 1.76586C10.7223 1.37357 10.4043 1.05556 10.012 1.05556C9.61973 1.05556 9.30172 1.37357 9.30172 1.76586C9.30172 2.15815 9.61973 2.47616 10.012 2.47616Z" fill="url(#paint0_linear_8326_51775)"/>
<path d="M10.012 3.03172C10.7111 3.03172 11.2779 2.46497 11.2779 1.76586C11.2779 1.06674 10.7111 0.5 10.012 0.5C9.3129 0.5 8.74616 1.06674 8.74616 1.76586C8.74616 2.46497 9.3129 3.03172 10.012 3.03172Z" fill="url(#paint1_linear_8326_51775)"/>
<path fill-rule="evenodd" clip-rule="evenodd" d="M3.95701 17.5481L15.3825 6.12257C14.3387 4.43694 12.3232 3.29314 10.012 3.29314C6.63159 3.29314 3.88376 5.74006 3.88376 8.75029V13.9448C3.89008 14.2771 3.47142 14.7125 3.08613 15.1131C2.83332 15.3759 2.59488 15.6239 2.50032 15.8179V17.5481H3.95701ZM6.92247 7.11208C7.25469 6.61675 7.73073 6.21034 8.30048 5.93563H8.3012C8.78097 5.68752 8.38222 5.04763 7.89606 5.27485C6.46314 5.96538 5.5697 7.3015 5.5697 8.75029C5.56913 8.79972 5.57965 8.84875 5.60063 8.89452C5.6216 8.94028 5.65263 8.98186 5.69188 9.01682C5.73114 9.05177 5.77783 9.0794 5.82922 9.09808C5.88062 9.11676 5.93568 9.12612 5.99119 9.12562C6.22717 9.12562 6.41268 8.96042 6.41268 8.75029C6.41414 8.17334 6.59025 7.60741 6.92247 7.11208Z" fill="url(#paint2_linear_8326_51775)"/>
<path d="M15.9698 3.35591C16.2707 3.05501 16.7586 3.05501 17.0595 3.35591C17.3604 3.65681 17.3604 4.14467 17.0595 4.44557L2.2792 19.2259C1.9783 19.5268 1.49044 19.5268 1.18954 19.2259C0.888642 18.925 0.888642 18.4371 1.18954 18.1362L15.9698 3.35591Z" fill="url(#paint3_linear_8326_51775)"/>
</g>
<defs>
<linearGradient id="paint0_linear_8326_51775" x1="9.24379" y1="0.5" x2="9.24379" y2="20.5" gradientUnits="userSpaceOnUse">
<stop stop-color="#F8E889"/>
<stop offset="1" stop-color="#E4B764"/>
</linearGradient>
<linearGradient id="paint1_linear_8326_51775" x1="9.24379" y1="0.5" x2="9.24379" y2="20.5" gradientUnits="userSpaceOnUse">
<stop stop-color="#F8E889"/>
<stop offset="1" stop-color="#E4B764"/>
</linearGradient>
<linearGradient id="paint2_linear_8326_51775" x1="9.24379" y1="0.5" x2="9.24379" y2="20.5" gradientUnits="userSpaceOnUse">
<stop stop-color="#F8E889"/>
<stop offset="1" stop-color="#E4B764"/>
</linearGradient>
<linearGradient id="paint3_linear_8326_51775" x1="9.24379" y1="0.5" x2="9.24379" y2="20.5" gradientUnits="userSpaceOnUse">
<stop stop-color="#F8E889"/>
<stop offset="1" stop-color="#E4B764"/>
</linearGradient>
<clipPath id="clip0_8326_51775">
<rect width="20" height="20" fill="white" transform="translate(0 0.5)"/>
</clipPath>
</defs>
</svg>
