<svg xmlns="http://www.w3.org/2000/svg" width="24" height="24" fill="none"><path fill="url(#a)" d="m20.707 5.98-.002-.006-.016-.052-.002-.004-.024-.045-.006-.01-.027-.036-.003-.004-.01-.01-.028-.026-.013-.011a.3.3 0 0 0-.121-.059.3.3 0 0 0-.092-.013h-3.679c.028-.373.136-.737.315-1.066.139-.23.28-.33.364-.324.102.006.305.195.424.674a.437.437 0 0 0 .498.336.424.424 0 0 0 .33-.514c-.192-.805-.64-1.307-1.198-1.341-.438-.029-.844.232-1.144.734-.24.401-.395.933-.439 1.501h-4.628a2.6 2.6 0 0 1 .315-1.066c.139-.23.28-.33.364-.324.102.006.305.195.424.674a.437.437 0 0 0 .498.336.424.424 0 0 0 .33-.514c-.193-.805-.64-1.307-1.198-1.342-.438-.028-.844.233-1.144.734-.24.402-.395.934-.439 1.502H5.728c.028-.374.136-.737.315-1.066.139-.23.28-.33.364-.325.103.007.31.2.428.694a.424.424 0 1 0 .824-.197c-.193-.805-.64-1.306-1.199-1.341-.437-.028-.843.233-1.143.734-.241.402-.396.933-.439 1.502H2.8a.35.35 0 0 0-.35.3L.358 20.129a.354.354 0 0 0 .356.405H18.27a.35.35 0 0 0 .35-.301l.09-.606 1.163-7.849a.41.41 0 0 1 .387-.354.396.396 0 0 1 .401.445l-.886 7.1a.42.42 0 0 0 .419.474h3.09a.354.354 0 0 0 .357-.43zM7.29 14.195l-.335.335a.3.3 0 0 1 .009.133l-.333 2.248a.32.32 0 0 1-.314.27H3.754a.316.316 0 0 1-.314-.364l.362-2.443a.32.32 0 0 1 .314-.271h.748a.317.317 0 1 1 0 .635H4.39l-.268 1.808h1.92l.192-1.296-.739.738a.32.32 0 0 1-.449 0l-.214-.214a.318.318 0 0 1 .438-.46l1.57-1.568a.318.318 0 0 1 .449.449m.369-4.16-.363 2.444a.32.32 0 0 1-.314.271H4.42a.316.316 0 0 1-.314-.364l.362-2.444a.32.32 0 0 1 .315-.272h2.561a.318.318 0 0 1 .315.365m4.255 4.414-.363 2.444a.32.32 0 0 1-.314.271H8.674a.32.32 0 0 1-.314-.364l.362-2.444a.32.32 0 0 1 .315-.271h2.562a.318.318 0 0 1 .314.364m.665-4.431-.362 2.443a.32.32 0 0 1-.314.271H9.34a.32.32 0 0 1-.305-.229.3.3 0 0 1-.01-.135l.363-2.444a.32.32 0 0 1 .314-.271h2.562a.317.317 0 0 1 .314.364m4.255 4.449-.362 2.444a.32.32 0 0 1-.314.27h-2.562a.318.318 0 0 1-.314-.363l.362-2.444a.32.32 0 0 1 .314-.271h2.562a.318.318 0 0 1 .314.364m1.091-4.754-.446.446v.02l-.341 2.3a.32.32 0 0 1-.315.271H14.26a.318.318 0 0 1-.314-.364l.363-2.444a.32.32 0 0 1 .314-.271h.808a.318.318 0 0 1 0 .635h-.534l-.268 1.809h1.92l.178-1.205-.596.596a.32.32 0 0 1-.45 0l-.194-.195a.318.318 0 0 1 .417-.477l1.571-1.57a.318.318 0 1 1 .45.448"/><path fill="url(#b)" d="M9.043 16.529h1.92l.267-1.809H9.31zm-4.255-4.414h1.92l.267-1.809h-1.92zm4.92-.018h1.92l.268-1.808h-1.92zm4.255 4.45h1.92l.268-1.809h-1.92z"/><defs><linearGradient id="a" x1="12" x2="12" y1="3.466" y2="20.533" gradientUnits="userSpaceOnUse"><stop stop-color="#5C5C5C"/><stop offset="1"/></linearGradient><linearGradient id="b" x1="10.469" x2="10.469" y1="10.289" y2="16.547" gradientUnits="userSpaceOnUse"><stop stop-color="#5C5C5C"/><stop offset="1"/></linearGradient></defs></svg>