<svg xmlns="http://www.w3.org/2000/svg" width="26" height="26" fill="none"><path fill="url(#a)" d="m16.833 13.082-5.06 5.059-2.606-2.607a.892.892 0 1 0-1.263 1.263l3.238 3.238a.89.89 0 0 0 1.263 0l5.69-5.69a.893.893 0 1 0-1.262-1.264"/><path fill="url(#b)" d="M21.036 2.25h-1.34v-.857a.893.893 0 0 0-1.785 0v.857H8.089v-.857a.893.893 0 0 0-1.785 0v.857h-1.34A4.47 4.47 0 0 0 .5 6.714v14.322A4.47 4.47 0 0 0 4.964 25.5h16.072a4.47 4.47 0 0 0 4.464-4.464V6.714a4.47 4.47 0 0 0-4.464-4.464M2.286 6.714a2.68 2.68 0 0 1 2.678-2.678h1.34v.856a.893.893 0 0 0 1.785 0v-.856h9.822v.856a.893.893 0 0 0 1.785 0v-.856h1.34a2.68 2.68 0 0 1 2.678 2.678v.902H2.286zm18.75 17H4.964a2.68 2.68 0 0 1-2.678-2.678V9.402h21.428v11.634a2.68 2.68 0 0 1-2.678 2.678"/><defs><linearGradient id="a" x1="13" x2="13" y1=".5" y2="25.5" gradientUnits="userSpaceOnUse"><stop stop-color="#F8E889"/><stop offset="1" stop-color="#E4B764"/></linearGradient><linearGradient id="b" x1="13" x2="13" y1=".5" y2="25.5" gradientUnits="userSpaceOnUse"><stop stop-color="#F8E889"/><stop offset="1" stop-color="#E4B764"/></linearGradient></defs></svg>