<svg xmlns="http://www.w3.org/2000/svg" width="24" height="24" fill="none"><g clip-path="url(#a)"><g clip-path="url(#b)"><path fill="url(#c)" d="M12 16.781a2.531 2.531 0 1 0 0-5.062 2.531 2.531 0 0 0 0 5.062"/><path fill="url(#d)" d="M19.312 17.719a2.25 2.25 0 1 0 0-4.5 2.25 2.25 0 0 0 0 4.5"/><path fill="url(#e)" d="M4.687 17.719a2.25 2.25 0 1 0 0-4.5 2.25 2.25 0 0 0 0 4.5"/><path fill="url(#f)" d="M1.007 24h5.016a.283.283 0 0 0 .265-.377 1.4 1.4 0 0 1-.07-.277 5.8 5.8 0 0 1 .993-4.117.283.283 0 0 0-.083-.4 4.58 4.58 0 0 0-6.96 4.433.846.846 0 0 0 .839.738m15.872-5.158a.28.28 0 0 0-.081.398 5.8 5.8 0 0 1 .984 4.106 1.4 1.4 0 0 1-.07.277.284.284 0 0 0 .265.377h5.043a.846.846 0 0 0 .838-.738q.035-.269.035-.54a4.58 4.58 0 0 0-7.015-3.88z"/><path fill="url(#g)" d="M6.724 22.562q0 .353.05.705a.85.85 0 0 0 .838.733h8.775a.85.85 0 0 0 .838-.733q.05-.352.05-.706a5.277 5.277 0 1 0-10.551 0M18.253 5.409c0 1.967-1.245 3.803-3.332 4.911a.282.282 0 0 0 .148.529q.415-.023.825-.09l2.468.673c.652.206 1.309-.539.994-1.159a3.3 3.3 0 0 1-.302-1.035 3.73 3.73 0 0 0 1.213-2.68c0-1.257-.709-2.448-1.947-3.265a.283.283 0 0 0-.416.339c.23.564.349 1.168.349 1.777"/><path fill="url(#h)" d="M5.269 8.768a4.2 4.2 0 0 1-.392 1.366c-.364.738.394 1.6 1.17 1.362l3.135-.855q.759.13 1.53.13c3.85 0 6.979-2.405 6.979-5.362 0-2.956-3.13-5.362-6.98-5.362-3.849 0-6.978 2.406-6.978 5.362 0 1.223.544 2.41 1.536 3.359m8.793-4.174a.844.844 0 1 1 0 1.688.844.844 0 0 1 0-1.688m-3.375 0a.844.844 0 1 1 0 1.688.844.844 0 0 1 0-1.688m-3.375 0a.844.844 0 1 1 0 1.687.844.844 0 0 1 0-1.687"/></g></g><defs><linearGradient id="c" x1="12.014" x2="12.014" y1=".047" y2="24" gradientUnits="userSpaceOnUse"><stop stop-color="#5C5C5C"/><stop offset="1"/></linearGradient><linearGradient id="d" x1="12.014" x2="12.014" y1=".047" y2="24" gradientUnits="userSpaceOnUse"><stop stop-color="#5C5C5C"/><stop offset="1"/></linearGradient><linearGradient id="e" x1="12.014" x2="12.014" y1=".047" y2="24" gradientUnits="userSpaceOnUse"><stop stop-color="#5C5C5C"/><stop offset="1"/></linearGradient><linearGradient id="f" x1="12.014" x2="12.014" y1=".047" y2="24" gradientUnits="userSpaceOnUse"><stop stop-color="#5C5C5C"/><stop offset="1"/></linearGradient><linearGradient id="g" x1="12.014" x2="12.014" y1=".047" y2="24" gradientUnits="userSpaceOnUse"><stop stop-color="#5C5C5C"/><stop offset="1"/></linearGradient><linearGradient id="h" x1="12.014" x2="12.014" y1=".047" y2="24" gradientUnits="userSpaceOnUse"><stop stop-color="#5C5C5C"/><stop offset="1"/></linearGradient><clipPath id="a"><path fill="#fff" d="M0 0h24v24H0z"/></clipPath><clipPath id="b"><path fill="#fff" d="M0 0h24v24H0z"/></clipPath></defs></svg>