<svg xmlns="http://www.w3.org/2000/svg" width="36" height="36" fill="none"><g clip-path="url(#a)"><path fill="#1A1A1A" d="M29.3 2.252C28.084 1.181 23.072 0 18 0S7.916 1.18 6.7 2.252c0 9.255 2.902 17.817 8.953 21.933q.007.007.016.01a3.56 3.56 0 0 0-1.343 2.781l.022.005c3.589.83.05 6.526-1.237 9.019h9.782c-1.28-2.494-4.815-8.192-1.24-9.019l.021-.005c0-1.12-.523-2.12-1.343-2.78l.016-.01c6.05-4.117 8.953-12.68 8.953-21.934m-20.01.002c1.03-.342 3.009-.806 4.248-.923-.816 6.118-.85 12.268 2.443 20.058-5.205-5.265-6.56-11.235-6.692-19.135m26.257 1.98a2.44 2.44 0 0 0-1.99-1.037h-3.139a42 42 0 0 1-.115 2.364h3.254a.1.1 0 0 1 .088.045c.03.045.018.08.014.095-1.283 3.762-2.81 6.002-4.748 7.615q-.346 1.16-.768 2.247a27 27 0 0 1-.644 1.515c3.632-1.982 6.339-4.651 8.369-10.606a2.5 2.5 0 0 0-.321-2.237M7.857 15.564a30 30 0 0 1-.767-2.247C5.152 11.704 3.624 9.463 2.34 5.7c-.005-.014-.017-.05.015-.095s.072-.045.087-.045h3.254a43 43 0 0 1-.115-2.364h-3.14c-.787 0-1.531.387-1.989 1.038a2.5 2.5 0 0 0-.32 2.237c2.03 5.954 4.736 8.623 8.368 10.605q-.341-.736-.643-1.514"/></g><defs><clipPath id="a"><path fill="#fff" d="M0 0h36v36H0z"/></clipPath></defs></svg>