<svg xmlns="http://www.w3.org/2000/svg" width="19" height="20" fill="none"><path fill="url(#a)" d="M17.968 14.633c.769-.05 1.35.72.839 1.256-1.971 2.062-4.847 3.361-8.05 3.361C4.817 19.25 0 14.78 0 9.266c0-3.913 2.425-7.3 5.957-8.938.69-.32 1.338.402 1.086 1.078a9.3 9.3 0 0 0-.589 3.267c0 5.514 4.816 9.984 10.757 9.984q.382 0 .757-.024"/><path fill="url(#b)" d="M12.047 6.745a.63.63 0 0 0 .301-.271l.8-1.464c.248-.452.95-.433 1.168.032l.656 1.4c.065.138.184.25.334.31l1.405.567a.583.583 0 0 1 0 1.098l-1.405.567a.62.62 0 0 0-.334.31l-.656 1.4c-.218.465-.92.484-1.168.032l-.8-1.464a.63.63 0 0 0-.301-.271l-1.334-.58a.582.582 0 0 1 0-1.085z"/><defs><linearGradient id="a" x1="19" x2="0" y1="9.661" y2="9.661" gradientUnits="userSpaceOnUse"><stop stop-color="#F8E889"/><stop offset="1" stop-color="#E4B764"/></linearGradient><linearGradient id="b" x1="19" x2="0" y1="9.661" y2="9.661" gradientUnits="userSpaceOnUse"><stop stop-color="#F8E889"/><stop offset="1" stop-color="#E4B764"/></linearGradient></defs></svg>