<svg xmlns="http://www.w3.org/2000/svg" width="20" height="20" fill="none"><g clip-path="url(#a)"><g fill-rule="evenodd" clip-path="url(#b)" clip-rule="evenodd"><path fill="url(#c)" d="M5.271 4.904a.407.407 0 0 1 .638 0L10.286 10 5.91 15.096a.407.407 0 0 1-.638 0 .59.59 0 0 1 0-.742L9.011 10 5.27 5.646a.59.59 0 0 1 0-.742"/><path fill="url(#d)" d="M8.175 3.205a.543.543 0 0 1 .85 0L14.861 10l-5.836 6.795a.543.543 0 0 1-.85 0 .784.784 0 0 1 0-.99L13.16 10 8.175 4.195a.784.784 0 0 1 0-.99"/></g></g><defs><linearGradient id="c" x1="14.861" x2="5.139" y1="10" y2="10" gradientUnits="userSpaceOnUse"><stop stop-color="#5C5C5C"/><stop offset="1"/></linearGradient><linearGradient id="d" x1="14.861" x2="5.139" y1="10" y2="10" gradientUnits="userSpaceOnUse"><stop stop-color="#5C5C5C"/><stop offset="1"/></linearGradient><clipPath id="a"><path fill="#fff" d="M3 3h14v14H3z"/></clipPath><clipPath id="b"><path fill="#fff" d="M17 17H3V3h14z"/></clipPath></defs></svg>