<svg xmlns="http://www.w3.org/2000/svg" width="20" height="20" fill="none"><g clip-path="url(#a)"><g fill="#1A1A1A" fill-rule="evenodd" clip-path="url(#b)" clip-rule="evenodd"><path d="M14.729 15.096a.407.407 0 0 1-.638 0L9.714 10l4.377-5.096a.407.407 0 0 1 .638 0 .59.59 0 0 1 0 .742L10.989 10l3.74 4.354a.59.59 0 0 1 0 .742"/><path d="M11.825 16.795a.543.543 0 0 1-.85 0L5.139 10l5.836-6.795a.543.543 0 0 1 .85 0 .784.784 0 0 1 0 .99L6.84 10l4.986 5.805a.784.784 0 0 1 0 .99"/></g></g><defs><clipPath id="a"><path fill="#fff" d="M3 3h14v14H3z"/></clipPath><clipPath id="b"><path fill="#fff" d="M17 17H3V3h14z"/></clipPath></defs></svg>