<svg xmlns="http://www.w3.org/2000/svg" width="36" height="37" fill="none"><path fill="url(#a)" d="M17.997 36.182H4.814c-2.934 0-4.809-2.05-4.81-5.255-.003-2.064-.009-4.129.004-6.192.005-.88.555-1.533 1.306-1.616.783-.086 1.445.404 1.628 1.228.046.206.046.427.046.641.003 2.01 0 4.021.003 6.03 0 1.237.604 1.906 1.728 1.906q13.282.003 26.563 0c1.124 0 1.724-.669 1.725-1.91.003-2.028 0-4.056.002-6.084.002-1.114.574-1.812 1.48-1.819.91-.007 1.503.69 1.506 1.792.004 2.082.01 4.164 0 6.246-.015 2.922-1.94 5.027-4.616 5.032-4.46.01-8.92.004-13.38.004z"/><path fill="url(#b)" d="M16.51 24.56v-.715c0-7.271.002-14.544-.005-21.815 0-.679.17-1.244.72-1.606.96-.63 2.177.062 2.266 1.286.013.196.006.394.006.592V24.54c.171-.125.289-.198.395-.289 1.582-1.376 3.158-2.762 4.748-4.13.866-.745 2.016-.379 2.374.729.218.676.024 1.347-.559 1.857q-3.196 2.796-6.397 5.587c-.321.28-.638.567-.962.844-.767.654-1.436.657-2.195-.004q-3.027-2.639-6.05-5.284c-.372-.325-.749-.645-1.116-.978-.708-.64-.837-1.615-.314-2.336.548-.755 1.45-.843 2.192-.201 1.495 1.295 2.984 2.598 4.475 3.897.11.096.23.179.422.327z"/><defs><linearGradient id="a" x1="18" x2="18" y1=".187" y2="36.187" gradientUnits="userSpaceOnUse"><stop stop-color="#F8E889"/><stop offset="1" stop-color="#E4B764"/></linearGradient><linearGradient id="b" x1="18" x2="18" y1=".187" y2="36.187" gradientUnits="userSpaceOnUse"><stop stop-color="#F8E889"/><stop offset="1" stop-color="#E4B764"/></linearGradient></defs></svg>