<svg width="34" height="34" viewBox="0 0 34 34" fill="none" xmlns="http://www.w3.org/2000/svg">
<g clip-path="url(#clip0_8260_83694)">
<path d="M5.76534 10.7147L15.7653 16.0867C16.1013 16.2667 16.536 16.352 16.9733 16.352C17.4107 16.352 17.8453 16.2667 18.1813 16.0867L28.1813 10.7147C28.8333 10.364 29.4493 9 28.2533 9H5.69467C4.49867 9 5.11467 10.364 5.76534 10.7147ZM28.484 13.652L18.1813 19.0213C17.728 19.2587 17.4107 19.2867 16.9733 19.2867C16.536 19.2867 16.2187 19.2587 15.7653 19.0213C15.312 18.784 6.25467 14.036 5.51467 13.6507C4.99467 13.3787 5 13.6973 5 13.9427V23.6667C5 24.2267 5.75467 25 6.33334 25H27.6667C28.2453 25 29 24.2267 29 23.6667V13.944C29 13.6987 29.0053 13.38 28.484 13.652Z" fill="url(#paint0_linear_8260_83694)"/>
</g>
<defs>
<linearGradient id="paint0_linear_8260_83694" x1="17" y1="9" x2="17" y2="25" gradientUnits="userSpaceOnUse">
<stop stop-color="#F8E889"/>
<stop offset="1" stop-color="#E4B764"/>
</linearGradient>
<clipPath id="clip0_8260_83694">
<rect width="24" height="24" fill="white" transform="translate(5 5)"/>
</clipPath>
</defs>
</svg>
