<svg xmlns="http://www.w3.org/2000/svg" width="18" height="12" fill="none"><path fill="#E4B764" d="M18 6s-3.375-6-9-6-9 6-9 6 3.375 6 9 6 9-6 9-6M1.32 6a14.4 14.4 0 0 1 1.867-2.229C4.635 2.365 6.615 1.091 9 1.091s4.364 1.274 5.814 2.68c.698.68 1.323 1.427 1.867 2.229q-.097.143-.219.314a14.5 14.5 0 0 1-1.648 1.915c-1.45 1.406-3.43 2.68-5.814 2.68S4.636 9.635 3.186 8.23A14.4 14.4 0 0 1 1.32 6"/><path fill="#E4B764" d="M5.063 6a3.76 3.76 0 0 1 1.153-2.7A4 4 0 0 1 9 2.182 4 4 0 0 1 11.784 3.3 3.76 3.76 0 0 1 12.937 6a3.76 3.76 0 0 1-1.153 2.7A4 4 0 0 1 9 9.818 4 4 0 0 1 6.216 8.7 3.76 3.76 0 0 1 5.062 6"/></svg>