<svg width="30" height="30" viewBox="0 0 30 30" fill="none" xmlns="http://www.w3.org/2000/svg">
<g clip-path="url(#clip0_16_2906)">
<g clip-path="url(#clip1_16_2906)">
<path d="M28.7172 27.5H21.3568C21.3335 27.1171 21.2791 26.5292 21.1547 25.9139C20.7583 23.9312 19.7557 22.1673 18.3333 20.7589C19.4448 20.2666 20.6884 20 21.9786 20C25.9192 20 29.2846 22.4886 29.9764 25.9139C30.1241 26.6591 29.5644 27.3633 28.7172 27.5Z" fill="url(#paint0_linear_16_2906)"/>
<path d="M22.0833 18.3333C25.0749 18.3333 27.5 15.9082 27.5 12.9167C27.5 9.92513 25.0749 7.5 22.0833 7.5C19.0918 7.5 16.6667 9.92513 16.6667 12.9167C16.6667 15.9082 19.0918 18.3333 22.0833 18.3333Z" fill="url(#paint1_linear_16_2906)"/>
<path d="M9.58333 15.8333C13.4953 15.8333 16.6667 12.662 16.6667 8.75C16.6667 4.83799 13.4953 1.66667 9.58333 1.66667C5.67132 1.66667 2.5 4.83799 2.5 8.75C2.5 12.662 5.67132 15.8333 9.58333 15.8333Z" fill="url(#paint2_linear_16_2906)"/>
<path d="M19.9763 26.593C19.1063 21.8073 14.9112 18.3333 10 18.3333C5.08877 18.3333 0.89365 21.8073 0.0237049 26.593C-0.123978 27.4091 0.433679 28.1884 1.27055 28.3333H18.7287C19.5663 28.1892 20.124 27.4098 19.9763 26.593Z" fill="url(#paint3_linear_16_2906)"/>
</g>
</g>
<defs>
<linearGradient id="paint0_linear_16_2906" x1="15" y1="1.66667" x2="15" y2="28.3333" gradientUnits="userSpaceOnUse">
<stop stop-color="#F8E889"/>
<stop offset="1" stop-color="#E4B764"/>
</linearGradient>
<linearGradient id="paint1_linear_16_2906" x1="15" y1="1.66667" x2="15" y2="28.3333" gradientUnits="userSpaceOnUse">
<stop stop-color="#F8E889"/>
<stop offset="1" stop-color="#E4B764"/>
</linearGradient>
<linearGradient id="paint2_linear_16_2906" x1="15" y1="1.66667" x2="15" y2="28.3333" gradientUnits="userSpaceOnUse">
<stop stop-color="#F8E889"/>
<stop offset="1" stop-color="#E4B764"/>
</linearGradient>
<linearGradient id="paint3_linear_16_2906" x1="15" y1="1.66667" x2="15" y2="28.3333" gradientUnits="userSpaceOnUse">
<stop stop-color="#F8E889"/>
<stop offset="1" stop-color="#E4B764"/>
</linearGradient>
<clipPath id="clip0_16_2906">
<rect width="30" height="30" fill="white"/>
</clipPath>
<clipPath id="clip1_16_2906">
<rect width="30" height="30" fill="white"/>
</clipPath>
</defs>
</svg>
