<svg xmlns="http://www.w3.org/2000/svg" width="30" height="30" fill="none"><path fill="url(#a)" d="M8.395 21.733c-1.616 5.077-4.683 7.14-4.858 7.254a.469.469 0 1 1-.512-.786c.038-.024 2.66-1.805 4.24-6.12a46 46 0 0 0-5.657 2.248.469.469 0 0 1-.403-.846 46.4 46.4 0 0 1 6.42-2.494c.513-1.796.784-3.653.804-5.52H1.406a.469.469 0 0 1 0-.938H8.43a21 21 0 0 0-.768-5.39 36 36 0 0 1-6.473-2.633.469.469 0 0 1 .437-.83 35 35 0 0 0 5.688 2.374C5.738 3.64 3.063 1.824 3.024 1.799a.469.469 0 1 1 .512-.786c.176.115 3.293 2.21 4.898 7.38q2.034.578 4.12.922a.469.469 0 1 1-.153.926 38 38 0 0 1-3.674-.8c.405 1.668.62 3.375.639 5.09h1.414a.469.469 0 0 1 0 .938H9.367a22.6 22.6 0 0 1-.667 5.207 42 42 0 0 1 3.737-.86.47.47 0 0 1 .166.923q-2.131.385-4.208.994M20.969 5.012a37 37 0 0 1-10.888-4.01.469.469 0 0 0-.475.808 31 31 0 0 0 4.625 2.194c.624.922 1.11 1.93 1.446 2.991a.469.469 0 1 0 .887-.303c-.252-.75-.563-1.48-.93-2.18a47 47 0 0 0 5.136 1.416 9.273 9.273 0 0 1 0 18.144 47 47 0 0 0-5.135 1.416q.55-1.053.929-2.18a.469.469 0 1 0-.887-.304 11.6 11.6 0 0 1-1.446 2.992 31 31 0 0 0-4.625 2.194.468.468 0 1 0 .475.808 37 37 0 0 1 10.888-4.01 10.21 10.21 0 0 0 0-19.976M12.187 15a7.5 7.5 0 1 1 7.5 7.5 7.51 7.51 0 0 1-7.5-7.5m1.91-3.418a6.5 6.5 0 0 0-.946 2.9l1.527-1.11zm-.94 4.054c.093.95.394 1.867.882 2.687h2.658l.797-1.068-.857-2.753-1.325-.43zm4.403-1.324.797 2.563h2.66l.798-2.562-2.128-1.546zm4.322 2.943.796 1.068h2.658c.488-.82.789-1.737.882-2.687l-2.155-1.565-1.325.43zm2.815-3.883 1.527 1.11a6.5 6.5 0 0 0-.945-2.9zm-7.52 7.689-.585-1.8h-1.886a6.6 6.6 0 0 0 2.47 1.8m2.51.502a6.6 6.6 0 0 0 1.414-.158l.821-2.527-.794-1.065h-2.88l-.795 1.065.821 2.527a6.6 6.6 0 0 0 1.413.157m4.982-2.302h-1.886l-.585 1.8a6.6 6.6 0 0 0 2.47-1.8m-2.36-10.274-2.153 1.565v1.396l2.289 1.663 1.329-.432.82-2.523a6.6 6.6 0 0 0-2.285-1.669m-2.622-.55a6.5 6.5 0 0 0-1.526.187l1.526 1.11 1.527-1.11a6.5 6.5 0 0 0-1.526-.187m-4.905 2.22.82 2.522 1.328.432 2.289-1.663v-1.396l-2.153-1.564a6.6 6.6 0 0 0-2.284 1.668"/><defs><linearGradient id="a" x1="15" x2="15" y1=".937" y2="29.067" gradientUnits="userSpaceOnUse"><stop stop-color="#F8E889"/><stop offset="1" stop-color="#E4B764"/></linearGradient></defs></svg>