<svg width="40" height="40" viewBox="0 0 40 40" fill="none" xmlns="http://www.w3.org/2000/svg">
<g clip-path="url(#clip0_8260_83864)">
<g clip-path="url(#clip1_8260_83864)">
<path d="M19.9999 25.9766C21.7474 25.9766 23.164 24.56 23.164 22.8125C23.164 21.065 21.7474 19.6484 19.9999 19.6484C18.2525 19.6484 16.8359 21.065 16.8359 22.8125C16.8359 24.56 18.2525 25.9766 19.9999 25.9766Z" fill="url(#paint0_linear_8260_83864)"/>
<path d="M29.1406 27.1484C30.6939 27.1484 31.9531 25.8892 31.9531 24.3359C31.9531 22.7826 30.6939 21.5234 29.1406 21.5234C27.5873 21.5234 26.3281 22.7826 26.3281 24.3359C26.3281 25.8892 27.5873 27.1484 29.1406 27.1484Z" fill="url(#paint1_linear_8260_83864)"/>
<path d="M10.8593 27.1484C12.4126 27.1484 13.6718 25.8892 13.6718 24.3359C13.6718 22.7826 12.4126 21.5234 10.8593 21.5234C9.30601 21.5234 8.04681 22.7826 8.04681 24.3359C8.04681 25.8892 9.30601 27.1484 10.8593 27.1484Z" fill="url(#paint2_linear_8260_83864)"/>
<path d="M6.25829 35H12.5292C12.5854 34.9995 12.6407 34.9855 12.6905 34.9594C12.7403 34.9332 12.7831 34.8956 12.8154 34.8496C12.8477 34.8036 12.8686 34.7505 12.8764 34.6949C12.8841 34.6392 12.8785 34.5824 12.8599 34.5294C12.819 34.4171 12.7896 34.301 12.7723 34.1827C12.7259 33.8578 12.7024 33.5301 12.702 33.2019C12.6999 31.7113 13.1579 30.2565 14.0133 29.0359C14.0403 28.9966 14.0591 28.9523 14.0686 28.9055C14.078 28.8588 14.0779 28.8107 14.0683 28.764C14.0587 28.7173 14.0398 28.673 14.0126 28.6338C13.9855 28.5947 13.9507 28.5614 13.9104 28.5359C13.0432 27.9985 12.0481 27.7026 11.0281 27.6787C10.0081 27.6549 9.00026 27.904 8.10884 28.4003C7.21742 28.8966 6.4748 29.622 5.9578 30.5016C5.4408 31.3812 5.16821 32.3829 5.16821 33.4032C5.16843 33.6288 5.18267 33.8541 5.21087 34.078C5.24367 34.3327 5.36806 34.5667 5.56081 34.7364C5.75356 34.9061 6.00149 34.9998 6.25829 35ZM26.0988 28.5521C26.0588 28.5776 26.0244 28.6109 25.9975 28.65C25.9706 28.6891 25.9519 28.7332 25.9424 28.7797C25.9329 28.8262 25.9329 28.8741 25.9423 28.9206C25.9517 28.9671 25.9703 29.0112 25.9971 29.0504C26.8458 30.2683 27.3 31.7174 27.2981 33.2019C27.2978 33.5299 27.2743 33.8575 27.2278 34.1823C27.2106 34.3006 27.1811 34.4168 27.1399 34.5291C27.1214 34.5822 27.1158 34.639 27.1235 34.6947C27.1313 34.7504 27.1522 34.8034 27.1845 34.8494C27.2168 34.8954 27.2596 34.9331 27.3094 34.9593C27.3591 34.9855 27.4144 34.9994 27.4706 35H33.7753C34.0322 34.9999 34.2803 34.9063 34.4731 34.7366C34.666 34.5669 34.7905 34.3328 34.8232 34.078C34.8516 33.8542 34.8659 33.6288 34.8661 33.4032C34.8664 32.3802 34.5926 31.3759 34.0732 30.4946C33.5538 29.6133 32.8078 28.8872 31.9127 28.392C31.0176 27.8967 30.0062 27.6503 28.9836 27.6784C27.9611 27.7065 26.9647 28.008 26.0981 28.5516L26.0988 28.5521Z" fill="url(#paint3_linear_8260_83864)"/>
<path d="M13.4051 33.2019C13.4055 33.4968 13.4266 33.7914 13.4684 34.0834C13.5043 34.3362 13.6298 34.5677 13.8219 34.7359C14.0141 34.9041 14.2602 34.9978 14.5156 35H25.4843C25.7396 34.9977 25.9856 34.904 26.1776 34.7358C26.3697 34.5676 26.4951 34.3361 26.531 34.0834C26.5728 33.7914 26.594 33.4968 26.5945 33.2019C26.5997 32.3325 26.433 31.4707 26.1039 30.666C25.7748 29.8613 25.2898 29.1296 24.6769 28.5131C24.064 27.8965 23.3352 27.4072 22.5325 27.0733C21.7298 26.7394 20.869 26.5675 19.9996 26.5675C19.1302 26.5675 18.2694 26.7394 17.4667 27.0733C16.664 27.4072 15.9352 27.8965 15.3223 28.5131C14.7094 29.1296 14.2244 29.8613 13.8953 30.666C13.5662 31.4707 13.3999 32.3325 13.4051 33.2019ZM27.8163 11.7617C27.8163 14.2203 26.2601 16.5148 23.6515 17.9C23.5825 17.9388 23.5285 17.9996 23.4982 18.0727C23.4679 18.1458 23.463 18.227 23.4844 18.3032C23.5057 18.3794 23.5521 18.4463 23.6159 18.493C23.6798 18.5397 23.7575 18.5637 23.8367 18.5609C24.1822 18.5428 24.5265 18.5052 24.8679 18.4484L27.9523 19.2898C28.7677 19.5477 29.5887 18.6165 29.1945 17.8414C28.9981 17.434 28.8706 16.9968 28.8171 16.5477C29.2834 16.1211 29.6582 15.6043 29.9189 15.0286C30.1795 14.4529 30.3206 13.8303 30.3335 13.1984C30.3335 11.6258 29.4476 10.1375 27.9007 9.11562C27.838 9.07608 27.7644 9.05723 27.6904 9.06174C27.6163 9.06625 27.5456 9.09389 27.4881 9.14075C27.4306 9.18762 27.3893 9.25135 27.37 9.32295C27.3507 9.39456 27.3543 9.47042 27.3804 9.53984C27.6676 10.2454 27.8156 10.9999 27.8163 11.7617Z" fill="url(#paint4_linear_8260_83864)"/>
<path d="M11.5859 15.9594C11.5214 16.5527 11.3557 17.1306 11.096 17.668C10.6418 18.59 11.5882 19.6667 12.5585 19.3695L16.4773 18.3008C17.109 18.4092 17.7488 18.4641 18.3898 18.4648C23.2015 18.4648 27.1132 15.4578 27.1132 11.7617C27.1132 8.06562 23.2015 5.05859 18.3898 5.05859C13.5781 5.05859 9.66634 8.06562 9.66634 11.7617C9.66634 13.2898 10.346 14.7734 11.5859 15.9594ZM22.5781 10.7422C22.7867 10.7422 22.9906 10.804 23.164 10.9199C23.3375 11.0358 23.4726 11.2005 23.5525 11.3933C23.6323 11.586 23.6532 11.798 23.6125 12.0026C23.5718 12.2072 23.4713 12.3952 23.3238 12.5427C23.1763 12.6902 22.9884 12.7906 22.7838 12.8313C22.5792 12.872 22.3672 12.8511 22.1744 12.7713C21.9817 12.6915 21.817 12.5563 21.7011 12.3828C21.5852 12.2094 21.5234 12.0055 21.5234 11.7969C21.5234 11.5172 21.6345 11.2489 21.8323 11.0511C22.0301 10.8533 22.2983 10.7422 22.5781 10.7422ZM18.3593 10.7422C18.5679 10.7422 18.7718 10.804 18.9453 10.9199C19.1187 11.0358 19.2539 11.2005 19.3337 11.3933C19.4135 11.586 19.4344 11.798 19.3937 12.0026C19.353 12.2072 19.2526 12.3952 19.1051 12.5427C18.9576 12.6902 18.7697 12.7906 18.5651 12.8313C18.3605 12.872 18.1484 12.8511 17.9557 12.7713C17.763 12.6915 17.5983 12.5563 17.4824 12.3828C17.3665 12.2094 17.3046 12.0055 17.3046 11.7969C17.3046 11.5172 17.4157 11.2489 17.6135 11.0511C17.8113 10.8533 18.0796 10.7422 18.3593 10.7422ZM14.1406 10.7422C14.3492 10.7422 14.5531 10.804 14.7265 10.9199C14.9 11.0358 15.0351 11.2005 15.115 11.3933C15.1948 11.586 15.2157 11.798 15.175 12.0026C15.1343 12.2072 15.0338 12.3952 14.8863 12.5427C14.7388 12.6902 14.5509 12.7906 14.3463 12.8313C14.1417 12.872 13.9297 12.8511 13.7369 12.7713C13.5442 12.6915 13.3795 12.5563 13.2636 12.3828C13.1477 12.2094 13.0859 12.0055 13.0859 11.7969C13.0859 11.5172 13.197 11.2489 13.3948 11.0511C13.5926 10.8533 13.8608 10.7422 14.1406 10.7422Z" fill="url(#paint5_linear_8260_83864)"/>
</g>
</g>
<defs>
<linearGradient id="paint0_linear_8260_83864" x1="20.0172" y1="5.05859" x2="20.0172" y2="35" gradientUnits="userSpaceOnUse">
<stop stop-color="#F8E889"/>
<stop offset="1" stop-color="#E4B764"/>
</linearGradient>
<linearGradient id="paint1_linear_8260_83864" x1="20.0172" y1="5.05859" x2="20.0172" y2="35" gradientUnits="userSpaceOnUse">
<stop stop-color="#F8E889"/>
<stop offset="1" stop-color="#E4B764"/>
</linearGradient>
<linearGradient id="paint2_linear_8260_83864" x1="20.0172" y1="5.05859" x2="20.0172" y2="35" gradientUnits="userSpaceOnUse">
<stop stop-color="#F8E889"/>
<stop offset="1" stop-color="#E4B764"/>
</linearGradient>
<linearGradient id="paint3_linear_8260_83864" x1="20.0172" y1="5.05859" x2="20.0172" y2="35" gradientUnits="userSpaceOnUse">
<stop stop-color="#F8E889"/>
<stop offset="1" stop-color="#E4B764"/>
</linearGradient>
<linearGradient id="paint4_linear_8260_83864" x1="20.0172" y1="5.05859" x2="20.0172" y2="35" gradientUnits="userSpaceOnUse">
<stop stop-color="#F8E889"/>
<stop offset="1" stop-color="#E4B764"/>
</linearGradient>
<linearGradient id="paint5_linear_8260_83864" x1="20.0172" y1="5.05859" x2="20.0172" y2="35" gradientUnits="userSpaceOnUse">
<stop stop-color="#F8E889"/>
<stop offset="1" stop-color="#E4B764"/>
</linearGradient>
<clipPath id="clip0_8260_83864">
<rect width="30" height="30" fill="white" transform="translate(5 5)"/>
</clipPath>
<clipPath id="clip1_8260_83864">
<rect width="30" height="30" fill="white" transform="translate(5 5)"/>
</clipPath>
</defs>
</svg>
