<svg xmlns="http://www.w3.org/2000/svg" width="24" height="24" fill="none"><g clip-path="url(#a)"><path fill="url(#b)" fill-rule="evenodd" d="m23.121 9.217-7.585-7.17A5.16 5.16 0 0 0 12 .668a5.16 5.16 0 0 0-3.536 1.38L.879 9.218a2.8 2.8 0 0 0-.652.918A2.7 2.7 0 0 0 0 11.222v9.277c0 .752.316 1.473.879 2.005a3.1 3.1 0 0 0 2.121.83h18a3.1 3.1 0 0 0 2.121-.83A2.76 2.76 0 0 0 24 20.498v-9.277a2.7 2.7 0 0 0-.227-1.085 2.8 2.8 0 0 0-.652-.92M9 17.726v3.717h6v-3.718c0-.751-.316-1.473-.879-2.004A3.1 3.1 0 0 0 12 14.89a3.1 3.1 0 0 0-2.121.83A2.76 2.76 0 0 0 9 17.726" clip-rule="evenodd"/></g><defs><linearGradient id="b" x1="12" x2="12" y1=".667" y2="23.333" gradientUnits="userSpaceOnUse"><stop stop-color="#5C5C5C"/><stop offset="1"/></linearGradient><clipPath id="a"><path fill="#fff" d="M0 0h24v24H0z"/></clipPath></defs></svg>