<svg xmlns="http://www.w3.org/2000/svg" width="21" height="22" fill="none"><path fill="url(#a)" d="M4.468 5.646a.655.655 0 1 0 .928-.928L4.004 3.325a.656.656 0 1 0-.928.928zm.395 9.822-1.379 1.38a.65.65 0 1 0 .92.919l1.378-1.38a.65.65 0 1 0-.92-.919M10.5 3.531a.657.657 0 0 0 .656-.656V.906a.657.657 0 0 0-1.312 0v1.969c0 .362.294.656.656.656m6.314 1.825 1.379-1.38a.65.65 0 1 0-.92-.919l-1.379 1.38a.65.65 0 1 0 .92.919M2.625 10.094H.656a.656.656 0 0 0 0 1.312h1.969a.657.657 0 0 0 0-1.312m7.875 7.875a.657.657 0 0 0-.656.656v1.969a.657.657 0 0 0 1.312 0v-1.969a.656.656 0 0 0-.656-.656m9.844-7.875h-1.969a.656.656 0 0 0 0 1.312h1.969a.656.656 0 0 0 0-1.312m-3.812 5.76a.656.656 0 1 0-.928.928l1.392 1.392a.656.656 0 1 0 .928-.928zM10.5 4.84a5.91 5.91 0 1 0 0 11.82 5.91 5.91 0 0 0 0-11.82"/><defs><linearGradient id="a" x1="21" x2="0" y1="10.652" y2="10.652" gradientUnits="userSpaceOnUse"><stop stop-color="#F8E889"/><stop offset="1" stop-color="#E4B764"/></linearGradient></defs></svg>