<svg xmlns="http://www.w3.org/2000/svg" width="21" height="21" fill="none"><g clip-path="url(#a)"><path fill="url(#b)" d="M20.188 12.454c0-.591-.228-1.157-.634-1.543a2.3 2.3 0 0 0 .456-1.336 2.16 2.16 0 0 0-.633-1.517 2.2 2.2 0 0 0-1.595-.669h-4.61l.304-1.953c.025-.257.05-.489.05-.746 0-1.928-1.291-4.19-2.937-4.19h-.152c-.785.154-1.292.951-1.241 1.774l.152 2.056c0 .129 0 .283-.026.412a1.2 1.2 0 0 1-.152.385L6.638 9.91l-.076.077h-.71a.686.686 0 0 0-.683.694v8.509c0 .386.304.694.684.694h10.232c.835 0 1.595-.54 1.874-1.311.177-.463.202-.925.101-1.363.785-.334 1.292-1.105 1.292-2.005 0-.282-.05-.59-.178-.848.634-.386 1.014-1.08 1.014-1.85z"/><path fill="url(#c)" d="M4.156 10.063a.884.884 0 0 0-.887-.771H1.7a.904.904 0 0 0-.887.9V19.6c0 .489.406.9.887.9h1.57a.904.904 0 0 0 .887-.9v-9.563z"/></g><defs><linearGradient id="b" x1="10.5" x2="10.5" y1=".5" y2="20.5" gradientUnits="userSpaceOnUse"><stop stop-color="#F8E889"/><stop offset="1" stop-color="#E4B764"/></linearGradient><linearGradient id="c" x1="10.5" x2="10.5" y1=".5" y2="20.5" gradientUnits="userSpaceOnUse"><stop stop-color="#F8E889"/><stop offset="1" stop-color="#E4B764"/></linearGradient><clipPath id="a"><path fill="#fff" d="M.813.5h19.375v20H.813z"/></clipPath></defs></svg>