<svg width="40" height="40" viewBox="0 0 40 40" fill="none" xmlns="http://www.w3.org/2000/svg">
<g clip-path="url(#clip0_8345_54758)">
<path d="M26.528 27.0363C26.528 27.1271 26.528 27.2178 26.528 27.3085C26.528 29.2276 26.528 31.1476 26.528 33.0666C26.528 33.7936 26.1794 34.1659 25.4852 34.1659C19.2862 34.1669 13.0861 34.1669 6.88713 34.1659C6.18989 34.1659 5.83425 33.7998 5.83425 33.076C5.83325 24.3612 5.83325 15.6464 5.83325 6.9326C5.83425 6.19315 6.18788 5.83334 6.90816 5.83334C13.0881 5.83334 19.2671 5.83334 25.4471 5.83334C26.1874 5.83334 26.528 6.18898 26.529 6.9545C26.529 9.61087 26.532 12.2662 26.523 14.9226C26.523 15.0842 26.4669 15.2709 26.3788 15.4034C25.9159 16.1042 25.4281 16.7874 24.9633 17.4872C24.846 17.6634 24.7168 17.7177 24.5185 17.7166C23.1911 17.7083 21.8627 17.7114 20.5354 17.7135C20.4262 17.7135 20.2869 17.6885 20.2158 17.7469C20.0876 17.8522 19.9423 17.9982 19.9113 18.1505C19.8702 18.3549 20.0064 18.527 20.2208 18.576C20.327 18.6 20.4382 18.601 20.5474 18.601C21.6253 18.6031 22.7032 18.6021 23.7822 18.6021C23.8903 18.6021 23.9995 18.6021 24.1538 18.6021C24.0957 18.7095 24.0637 18.7804 24.0216 18.843C23.682 19.3426 23.3344 19.8369 23.0028 20.3417C22.8966 20.5044 22.7844 20.5722 22.59 20.5691C21.8617 20.5555 21.1324 20.5607 20.4042 20.5649C20.0886 20.567 19.8952 20.7422 19.8962 21.0081C19.8973 21.272 20.0906 21.4368 20.4092 21.4451C20.5194 21.4483 20.6285 21.4451 20.7387 21.4451C21.1976 21.4451 21.6574 21.4462 22.1162 21.4483C22.1342 21.4483 22.1513 21.4608 22.2054 21.4827C22.1392 21.588 22.0791 21.6881 22.014 21.7841C21.1565 23.0335 20.296 24.2809 19.4444 25.5345C19.3573 25.6638 19.2882 25.8255 19.2661 25.9809C19.0477 27.4869 18.8374 28.995 18.632 30.5041C18.5589 31.0391 18.7141 31.4928 19.1469 31.813C19.5887 32.1395 20.0525 32.1415 20.5294 31.886C21.8407 31.182 23.154 30.4853 24.4634 29.7772C24.5806 29.7136 24.6868 29.6041 24.7649 29.4914C25.3379 28.6696 25.9019 27.8404 26.4689 27.0144C26.489 27.0207 26.51 27.028 26.53 27.0343L26.528 27.0363ZM23.116 11.8615C23.122 10.6851 22.2244 9.73289 21.1024 9.72664C19.9804 9.72038 19.0598 10.6642 19.0517 11.8302C19.0427 12.9848 19.9724 13.9537 21.0874 13.9526C22.1963 13.9526 23.111 13.0098 23.117 11.8615H23.116ZM13.2995 11.8355C13.2965 10.659 12.3959 9.72559 11.2649 9.72768C10.1439 9.72977 9.24131 10.6841 9.25033 11.8574C9.25934 13.0171 10.1599 13.9526 11.2709 13.9537C12.3959 13.9547 13.3025 13.0088 13.2995 11.8365V11.8355ZM12.2467 17.7124C11.7087 17.7124 11.1697 17.7104 10.6318 17.7124C10.2842 17.7145 10.0918 17.872 10.0858 18.1473C10.0808 18.4227 10.2741 18.5989 10.6137 18.6C11.7007 18.6042 12.7876 18.6042 13.8745 18.6C14.2131 18.5989 14.4125 18.4206 14.4085 18.1494C14.4045 17.8762 14.2081 17.7145 13.8625 17.7124C13.3246 17.7093 12.7856 17.7124 12.2477 17.7124H12.2467ZM12.2717 29.117C11.7137 29.117 11.1547 29.1118 10.5967 29.1191C10.2832 29.1233 10.1068 29.2745 10.0878 29.5279C10.0658 29.8179 10.2661 30.0087 10.6178 30.0098C11.6947 30.0139 12.7716 30.0129 13.8485 30.0098C14.2091 30.0098 14.4145 29.8345 14.4075 29.5509C14.4005 29.2818 14.2031 29.1201 13.8575 29.117C13.3286 29.1118 12.8006 29.116 12.2717 29.117ZM12.2296 21.4472C12.7786 21.4472 13.3266 21.4493 13.8755 21.4472C14.2152 21.4451 14.4125 21.2751 14.4075 21.0019C14.4025 20.7265 14.2081 20.568 13.8625 20.567C12.7856 20.5649 11.7087 20.5649 10.6308 20.567C10.2832 20.567 10.0918 20.7234 10.0868 20.9998C10.0808 21.2783 10.2721 21.4451 10.6137 21.4472C11.1527 21.4514 11.6907 21.4472 12.2296 21.4472ZM12.2396 26.2719C11.7007 26.2719 11.1627 26.2698 10.6238 26.2719C10.2772 26.2739 10.0868 26.4325 10.0858 26.7089C10.0848 26.9873 10.2772 27.1542 10.6198 27.1552C11.7067 27.1573 12.7936 27.1584 13.8816 27.1552C14.2162 27.1552 14.4165 26.9748 14.4085 26.6984C14.4005 26.4377 14.2091 26.275 13.8866 26.2729C13.3376 26.2687 12.7896 26.2719 12.2406 26.2719H12.2396ZM12.2396 23.4194C11.7007 23.4194 11.1627 23.4173 10.6238 23.4194C10.2782 23.4215 10.0868 23.58 10.0858 23.8564C10.0848 24.1349 10.2751 24.2976 10.6188 24.2986C11.7057 24.3007 12.7926 24.3007 13.8796 24.2986C14.2141 24.2986 14.4145 24.1213 14.4055 23.846C14.3975 23.5821 14.2061 23.4215 13.8836 23.4194C13.3356 23.4163 12.7866 23.4194 12.2376 23.4184L12.2396 23.4194ZM8.70436 18.6031C9.1211 18.6031 9.35952 18.334 9.2363 18.0065C9.13913 17.75 8.81054 17.6311 8.46593 17.7343C8.23352 17.8042 8.11932 17.9711 8.14636 18.2204C8.17341 18.4748 8.37277 18.6042 8.70436 18.6031ZM8.69534 30.0118C9.09805 30.0139 9.34049 29.7678 9.25133 29.4497C9.17319 29.1723 8.88768 29.0513 8.504 29.1326C8.26558 29.1827 8.14035 29.3381 8.14336 29.5874C8.14737 29.8565 8.35674 30.0108 8.69534 30.0129V30.0118ZM18.5028 18.6031C18.8574 18.6062 19.0728 18.4404 19.0758 18.1619C19.0788 17.8897 18.8744 17.7187 18.5408 17.7135C18.1702 17.7072 17.9708 17.8543 17.9588 18.139C17.9468 18.4321 18.1441 18.601 18.5028 18.6042V18.6031ZM8.70235 21.4472C9.1221 21.4472 9.35952 21.1865 9.2373 20.858C9.14013 20.5962 8.81555 20.4741 8.46693 20.5816C8.24053 20.6514 8.11831 20.8173 8.14436 21.0676C8.17141 21.3221 8.36375 21.4462 8.70135 21.4462L8.70235 21.4472ZM18.5058 20.5659C18.2764 20.5451 18.049 20.6066 17.9919 20.8642C17.9608 21.006 18.0229 21.2115 18.1131 21.3335C18.2453 21.5119 18.7803 21.5119 18.9125 21.3346C19.0027 21.2146 19.0618 21.0123 19.0337 20.8673C18.9826 20.5993 18.7502 20.5534 18.5048 20.5659H18.5058ZM8.70636 27.1573C9.05798 27.1573 9.27036 26.9873 9.26836 26.7099C9.26635 26.4502 9.07101 26.2823 8.75945 26.2739C8.36776 26.2625 8.15939 26.4022 8.14135 26.687C8.12332 26.9769 8.34171 27.1594 8.70736 27.1584L8.70636 27.1573ZM8.69734 24.3007C9.10407 24.3007 9.34249 24.0619 9.25033 23.7448C9.17119 23.4716 8.88768 23.3475 8.50099 23.4278C8.26758 23.4768 8.13735 23.6353 8.14236 23.8846C8.14737 24.1505 8.35574 24.2997 8.69734 24.2997V24.3007ZM18.5108 24.3007C19.0027 24.3549 19.1499 23.9336 19.0337 23.677C18.9275 23.4413 18.5929 23.3287 18.2674 23.4382C18.056 23.5102 17.9408 23.6697 17.9618 23.9106C17.9849 24.1693 18.1732 24.3007 18.5108 24.3007Z" fill="url(#paint0_linear_8345_54758)"/>
<path d="M28.0688 14.4689C29.3981 15.4534 30.6944 16.414 32.0218 17.3964C29.5274 21.0311 27.046 24.647 24.5475 28.2858C23.2272 27.3065 21.9249 26.3407 20.6005 25.3582C23.0919 21.7257 25.5683 18.115 28.0688 14.4689ZM29.4052 17.6686C29.2879 17.5477 29.1958 17.3933 29.0625 17.3255C28.8562 17.2212 28.6809 17.3307 28.5496 17.5185C26.9778 19.7649 25.405 22.0104 23.8342 24.259C23.6469 24.5281 23.672 24.7846 23.8853 24.9421C24.0987 25.0996 24.3341 25.0433 24.5255 24.7711C26.0933 22.534 27.659 20.2958 29.2228 18.0556C29.2899 17.9596 29.325 17.8397 29.4041 17.6686H29.4052Z" fill="url(#paint1_linear_8345_54758)"/>
<path d="M32.5167 16.6747C31.1873 15.6902 29.891 14.7296 28.5667 13.7482C28.9003 13.2612 29.2268 12.7845 29.5534 12.3079C29.7207 12.0628 29.883 11.8146 30.0583 11.5758C30.3418 11.1888 30.7295 11.1054 31.1072 11.3797C32.0308 12.0493 32.9474 12.7282 33.8571 13.4176C34.1866 13.6669 34.2638 14.0945 34.0364 14.4397C33.5485 15.1823 33.0386 15.9102 32.5157 16.6758L32.5167 16.6747Z" fill="url(#paint2_linear_8345_54758)"/>
<path d="M20.1166 26.0925C21.442 27.0749 22.7293 28.0282 24.0536 29.0106C23.3784 29.3704 22.7433 29.7104 22.1072 30.0494C21.47 30.3894 20.8319 30.7294 20.1948 31.0715C20.0105 31.1706 19.8251 31.2415 19.6348 31.0934C19.4485 30.9474 19.4575 30.7492 19.4885 30.5312C19.6839 29.1493 19.8702 27.7654 20.0605 26.3824C20.0716 26.3021 20.0916 26.2228 20.1166 26.0935V26.0925Z" fill="url(#paint3_linear_8345_54758)"/>
</g>
<defs>
<linearGradient id="paint0_linear_8345_54758" x1="19.9999" y1="5.83334" x2="19.9999" y2="34.1667" gradientUnits="userSpaceOnUse">
<stop stop-color="#F8E889"/>
<stop offset="1" stop-color="#E4B764"/>
</linearGradient>
<linearGradient id="paint1_linear_8345_54758" x1="19.9999" y1="5.83334" x2="19.9999" y2="34.1667" gradientUnits="userSpaceOnUse">
<stop stop-color="#F8E889"/>
<stop offset="1" stop-color="#E4B764"/>
</linearGradient>
<linearGradient id="paint2_linear_8345_54758" x1="19.9999" y1="5.83334" x2="19.9999" y2="34.1667" gradientUnits="userSpaceOnUse">
<stop stop-color="#F8E889"/>
<stop offset="1" stop-color="#E4B764"/>
</linearGradient>
<linearGradient id="paint3_linear_8345_54758" x1="19.9999" y1="5.83334" x2="19.9999" y2="34.1667" gradientUnits="userSpaceOnUse">
<stop stop-color="#F8E889"/>
<stop offset="1" stop-color="#E4B764"/>
</linearGradient>
<clipPath id="clip0_8345_54758">
<rect width="30" height="30" fill="white" transform="translate(5 5)"/>
</clipPath>
</defs>
</svg>
