<svg width="34" height="34" viewBox="0 0 34 34" fill="none" xmlns="http://www.w3.org/2000/svg">
<g clip-path="url(#clip0_8260_83710)">
<g clip-path="url(#clip1_8260_83710)">
<path d="M16.9999 5.08337C14.643 5.08337 12.3391 5.78227 10.3794 7.09169C8.41969 8.40111 6.8923 10.2622 5.99036 12.4397C5.08842 14.6172 4.85243 17.0133 5.31223 19.3249C5.77204 21.6365 6.90699 23.7598 8.57357 25.4264C10.2401 27.093 12.3635 28.2279 14.6751 28.6877C16.9867 29.1475 19.3827 28.9116 21.5602 28.0096C23.7377 27.1077 25.5988 25.5803 26.9083 23.6206C28.2177 21.6609 28.9166 19.3569 28.9166 17C28.913 13.8406 27.6564 10.8117 25.4223 8.57763C23.1883 6.3436 20.1593 5.08695 16.9999 5.08337ZM16.0824 8.75038C16.0824 8.50726 16.1789 8.2741 16.3508 8.1022C16.5228 7.93029 16.7559 7.83371 16.999 7.83371C17.2421 7.83371 17.4753 7.93029 17.6472 8.1022C17.8191 8.2741 17.9157 8.50726 17.9157 8.75038V15.6254C17.9157 15.8685 17.8191 16.1017 17.6472 16.2736C17.4753 16.4455 17.2421 16.542 16.999 16.542C16.7559 16.542 16.5228 16.4455 16.3508 16.2736C16.1789 16.1017 16.0824 15.8685 16.0824 15.6254V8.75038ZM16.9999 26.1667C15.0337 26.1671 13.1195 25.5352 11.5401 24.3643C9.96056 23.1933 8.79952 21.5455 8.2284 19.6641C7.65728 17.7827 7.70637 15.7675 8.36842 13.9161C9.03046 12.0647 10.2704 10.4753 11.905 9.38271C12.005 9.31537 12.1172 9.2684 12.2354 9.2445C12.3535 9.22059 12.4752 9.22022 12.5935 9.2434C12.7117 9.26658 12.8243 9.31286 12.9247 9.37959C13.025 9.44632 13.1113 9.53219 13.1784 9.63228C13.2455 9.73237 13.2923 9.84472 13.316 9.96291C13.3396 10.0811 13.3398 10.2028 13.3164 10.321C13.2929 10.4392 13.2465 10.5517 13.1795 10.6519C13.1126 10.7522 13.0266 10.8382 12.9263 10.9052C11.618 11.7792 10.6255 13.0508 10.0954 14.5322C9.56529 16.0136 9.52569 17.6263 9.98246 19.1319C10.4392 20.6375 11.3681 21.9563 12.632 22.8935C13.8958 23.8307 15.4276 24.3365 17.001 24.3363C18.5744 24.3361 20.106 23.8298 21.3695 22.8923C22.6331 21.9548 23.5617 20.6357 24.018 19.13C24.4744 17.6242 24.4343 16.0116 23.9038 14.5303C23.3733 13.0491 22.3804 11.7777 21.0719 10.9041C20.87 10.7687 20.7301 10.5586 20.683 10.3201C20.636 10.0816 20.6856 9.83415 20.821 9.63222C20.9564 9.43028 21.1664 9.29041 21.4049 9.24335C21.6435 9.1963 21.8909 9.24592 22.0928 9.38131C23.7279 10.4736 24.9683 12.0629 25.6308 13.9143C26.2933 15.7658 26.3427 17.7812 25.7718 19.6629C25.2009 21.5446 24.0399 23.1927 22.4603 24.3639C20.8807 25.5351 18.9663 26.1671 16.9999 26.1667Z" fill="url(#paint0_linear_8260_83710)"/>
</g>
</g>
<defs>
<linearGradient id="paint0_linear_8260_83710" x1="16.9999" y1="5.08337" x2="16.9999" y2="28.9167" gradientUnits="userSpaceOnUse">
<stop stop-color="#F8E889"/>
<stop offset="1" stop-color="#E4B764"/>
</linearGradient>
<clipPath id="clip0_8260_83710">
<rect width="24" height="24" fill="white" transform="translate(5 5)"/>
</clipPath>
<clipPath id="clip1_8260_83710">
<rect width="24" height="24" fill="white" transform="translate(5 5)"/>
</clipPath>
</defs>
</svg>
