<svg xmlns="http://www.w3.org/2000/svg" width="40" height="41" fill="none"><g clip-path="url(#a)"><path fill="url(#b)" d="M5.834 10.094c0-.835.64-1.51 1.43-1.51h25.472c.79 0 1.43.675 1.43 1.51v1.208c0 .834-.64 1.51-1.43 1.51H7.265c-.79 0-1.431-.676-1.431-1.51z"/><path fill="url(#c)" d="M5.834 20.062c0-.834.64-1.51 1.43-1.51h25.472c.79 0 1.43.676 1.43 1.51v1.209c0 .834-.64 1.51-1.43 1.51H7.265c-.79 0-1.431-.676-1.431-1.51z"/><path fill="url(#d)" d="M5.834 30.031c0-.834.64-1.51 1.43-1.51h25.472c.79 0 1.43.676 1.43 1.51v1.209c0 .834-.64 1.51-1.43 1.51H7.265c-.79 0-1.431-.676-1.431-1.51z"/></g><defs><linearGradient id="b" x1="20" x2="20" y1="8.583" y2="32.75" gradientUnits="userSpaceOnUse"><stop stop-color="#5C5C5C"/><stop offset="1"/></linearGradient><linearGradient id="c" x1="20" x2="20" y1="8.583" y2="32.75" gradientUnits="userSpaceOnUse"><stop stop-color="#5C5C5C"/><stop offset="1"/></linearGradient><linearGradient id="d" x1="20" x2="20" y1="8.583" y2="32.75" gradientUnits="userSpaceOnUse"><stop stop-color="#5C5C5C"/><stop offset="1"/></linearGradient><clipPath id="a"><path fill="#fff" d="M5 5.25h30v30H5z"/></clipPath></defs></svg>