<svg xmlns="http://www.w3.org/2000/svg" width="30" height="31" fill="none"><path fill="url(#a)" d="M.833 5.094c0-.835.641-1.51 1.431-1.51h25.471c.79 0 1.432.675 1.432 1.51v1.208c0 .834-.641 1.51-1.432 1.51H2.265c-.791 0-1.432-.676-1.432-1.51z"/><path fill="url(#b)" d="M.833 15.062c0-.834.641-1.51 1.431-1.51h25.471c.79 0 1.432.676 1.432 1.51v1.209c0 .834-.641 1.51-1.432 1.51H2.265c-.791 0-1.432-.676-1.432-1.51z"/><path fill="url(#c)" d="M.833 25.031c0-.834.641-1.51 1.431-1.51h25.471c.79 0 1.432.676 1.432 1.51v1.209c0 .834-.641 1.51-1.432 1.51H2.265c-.791 0-1.432-.676-1.432-1.51z"/><defs><linearGradient id="a" x1="15" x2="15" y1="3.583" y2="27.75" gradientUnits="userSpaceOnUse"><stop stop-color="#F8E889"/><stop offset="1" stop-color="#E4B764"/></linearGradient><linearGradient id="b" x1="15" x2="15" y1="3.583" y2="27.75" gradientUnits="userSpaceOnUse"><stop stop-color="#F8E889"/><stop offset="1" stop-color="#E4B764"/></linearGradient><linearGradient id="c" x1="15" x2="15" y1="3.583" y2="27.75" gradientUnits="userSpaceOnUse"><stop stop-color="#F8E889"/><stop offset="1" stop-color="#E4B764"/></linearGradient></defs></svg>