<svg width="40" height="40" viewBox="0 0 40 40" fill="none" xmlns="http://www.w3.org/2000/svg">
<g clip-path="url(#clip0_8345_54778)">
<path d="M21.4176 21.2006C21.0731 21.5444 20.575 21.7454 20.0609 21.7454C19.5469 21.7454 19.0488 21.5444 18.7043 21.2006C17.9836 20.4813 17.9836 19.2172 18.7043 18.4926L19.7483 17.4506C18.434 17.5617 17.3953 18.6618 17.3953 20.0053C17.3953 21.4228 18.5453 22.5705 19.9656 22.5705C21.3858 22.5705 22.4881 21.4704 22.5305 20.0899L21.4123 21.2059L21.4176 21.2006Z" fill="url(#paint0_linear_8345_54778)"/>
<path d="M25.1007 17.5247C25.4663 18.2757 25.6677 19.1167 25.6677 20C25.6677 23.1417 23.1134 25.6858 19.9709 25.6858C16.8283 25.6858 14.274 23.1365 14.274 20C14.274 16.8635 16.8283 14.3142 19.9709 14.3142C20.8294 14.3142 21.6402 14.5046 22.3662 14.8431L24.6714 12.5423C23.3095 11.6855 21.6985 11.1883 19.9709 11.1883C15.0954 11.1883 11.142 15.134 11.142 20C11.142 24.866 15.0954 28.8117 19.9709 28.8117C24.8463 28.8117 28.7997 24.866 28.7997 20C28.7997 18.244 28.2856 16.6044 27.3953 15.2292L25.1007 17.5194V17.5247Z" fill="url(#paint1_linear_8345_54778)"/>
<path d="M31.2692 14.055L30.098 13.7747C31.2162 15.5836 31.8627 17.7204 31.8627 20.0053C31.8627 26.5638 26.5368 31.8847 19.9603 31.8847C13.3837 31.8847 8.06836 26.5638 8.06836 20C8.06836 13.4362 13.3943 8.12588 19.9709 8.12588C22.2072 8.12588 24.3005 8.74471 26.0864 9.81312L25.8055 8.66008L27.4854 6.98343C25.2915 5.71932 22.7477 5 20.0344 5C11.7038 5 5 11.6908 5 20C5 28.3092 11.7038 35 20.0291 35C25.9804 35 31.1155 31.4986 33.5586 26.5004C34.3747 24.7496 34.8728 22.8773 35 20.8145V20C35 17.2179 34.2475 14.6157 32.9385 12.3889L31.2692 14.055Z" fill="url(#paint2_linear_8345_54778)"/>
<path d="M34.6238 9.43766L31.3064 8.62313L30.4903 5.24866L26.7966 8.93519L27.3371 11.146L19.3403 19.1274C18.964 19.5029 18.964 20.1905 19.3403 20.566C19.7166 20.9415 20.4055 20.9415 20.7817 20.566L28.821 12.5424L30.9937 13.066L34.6238 9.44294V9.43766Z" fill="url(#paint3_linear_8345_54778)"/>
</g>
<defs>
<linearGradient id="paint0_linear_8345_54778" x1="20" y1="5" x2="20" y2="35" gradientUnits="userSpaceOnUse">
<stop stop-color="#F8E889"/>
<stop offset="1" stop-color="#E4B764"/>
</linearGradient>
<linearGradient id="paint1_linear_8345_54778" x1="20" y1="5" x2="20" y2="35" gradientUnits="userSpaceOnUse">
<stop stop-color="#F8E889"/>
<stop offset="1" stop-color="#E4B764"/>
</linearGradient>
<linearGradient id="paint2_linear_8345_54778" x1="20" y1="5" x2="20" y2="35" gradientUnits="userSpaceOnUse">
<stop stop-color="#F8E889"/>
<stop offset="1" stop-color="#E4B764"/>
</linearGradient>
<linearGradient id="paint3_linear_8345_54778" x1="20" y1="5" x2="20" y2="35" gradientUnits="userSpaceOnUse">
<stop stop-color="#F8E889"/>
<stop offset="1" stop-color="#E4B764"/>
</linearGradient>
<clipPath id="clip0_8345_54778">
<rect width="30" height="30" fill="white" transform="translate(5 5)"/>
</clipPath>
</defs>
</svg>
