<svg xmlns="http://www.w3.org/2000/svg" width="26" height="26" fill="none"><path fill="url(#a)" d="M25.5 13C25.5 6.096 19.904.5 13 .5S.5 6.096.5 13 6.096 25.5 13 25.5 25.5 19.904 25.5 13m-23.504.735h2.359A8.64 8.64 0 0 0 6.37 18.59l-1.668 1.668a11 11 0 0 1-2.706-6.523m2.706-7.993L6.37 7.41a8.64 8.64 0 0 0-2.015 4.855h-2.36a11 11 0 0 1 2.707-6.523m19.302 6.523h-2.359A8.64 8.64 0 0 0 19.63 7.41l1.668-1.668a11 11 0 0 1 2.706 6.523M13 20.205c-3.973 0-7.206-3.232-7.206-7.205S9.027 5.794 13 5.794 20.206 9.027 20.206 13 16.973 20.206 13 20.206M18.59 6.37a8.64 8.64 0 0 0-4.855-2.015v-2.36a11 11 0 0 1 6.523 2.707zm-6.325-2.015A8.64 8.64 0 0 0 7.41 6.37L5.742 4.702a11 11 0 0 1 6.523-2.706zM7.41 19.63a8.64 8.64 0 0 0 4.855 2.015v2.36a11 11 0 0 1-6.523-2.707zm6.325 2.015a8.64 8.64 0 0 0 4.855-2.015l1.668 1.668a11 11 0 0 1-6.523 2.706zm5.895-3.055a8.64 8.64 0 0 0 2.015-4.855h2.36a11 11 0 0 1-2.707 6.523z"/><path fill="url(#b)" d="M13.856 12.265h-1.712a.803.803 0 1 1 .006-1.605l1.643.012c.396.003.76.204.973.537l.008.014a.735.735 0 0 0 1.24-.792l-.01-.014c-.458-.717-1.237-1.209-2.269-1.216v-.768a.735.735 0 0 0-1.47 0v.757c-1.488-.011-2.394 1.097-2.394 2.272a2.276 2.276 0 0 0 2.273 2.273h1.712a.803.803 0 1 1-.006 1.605l-1.792-.013a1.16 1.16 0 0 1-.887-.42.735.735 0 1 0-1.13.942 2.63 2.63 0 0 0 2.006.949l.218.001v.768a.735.735 0 1 0 1.47 0v-.757c1.472.01 2.394-1.08 2.394-2.272a2.276 2.276 0 0 0-2.273-2.273"/><defs><linearGradient id="a" x1="13" x2="13" y1=".5" y2="25.5" gradientUnits="userSpaceOnUse"><stop stop-color="#F8E889"/><stop offset="1" stop-color="#E4B764"/></linearGradient><linearGradient id="b" x1="13" x2="13" y1=".5" y2="25.5" gradientUnits="userSpaceOnUse"><stop stop-color="#F8E889"/><stop offset="1" stop-color="#E4B764"/></linearGradient></defs></svg>