<svg xmlns="http://www.w3.org/2000/svg" width="25" height="25" fill="none"><path fill="url(#a)" d="M4.297 3.516v15.43a.976.976 0 1 1-1.953 0V7.421H.78v11.523a2.54 2.54 0 0 0 2.54 2.54h18.36a2.54 2.54 0 0 0 2.539-2.54V3.515zm18.36 15.43a.977.977 0 0 1-.977.976H5.664c.13-.31.196-.641.195-.977V5.078h16.797z"/><path fill="url(#b)" d="M14.453 6.64H7.422v7.813h7.031zm-1.562 6.25H8.984V8.204h3.907z"/><path fill="url(#c)" d="M16.016 6.64h5.078v1.563h-5.078z"/><path fill="url(#d)" d="M16.016 9.766h5.078v1.562h-5.078z"/><path fill="url(#e)" d="M16.016 12.89h5.078v1.563h-5.078z"/><defs><linearGradient id="a" x1="12.5" x2="12.5" y1="3.516" y2="21.484" gradientUnits="userSpaceOnUse"><stop stop-color="#F8E889"/><stop offset="1" stop-color="#E4B764"/></linearGradient><linearGradient id="b" x1="12.5" x2="12.5" y1="3.516" y2="21.484" gradientUnits="userSpaceOnUse"><stop stop-color="#F8E889"/><stop offset="1" stop-color="#E4B764"/></linearGradient><linearGradient id="c" x1="12.5" x2="12.5" y1="3.516" y2="21.484" gradientUnits="userSpaceOnUse"><stop stop-color="#F8E889"/><stop offset="1" stop-color="#E4B764"/></linearGradient><linearGradient id="d" x1="12.5" x2="12.5" y1="3.516" y2="21.484" gradientUnits="userSpaceOnUse"><stop stop-color="#F8E889"/><stop offset="1" stop-color="#E4B764"/></linearGradient><linearGradient id="e" x1="12.5" x2="12.5" y1="3.516" y2="21.484" gradientUnits="userSpaceOnUse"><stop stop-color="#F8E889"/><stop offset="1" stop-color="#E4B764"/></linearGradient></defs></svg>