<svg xmlns="http://www.w3.org/2000/svg" width="22" height="26" fill="none"><path fill="url(#a)" d="M10.822 12.543c1.654 0 3.087-.594 4.257-1.764 1.17-1.171 1.764-2.603 1.764-4.258s-.593-3.086-1.764-4.257C13.91 1.094 12.476.5 10.822.5c-1.655 0-3.087.593-4.258 1.764C5.394 3.434 4.8 4.867 4.8 6.52c0 1.655.594 3.087 1.764 4.258 1.171 1.17 2.604 1.764 4.258 1.764M7.6 3.3c.898-.898 1.951-1.335 3.22-1.335s2.324.437 3.222 1.335 1.335 1.952 1.335 3.221-.437 2.323-1.335 3.222c-.898.898-1.952 1.335-3.221 1.335S8.499 10.64 7.6 9.743C6.702 8.844 6.265 7.79 6.265 6.52s.437-2.323 1.336-3.221"/><path fill="url(#b)" d="M21.358 19.724a15 15 0 0 0-.203-1.58 12.5 12.5 0 0 0-.388-1.588 8 8 0 0 0-.653-1.481 5.6 5.6 0 0 0-.985-1.283 4.3 4.3 0 0 0-1.414-.89 4.9 4.9 0 0 0-1.806-.326c-.255 0-.502.105-.978.415-.293.191-.637.413-1.02.658-.327.208-.77.404-1.319.58a5.2 5.2 0 0 1-1.613.261 5.2 5.2 0 0 1-1.614-.26c-.547-.177-.99-.373-1.318-.581q-.571-.366-1.02-.658c-.476-.31-.723-.415-.978-.415-.65 0-1.258.11-1.806.327a4.3 4.3 0 0 0-1.414.889 5.6 5.6 0 0 0-.984 1.283 8 8 0 0 0-.653 1.481 12.5 12.5 0 0 0-.389 1.588c-.1.56-.168 1.092-.202 1.58-.033.478-.05.975-.05 1.477 0 1.305.415 2.361 1.233 3.14.808.77 1.877 1.159 3.177 1.159h12.037c1.3 0 2.37-.39 3.177-1.159.819-.778 1.233-1.835 1.233-3.14 0-.504-.017-1.001-.05-1.477m-2.193 3.556c-.534.508-1.242.755-2.167.755H4.961c-.925 0-1.634-.247-2.167-.755-.524-.498-.778-1.179-.778-2.08 0-.468.015-.93.046-1.374.03-.436.092-.915.183-1.423.09-.502.205-.974.342-1.4.13-.41.31-.814.531-1.205a4.1 4.1 0 0 1 .724-.948 2.9 2.9 0 0 1 .94-.585 3.4 3.4 0 0 1 1.154-.223c.052.028.143.08.291.176.301.197.648.42 1.032.666.433.275.99.525 1.656.74.68.22 1.375.331 2.064.331s1.384-.111 2.064-.331c.666-.216 1.224-.465 1.657-.74.392-.252.73-.47 1.031-.666.148-.096.24-.148.29-.175.422.01.81.086 1.155.222.373.148.69.345.94.585.27.257.512.576.724.948.222.39.4.796.532 1.205.136.427.251.898.341 1.4.091.51.153.988.183 1.423.031.442.047.905.047 1.375 0 .9-.254 1.58-.778 2.079"/><defs><linearGradient id="a" x1="10.98" x2="10.98" y1=".5" y2="25.5" gradientUnits="userSpaceOnUse"><stop stop-color="#F8E889"/><stop offset="1" stop-color="#E4B764"/></linearGradient><linearGradient id="b" x1="10.98" x2="10.98" y1=".5" y2="25.5" gradientUnits="userSpaceOnUse"><stop stop-color="#F8E889"/><stop offset="1" stop-color="#E4B764"/></linearGradient></defs></svg>