<svg xmlns="http://www.w3.org/2000/svg" width="24" height="24" fill="none"><g clip-path="url(#a)"><path fill="url(#b)" d="M18.155 6.437h-1.77v.988h1.252v5.46c0 2.742-2.16 5.027-4.988 5.318-.024 0-.048 0-.042.006h-.024l-.03.005h-.048c-.175.017-.33.023-.493.023a9 9 0 0 1-.596-.028 5.73 5.73 0 0 1-3.604-1.735 5.18 5.18 0 0 1-1.444-3.583v-5.46h1.245v-.988H5.85c-.282 0-.517.222-.517.49v5.952c0 3.17 2.497 5.872 5.8 6.277l.042.006v2.993H9.081a1 1 0 0 0-.685.27.9.9 0 0 0-.283.65.9.9 0 0 0 .283.65 1 1 0 0 0 .685.269h5.83a1 1 0 0 0 .686-.27.9.9 0 0 0 .283-.65.9.9 0 0 0-.283-.65 1 1 0 0 0-.685-.27h-2.094v-2.992l.042-.006c3.31-.405 5.806-3.107 5.806-6.277V6.928a.46.46 0 0 0-.146-.349.5.5 0 0 0-.365-.142"/><path fill="url(#c)" d="M12.006 16.998c2.376 0 4.308-1.834 4.308-4.096V4.09c0-1.01-.391-1.981-1.101-2.724V5.22c0 .109-.09.189-.199.189a.195.195 0 0 1-.198-.189V.988A4.3 4.3 0 0 0 13.24.171c-.013-.005-.031-.005-.043-.011v5.055c0 .108-.09.188-.199.188-.108 0-.198-.086-.198-.188V.069c-.042-.006-.084-.018-.127-.023a4.7 4.7 0 0 0-1.348.006c-.041.005-.083.017-.126.022V5.22c0 .109-.09.189-.198.189s-.199-.086-.199-.189V.166c-.012.005-.024.005-.036.011A4.2 4.2 0 0 0 9.19 1v4.226c0 .109-.09.189-.199.189a.19.19 0 0 1-.198-.189V1.371a3.92 3.92 0 0 0-1.101 2.724v8.813c.006 2.25 1.937 4.09 4.314 4.09"/></g><defs><linearGradient id="b" x1="12" x2="12" y1="0" y2="24" gradientUnits="userSpaceOnUse"><stop stop-color="#5C5C5C"/><stop offset="1"/></linearGradient><linearGradient id="c" x1="12" x2="12" y1="0" y2="24" gradientUnits="userSpaceOnUse"><stop stop-color="#5C5C5C"/><stop offset="1"/></linearGradient><clipPath id="a"><path fill="#fff" d="M0 0h24v24H0z"/></clipPath></defs></svg>