<svg xmlns="http://www.w3.org/2000/svg" width="30" height="30" fill="none"><g clip-path="url(#a)"><path fill="url(#b)" fill-rule="evenodd" d="M7.259 27.333C4.515 27.333 3 25.74 3 22.853v-9.707c0-2.885 1.515-4.48 4.259-4.48H22.78c2.743 0 4.219 1.595 4.219 4.48v9.707c0 2.886-1.476 4.48-4.219 4.48zm1.99-4.1c-1.646 0-2.985-1.408-2.985-3.14v-4.187c0-1.731 1.339-3.14 2.985-3.14s2.985 1.409 2.985 3.14v4.187c0 1.732-1.34 3.14-2.985 3.14m0-8.373c-.549 0-.995.47-.995 1.047v4.186c0 .577.446 1.047.995 1.047s.995-.47.995-1.047v-4.187c0-.577-.447-1.046-.995-1.046m6.766 1.047c0 .578-.446 1.046-.995 1.046-.55 0-.995-.468-.995-1.046s.445-1.047.995-1.047.995.468.995 1.047m0 4.186c0 .578-.446 1.047-.995 1.047-.55 0-.995-.469-.995-1.047s.445-1.046.995-1.046.995.468.995 1.046m1.791 0c0 1.732 1.34 3.14 2.985 3.14 1.646 0 2.985-1.408 2.985-3.14v-4.187c0-1.731-1.339-3.14-2.985-3.14s-2.985 1.409-2.985 3.14zm1.99-4.187c0-.577.446-1.046.995-1.046s.995.47.995 1.047v4.186c0 .577-.446 1.047-.995 1.047s-.995-.47-.995-1.047z" clip-rule="evenodd"/></g><defs><linearGradient id="b" x1="15" x2="15" y1="8.666" y2="27.333" gradientUnits="userSpaceOnUse"><stop stop-color="#5C5C5C"/><stop offset="1"/></linearGradient><clipPath id="a"><path fill="#fff" d="M3 6h24v24H3z"/></clipPath></defs></svg>