<svg xmlns="http://www.w3.org/2000/svg" width="20" height="21" fill="none"><g clip-path="url(#a)"><path fill="#F8E889" d="m19.361 18.967-4.76-4.95a8.05 8.05 0 0 0 1.894-5.192C16.496 4.373 12.874.75 8.42.75S.345 4.373.345 8.825c0 4.453 3.623 8.075 8.075 8.075a8 8 0 0 0 4.627-1.461l4.796 4.988c.2.208.47.323.759.323a1.054 1.054 0 0 0 .759-1.783M8.421 2.857a5.975 5.975 0 0 1 5.968 5.968 5.975 5.975 0 0 1-5.969 5.969 5.975 5.975 0 0 1-5.968-5.969A5.975 5.975 0 0 1 8.42 2.857"/></g><defs><clipPath id="a"><path fill="#fff" d="M0 .75h20v20H0z"/></clipPath></defs></svg>