<svg width="24" height="24" viewBox="0 0 24 24" fill="none" xmlns="http://www.w3.org/2000/svg">
<g clip-path="url(#clip0_1571_11040)">
<path fill-rule="evenodd" clip-rule="evenodd" d="M20.2435 1.35785C21.7322 0.836816 23.1632 2.26781 22.6422 3.75648L16.4356 21.4894C15.8724 23.0986 13.6311 23.19 12.9387 21.632L9.7459 14.4483C9.70744 14.3618 9.63826 14.2926 9.55174 14.2541L2.36797 11.0613C0.81001 10.3689 0.901447 8.12758 2.51063 7.56437L20.2435 1.35785ZM22.0303 3.03032C22.3232 2.73743 22.3232 2.26255 22.0303 1.96966C21.7374 1.67677 21.2626 1.67677 20.9697 1.96966L9.96967 12.9697C9.67678 13.2626 9.67678 13.7374 9.96967 14.0303C10.2626 14.3232 10.7374 14.3232 11.0303 14.0303L22.0303 3.03032Z" fill="url(#paint0_linear_1571_11040)"/>
</g>
<defs>
<linearGradient id="paint0_linear_1571_11040" x1="12.0008" y1="1.24854" x2="12.0008" y2="22.75" gradientUnits="userSpaceOnUse">
<stop stop-color="#F8E889"/>
<stop offset="1" stop-color="#E4B764"/>
</linearGradient>
<clipPath id="clip0_1571_11040">
<rect width="24" height="24" fill="white"/>
</clipPath>
</defs>
</svg>
