<svg xmlns="http://www.w3.org/2000/svg" width="24" height="24" fill="none"><g clip-path="url(#a)"><path fill="url(#b)" d="m15.825 16.053 7.124-6.942q.384-.374.384-.887t-.384-.888L15.825.395q-.607-.612-1.397-.276-.81.335-.81 1.163v3.155q-2.408 0-4.37.385-1.964.384-3.29 1.006a8.6 8.6 0 0 0-2.306 1.558q-.981.936-1.549 1.883a8.7 8.7 0 0 0-.9 2.15 13.3 13.3 0 0 0-.435 2.198 22 22 0 0 0-.101 2.18q0 3.569 3.38 7.966a.68.68 0 0 0 .505.237q.142 0 .263-.06.445-.176.385-.65-.891-6.98 1.255-9.328.93-1.025 2.63-1.489 1.7-.463 4.534-.463v3.155q0 .829.81 1.164a1.28 1.28 0 0 0 1.396-.276"/></g><defs><linearGradient id="b" x1="12" x2="12" y1="0" y2="24" gradientUnits="userSpaceOnUse"><stop stop-color="#5C5C5C"/><stop offset="1"/></linearGradient><clipPath id="a"><path fill="#fff" d="M0 0h24v24H0z"/></clipPath></defs></svg>