<svg xmlns="http://www.w3.org/2000/svg" width="23" height="24" fill="none"><path fill="url(#a)" d="m15.101 15.899 6.99-6.875q.377-.371.377-.88 0-.506-.377-.878L15.1.391q-.596-.606-1.37-.273-.794.33-.794 1.152v3.125q-2.362 0-4.29.38-1.925.382-3.226.997a8.4 8.4 0 0 0-2.264 1.543q-.963.927-1.519 1.865a8.7 8.7 0 0 0-.883 2.129 13.3 13.3 0 0 0-.427 2.178q-.1.986-.1 2.158 0 3.535 3.317 7.89a.66.66 0 0 0 .496.235q.14 0 .258-.059.437-.176.377-.644-.873-6.915 1.232-9.238.913-1.017 2.58-1.475 1.67-.46 4.449-.46v3.126q0 .82.794 1.152a1.25 1.25 0 0 0 1.37-.273"/><defs><linearGradient id="a" x1="11.348" x2="11.348" y1="0" y2="23.77" gradientUnits="userSpaceOnUse"><stop stop-color="#F8E889"/><stop offset="1" stop-color="#E4B764"/></linearGradient></defs></svg>