<svg xmlns="http://www.w3.org/2000/svg" width="25" height="25" fill="none"><path fill="url(#a)" d="m10.245 10.43 4.053-2.562v9.264l-4.053-2.563zM25 12.5C25 19.393 19.392 25 12.5 25S0 19.393 0 12.5 5.608 0 12.5 0 25 5.608 25 12.5m-9.53-5.695a.586.586 0 0 0-.9-.495L9.49 9.522H6.497A1.3 1.3 0 0 0 5.2 10.82v3.36a1.3 1.3 0 0 0 1.298 1.298h2.991l5.082 3.213a.586.586 0 0 0 .899-.496zM17 14.54c.492-.548.762-1.273.762-2.04s-.27-1.492-.761-2.04a.586.586 0 1 0-.873.782c.621.694.621 1.822 0 2.516a.586.586 0 1 0 .873.782m2.8-2.04c0-1.307-.459-2.54-1.292-3.47a.586.586 0 1 0-.873.782c1.328 1.482 1.328 3.894 0 5.376a.586.586 0 0 0 .873.782c.833-.93 1.292-2.163 1.292-3.47M6.372 10.82v3.36c0 .068.058.126.126.126h2.575v-3.612H6.498a.13.13 0 0 0-.126.126"/><defs><linearGradient id="a" x1="12.5" x2="12.5" y1="0" y2="25" gradientUnits="userSpaceOnUse"><stop stop-color="#F8E889"/><stop offset="1" stop-color="#E4B764"/></linearGradient></defs></svg>