<svg width="40" height="40" viewBox="0 0 40 40" fill="none" xmlns="http://www.w3.org/2000/svg">
<g clip-path="url(#clip0_8345_54767)">
<path d="M13.7657 12.0547V18.8516L13.7423 18.875C13.1564 19.4141 12.8048 20.1641 12.7579 20.9609C12.7579 21.125 12.7579 21.2891 12.7814 21.4766L10.7657 23.1641V12.0547H13.7657Z" fill="url(#paint0_linear_8345_54767)"/>
<path d="M10.7892 27.0313L13.7657 24.5469V33.5H10.7892V27.0313Z" fill="url(#paint1_linear_8345_54767)"/>
<path d="M19.1095 15.9687V21.1016L18.7814 20.9141C18.7345 20.2344 18.4767 19.5781 18.0079 19.0859C17.5157 18.5469 16.8595 18.2188 16.1329 18.125V15.9687H19.1095ZM17.4689 23.5859L19.1095 24.5234V33.4766H16.1329V24.0781C16.6017 24.0313 17.0704 23.8672 17.4689 23.5859ZM24.4298 6.5V22.7422C23.8907 22.8125 23.3985 23.0234 22.9767 23.3281L21.4532 22.4375V6.5H24.4298ZM24.4298 28.7187V33.5H21.4532V25.9062L21.8048 26.1172C21.9923 27.4531 23.0704 28.5547 24.4298 28.7187Z" fill="url(#paint2_linear_8345_54767)"/>
<path d="M29.7735 15.9687V19.8594L26.797 22.5078V15.9687H29.7735Z" fill="url(#paint3_linear_8345_54767)"/>
<path d="M27.8048 25.6016L29.7735 23.8438V33.5H26.797V27.9922C27.3829 27.4766 27.7814 26.7266 27.8048 25.8828C27.8282 25.7891 27.8282 25.6953 27.8048 25.6016Z" fill="url(#paint4_linear_8345_54767)"/>
<path d="M34.3907 17.5859C34.3204 17.5156 34.2501 17.4922 34.1564 17.5156L30.8517 18.2422C30.7345 18.2656 30.6642 18.3594 30.6642 18.4531C30.6407 18.5703 30.711 18.6641 30.8048 18.7109L32.0001 19.2266L31.8126 19.3906L26.2579 24.3125C25.9064 23.9609 25.4142 23.7266 24.8985 23.7031C24.1954 23.6797 23.5392 24.0078 23.1407 24.5703L17.7735 21.4531C17.797 21.3594 17.797 21.2656 17.797 21.1953C17.8204 20.6563 17.6329 20.1406 17.2579 19.7422C16.8829 19.3438 16.3907 19.1094 15.8517 19.0859C15.3126 19.0625 14.797 19.25 14.3985 19.625C14.0001 20 13.7657 20.4922 13.7423 21.0313C13.7423 21.3125 13.7892 21.5938 13.8829 21.8516L8.75011 26.1406C8.42198 25.9062 8.07042 25.7891 7.67198 25.7656C6.54698 25.7188 5.58604 26.5859 5.53917 27.7109C5.49229 28.8359 6.35948 29.7734 7.48448 29.8203H7.57823C8.09386 29.8203 8.56261 29.6328 8.93761 29.2813C9.33604 28.9063 9.57042 28.4141 9.59386 27.875C9.61729 27.5469 9.54698 27.1953 9.40636 26.9141L14.4689 22.6484C14.8204 22.9297 15.2423 23.0938 15.6642 23.1172C16.297 23.1406 16.9064 22.8828 17.3282 22.3906L22.7657 25.5313C22.7657 25.5781 22.7657 25.6016 22.7657 25.6484C22.7189 26.7734 23.586 27.7109 24.711 27.7578C25.836 27.8047 26.797 26.9375 26.8439 25.8125C26.8439 25.6016 26.8204 25.4141 26.7735 25.2031L32.4923 20.1406L32.7267 19.9297L33.2657 21.1484C33.3126 21.2422 33.4064 21.3125 33.5235 21.2891C33.6407 21.2891 33.7345 21.1953 33.7345 21.1016L34.4376 17.7969C34.4845 17.7266 34.461 17.6328 34.3907 17.5859ZM7.53136 28.8125C6.96886 28.7891 6.54698 28.3203 6.57042 27.7578C6.59386 27.1953 7.06261 26.7734 7.62511 26.7969C7.81261 26.7969 7.97667 26.8672 8.11729 26.9375C8.30479 27.0547 8.42198 27.2188 8.51573 27.4063C8.56261 27.5469 8.60948 27.6875 8.58604 27.8281C8.56261 28.3906 8.09386 28.8359 7.53136 28.8125ZM16.7892 21.1484C16.7657 21.3594 16.6954 21.5469 16.5782 21.7109C16.3907 21.9688 16.0626 22.1094 15.7345 22.1094C15.5001 22.0859 15.2892 22.0156 15.1251 21.875C14.961 21.7344 14.8439 21.5469 14.797 21.3359C14.7735 21.2422 14.7735 21.1484 14.7735 21.0547C14.797 20.4922 15.2657 20.0703 15.8282 20.0938C16.3673 20.1172 16.7892 20.5625 16.7892 21.125V21.1484ZM25.8126 25.8125C25.7657 26.3516 25.3204 26.7734 24.7579 26.75C24.2657 26.7266 23.8907 26.375 23.8204 25.9062C23.797 25.8359 23.797 25.7656 23.797 25.6953C23.797 25.5313 23.8439 25.3906 23.9142 25.25C24.1017 24.9219 24.4532 24.7109 24.8517 24.7344C25.1798 24.7578 25.461 24.9219 25.6251 25.1563C25.7657 25.3203 25.836 25.5547 25.8126 25.8125Z" fill="url(#paint5_linear_8345_54767)"/>
</g>
<defs>
<linearGradient id="paint0_linear_8345_54767" x1="19.9997" y1="6.5" x2="19.9997" y2="33.5" gradientUnits="userSpaceOnUse">
<stop stop-color="#F8E889"/>
<stop offset="1" stop-color="#E4B764"/>
</linearGradient>
<linearGradient id="paint1_linear_8345_54767" x1="19.9997" y1="6.5" x2="19.9997" y2="33.5" gradientUnits="userSpaceOnUse">
<stop stop-color="#F8E889"/>
<stop offset="1" stop-color="#E4B764"/>
</linearGradient>
<linearGradient id="paint2_linear_8345_54767" x1="19.9997" y1="6.5" x2="19.9997" y2="33.5" gradientUnits="userSpaceOnUse">
<stop stop-color="#F8E889"/>
<stop offset="1" stop-color="#E4B764"/>
</linearGradient>
<linearGradient id="paint3_linear_8345_54767" x1="19.9997" y1="6.5" x2="19.9997" y2="33.5" gradientUnits="userSpaceOnUse">
<stop stop-color="#F8E889"/>
<stop offset="1" stop-color="#E4B764"/>
</linearGradient>
<linearGradient id="paint4_linear_8345_54767" x1="19.9997" y1="6.5" x2="19.9997" y2="33.5" gradientUnits="userSpaceOnUse">
<stop stop-color="#F8E889"/>
<stop offset="1" stop-color="#E4B764"/>
</linearGradient>
<linearGradient id="paint5_linear_8345_54767" x1="19.9997" y1="6.5" x2="19.9997" y2="33.5" gradientUnits="userSpaceOnUse">
<stop stop-color="#F8E889"/>
<stop offset="1" stop-color="#E4B764"/>
</linearGradient>
<clipPath id="clip0_8345_54767">
<rect width="30" height="30" fill="white" transform="translate(5 5)"/>
</clipPath>
</defs>
</svg>
