<svg xmlns="http://www.w3.org/2000/svg" width="30" height="30" fill="none"><g clip-path="url(#a)"><path fill="url(#b)" d="M5.232 19.442c-.224.228-.526.36-.836.367l-3.107.065c-.082.002-.163-.008-.245-.012a.87.87 0 0 0-.512.153.92.92 0 0 0-.375.554.01.01 0 0 1-.008.007.01.01 0 0 0-.009.009L0 24.295q.001.012.013.013.011 0 .013.01c.034.16.112.305.226.415a.76.76 0 0 0 .412.204.016.016 0 0 1 .014.017q.001.016.017.017l5.524-.116q.01-.001.01-.011.003-.01.011-.01c.507-.021.958-.3 1.24-.712.063-.093.129-.186.208-.266l2.657-2.71c.442-.45.468-1.15.06-1.582l-1.807-1.913c-.431-.457-1.178-.442-1.644.034z"/><path fill="url(#c)" d="m29.86 8.612-5.908-4.37a.4.4 0 0 0-.208-.075.4.4 0 0 0-.222.053.46.46 0 0 0-.24.393l-.028.759a1.225 1.225 0 0 1-1.184 1.165l-3.725.078-.005.005-.005.004a1.56 1.56 0 0 0-.914.402q-.003.003-.007 0h-.007l-2.8 2.855c-.442.45-.469 1.149-.06 1.581l1.807 1.914c.431.457 1.178.441 1.644-.034l1.287-1.313c.224-.228.526-.36.836-.367l1.76-.038a1.063 1.063 0 0 1 1.098 1.117l-.034.896a.41.41 0 0 0 .214.384.41.41 0 0 0 .439-.042l6.238-4.656c.113-.084.158-.217.164-.358.005-.141-.031-.273-.14-.353"/><path fill="url(#d)" d="m29.371 20.944-5.896-4.399a.4.4 0 0 0-.21-.076.4.4 0 0 0-.226.052.47.47 0 0 0-.243.393l-.034.897a1.225 1.225 0 0 1-1.184 1.164l-1.76.038a1.08 1.08 0 0 1-.81-.333L8.288 7.325a1.6 1.6 0 0 1-.189-.259c-.25-.4-.681-.66-1.186-.66a.01.01 0 0 1-.01-.01.01.01 0 0 0-.01-.01l-5.525.117a.02.02 0 0 0-.018.017.02.02 0 0 1-.015.018.87.87 0 0 0-.428.222.93.93 0 0 0-.257.425.02.02 0 0 1-.014.011.015.015 0 0 0-.015.015l-.14 3.708q0 .008.008.009t.009.007q.026.165.11.304a.77.77 0 0 0 .52.357.8.8 0 0 0 .204.01c.082-.008.164-.021.247-.023l3.106-.066c.31-.006.603.114.81.333L16.75 23.77q.003.005.007 0h.007c.242.223.554.351.886.364q.003 0 .004.004 0 .005.005.005l3.725-.079a1.063 1.063 0 0 1 1.098 1.117l-.029.758a.41.41 0 0 0 .21.384.4.4 0 0 0 .218.044.4.4 0 0 0 .214-.084l6.25-4.627c.113-.084.16-.217.164-.359v-.001c.006-.14-.03-.273-.137-.352"/></g><defs><linearGradient id="b" x1="15" x2="15" y1="4.167" y2="26.369" gradientUnits="userSpaceOnUse"><stop stop-color="#5C5C5C"/><stop offset="1"/></linearGradient><linearGradient id="c" x1="15" x2="15" y1="4.167" y2="26.369" gradientUnits="userSpaceOnUse"><stop stop-color="#5C5C5C"/><stop offset="1"/></linearGradient><linearGradient id="d" x1="15" x2="15" y1="4.167" y2="26.369" gradientUnits="userSpaceOnUse"><stop stop-color="#5C5C5C"/><stop offset="1"/></linearGradient><clipPath id="a"><path fill="#fff" d="M0 0h30v30H0z"/></clipPath></defs></svg>