<svg width="40" height="40" viewBox="0 0 40 40" fill="none" xmlns="http://www.w3.org/2000/svg">
<g clip-path="url(#clip0_8345_54735)">
<g clip-path="url(#clip1_8345_54735)">
<path d="M26.7733 5C31.9467 5 35 8.30766 35 13.9697H28.6533V14.0274C25.7078 14.0274 23.32 16.6141 23.32 19.805C23.32 22.9959 25.7078 25.5826 28.6533 25.5826H35V26.1026C35 31.6923 31.9467 35 26.7733 35H13.2267C8.05333 35 5 31.6923 5 26.1026V13.8974C5 8.30766 8.05333 5 13.2267 5H26.7733ZM33.88 16.454C34.4986 16.454 35 16.9972 35 17.6673V21.8849C34.9928 22.5518 34.4956 23.0904 33.88 23.0982H28.7733C27.2822 23.12 25.9782 22.014 25.64 20.4405C25.4706 19.4638 25.7084 18.4559 26.2896 17.687C26.8708 16.9181 27.736 16.4668 28.6533 16.454H33.88ZM29.3733 18.4039H28.88C28.5771 18.4001 28.2854 18.5277 28.07 18.7584C27.8545 18.9891 27.7333 19.3035 27.7333 19.6317C27.7333 20.3201 28.2446 20.8804 28.88 20.8883H29.3733C30.0066 20.8883 30.52 20.3322 30.52 19.6461C30.52 18.9601 30.0066 18.4039 29.3733 18.4039ZM20.5733 11.4853H12.1067C11.4786 11.4853 10.9673 12.0327 10.96 12.713C10.96 13.4015 11.4712 13.9618 12.1067 13.9697H20.5733C21.2066 13.9697 21.72 13.4135 21.72 12.7275C21.72 12.0415 21.2066 11.4853 20.5733 11.4853Z" fill="url(#paint0_linear_8345_54735)"/>
</g>
</g>
<defs>
<linearGradient id="paint0_linear_8345_54735" x1="20" y1="5" x2="20" y2="35" gradientUnits="userSpaceOnUse">
<stop stop-color="#F8E889"/>
<stop offset="1" stop-color="#E4B764"/>
</linearGradient>
<clipPath id="clip0_8345_54735">
<rect width="30" height="30" fill="white" transform="translate(5 5)"/>
</clipPath>
<clipPath id="clip1_8345_54735">
<rect width="30" height="30" fill="white" transform="translate(5 5)"/>
</clipPath>
</defs>
</svg>
