<svg width="20" height="18" viewBox="0 0 20 18" fill="none" xmlns="http://www.w3.org/2000/svg">
<path fill-rule="evenodd" clip-rule="evenodd" d="M8.01661 5.30455L8.66121 3H6.55387L7.21086 5.30455H7.99182H8.01661ZM13.099 5.28091L11.6363 3.78L10.2727 5.90727L10.8925 6.54545L13.099 5.28091ZM4.76882 5.93091L3.40525 3.78L1.9425 5.28091L4.17381 6.52182L4.76882 5.93091ZM7.22326 6.54545L2.38877 9.26364V10.0555C2.12845 10.6109 1.9425 11.2373 1.9425 11.8636C1.9425 14.1682 3.83911 16 6.19438 16C7.80588 16 9.16945 15.1255 9.91322 13.8727L13.223 15.2909L18.0575 12.5727V11.1782L7.22326 6.54545ZM6.80179 10.2682L4.99195 9.38182L8.01661 7.60909L9.87603 8.48364L6.80179 10.2564V10.2682Z" fill="#5C5C5C"/>
</svg>
