<svg xmlns="http://www.w3.org/2000/svg" width="17" height="19" fill="none"><path fill="url(#a)" fill-rule="evenodd" d="M12.125 13.645c0-.202.157-.366.351-.366h3.161a.36.36 0 0 1 .352.366.36.36 0 0 1-.352.366h-2.313l3.374 3.512-.496.517-3.375-3.512v2.408a.36.36 0 0 1-.35.365.36.36 0 0 1-.352-.365z" clip-rule="evenodd"/><path fill="url(#b)" fill-rule="evenodd" d="M4.866 5.366a.36.36 0 0 1-.353.364l-3.16-.008a.36.36 0 0 1-.351-.366c0-.202.158-.366.352-.365l2.313.006L.302 1.476.8.96l3.365 3.52.006-2.408c0-.202.158-.365.352-.365s.35.165.35.367z" clip-rule="evenodd"/><path fill="url(#c)" fill-rule="evenodd" d="M12.476 5.72a.36.36 0 0 1-.35-.365v-3.29c0-.203.156-.366.35-.366s.351.163.351.365v2.408L16.203.96l.496.517-3.374 3.512h2.313a.36.36 0 0 1 .352.366.36.36 0 0 1-.352.366z" clip-rule="evenodd"/><path fill="url(#d)" fill-rule="evenodd" d="M4.533 13.288c.194 0 .35.165.35.367l-.007 3.29a.36.36 0 0 1-.352.365.36.36 0 0 1-.35-.366l.005-2.408L.797 18.04l-.495-.518 3.381-3.505-2.313-.005a.36.36 0 0 1-.35-.367c0-.201.158-.365.352-.364z" clip-rule="evenodd"/><path fill="url(#e)" fill-rule="evenodd" d="m16.202.646.798.83-3.16 3.291h1.797c.312 0 .565.263.565.588a.576.576 0 0 1-.565.588h-3.16a.576.576 0 0 1-.565-.588v-3.29c0-.325.253-.588.564-.588.312 0 .565.263.565.587v1.872zM.8.646l3.153 3.299.005-1.872c0-.325.254-.587.566-.587a.577.577 0 0 1 .563.59l-.008 3.29a.576.576 0 0 1-.566.586l-3.161-.008a.577.577 0 0 1-.563-.589c0-.325.254-.587.566-.586l1.798.005L0 1.474zm-.197.83L4.182 5.22l-2.828-.007a.14.14 0 0 0-.139.143c0 .08.062.144.138.144l3.161.008a.14.14 0 0 0 .138-.143l.008-3.29a.14.14 0 0 0-.137-.145.14.14 0 0 0-.139.144l-.007 2.944L.8 1.274zm15.599-.202-3.588 3.734V2.064a.14.14 0 0 0-.138-.143.14.14 0 0 0-.138.143v3.291c0 .08.062.144.138.144h3.161a.14.14 0 0 0 .138-.144.14.14 0 0 0-.138-.144H12.81l3.588-3.734zm-4.29 12.371c0-.325.253-.588.564-.588h3.161c.312 0 .565.263.565.588a.576.576 0 0 1-.565.588H13.84l3.16 3.29-.798.831-3.161-3.29v1.872a.576.576 0 0 1-.565.587.576.576 0 0 1-.564-.587zm.564-.144a.14.14 0 0 0-.138.144v3.29c0 .08.062.144.138.144a.14.14 0 0 0 .138-.143v-2.944l3.588 3.734.195-.203-3.588-3.734h2.828a.14.14 0 0 0 .138-.144.14.14 0 0 0-.138-.144zm-11.67.144a.576.576 0 0 1 .566-.586l3.161.007a.58.58 0 0 1 .564.59l-.008 3.29a.576.576 0 0 1-.565.586.577.577 0 0 1-.564-.589l.005-1.872-3.168 3.283L0 17.521l3.168-3.283-1.798-.004a.577.577 0 0 1-.563-.589m.565-.142a.14.14 0 0 0-.138.143c0 .08.062.144.138.144l2.828.007-3.596 3.726.195.203L4.393 14l-.006 2.944c0 .08.061.144.138.144a.14.14 0 0 0 .138-.143l.007-3.29a.14.14 0 0 0-.138-.145z" clip-rule="evenodd"/><defs><linearGradient id="a" x1="8.5" x2="8.5" y1=".646" y2="18.354" gradientUnits="userSpaceOnUse"><stop stop-color="#F8E889"/><stop offset="1" stop-color="#E4B764"/></linearGradient><linearGradient id="b" x1="8.5" x2="8.5" y1=".646" y2="18.354" gradientUnits="userSpaceOnUse"><stop stop-color="#F8E889"/><stop offset="1" stop-color="#E4B764"/></linearGradient><linearGradient id="c" x1="8.5" x2="8.5" y1=".646" y2="18.354" gradientUnits="userSpaceOnUse"><stop stop-color="#F8E889"/><stop offset="1" stop-color="#E4B764"/></linearGradient><linearGradient id="d" x1="8.5" x2="8.5" y1=".646" y2="18.354" gradientUnits="userSpaceOnUse"><stop stop-color="#F8E889"/><stop offset="1" stop-color="#E4B764"/></linearGradient><linearGradient id="e" x1="8.5" x2="8.5" y1=".646" y2="18.354" gradientUnits="userSpaceOnUse"><stop stop-color="#F8E889"/><stop offset="1" stop-color="#E4B764"/></linearGradient></defs></svg>