<svg xmlns="http://www.w3.org/2000/svg" width="21" height="20" fill="none"><path fill="url(#a)" fill-rule="evenodd" d="M.763.68c0-.234.194-.423.434-.423H5.1c.24 0 .433.19.433.423a.43.43 0 0 1-.433.423H2.244L6.41 5.167l-.614.599L1.631 1.7v2.787a.43.43 0 0 1-.434.423.43.43 0 0 1-.434-.423z" clip-rule="evenodd"/><path fill="url(#b)" fill-rule="evenodd" d="M20.727 19.317a.43.43 0 0 1-.435.421l-3.903-.009a.43.43 0 0 1-.432-.424c0-.234.195-.423.435-.422l2.855.007-4.155-4.075.615-.596 4.155 4.074.007-2.786a.43.43 0 0 1 .435-.422c.24 0 .433.19.433.424z" clip-rule="evenodd"/><path fill="url(#c)" fill-rule="evenodd" d="M1.197 19.743a.43.43 0 0 1-.434-.423v-3.808c0-.233.194-.423.434-.423s.434.19.434.423V18.3l4.165-4.065.614.599-4.166 4.064H5.1c.24 0 .433.19.433.423a.43.43 0 0 1-.433.423z" clip-rule="evenodd"/><path fill="url(#d)" fill-rule="evenodd" d="M20.304.266c.24 0 .433.19.433.424l-.01 3.807a.43.43 0 0 1-.434.422.43.43 0 0 1-.433-.424l.007-2.786-4.175 4.055-.612-.6 4.175-4.055-2.856-.006a.43.43 0 0 1-.432-.424c0-.234.195-.423.434-.422z" clip-rule="evenodd"/><path fill="url(#e)" fill-rule="evenodd" d="M15.703.678A.69.69 0 0 1 16.402 0l3.903.009c.384 0 .696.306.695.681l-.009 3.808c0 .375-.314.68-.698.678a.69.69 0 0 1-.696-.681l.005-2.166-3.911 3.798-.984-.964 3.912-3.798-2.22-.005a.69.69 0 0 1-.696-.682m.698-.164a.17.17 0 0 0-.171.166c0 .091.076.166.17.166l3.492.008-4.44 4.311.24.236 4.44-4.312-.008 3.407c0 .092.076.166.17.166s.17-.074.17-.165l.01-3.808a.17.17 0 0 0-.17-.166zM1.197 0H5.1c.385 0 .697.304.697.68s-.312.68-.697.68H2.88l3.902 3.807-.986.962-3.902-3.807v2.166c0 .375-.312.68-.697.68a.69.69 0 0 1-.697-.68V.68C.5.304.812 0 1.197 0M5.1.514H1.197a.17.17 0 0 0-.17.166v3.808c0 .091.076.166.17.166s.17-.075.17-.166V1.08l4.43 4.321.24-.235L1.608.847H5.1c.094 0 .17-.075.17-.167A.17.17 0 0 0 5.1.514m10.608 13.341 3.893 3.817.005-2.166a.69.69 0 0 1 .699-.678.69.69 0 0 1 .695.682l-.01 3.807c0 .376-.314.68-.698.678l-3.903-.01a.69.69 0 0 1-.695-.68.69.69 0 0 1 .698-.68l2.22.006-3.892-3.816zm-9.912.016.986.962L2.88 18.64H5.1c.385 0 .697.305.697.68S5.485 20 5.1 20H1.197a.69.69 0 0 1-.697-.68v-3.808c0-.375.312-.68.697-.68s.697.305.697.68v2.166zm9.668.945 4.419 4.332-3.492-.008a.17.17 0 0 0-.17.165.167.167 0 0 0 .17.167l3.902.01c.094 0 .17-.074.17-.166l.01-3.808a.17.17 0 0 0-.17-.166.17.17 0 0 0-.17.165l-.009 3.407-4.418-4.332zm-9.668-.218-4.429 4.32v-3.406a.17.17 0 0 0-.17-.166.17.17 0 0 0-.17.166v3.808c0 .092.076.166.17.166H5.1c.094 0 .17-.074.17-.166a.17.17 0 0 0-.17-.166H1.608l4.43-4.321z" clip-rule="evenodd"/><defs><linearGradient id="a" x1="10.75" x2="10.75" y1="0" y2="20" gradientUnits="userSpaceOnUse"><stop stop-color="#F8E889"/><stop offset="1" stop-color="#E4B764"/></linearGradient><linearGradient id="b" x1="10.75" x2="10.75" y1="0" y2="20" gradientUnits="userSpaceOnUse"><stop stop-color="#F8E889"/><stop offset="1" stop-color="#E4B764"/></linearGradient><linearGradient id="c" x1="10.75" x2="10.75" y1="0" y2="20" gradientUnits="userSpaceOnUse"><stop stop-color="#F8E889"/><stop offset="1" stop-color="#E4B764"/></linearGradient><linearGradient id="d" x1="10.75" x2="10.75" y1="0" y2="20" gradientUnits="userSpaceOnUse"><stop stop-color="#F8E889"/><stop offset="1" stop-color="#E4B764"/></linearGradient><linearGradient id="e" x1="10.75" x2="10.75" y1="0" y2="20" gradientUnits="userSpaceOnUse"><stop stop-color="#F8E889"/><stop offset="1" stop-color="#E4B764"/></linearGradient></defs></svg>